<svg width="2000px" height="609px"
 viewBox="0.00 0.00 2241.48 682.18" xmlns="http://www.w3.org/2000/svg" xmlns:xlink="http://www.w3.org/1999/xlink">
<g id="graph0" class="graph" transform="scale(1.0 1.0) rotate(0) translate(4 678.18)">
<title>ContextMapGraph</title>
<polygon fill="white" stroke="transparent" points="-4,4 -4,-678.18 2237.48,-678.18 2237.48,4 -4,4"/>
<!-- AccountingContext -->
<g id="node1" class="node">
<title>AccountingContext</title>
<polygon fill="none" stroke="black" stroke-width="2" points="159.19,-525.06 150.03,-525.02 140.94,-524.86 131.96,-524.58 123.11,-524.18 114.45,-523.66 105.99,-523.02 97.78,-522.27 89.83,-521.4 82.2,-520.42 74.89,-519.33 67.94,-518.13 61.37,-516.83 55.19,-515.42 49.44,-513.92 44.12,-512.33 39.24,-510.66 34.82,-508.89 30.87,-507.05 27.39,-505.14 24.38,-503.16 21.85,-501.12 19.79,-499.02 18.2,-496.87 17.07,-494.67 16.4,-492.44 16.18,-490.18 16.39,-487.89 17.02,-485.58 18.06,-483.26 19.49,-480.93 21.3,-478.61 23.46,-476.29 25.96,-473.99 28.78,-471.71 31.91,-469.46 35.32,-467.24 38.99,-465.06 42.91,-462.93 47.06,-460.85 51.42,-458.82 55.97,-456.87 60.69,-454.98 65.58,-453.16 70.61,-451.43 75.78,-449.78 81.06,-448.22 86.45,-446.75 91.94,-445.38 97.52,-444.11 103.17,-442.94 108.9,-441.88 114.69,-440.93 120.53,-440.09 126.42,-439.37 132.36,-438.76 138.34,-438.27 144.36,-437.9 150.41,-437.65 156.49,-437.52 162.59,-437.5 168.72,-437.61 174.86,-437.83 181.01,-438.18 187.17,-438.64 193.33,-439.21 199.48,-439.9 205.62,-440.7 211.74,-441.61 217.83,-442.62 223.87,-443.74 229.87,-444.96 235.8,-446.28 241.64,-447.69 247.4,-449.19 253.05,-450.77 258.57,-452.43 263.94,-454.18 269.16,-455.99 274.19,-457.87 279.02,-459.81 283.63,-461.81 287.99,-463.86 292.09,-465.95 295.9,-468.09 299.4,-470.26 302.57,-472.46 305.39,-474.68 307.84,-476.92 309.9,-479.17 311.56,-481.43 312.78,-483.69 313.57,-485.94 313.9,-488.18 313.76,-490.4 313.14,-492.6 312.04,-494.77 310.44,-496.9 308.34,-498.99 305.75,-501.04 302.65,-503.03 299.06,-504.97 294.98,-506.85 290.41,-508.65 285.38,-510.39 279.89,-512.04 273.96,-513.62 267.61,-515.11 260.86,-516.51 253.73,-517.81 246.26,-519.02 238.46,-520.12 230.37,-521.12 222.02,-522.02 213.44,-522.8 204.67,-523.47 195.74,-524.02 186.69,-524.46 177.55,-524.78 168.37,-524.98 159.19,-525.06"/>
<text text-anchor="middle" x="163.21" y="-477.43" font-family="sans-serif" font-size="16.00">AccountingContext</text>
</g>
<!-- BillingContext -->
<g id="node2" class="node">
<title>BillingContext</title>
<polygon fill="none" stroke="black" stroke-width="2" points="189.69,-369.96 183.85,-371.69 177.87,-373.31 171.76,-374.82 165.56,-376.2 159.27,-377.46 152.93,-378.59 146.57,-379.57 140.19,-380.42 133.83,-381.11 127.5,-381.66 121.23,-382.05 115.04,-382.29 108.94,-382.38 102.95,-382.3 97.09,-382.08 91.37,-381.69 85.81,-381.16 80.42,-380.47 75.22,-379.63 70.2,-378.65 65.39,-377.53 60.78,-376.28 56.39,-374.89 52.23,-373.38 48.29,-371.75 44.59,-370.01 41.11,-368.17 37.88,-366.23 34.88,-364.21 32.12,-362.1 29.6,-359.93 27.32,-357.69 25.27,-355.4 23.46,-353.06 21.88,-350.68 20.54,-348.28 19.42,-345.86 18.53,-343.43 17.87,-341 17.44,-338.57 17.22,-336.15 17.23,-333.76 17.45,-331.39 17.9,-329.06 18.56,-326.76 19.43,-324.52 20.52,-322.33 21.82,-320.19 23.33,-318.12 25.06,-316.11 27,-314.18 29.16,-312.32 31.52,-310.54 34.1,-308.83 36.89,-307.21 39.89,-305.68 43.1,-304.23 46.51,-302.86 50.14,-301.59 53.96,-300.41 57.99,-299.31 62.22,-298.31 66.64,-297.39 71.24,-296.57 76.03,-295.84 81,-295.2 86.13,-294.65 91.42,-294.18 96.86,-293.81 102.43,-293.53 108.13,-293.34 113.94,-293.23 119.84,-293.22 125.83,-293.29 131.89,-293.45 137.99,-293.7 144.12,-294.03 150.26,-294.46 156.39,-294.97 162.5,-295.56 168.55,-296.25 174.52,-297.02 180.41,-297.88 186.17,-298.83 191.8,-299.87 197.26,-300.99 202.54,-302.19 207.61,-303.49 212.46,-304.86 217.06,-306.32 221.38,-307.86 225.43,-309.48 229.16,-311.18 232.57,-312.96 235.64,-314.8 238.36,-316.72 240.71,-318.71 242.69,-320.76 244.27,-322.87 245.46,-325.03 246.24,-327.25 246.62,-329.51 246.59,-331.81 246.15,-334.14 245.3,-336.5 244.04,-338.88 242.38,-341.27 240.33,-343.67 237.89,-346.07 235.07,-348.46 231.9,-350.83 228.37,-353.17 224.51,-355.48 220.33,-357.74 215.85,-359.96 211.1,-362.11 206.08,-364.2 200.83,-366.21 195.36,-368.13 189.69,-369.96"/>
<text text-anchor="middle" x="123.21" y="-330.9" font-family="sans-serif" font-size="16.00">BillingContext</text>
</g>
<!-- AccountingContext&#45;&gt;BillingContext -->
<g id="edge1" class="edge">
<title>AccountingContext&#45;&gt;BillingContext</title>
<path fill="none" stroke="black" stroke-width="2" d="M151.31,-437.26C146.41,-419.53 140.72,-398.98 135.75,-381.02"/>
<text text-anchor="middle" x="220.71" y="-404.92" font-family="sans-serif" font-size="12.00"> &#160;&#160;&#160;&#160;&#160;&#160;&#160;&#160;&#160;&#160;&#160;&#160;&#160;&#160;&#160;&#160;&#160;&#160;&#160;&#160;&#160;&#160;&#160;&#160;&#160;&#160;&#160;&#160;&#160;&#160;&#160;&#160;&#160;&#160;&#160;&#160;&#160;&#160;&#160;</text>
<polygon fill="white" stroke="transparent" points="112.75,-371.02 112.75,-390.02 128.75,-390.02 128.75,-371.02 112.75,-371.02"/>
<polyline fill="none" stroke="black" points="128.75,-371.02 128.75,-390.02 "/>
<text text-anchor="start" x="115.75" y="-377.42" font-family="sans-serif" font-size="12.00">D</text>
<polygon fill="white" stroke="transparent" points="128.75,-371.02 128.75,-390.02 158.75,-390.02 158.75,-371.02 128.75,-371.02"/>
<polygon fill="none" stroke="black" points="128.75,-371.02 128.75,-390.02 158.75,-390.02 158.75,-371.02 128.75,-371.02"/>
<text text-anchor="start" x="131.75" y="-377.42" font-family="sans-serif" font-size="12.00">ACL</text>
<polygon fill="white" stroke="transparent" points="116.31,-427.26 116.31,-446.26 132.31,-446.26 132.31,-427.26 116.31,-427.26"/>
<polyline fill="none" stroke="black" points="132.31,-427.26 132.31,-446.26 "/>
<text text-anchor="start" x="119.31" y="-433.66" font-family="sans-serif" font-size="12.00">U</text>
<polygon fill="white" stroke="transparent" points="132.31,-427.26 132.31,-446.26 187.31,-446.26 187.31,-427.26 132.31,-427.26"/>
<polygon fill="none" stroke="black" points="132.31,-427.26 132.31,-446.26 187.31,-446.26 187.31,-427.26 132.31,-427.26"/>
<text text-anchor="start" x="135.31" y="-433.66" font-family="sans-serif" font-size="12.00">OHS, PL</text>
</g>
<!-- BorrowingContext -->
<g id="node3" class="node">
<title>BorrowingContext</title>
<polygon fill="none" stroke="black" stroke-width="2" points="469.37,-231.79 460.68,-231.45 452.08,-230.99 443.62,-230.42 435.34,-229.73 427.26,-228.93 419.42,-228.02 411.84,-227 404.57,-225.88 397.61,-224.66 391.01,-223.33 384.78,-221.92 378.94,-220.41 373.52,-218.82 368.52,-217.14 363.97,-215.38 359.87,-213.56 356.23,-211.66 353.05,-209.71 350.35,-207.69 348.12,-205.63 346.37,-203.51 345.08,-201.36 344.25,-199.17 343.88,-196.96 343.96,-194.72 344.47,-192.46 345.4,-190.19 346.74,-187.92 348.47,-185.65 350.58,-183.39 353.04,-181.14 355.84,-178.91 358.95,-176.7 362.37,-174.53 366.06,-172.39 370.01,-170.3 374.2,-168.26 378.61,-166.27 383.22,-164.34 388.02,-162.47 392.97,-160.67 398.07,-158.95 403.3,-157.31 408.64,-155.75 414.08,-154.28 419.61,-152.9 425.21,-151.62 430.87,-150.44 436.58,-149.36 442.33,-148.38 448.12,-147.52 453.93,-146.76 459.75,-146.12 465.59,-145.59 471.44,-145.18 477.28,-144.89 483.13,-144.72 488.96,-144.67 494.79,-144.73 500.6,-144.92 506.39,-145.23 512.16,-145.65 517.91,-146.19 523.62,-146.85 529.29,-147.62 534.93,-148.51 540.51,-149.5 546.04,-150.6 551.51,-151.81 556.9,-153.12 562.22,-154.53 567.44,-156.03 572.55,-157.62 577.55,-159.3 582.41,-161.05 587.13,-162.89 591.69,-164.79 596.07,-166.76 600.26,-168.79 604.23,-170.88 607.98,-173.02 611.47,-175.19 614.7,-177.41 617.64,-179.65 620.28,-181.93 622.6,-184.21 624.57,-186.51 626.19,-188.82 627.43,-191.12 628.28,-193.42 628.72,-195.7 628.75,-197.97 628.35,-200.2 627.51,-202.4 626.22,-204.57 624.47,-206.69 622.27,-208.75 619.61,-210.76 616.48,-212.71 612.9,-214.59 608.86,-216.4 604.38,-218.13 599.46,-219.77 594.12,-221.33 588.37,-222.8 582.22,-224.17 575.7,-225.44 568.84,-226.61 561.64,-227.67 554.14,-228.63 546.37,-229.47 538.35,-230.2 530.12,-230.81 521.71,-231.31 513.15,-231.69 504.48,-231.95 495.73,-232.09 486.94,-232.11 478.14,-232.01 469.37,-231.79"/>
<text text-anchor="middle" x="487.21" y="-184.58" font-family="sans-serif" font-size="16.00">BorrowingContext</text>
</g>
<!-- BillingContext&#45;&gt;BorrowingContext -->
<g id="edge2" class="edge">
<title>BillingContext&#45;&gt;BorrowingContext</title>
<path fill="none" stroke="black" stroke-width="2" d="M173.91,-296.93C195.91,-282.26 222.5,-266.21 248.21,-254.88 284.82,-238.75 326.38,-225.69 364.45,-215.6"/>
<text text-anchor="middle" x="323.71" y="-258.28" font-family="sans-serif" font-size="12.00"> &#160;&#160;&#160;&#160;&#160;&#160;&#160;&#160;&#160;&#160;&#160;&#160;&#160;&#160;&#160;&#160;&#160;&#160;&#160;&#160;&#160;&#160;&#160;&#160;&#160;&#160;&#160;&#160;&#160;&#160;&#160;&#160;&#160;&#160;&#160;&#160;&#160;&#160;&#160;</text>
<polygon fill="white" stroke="transparent" points="341.45,-205.6 341.45,-224.6 357.45,-224.6 357.45,-205.6 341.45,-205.6"/>
<polyline fill="none" stroke="black" points="357.45,-205.6 357.45,-224.6 "/>
<text text-anchor="start" x="344.45" y="-212" font-family="sans-serif" font-size="12.00">D</text>
<polygon fill="white" stroke="transparent" points="357.45,-205.6 357.45,-224.6 387.45,-224.6 387.45,-205.6 357.45,-205.6"/>
<polygon fill="none" stroke="black" points="357.45,-205.6 357.45,-224.6 387.45,-224.6 387.45,-205.6 357.45,-205.6"/>
<text text-anchor="start" x="360.45" y="-212" font-family="sans-serif" font-size="12.00">ACL</text>
<polygon fill="white" stroke="transparent" points="166.91,-287.93 166.91,-304.93 180.91,-304.93 180.91,-287.93 166.91,-287.93"/>
<text text-anchor="start" x="168.91" y="-293.33" font-family="sans-serif" font-size="12.00">U</text>
</g>
<!-- AdvertisingCampaignContext -->
<g id="node4" class="node">
<title>AdvertisingCampaignContext</title>
<polygon fill="none" stroke="black" stroke-width="2" points="1241.83,-451.91 1250.37,-449.73 1259.26,-447.64 1268.48,-445.65 1277.98,-443.78 1287.75,-442.02 1297.73,-440.4 1307.89,-438.91 1318.21,-437.55 1328.64,-436.35 1339.14,-435.29 1349.7,-434.39 1360.27,-433.64 1370.83,-433.06 1381.34,-432.64 1391.77,-432.39 1402.1,-432.3 1412.3,-432.37 1422.35,-432.61 1432.23,-433.01 1441.9,-433.56 1451.36,-434.27 1460.58,-435.14 1469.54,-436.14 1478.24,-437.29 1486.64,-438.57 1494.76,-439.98 1502.56,-441.52 1510.04,-443.16 1517.19,-444.91 1523.99,-446.76 1530.45,-448.7 1536.56,-450.72 1542.3,-452.81 1547.68,-454.97 1552.68,-457.18 1557.31,-459.44 1561.55,-461.73 1565.4,-464.06 1568.87,-466.41 1571.93,-468.76 1574.6,-471.13 1576.86,-473.49 1578.72,-475.84 1580.16,-478.18 1581.19,-480.49 1581.79,-482.78 1581.98,-485.03 1581.73,-487.24 1581.06,-489.4 1579.95,-491.52 1578.4,-493.59 1576.41,-495.6 1573.98,-497.55 1571.11,-499.44 1567.78,-501.27 1564.01,-503.03 1559.79,-504.72 1555.13,-506.34 1550.02,-507.89 1544.47,-509.37 1538.49,-510.78 1532.07,-512.12 1525.24,-513.38 1517.99,-514.57 1510.33,-515.68 1502.29,-516.72 1493.86,-517.68 1485.08,-518.57 1475.95,-519.38 1466.5,-520.12 1456.75,-520.77 1446.72,-521.35 1436.44,-521.85 1425.93,-522.27 1415.23,-522.61 1404.35,-522.86 1393.35,-523.03 1382.24,-523.12 1371.06,-523.11 1359.86,-523.02 1348.66,-522.84 1337.5,-522.57 1326.43,-522.2 1315.48,-521.74 1304.69,-521.18 1294.1,-520.52 1283.75,-519.76 1273.68,-518.91 1263.93,-517.95 1254.53,-516.88 1245.52,-515.72 1236.94,-514.45 1228.81,-513.08 1221.18,-511.61 1214.07,-510.04 1207.51,-508.37 1201.52,-506.61 1196.14,-504.75 1191.37,-502.8 1187.25,-500.76 1183.78,-498.64 1180.97,-496.44 1178.84,-494.17 1177.4,-491.84 1176.65,-489.44 1176.58,-486.99 1177.2,-484.5 1178.51,-481.96 1180.48,-479.4 1183.12,-476.82 1186.41,-474.22 1190.34,-471.62 1194.88,-469.03 1200.01,-466.46 1205.71,-463.91 1211.96,-461.4 1218.73,-458.93 1225.98,-456.52 1233.7,-454.18 1241.83,-451.91"/>
<text text-anchor="middle" x="1391.21" y="-477.43" font-family="sans-serif" font-size="16.00">AdvertisingCampaignContext</text>
</g>
<!-- CatalogContext -->
<g id="node5" class="node">
<title>CatalogContext</title>
<polygon fill="none" stroke="black" stroke-width="2" points="776.61,-307.36 781.41,-305.1 786.43,-302.93 791.67,-300.86 797.1,-298.9 802.69,-297.05 808.44,-295.32 814.31,-293.73 820.29,-292.27 826.36,-290.95 832.51,-289.79 838.7,-288.77 844.92,-287.92 851.16,-287.22 857.39,-286.68 863.6,-286.31 869.77,-286.1 875.89,-286.06 881.94,-286.18 887.91,-286.46 893.78,-286.9 899.55,-287.5 905.19,-288.24 910.7,-289.14 916.07,-290.18 921.29,-291.35 926.34,-292.65 931.23,-294.08 935.94,-295.63 940.47,-297.28 944.81,-299.03 948.95,-300.88 952.9,-302.81 956.63,-304.82 960.16,-306.89 963.47,-309.02 966.56,-311.21 969.42,-313.43 972.06,-315.69 974.47,-317.98 976.64,-320.28 978.57,-322.59 980.26,-324.9 981.71,-327.21 982.9,-329.51 983.85,-331.79 984.54,-334.04 984.97,-336.27 985.13,-338.46 985.04,-340.62 984.67,-342.73 984.04,-344.79 983.14,-346.81 981.96,-348.77 980.5,-350.67 978.77,-352.52 976.77,-354.3 974.48,-356.03 971.92,-357.69 969.08,-359.28 965.97,-360.81 962.59,-362.28 958.94,-363.67 955.02,-365 950.85,-366.26 946.42,-367.45 941.76,-368.57 936.85,-369.62 931.72,-370.6 926.37,-371.51 920.82,-372.35 915.07,-373.11 909.15,-373.8 903.06,-374.41 896.83,-374.95 890.47,-375.4 883.99,-375.78 877.43,-376.08 870.79,-376.29 864.1,-376.41 857.38,-376.45 850.64,-376.4 843.93,-376.26 837.25,-376.02 830.62,-375.69 824.08,-375.26 817.65,-374.73 811.35,-374.1 805.2,-373.36 799.22,-372.52 793.44,-371.58 787.88,-370.53 782.56,-369.37 777.5,-368.11 772.73,-366.74 768.25,-365.26 764.08,-363.69 760.25,-362 756.76,-360.22 753.63,-358.35 750.87,-356.38 748.49,-354.32 746.5,-352.17 744.9,-349.95 743.7,-347.65 742.91,-345.29 742.52,-342.86 742.54,-340.38 742.96,-337.86 743.78,-335.3 745,-332.71 746.6,-330.1 748.58,-327.48 750.93,-324.86 753.63,-322.25 756.69,-319.66 760.07,-317.1 763.77,-314.58 767.77,-312.11 772.06,-309.7 776.61,-307.36"/>
<text text-anchor="middle" x="870.21" y="-330.9" font-family="sans-serif" font-size="16.00">CatalogContext</text>
</g>
<!-- CatalogContext&#45;&gt;BorrowingContext -->
<g id="edge4" class="edge">
<title>CatalogContext&#45;&gt;BorrowingContext</title>
<path fill="none" stroke="black" stroke-width="2" d="M786.45,-302.76C767.48,-296.52 747.3,-290.48 728.21,-285.88 675.35,-273.15 658.02,-287.21 607.21,-267.88 600.17,-265.2 572.98,-247.52 546.25,-229.61"/>
<text text-anchor="middle" x="682.71" y="-258.28" font-family="sans-serif" font-size="12.00"> &#160;&#160;&#160;&#160;&#160;&#160;&#160;&#160;&#160;&#160;&#160;&#160;&#160;&#160;&#160;&#160;&#160;&#160;&#160;&#160;&#160;&#160;&#160;&#160;&#160;&#160;&#160;&#160;&#160;&#160;&#160;&#160;&#160;&#160;&#160;&#160;&#160;&#160;&#160;</text>
<polygon fill="white" stroke="transparent" points="523.25,-219.61 523.25,-238.61 539.25,-238.61 539.25,-219.61 523.25,-219.61"/>
<polyline fill="none" stroke="black" points="539.25,-219.61 539.25,-238.61 "/>
<text text-anchor="start" x="526.25" y="-226.01" font-family="sans-serif" font-size="12.00">D</text>
<polygon fill="white" stroke="transparent" points="539.25,-219.61 539.25,-238.61 569.25,-238.61 569.25,-219.61 539.25,-219.61"/>
<polygon fill="none" stroke="black" points="539.25,-219.61 539.25,-238.61 569.25,-238.61 569.25,-219.61 539.25,-219.61"/>
<text text-anchor="start" x="542.25" y="-226.01" font-family="sans-serif" font-size="12.00">ACL</text>
<polygon fill="white" stroke="transparent" points="779.45,-293.76 779.45,-310.76 793.45,-310.76 793.45,-293.76 779.45,-293.76"/>
<text text-anchor="start" x="781.45" y="-299.16" font-family="sans-serif" font-size="12.00">U</text>
</g>
<!-- RecommandationContext -->
<g id="node6" class="node">
<title>RecommandationContext</title>
<polygon fill="none" stroke="black" stroke-width="2" points="996.56,-3.34 1007.56,-2.49 1018.63,-1.77 1029.73,-1.16 1040.81,-0.69 1051.82,-0.35 1062.74,-0.14 1073.5,-0.06 1084.08,-0.12 1094.44,-0.31 1104.53,-0.65 1114.34,-1.11 1123.82,-1.72 1132.95,-2.45 1141.69,-3.32 1150.04,-4.32 1157.95,-5.45 1165.43,-6.7 1172.45,-8.07 1178.99,-9.55 1185.05,-11.14 1190.62,-12.84 1195.69,-14.64 1200.26,-16.53 1204.33,-18.51 1207.91,-20.57 1210.99,-22.71 1213.58,-24.9 1215.69,-27.16 1217.33,-29.47 1218.51,-31.82 1219.24,-34.21 1219.53,-36.62 1219.39,-39.05 1218.85,-41.5 1217.91,-43.94 1216.59,-46.39 1214.9,-48.81 1212.86,-51.22 1210.49,-53.6 1207.79,-55.95 1204.78,-58.25 1201.47,-60.51 1197.88,-62.71 1194.01,-64.84 1189.88,-66.91 1185.5,-68.91 1180.87,-70.83 1176.01,-72.67 1170.92,-74.41 1165.6,-76.07 1160.07,-77.63 1154.33,-79.1 1148.38,-80.46 1142.22,-81.72 1135.87,-82.87 1129.33,-83.92 1122.59,-84.85 1115.67,-85.68 1108.56,-86.39 1101.27,-86.99 1093.82,-87.49 1086.19,-87.87 1078.4,-88.13 1070.46,-88.29 1062.38,-88.34 1054.16,-88.28 1045.83,-88.11 1037.38,-87.84 1028.83,-87.46 1020.21,-86.98 1011.52,-86.4 1002.8,-85.72 994.05,-84.95 985.3,-84.08 976.58,-83.12 967.91,-82.07 959.31,-80.93 950.82,-79.71 942.47,-78.41 934.28,-77.03 926.28,-75.57 918.52,-74.05 911.01,-72.45 903.8,-70.79 896.92,-69.06 890.39,-67.27 884.25,-65.43 878.53,-63.54 873.27,-61.59 868.49,-59.6 864.21,-57.57 860.48,-55.51 857.3,-53.41 854.71,-51.28 852.71,-49.13 851.34,-46.96 850.6,-44.77 850.51,-42.58 851.07,-40.38 852.3,-38.18 854.19,-35.99 856.74,-33.81 859.96,-31.65 863.82,-29.51 868.33,-27.4 873.47,-25.33 879.22,-23.3 885.55,-21.32 892.46,-19.39 899.9,-17.51 907.86,-15.71 916.3,-13.97 925.18,-12.32 934.47,-10.74 944.13,-9.26 954.13,-7.87 964.41,-6.57 974.94,-5.38 985.67,-4.31 996.56,-3.34"/>
<text text-anchor="middle" x="1046.21" y="-41.64" font-family="sans-serif" font-size="16.00">RecommandationContext</text>
</g>
<!-- CatalogContext&#45;&gt;RecommandationContext -->
<g id="edge3" class="edge">
<title>CatalogContext&#45;&gt;RecommandationContext</title>
<path fill="none" stroke="black" stroke-width="2" d="M819.64,-292.4C804.28,-276.8 789.33,-257.73 781.21,-236.88 765.55,-196.71 756.3,-175.07 781.21,-139.88 806.99,-103.45 848.2,-81.12 890.51,-67.47"/>
<text text-anchor="middle" x="856.71" y="-185.28" font-family="sans-serif" font-size="12.00"> &#160;&#160;&#160;&#160;&#160;&#160;&#160;&#160;&#160;&#160;&#160;&#160;&#160;&#160;&#160;&#160;&#160;&#160;&#160;&#160;&#160;&#160;&#160;&#160;&#160;&#160;&#160;&#160;&#160;&#160;&#160;&#160;&#160;&#160;&#160;&#160;&#160;&#160;&#160;</text>
<polygon fill="white" stroke="transparent" points="871.51,-57.47 871.51,-76.47 887.51,-76.47 887.51,-57.47 871.51,-57.47"/>
<polyline fill="none" stroke="black" points="887.51,-57.47 887.51,-76.47 "/>
<text text-anchor="start" x="874.51" y="-63.87" font-family="sans-serif" font-size="12.00">D</text>
<polygon fill="white" stroke="transparent" points="887.51,-57.47 887.51,-76.47 909.51,-76.47 909.51,-57.47 887.51,-57.47"/>
<polygon fill="none" stroke="black" points="887.51,-57.47 887.51,-76.47 909.51,-76.47 909.51,-57.47 887.51,-57.47"/>
<text text-anchor="start" x="890.51" y="-63.87" font-family="sans-serif" font-size="12.00">CF</text>
<polygon fill="white" stroke="transparent" points="812.64,-283.4 812.64,-300.4 826.64,-300.4 826.64,-283.4 812.64,-283.4"/>
<text text-anchor="start" x="814.64" y="-288.8" font-family="sans-serif" font-size="12.00">U</text>
</g>
<!-- ProfileContext -->
<g id="node7" class="node">
<title>ProfileContext</title>
<polygon fill="none" stroke="black" stroke-width="2" points="1138.36,-219.79 1133.28,-221.83 1128.02,-223.77 1122.6,-225.6 1117.04,-227.31 1111.35,-228.9 1105.57,-230.37 1099.71,-231.69 1093.79,-232.88 1087.84,-233.92 1081.87,-234.81 1075.9,-235.54 1069.94,-236.11 1064.03,-236.53 1058.17,-236.79 1052.38,-236.88 1046.67,-236.81 1041.06,-236.58 1035.57,-236.19 1030.2,-235.64 1024.97,-234.94 1019.89,-234.09 1014.96,-233.09 1010.2,-231.96 1005.61,-230.68 1001.2,-229.28 996.98,-227.76 992.95,-226.11 989.12,-224.37 985.48,-222.52 982.06,-220.58 978.84,-218.55 975.83,-216.45 973.03,-214.29 970.44,-212.06 968.07,-209.79 965.92,-207.48 963.98,-205.13 962.27,-202.76 960.77,-200.38 959.49,-197.99 958.43,-195.6 957.6,-193.22 956.99,-190.86 956.6,-188.52 956.44,-186.2 956.5,-183.92 956.8,-181.69 957.32,-179.49 958.06,-177.35 959.05,-175.27 960.26,-173.24 961.7,-171.27 963.38,-169.37 965.3,-167.54 967.45,-165.78 969.83,-164.09 972.45,-162.47 975.3,-160.93 978.38,-159.47 981.7,-158.08 985.24,-156.78 989.01,-155.55 992.99,-154.4 997.2,-153.33 1001.61,-152.34 1006.22,-151.43 1011.02,-150.61 1016.02,-149.86 1021.19,-149.19 1026.52,-148.61 1032,-148.11 1037.63,-147.69 1043.38,-147.35 1049.24,-147.09 1055.2,-146.92 1061.23,-146.84 1067.32,-146.83 1073.46,-146.92 1079.61,-147.09 1085.77,-147.36 1091.9,-147.71 1098,-148.15 1104.03,-148.68 1109.98,-149.31 1115.83,-150.03 1121.55,-150.85 1127.12,-151.76 1132.51,-152.77 1137.72,-153.87 1142.71,-155.07 1147.47,-156.36 1151.97,-157.75 1156.21,-159.24 1160.16,-160.81 1163.8,-162.48 1167.12,-164.24 1170.11,-166.09 1172.75,-168.02 1175.04,-170.03 1176.95,-172.11 1178.5,-174.27 1179.66,-176.5 1180.43,-178.78 1180.82,-181.12 1180.82,-183.52 1180.43,-185.95 1179.65,-188.42 1178.49,-190.91 1176.95,-193.43 1175.05,-195.95 1172.78,-198.48 1170.17,-201 1167.22,-203.51 1163.94,-205.98 1160.35,-208.43 1156.47,-210.83 1152.32,-213.17 1147.9,-215.45 1143.24,-217.66 1138.36,-219.79"/>
<text text-anchor="middle" x="1061.21" y="-184.58" font-family="sans-serif" font-size="16.00">ProfileContext</text>
</g>
<!-- CatalogContext&#45;&gt;ProfileContext -->
<g id="edge5" class="edge">
<title>CatalogContext&#45;&gt;ProfileContext</title>
<path fill="none" stroke="black" stroke-width="2" d="M868.73,-285.75C870.48,-274.66 874.17,-263.58 881.21,-254.88 882.09,-253.79 931.91,-235.7 978.91,-218.81"/>
<text text-anchor="middle" x="956.71" y="-258.28" font-family="sans-serif" font-size="12.00"> &#160;&#160;&#160;&#160;&#160;&#160;&#160;&#160;&#160;&#160;&#160;&#160;&#160;&#160;&#160;&#160;&#160;&#160;&#160;&#160;&#160;&#160;&#160;&#160;&#160;&#160;&#160;&#160;&#160;&#160;&#160;&#160;&#160;&#160;&#160;&#160;&#160;&#160;&#160;</text>
<polygon fill="white" stroke="transparent" points="955.91,-208.81 955.91,-227.81 971.91,-227.81 971.91,-208.81 955.91,-208.81"/>
<polyline fill="none" stroke="black" points="971.91,-208.81 971.91,-227.81 "/>
<text text-anchor="start" x="958.91" y="-215.21" font-family="sans-serif" font-size="12.00">D</text>
<polygon fill="white" stroke="transparent" points="971.91,-208.81 971.91,-227.81 1001.91,-227.81 1001.91,-208.81 971.91,-208.81"/>
<polygon fill="none" stroke="black" points="971.91,-208.81 971.91,-227.81 1001.91,-227.81 1001.91,-208.81 971.91,-208.81"/>
<text text-anchor="start" x="974.91" y="-215.21" font-family="sans-serif" font-size="12.00">ACL</text>
<polygon fill="white" stroke="transparent" points="861.73,-276.75 861.73,-293.75 875.73,-293.75 875.73,-276.75 861.73,-276.75"/>
<text text-anchor="start" x="863.73" y="-282.15" font-family="sans-serif" font-size="12.00">U</text>
</g>
<!-- ProfileContext&#45;&gt;RecommandationContext -->
<g id="edge6" class="edge">
<title>ProfileContext&#45;&gt;RecommandationContext</title>
<path fill="none" stroke="black" stroke-width="2" d="M1051.21,-146.7C1049.58,-138.53 1048.12,-129.97 1047.21,-121.88 1045.99,-111.08 1045.46,-99.35 1045.3,-88.43"/>
<text text-anchor="middle" x="1122.71" y="-112.28" font-family="sans-serif" font-size="12.00"> &#160;&#160;&#160;&#160;&#160;&#160;&#160;&#160;&#160;&#160;&#160;&#160;&#160;&#160;&#160;&#160;&#160;&#160;&#160;&#160;&#160;&#160;&#160;&#160;&#160;&#160;&#160;&#160;&#160;&#160;&#160;&#160;&#160;&#160;&#160;&#160;&#160;&#160;&#160;</text>
<polygon fill="white" stroke="transparent" points="1022.3,-78.43 1022.3,-97.43 1038.3,-97.43 1038.3,-78.43 1022.3,-78.43"/>
<polyline fill="none" stroke="black" points="1038.3,-78.43 1038.3,-97.43 "/>
<text text-anchor="start" x="1025.3" y="-84.83" font-family="sans-serif" font-size="12.00">D</text>
<polygon fill="white" stroke="transparent" points="1038.3,-78.43 1038.3,-97.43 1068.3,-97.43 1068.3,-78.43 1038.3,-78.43"/>
<polygon fill="none" stroke="black" points="1038.3,-78.43 1038.3,-97.43 1068.3,-97.43 1068.3,-78.43 1038.3,-78.43"/>
<text text-anchor="start" x="1041.3" y="-84.83" font-family="sans-serif" font-size="12.00">ACL</text>
<polygon fill="white" stroke="transparent" points="1016.21,-136.7 1016.21,-155.7 1032.21,-155.7 1032.21,-136.7 1016.21,-136.7"/>
<polyline fill="none" stroke="black" points="1032.21,-136.7 1032.21,-155.7 "/>
<text text-anchor="start" x="1019.21" y="-143.1" font-family="sans-serif" font-size="12.00">U</text>
<polygon fill="white" stroke="transparent" points="1032.21,-136.7 1032.21,-155.7 1087.21,-155.7 1087.21,-136.7 1032.21,-136.7"/>
<polygon fill="none" stroke="black" points="1032.21,-136.7 1032.21,-155.7 1087.21,-155.7 1087.21,-136.7 1032.21,-136.7"/>
<text text-anchor="start" x="1035.21" y="-143.1" font-family="sans-serif" font-size="12.00">OHS, PL</text>
</g>
<!-- DeliveryContext -->
<g id="node8" class="node">
<title>DeliveryContext</title>
<polygon fill="none" stroke="black" stroke-width="2" points="467.15,-371.74 460.41,-373.31 453.54,-374.77 446.55,-376.11 439.47,-377.32 432.34,-378.41 425.17,-379.36 418,-380.17 410.85,-380.84 403.74,-381.36 396.7,-381.74 389.75,-381.96 382.91,-382.03 376.21,-381.95 369.66,-381.71 363.29,-381.32 357.09,-380.78 351.11,-380.1 345.33,-379.26 339.79,-378.29 334.49,-377.17 329.43,-375.92 324.63,-374.54 320.09,-373.03 315.83,-371.41 311.83,-369.68 308.11,-367.84 304.67,-365.9 301.5,-363.88 298.61,-361.77 296,-359.6 293.67,-357.35 291.6,-355.05 289.81,-352.71 288.28,-350.32 287.02,-347.91 286.02,-345.47 285.27,-343.02 284.78,-340.57 284.53,-338.12 284.53,-335.68 284.77,-333.26 285.25,-330.87 285.96,-328.51 286.9,-326.19 288.07,-323.92 289.47,-321.7 291.09,-319.54 292.94,-317.44 295.01,-315.41 297.29,-313.45 299.8,-311.57 302.53,-309.77 305.47,-308.06 308.63,-306.42 312,-304.88 315.59,-303.43 319.39,-302.07 323.4,-300.8 327.62,-299.62 332.05,-298.55 336.68,-297.56 341.51,-296.67 346.53,-295.88 351.74,-295.19 357.14,-294.59 362.7,-294.08 368.43,-293.67 374.32,-293.35 380.35,-293.13 386.52,-293 392.8,-292.96 399.19,-293.02 405.66,-293.16 412.21,-293.4 418.82,-293.72 425.45,-294.13 432.11,-294.64 438.76,-295.23 445.38,-295.91 451.95,-296.67 458.44,-297.52 464.84,-298.46 471.12,-299.48 477.25,-300.58 483.21,-301.77 488.98,-303.04 494.53,-304.39 499.84,-305.81 504.88,-307.32 509.63,-308.9 514.07,-310.56 518.18,-312.29 521.94,-314.09 525.33,-315.96 528.34,-317.89 530.94,-319.88 533.13,-321.93 534.89,-324.03 536.21,-326.18 537.09,-328.38 537.51,-330.61 537.48,-332.88 537,-335.18 536.05,-337.5 534.66,-339.83 532.81,-342.17 530.52,-344.52 527.8,-346.86 524.66,-349.19 521.1,-351.5 517.16,-353.78 512.83,-356.02 508.15,-358.22 503.13,-360.37 497.78,-362.46 492.15,-364.49 486.24,-366.43 480.09,-368.3 473.72,-370.07 467.15,-371.74"/>
<text text-anchor="middle" x="401.21" y="-330.9" font-family="sans-serif" font-size="16.00">DeliveryContext</text>
</g>
<!-- DeliveryContext&#45;&gt;BorrowingContext -->
<g id="edge7" class="edge">
<title>DeliveryContext&#45;&gt;BorrowingContext</title>
<path fill="none" stroke="black" stroke-width="2" d="M398.86,-292.69C399.66,-279.98 402.2,-266.31 408.21,-254.88 413.18,-245.41 420.16,-236.79 427.93,-229.13"/>
<text text-anchor="middle" x="483.71" y="-258.28" font-family="sans-serif" font-size="12.00"> &#160;&#160;&#160;&#160;&#160;&#160;&#160;&#160;&#160;&#160;&#160;&#160;&#160;&#160;&#160;&#160;&#160;&#160;&#160;&#160;&#160;&#160;&#160;&#160;&#160;&#160;&#160;&#160;&#160;&#160;&#160;&#160;&#160;&#160;&#160;&#160;&#160;&#160;&#160;</text>
<polygon fill="white" stroke="transparent" points="404.93,-219.13 404.93,-238.13 420.93,-238.13 420.93,-219.13 404.93,-219.13"/>
<polyline fill="none" stroke="black" points="420.93,-219.13 420.93,-238.13 "/>
<text text-anchor="start" x="407.93" y="-225.53" font-family="sans-serif" font-size="12.00">D</text>
<polygon fill="white" stroke="transparent" points="420.93,-219.13 420.93,-238.13 450.93,-238.13 450.93,-219.13 420.93,-219.13"/>
<polygon fill="none" stroke="black" points="420.93,-219.13 420.93,-238.13 450.93,-238.13 450.93,-219.13 420.93,-219.13"/>
<text text-anchor="start" x="423.93" y="-225.53" font-family="sans-serif" font-size="12.00">ACL</text>
<polygon fill="white" stroke="transparent" points="391.86,-283.69 391.86,-300.69 405.86,-300.69 405.86,-283.69 391.86,-283.69"/>
<text text-anchor="start" x="393.86" y="-289.09" font-family="sans-serif" font-size="12.00">U</text>
</g>
<!-- IdentityContext -->
<g id="node9" class="node">
<title>IdentityContext</title>
<polygon fill="none" stroke="black" stroke-width="2" points="1131.96,-595.77 1137.52,-597.8 1142.81,-599.9 1147.81,-602.07 1152.49,-604.29 1156.84,-606.55 1160.83,-608.86 1164.45,-611.2 1167.69,-613.56 1170.52,-615.94 1172.95,-618.32 1174.95,-620.7 1176.52,-623.08 1177.66,-625.44 1178.35,-627.78 1178.61,-630.09 1178.42,-632.36 1177.79,-634.6 1176.73,-636.79 1175.24,-638.94 1173.32,-641.02 1171,-643.05 1168.28,-645.02 1165.17,-646.92 1161.7,-648.75 1157.87,-650.51 1153.7,-652.19 1149.22,-653.8 1144.45,-655.33 1139.4,-656.78 1134.1,-658.15 1128.58,-659.43 1122.84,-660.63 1116.93,-661.75 1110.86,-662.78 1104.65,-663.73 1098.34,-664.59 1091.94,-665.36 1085.47,-666.05 1078.97,-666.64 1072.45,-667.15 1065.92,-667.57 1059.43,-667.91 1052.97,-668.15 1046.58,-668.31 1040.26,-668.37 1034.04,-668.34 1027.94,-668.23 1021.95,-668.02 1016.1,-667.72 1010.41,-667.33 1004.87,-666.85 999.5,-666.27 994.31,-665.6 989.31,-664.84 984.5,-663.98 979.89,-663.03 975.48,-661.98 971.27,-660.84 967.28,-659.61 963.5,-658.29 959.93,-656.88 956.58,-655.37 953.44,-653.78 950.52,-652.11 947.83,-650.35 945.35,-648.51 943.09,-646.59 941.05,-644.6 939.23,-642.53 937.64,-640.41 936.26,-638.22 935.11,-635.97 934.19,-633.68 933.5,-631.34 933.03,-628.96 932.79,-626.55 932.79,-624.12 933.03,-621.68 933.5,-619.22 934.22,-616.76 935.18,-614.31 936.38,-611.88 937.84,-609.47 939.55,-607.1 941.52,-604.77 943.75,-602.49 946.24,-600.26 948.98,-598.11 951.99,-596.03 955.27,-594.04 958.8,-592.14 962.6,-590.34 966.65,-588.65 970.96,-587.08 975.51,-585.62 980.31,-584.3 985.35,-583.11 990.62,-582.05 996.11,-581.14 1001.8,-580.38 1007.69,-579.76 1013.77,-579.3 1020.01,-578.99 1026.4,-578.83 1032.93,-578.83 1039.57,-578.99 1046.31,-579.3 1053.12,-579.76 1059.99,-580.38 1066.88,-581.14 1073.78,-582.04 1080.66,-583.08 1087.5,-584.26 1094.27,-585.57 1100.94,-587 1107.49,-588.55 1113.89,-590.21 1120.12,-591.97 1126.15,-593.83 1131.96,-595.77"/>
<text text-anchor="middle" x="1046.21" y="-622.76" font-family="sans-serif" font-size="16.00">IdentityContext</text>
</g>
<!-- IdentityContext&#45;&gt;AccountingContext -->
<g id="edge10" class="edge">
<title>IdentityContext&#45;&gt;AccountingContext</title>
<path fill="none" stroke="black" stroke-width="2" d="M932.56,-623.19C715.71,-617.75 259.09,-601.56 200.21,-560.95 187.9,-552.46 179.58,-538.77 174,-525.16"/>
<text text-anchor="middle" x="275.71" y="-551.35" font-family="sans-serif" font-size="12.00"> &#160;&#160;&#160;&#160;&#160;&#160;&#160;&#160;&#160;&#160;&#160;&#160;&#160;&#160;&#160;&#160;&#160;&#160;&#160;&#160;&#160;&#160;&#160;&#160;&#160;&#160;&#160;&#160;&#160;&#160;&#160;&#160;&#160;&#160;&#160;&#160;&#160;&#160;&#160;</text>
<polygon fill="white" stroke="transparent" points="155,-515.16 155,-534.16 171,-534.16 171,-515.16 155,-515.16"/>
<polyline fill="none" stroke="black" points="171,-515.16 171,-534.16 "/>
<text text-anchor="start" x="158" y="-521.56" font-family="sans-serif" font-size="12.00">D</text>
<polygon fill="white" stroke="transparent" points="171,-515.16 171,-534.16 193,-534.16 193,-515.16 171,-515.16"/>
<polygon fill="none" stroke="black" points="171,-515.16 171,-534.16 193,-534.16 193,-515.16 171,-515.16"/>
<text text-anchor="start" x="174" y="-521.56" font-family="sans-serif" font-size="12.00">CF</text>
<polygon fill="white" stroke="transparent" points="925.56,-614.19 925.56,-631.19 939.56,-631.19 939.56,-614.19 925.56,-614.19"/>
<text text-anchor="start" x="927.56" y="-619.59" font-family="sans-serif" font-size="12.00">U</text>
</g>
<!-- IdentityContext&#45;&gt;BillingContext -->
<g id="edge11" class="edge">
<title>IdentityContext&#45;&gt;BillingContext</title>
<path fill="none" stroke="black" stroke-width="2" d="M933.09,-620.94C767.55,-612.27 469.38,-588.77 381.21,-529.95 325.07,-492.5 354.17,-442.05 300.21,-401.52 295.89,-398.27 249.14,-380.94 204.77,-364.87"/>
<text text-anchor="middle" x="456.71" y="-478.13" font-family="sans-serif" font-size="12.00"> &#160;&#160;&#160;&#160;&#160;&#160;&#160;&#160;&#160;&#160;&#160;&#160;&#160;&#160;&#160;&#160;&#160;&#160;&#160;&#160;&#160;&#160;&#160;&#160;&#160;&#160;&#160;&#160;&#160;&#160;&#160;&#160;&#160;&#160;&#160;&#160;&#160;&#160;&#160;</text>
<polygon fill="white" stroke="transparent" points="185.77,-354.87 185.77,-373.87 201.77,-373.87 201.77,-354.87 185.77,-354.87"/>
<polyline fill="none" stroke="black" points="201.77,-354.87 201.77,-373.87 "/>
<text text-anchor="start" x="188.77" y="-361.27" font-family="sans-serif" font-size="12.00">D</text>
<polygon fill="white" stroke="transparent" points="201.77,-354.87 201.77,-373.87 223.77,-373.87 223.77,-354.87 201.77,-354.87"/>
<polygon fill="none" stroke="black" points="201.77,-354.87 201.77,-373.87 223.77,-373.87 223.77,-354.87 201.77,-354.87"/>
<text text-anchor="start" x="204.77" y="-361.27" font-family="sans-serif" font-size="12.00">CF</text>
<polygon fill="white" stroke="transparent" points="926.09,-611.94 926.09,-628.94 940.09,-628.94 940.09,-611.94 926.09,-611.94"/>
<text text-anchor="start" x="928.09" y="-617.34" font-family="sans-serif" font-size="12.00">U</text>
</g>
<!-- IdentityContext&#45;&gt;AdvertisingCampaignContext -->
<g id="edge12" class="edge">
<title>IdentityContext&#45;&gt;AdvertisingCampaignContext</title>
<path fill="none" stroke="black" stroke-width="2" d="M1124.49,-593.04C1176.08,-571.61 1243.89,-543.43 1298.23,-520.86"/>
<text text-anchor="middle" x="1303.71" y="-551.35" font-family="sans-serif" font-size="12.00"> &#160;&#160;&#160;&#160;&#160;&#160;&#160;&#160;&#160;&#160;&#160;&#160;&#160;&#160;&#160;&#160;&#160;&#160;&#160;&#160;&#160;&#160;&#160;&#160;&#160;&#160;&#160;&#160;&#160;&#160;&#160;&#160;&#160;&#160;&#160;&#160;&#160;&#160;&#160;</text>
<polygon fill="white" stroke="transparent" points="1279.23,-510.86 1279.23,-529.86 1295.23,-529.86 1295.23,-510.86 1279.23,-510.86"/>
<polyline fill="none" stroke="black" points="1295.23,-510.86 1295.23,-529.86 "/>
<text text-anchor="start" x="1282.23" y="-517.26" font-family="sans-serif" font-size="12.00">D</text>
<polygon fill="white" stroke="transparent" points="1295.23,-510.86 1295.23,-529.86 1317.23,-529.86 1317.23,-510.86 1295.23,-510.86"/>
<polygon fill="none" stroke="black" points="1295.23,-510.86 1295.23,-529.86 1317.23,-529.86 1317.23,-510.86 1295.23,-510.86"/>
<text text-anchor="start" x="1298.23" y="-517.26" font-family="sans-serif" font-size="12.00">CF</text>
<polygon fill="white" stroke="transparent" points="1117.49,-584.04 1117.49,-601.04 1131.49,-601.04 1131.49,-584.04 1117.49,-584.04"/>
<text text-anchor="start" x="1119.49" y="-589.44" font-family="sans-serif" font-size="12.00">U</text>
</g>
<!-- IdentityContext&#45;&gt;CatalogContext -->
<g id="edge14" class="edge">
<title>IdentityContext&#45;&gt;CatalogContext</title>
<path fill="none" stroke="black" stroke-width="2" d="M955.95,-593.52C927.22,-578.71 898.46,-558.01 881.21,-529.95 852.64,-483.47 855.74,-418.33 861.92,-376.56"/>
<text text-anchor="middle" x="956.71" y="-478.13" font-family="sans-serif" font-size="12.00"> &#160;&#160;&#160;&#160;&#160;&#160;&#160;&#160;&#160;&#160;&#160;&#160;&#160;&#160;&#160;&#160;&#160;&#160;&#160;&#160;&#160;&#160;&#160;&#160;&#160;&#160;&#160;&#160;&#160;&#160;&#160;&#160;&#160;&#160;&#160;&#160;&#160;&#160;&#160;</text>
<polygon fill="white" stroke="transparent" points="842.92,-366.56 842.92,-385.56 858.92,-385.56 858.92,-366.56 842.92,-366.56"/>
<polyline fill="none" stroke="black" points="858.92,-366.56 858.92,-385.56 "/>
<text text-anchor="start" x="845.92" y="-372.96" font-family="sans-serif" font-size="12.00">D</text>
<polygon fill="white" stroke="transparent" points="858.92,-366.56 858.92,-385.56 880.92,-385.56 880.92,-366.56 858.92,-366.56"/>
<polygon fill="none" stroke="black" points="858.92,-366.56 858.92,-385.56 880.92,-385.56 880.92,-366.56 858.92,-366.56"/>
<text text-anchor="start" x="861.92" y="-372.96" font-family="sans-serif" font-size="12.00">CF</text>
<polygon fill="white" stroke="transparent" points="948.95,-584.52 948.95,-601.52 962.95,-601.52 962.95,-584.52 948.95,-584.52"/>
<text text-anchor="start" x="950.95" y="-589.92" font-family="sans-serif" font-size="12.00">U</text>
</g>
<!-- IdentityContext&#45;&gt;RecommandationContext -->
<g id="edge15" class="edge">
<title>IdentityContext&#45;&gt;RecommandationContext</title>
<path fill="none" stroke="black" stroke-width="2" d="M1066.27,-581.05C1086.94,-538.91 1122.42,-475.82 1167.21,-432.52 1178.66,-421.44 1190.26,-428.32 1198.21,-414.52 1265.98,-296.79 1273.84,-221.71 1198.21,-108.88 1189.31,-95.61 1177.04,-85.16 1163.28,-76.92"/>
<text text-anchor="middle" x="1324.71" y="-331.6" font-family="sans-serif" font-size="12.00"> &#160;&#160;&#160;&#160;&#160;&#160;&#160;&#160;&#160;&#160;&#160;&#160;&#160;&#160;&#160;&#160;&#160;&#160;&#160;&#160;&#160;&#160;&#160;&#160;&#160;&#160;&#160;&#160;&#160;&#160;&#160;&#160;&#160;&#160;&#160;&#160;&#160;&#160;&#160;</text>
<polygon fill="white" stroke="transparent" points="1144.28,-66.92 1144.28,-85.92 1160.28,-85.92 1160.28,-66.92 1144.28,-66.92"/>
<polyline fill="none" stroke="black" points="1160.28,-66.92 1160.28,-85.92 "/>
<text text-anchor="start" x="1147.28" y="-73.32" font-family="sans-serif" font-size="12.00">D</text>
<polygon fill="white" stroke="transparent" points="1160.28,-66.92 1160.28,-85.92 1182.28,-85.92 1182.28,-66.92 1160.28,-66.92"/>
<polygon fill="none" stroke="black" points="1160.28,-66.92 1160.28,-85.92 1182.28,-85.92 1182.28,-66.92 1160.28,-66.92"/>
<text text-anchor="start" x="1163.28" y="-73.32" font-family="sans-serif" font-size="12.00">CF</text>
<polygon fill="white" stroke="transparent" points="1059.27,-572.05 1059.27,-589.05 1073.27,-589.05 1073.27,-572.05 1059.27,-572.05"/>
<text text-anchor="start" x="1061.27" y="-577.45" font-family="sans-serif" font-size="12.00">U</text>
</g>
<!-- IdentityContext&#45;&gt;ProfileContext -->
<g id="edge8" class="edge">
<title>IdentityContext&#45;&gt;ProfileContext</title>
<path fill="none" stroke="black" stroke-width="2" d="M1045.58,-579.2C1045.17,-533.88 1045.05,-462.94 1047.21,-401.52 1049.2,-344.9 1053.84,-279.91 1057.23,-236.94"/>
<text text-anchor="middle" x="1122.71" y="-404.92" font-family="sans-serif" font-size="12.00"> &#160;&#160;&#160;&#160;&#160;&#160;&#160;&#160;&#160;&#160;&#160;&#160;&#160;&#160;&#160;&#160;&#160;&#160;&#160;&#160;&#160;&#160;&#160;&#160;&#160;&#160;&#160;&#160;&#160;&#160;&#160;&#160;&#160;&#160;&#160;&#160;&#160;&#160;&#160;</text>
<polygon fill="white" stroke="transparent" points="1038.23,-226.94 1038.23,-245.94 1054.23,-245.94 1054.23,-226.94 1038.23,-226.94"/>
<polyline fill="none" stroke="black" points="1054.23,-226.94 1054.23,-245.94 "/>
<text text-anchor="start" x="1041.23" y="-233.34" font-family="sans-serif" font-size="12.00">D</text>
<polygon fill="white" stroke="transparent" points="1054.23,-226.94 1054.23,-245.94 1076.23,-245.94 1076.23,-226.94 1054.23,-226.94"/>
<polygon fill="none" stroke="black" points="1054.23,-226.94 1054.23,-245.94 1076.23,-245.94 1076.23,-226.94 1054.23,-226.94"/>
<text text-anchor="start" x="1057.23" y="-233.34" font-family="sans-serif" font-size="12.00">CF</text>
<polygon fill="white" stroke="transparent" points="1038.58,-570.2 1038.58,-587.2 1052.58,-587.2 1052.58,-570.2 1038.58,-570.2"/>
<text text-anchor="start" x="1040.58" y="-575.6" font-family="sans-serif" font-size="12.00">U</text>
</g>
<!-- ReportingContext -->
<g id="node10" class="node">
<title>ReportingContext</title>
<polygon fill="none" stroke="black" stroke-width="2" points="1843.59,-517.59 1836.55,-519.25 1829.35,-520.8 1822.02,-522.23 1814.58,-523.53 1807.07,-524.71 1799.51,-525.76 1791.93,-526.66 1784.35,-527.42 1776.81,-528.03 1769.32,-528.5 1761.92,-528.81 1754.62,-528.96 1747.44,-528.96 1740.42,-528.81 1733.56,-528.5 1726.88,-528.04 1720.41,-527.42 1714.15,-526.65 1708.12,-525.74 1702.33,-524.69 1696.8,-523.5 1691.52,-522.17 1686.51,-520.72 1681.78,-519.14 1677.33,-517.45 1673.16,-515.65 1669.27,-513.75 1665.67,-511.76 1662.37,-509.69 1659.35,-507.53 1656.61,-505.31 1654.17,-503.03 1652,-500.7 1650.12,-498.32 1648.52,-495.91 1647.19,-493.48 1646.14,-491.03 1645.35,-488.58 1644.83,-486.12 1644.57,-483.67 1644.58,-481.24 1644.83,-478.83 1645.35,-476.46 1646.11,-474.12 1647.13,-471.82 1648.39,-469.58 1649.9,-467.39 1651.65,-465.26 1653.65,-463.2 1655.89,-461.21 1658.37,-459.29 1661.1,-457.45 1664.06,-455.69 1667.27,-454.01 1670.71,-452.42 1674.4,-450.92 1678.32,-449.5 1682.47,-448.18 1686.86,-446.95 1691.48,-445.81 1696.33,-444.77 1701.4,-443.82 1706.68,-442.96 1712.18,-442.2 1717.88,-441.53 1723.78,-440.95 1729.87,-440.46 1736.13,-440.07 1742.55,-439.77 1749.13,-439.57 1755.84,-439.45 1762.68,-439.43 1769.62,-439.49 1776.64,-439.64 1783.73,-439.89 1790.87,-440.22 1798.04,-440.64 1805.21,-441.15 1812.36,-441.75 1819.46,-442.44 1826.5,-443.21 1833.44,-444.07 1840.25,-445.01 1846.93,-446.04 1853.42,-447.16 1859.72,-448.36 1865.8,-449.65 1871.62,-451.02 1877.17,-452.46 1882.41,-453.99 1887.34,-455.6 1891.91,-457.29 1896.12,-459.05 1899.94,-460.88 1903.35,-462.78 1906.34,-464.74 1908.9,-466.77 1911,-468.86 1912.64,-471 1913.81,-473.19 1914.5,-475.43 1914.7,-477.71 1914.43,-480.02 1913.66,-482.36 1912.41,-484.72 1910.68,-487.09 1908.48,-489.48 1905.82,-491.86 1902.7,-494.24 1899.15,-496.6 1895.17,-498.94 1890.78,-501.24 1886,-503.51 1880.86,-505.73 1875.37,-507.89 1869.55,-509.99 1863.44,-512.02 1857.06,-513.97 1850.43,-515.83 1843.59,-517.59"/>
<text text-anchor="middle" x="1769.21" y="-477.43" font-family="sans-serif" font-size="16.00">ReportingContext</text>
</g>
<!-- IdentityContext&#45;&gt;ReportingContext -->
<g id="edge9" class="edge">
<title>IdentityContext&#45;&gt;ReportingContext</title>
<path fill="none" stroke="black" stroke-width="2" d="M1163.46,-610.54C1279.15,-594.63 1460.62,-566.71 1615.21,-529.95 1633.45,-525.61 1652.7,-520.27 1671.16,-514.76"/>
<text text-anchor="middle" x="1597.71" y="-551.35" font-family="sans-serif" font-size="12.00"> &#160;&#160;&#160;&#160;&#160;&#160;&#160;&#160;&#160;&#160;&#160;&#160;&#160;&#160;&#160;&#160;&#160;&#160;&#160;&#160;&#160;&#160;&#160;&#160;&#160;&#160;&#160;&#160;&#160;&#160;&#160;&#160;&#160;&#160;&#160;&#160;&#160;&#160;&#160;</text>
<polygon fill="white" stroke="transparent" points="1652.16,-504.76 1652.16,-523.76 1668.16,-523.76 1668.16,-504.76 1652.16,-504.76"/>
<polyline fill="none" stroke="black" points="1668.16,-504.76 1668.16,-523.76 "/>
<text text-anchor="start" x="1655.16" y="-511.16" font-family="sans-serif" font-size="12.00">D</text>
<polygon fill="white" stroke="transparent" points="1668.16,-504.76 1668.16,-523.76 1690.16,-523.76 1690.16,-504.76 1668.16,-504.76"/>
<polygon fill="none" stroke="black" points="1668.16,-504.76 1668.16,-523.76 1690.16,-523.76 1690.16,-504.76 1668.16,-504.76"/>
<text text-anchor="start" x="1671.16" y="-511.16" font-family="sans-serif" font-size="12.00">CF</text>
<polygon fill="white" stroke="transparent" points="1156.46,-601.54 1156.46,-618.54 1170.46,-618.54 1170.46,-601.54 1156.46,-601.54"/>
<text text-anchor="start" x="1158.46" y="-606.94" font-family="sans-serif" font-size="12.00">U</text>
</g>
<!-- InventoryContext -->
<g id="node11" class="node">
<title>InventoryContext</title>
<polygon fill="none" stroke="black" stroke-width="2" points="633.65,-521.45 625.76,-520.34 618.06,-519.12 610.59,-517.81 603.37,-516.4 596.44,-514.9 589.82,-513.31 583.54,-511.65 577.63,-509.91 572.11,-508.1 567,-506.23 562.32,-504.3 558.08,-502.32 554.29,-500.3 550.98,-498.23 548.15,-496.13 545.8,-494 543.94,-491.85 542.58,-489.67 541.7,-487.49 541.31,-485.3 541.4,-483.1 541.97,-480.91 543,-478.73 544.48,-476.56 546.4,-474.41 548.74,-472.28 551.48,-470.18 554.61,-468.11 558.11,-466.08 561.96,-464.09 566.12,-462.15 570.59,-460.25 575.34,-458.41 580.34,-456.62 585.57,-454.9 591.01,-453.24 596.63,-451.65 602.42,-450.13 608.34,-448.68 614.38,-447.32 620.52,-446.03 626.73,-444.83 633,-443.72 639.3,-442.7 645.63,-441.78 651.96,-440.95 658.28,-440.22 664.57,-439.59 670.83,-439.06 677.03,-438.64 683.18,-438.33 689.26,-438.13 695.27,-438.04 701.18,-438.06 707.01,-438.19 712.75,-438.44 718.38,-438.8 723.91,-439.27 729.33,-439.86 734.63,-440.57 739.82,-441.38 744.89,-442.31 749.84,-443.35 754.67,-444.5 759.36,-445.76 763.93,-447.12 768.35,-448.58 772.64,-450.15 776.78,-451.8 780.77,-453.55 784.6,-455.39 788.26,-457.3 791.76,-459.3 795.07,-461.36 798.19,-463.5 801.11,-465.69 803.82,-467.94 806.32,-470.23 808.57,-472.57 810.59,-474.93 812.34,-477.33 813.83,-479.74 815.04,-482.17 815.95,-484.6 816.56,-487.02 816.84,-489.44 816.8,-491.83 816.42,-494.2 815.68,-496.53 814.59,-498.82 813.12,-501.06 811.28,-503.24 809.06,-505.36 806.46,-507.41 803.46,-509.38 800.07,-511.26 796.3,-513.05 792.14,-514.75 787.6,-516.34 782.68,-517.83 777.4,-519.21 771.76,-520.47 765.78,-521.61 759.48,-522.63 752.86,-523.52 745.96,-524.29 738.79,-524.93 731.37,-525.44 723.73,-525.81 715.9,-526.05 707.9,-526.16 699.77,-526.14 691.53,-525.99 683.22,-525.71 674.86,-525.3 666.5,-524.77 658.16,-524.11 649.89,-523.34 641.71,-522.45 633.65,-521.45"/>
<text text-anchor="middle" x="686.21" y="-477.43" font-family="sans-serif" font-size="16.00">InventoryContext</text>
</g>
<!-- IdentityContext&#45;&gt;InventoryContext -->
<g id="edge13" class="edge">
<title>IdentityContext&#45;&gt;InventoryContext</title>
<path fill="none" stroke="black" stroke-width="2" d="M933.5,-617.83C846.07,-609.45 734.51,-592.77 702.21,-560.95 692.87,-551.75 688.23,-538.69 686.1,-525.85"/>
<text text-anchor="middle" x="777.71" y="-551.35" font-family="sans-serif" font-size="12.00"> &#160;&#160;&#160;&#160;&#160;&#160;&#160;&#160;&#160;&#160;&#160;&#160;&#160;&#160;&#160;&#160;&#160;&#160;&#160;&#160;&#160;&#160;&#160;&#160;&#160;&#160;&#160;&#160;&#160;&#160;&#160;&#160;&#160;&#160;&#160;&#160;&#160;&#160;&#160;</text>
<polygon fill="white" stroke="transparent" points="667.1,-515.85 667.1,-534.85 683.1,-534.85 683.1,-515.85 667.1,-515.85"/>
<polyline fill="none" stroke="black" points="683.1,-515.85 683.1,-534.85 "/>
<text text-anchor="start" x="670.1" y="-522.25" font-family="sans-serif" font-size="12.00">D</text>
<polygon fill="white" stroke="transparent" points="683.1,-515.85 683.1,-534.85 705.1,-534.85 705.1,-515.85 683.1,-515.85"/>
<polygon fill="none" stroke="black" points="683.1,-515.85 683.1,-534.85 705.1,-534.85 705.1,-515.85 683.1,-515.85"/>
<text text-anchor="start" x="686.1" y="-522.25" font-family="sans-serif" font-size="12.00">CF</text>
<polygon fill="white" stroke="transparent" points="926.5,-608.83 926.5,-625.83 940.5,-625.83 940.5,-608.83 926.5,-608.83"/>
<text text-anchor="start" x="928.5" y="-614.23" font-family="sans-serif" font-size="12.00">U</text>
</g>
<!-- NotificationContext -->
<g id="node12" class="node">
<title>NotificationContext</title>
<polygon fill="none" stroke="black" stroke-width="2" points="2099.5,-437.73 2108.65,-438.02 2117.7,-438.43 2126.61,-438.95 2135.35,-439.59 2143.88,-440.35 2152.16,-441.21 2160.17,-442.19 2167.88,-443.27 2175.25,-444.45 2182.25,-445.74 2188.87,-447.12 2195.09,-448.59 2200.87,-450.16 2206.21,-451.8 2211.09,-453.53 2215.5,-455.33 2219.43,-457.21 2222.87,-459.15 2225.82,-461.14 2228.28,-463.2 2230.24,-465.3 2231.71,-467.44 2232.7,-469.63 2233.22,-471.84 2233.26,-474.08 2232.85,-476.34 2232,-478.61 2230.72,-480.89 2229.03,-483.17 2226.95,-485.44 2224.49,-487.71 2221.68,-489.95 2218.53,-492.17 2215.07,-494.37 2211.31,-496.52 2207.28,-498.64 2202.99,-500.71 2198.47,-502.72 2193.74,-504.68 2188.81,-506.57 2183.71,-508.39 2178.45,-510.14 2173.06,-511.82 2167.53,-513.4 2161.9,-514.91 2156.18,-516.32 2150.37,-517.63 2144.49,-518.84 2138.56,-519.96 2132.57,-520.96 2126.54,-521.86 2120.49,-522.65 2114.41,-523.32 2108.3,-523.88 2102.19,-524.32 2096.07,-524.65 2089.94,-524.86 2083.82,-524.94 2077.69,-524.91 2071.58,-524.76 2065.48,-524.48 2059.4,-524.09 2053.34,-523.58 2047.31,-522.96 2041.3,-522.22 2035.34,-521.37 2029.42,-520.4 2023.55,-519.33 2017.74,-518.16 2012,-516.88 2006.35,-515.5 2000.78,-514.03 1995.32,-512.47 1989.98,-510.82 1984.77,-509.09 1979.72,-507.29 1974.82,-505.41 1970.11,-503.46 1965.6,-501.46 1961.31,-499.39 1957.26,-497.28 1953.47,-495.12 1949.95,-492.93 1946.74,-490.7 1943.84,-488.44 1941.28,-486.17 1939.08,-483.88 1937.25,-481.58 1935.82,-479.29 1934.8,-477 1934.2,-474.72 1934.05,-472.45 1934.34,-470.22 1935.11,-468.01 1936.34,-465.84 1938.05,-463.71 1940.25,-461.63 1942.93,-459.61 1946.1,-457.64 1949.76,-455.74 1953.9,-453.91 1958.51,-452.16 1963.58,-450.49 1969.1,-448.9 1975.06,-447.4 1981.43,-445.99 1988.21,-444.68 1995.35,-443.48 2002.85,-442.37 2010.67,-441.38 2018.78,-440.49 2027.16,-439.71 2035.77,-439.05 2044.57,-438.51 2053.54,-438.08 2062.63,-437.77 2071.81,-437.58 2081.04,-437.51 2090.28,-437.56 2099.5,-437.73"/>
<text text-anchor="middle" x="2083.21" y="-477.43" font-family="sans-serif" font-size="16.00">NotificationContext</text>
</g>
<!-- IdentityContext&#45;&gt;NotificationContext -->
<g id="edge16" class="edge">
<title>IdentityContext&#45;&gt;NotificationContext</title>
<path fill="none" stroke="black" stroke-width="2" d="M1174.17,-619.56C1346.07,-609.69 1660.37,-585.31 1923.21,-529.95 1946.18,-525.11 1970.64,-518.56 1993.33,-511.86"/>
<text text-anchor="middle" x="1904.71" y="-551.35" font-family="sans-serif" font-size="12.00"> &#160;&#160;&#160;&#160;&#160;&#160;&#160;&#160;&#160;&#160;&#160;&#160;&#160;&#160;&#160;&#160;&#160;&#160;&#160;&#160;&#160;&#160;&#160;&#160;&#160;&#160;&#160;&#160;&#160;&#160;&#160;&#160;&#160;&#160;&#160;&#160;&#160;&#160;&#160;</text>
<polygon fill="white" stroke="transparent" points="1974.33,-501.86 1974.33,-520.86 1990.33,-520.86 1990.33,-501.86 1974.33,-501.86"/>
<polyline fill="none" stroke="black" points="1990.33,-501.86 1990.33,-520.86 "/>
<text text-anchor="start" x="1977.33" y="-508.26" font-family="sans-serif" font-size="12.00">D</text>
<polygon fill="white" stroke="transparent" points="1990.33,-501.86 1990.33,-520.86 2012.33,-520.86 2012.33,-501.86 1990.33,-501.86"/>
<polygon fill="none" stroke="black" points="1990.33,-501.86 1990.33,-520.86 2012.33,-520.86 2012.33,-501.86 1990.33,-501.86"/>
<text text-anchor="start" x="1993.33" y="-508.26" font-family="sans-serif" font-size="12.00">CF</text>
<polygon fill="white" stroke="transparent" points="1167.17,-610.56 1167.17,-627.56 1181.17,-627.56 1181.17,-610.56 1167.17,-610.56"/>
<text text-anchor="start" x="1169.17" y="-615.96" font-family="sans-serif" font-size="12.00">U</text>
</g>
<!-- InventoryContext&#45;&gt;BorrowingContext -->
<g id="edge18" class="edge">
<title>InventoryContext&#45;&gt;BorrowingContext</title>
<path fill="none" stroke="black" stroke-width="2" d="M634.09,-443.39C614.89,-427.18 594.78,-406.57 582.21,-383.52 554.4,-332.53 587.3,-305.71 559.21,-254.88 554.3,-246 547.74,-237.69 540.57,-230.17"/>
<text text-anchor="middle" x="657.71" y="-331.6" font-family="sans-serif" font-size="12.00"> &#160;&#160;&#160;&#160;&#160;&#160;&#160;&#160;&#160;&#160;&#160;&#160;&#160;&#160;&#160;&#160;&#160;&#160;&#160;&#160;&#160;&#160;&#160;&#160;&#160;&#160;&#160;&#160;&#160;&#160;&#160;&#160;&#160;&#160;&#160;&#160;&#160;&#160;&#160;</text>
<polygon fill="white" stroke="transparent" points="517.57,-220.17 517.57,-239.17 533.57,-239.17 533.57,-220.17 517.57,-220.17"/>
<polyline fill="none" stroke="black" points="533.57,-220.17 533.57,-239.17 "/>
<text text-anchor="start" x="520.57" y="-226.57" font-family="sans-serif" font-size="12.00">D</text>
<polygon fill="white" stroke="transparent" points="533.57,-220.17 533.57,-239.17 563.57,-239.17 563.57,-220.17 533.57,-220.17"/>
<polygon fill="none" stroke="black" points="533.57,-220.17 533.57,-239.17 563.57,-239.17 563.57,-220.17 533.57,-220.17"/>
<text text-anchor="start" x="536.57" y="-226.57" font-family="sans-serif" font-size="12.00">ACL</text>
<polygon fill="white" stroke="transparent" points="627.09,-434.39 627.09,-451.39 641.09,-451.39 641.09,-434.39 627.09,-434.39"/>
<text text-anchor="start" x="629.09" y="-439.79" font-family="sans-serif" font-size="12.00">U</text>
</g>
<!-- InventoryContext&#45;&gt;CatalogContext -->
<g id="edge17" class="edge">
<title>InventoryContext&#45;&gt;CatalogContext</title>
<path fill="none" stroke="black" stroke-width="2" d="M687.12,-438.02C689.28,-425.11 693.68,-411.66 702.21,-401.52 712.23,-389.59 739.85,-376.99 769.86,-366.04"/>
<text text-anchor="middle" x="777.71" y="-404.92" font-family="sans-serif" font-size="12.00"> &#160;&#160;&#160;&#160;&#160;&#160;&#160;&#160;&#160;&#160;&#160;&#160;&#160;&#160;&#160;&#160;&#160;&#160;&#160;&#160;&#160;&#160;&#160;&#160;&#160;&#160;&#160;&#160;&#160;&#160;&#160;&#160;&#160;&#160;&#160;&#160;&#160;&#160;&#160;</text>
<polygon fill="white" stroke="transparent" points="746.86,-356.04 746.86,-375.04 762.86,-375.04 762.86,-356.04 746.86,-356.04"/>
<polyline fill="none" stroke="black" points="762.86,-356.04 762.86,-375.04 "/>
<text text-anchor="start" x="749.86" y="-362.44" font-family="sans-serif" font-size="12.00">D</text>
<polygon fill="white" stroke="transparent" points="762.86,-356.04 762.86,-375.04 792.86,-375.04 792.86,-356.04 762.86,-356.04"/>
<polygon fill="none" stroke="black" points="762.86,-356.04 762.86,-375.04 792.86,-375.04 792.86,-356.04 762.86,-356.04"/>
<text text-anchor="start" x="765.86" y="-362.44" font-family="sans-serif" font-size="12.00">ACL</text>
<polygon fill="white" stroke="transparent" points="652.12,-428.02 652.12,-447.02 668.12,-447.02 668.12,-428.02 652.12,-428.02"/>
<polyline fill="none" stroke="black" points="668.12,-428.02 668.12,-447.02 "/>
<text text-anchor="start" x="655.12" y="-434.42" font-family="sans-serif" font-size="12.00">U</text>
<polygon fill="white" stroke="transparent" points="668.12,-428.02 668.12,-447.02 723.12,-447.02 723.12,-428.02 668.12,-428.02"/>
<polygon fill="none" stroke="black" points="668.12,-428.02 668.12,-447.02 723.12,-447.02 723.12,-428.02 668.12,-428.02"/>
<text text-anchor="start" x="671.12" y="-434.42" font-family="sans-serif" font-size="12.00">OHS, PL</text>
</g>
</g>
</svg>
