<svg width="2000px" height="502px"
 viewBox="0.00 0.00 2745.76 688.67" xmlns="http://www.w3.org/2000/svg" xmlns:xlink="http://www.w3.org/1999/xlink">
<g id="graph0" class="graph" transform="scale(1.0 1.0) rotate(0) translate(4 684.67)">
<title>ContextMapGraph</title>
<polygon fill="white" stroke="transparent" points="-4,4 -4,-684.67 2741.76,-684.67 2741.76,4 -4,4"/>
<!-- AccountingContext -->
<g id="node1" class="node">
<title>AccountingContext</title>
<polygon fill="none" stroke="black" stroke-width="2" points="312.48,-525.75 304.02,-524.64 295.77,-523.43 287.76,-522.11 280.03,-520.7 272.6,-519.2 265.51,-517.62 258.78,-515.95 252.45,-514.21 246.53,-512.41 241.05,-510.54 236.03,-508.61 231.49,-506.63 227.44,-504.6 223.89,-502.54 220.85,-500.44 218.34,-498.31 216.35,-496.15 214.88,-493.98 213.94,-491.8 213.53,-489.6 213.62,-487.41 214.23,-485.22 215.33,-483.04 216.92,-480.87 218.98,-478.72 221.48,-476.59 224.43,-474.49 227.78,-472.42 231.53,-470.39 235.65,-468.4 240.11,-466.45 244.9,-464.56 249.99,-462.71 255.35,-460.93 260.95,-459.2 266.78,-457.54 272.81,-455.95 279.01,-454.43 285.35,-452.99 291.83,-451.62 298.4,-450.34 305.06,-449.14 311.77,-448.03 318.53,-447.01 325.31,-446.08 332.09,-445.26 338.86,-444.52 345.61,-443.9 352.31,-443.37 358.96,-442.95 365.55,-442.64 372.07,-442.44 378.5,-442.34 384.84,-442.36 391.09,-442.5 397.23,-442.74 403.27,-443.11 409.19,-443.58 415,-444.17 420.68,-444.87 426.25,-445.69 431.68,-446.62 436.98,-447.66 442.15,-448.81 447.18,-450.07 452.07,-451.43 456.82,-452.89 461.41,-454.45 465.85,-456.11 470.12,-457.86 474.23,-459.69 478.15,-461.61 481.9,-463.6 485.45,-465.67 488.79,-467.8 491.92,-470 494.83,-472.24 497.5,-474.54 499.92,-476.87 502.08,-479.24 503.96,-481.64 505.55,-484.05 506.85,-486.47 507.82,-488.9 508.47,-491.33 508.78,-493.74 508.73,-496.14 508.32,-498.51 507.54,-500.84 506.36,-503.13 504.79,-505.37 502.82,-507.55 500.44,-509.67 497.65,-511.71 494.44,-513.68 490.81,-515.57 486.76,-517.36 482.31,-519.06 477.44,-520.65 472.17,-522.14 466.51,-523.51 460.47,-524.78 454.06,-525.92 447.31,-526.94 440.22,-527.83 432.82,-528.6 425.14,-529.24 417.19,-529.74 409,-530.12 400.61,-530.36 392.04,-530.47 383.32,-530.45 374.49,-530.3 365.59,-530.02 356.64,-529.61 347.67,-529.08 338.74,-528.42 329.87,-527.65 321.11,-526.76 312.48,-525.75"/>
<text text-anchor="middle" x="368.79" y="-481.74" font-family="sans-serif" font-size="16.00">AccountingContext</text>
</g>
<!-- PaymentContext -->
<g id="node2" class="node">
<title>PaymentContext</title>
<polygon fill="none" stroke="black" stroke-width="2" points="321.13,-324.71 323.65,-321.96 326.48,-319.27 329.63,-316.65 333.06,-314.11 336.78,-311.65 340.76,-309.29 345.01,-307.04 349.49,-304.91 354.21,-302.9 359.14,-301.02 364.27,-299.28 369.59,-297.69 375.07,-296.24 380.72,-294.95 386.5,-293.81 392.41,-292.84 398.43,-292.03 404.54,-291.38 410.72,-290.89 416.97,-290.57 423.27,-290.41 429.59,-290.41 435.93,-290.56 442.27,-290.87 448.6,-291.32 454.89,-291.92 461.14,-292.66 467.33,-293.53 473.45,-294.52 479.48,-295.64 485.4,-296.86 491.21,-298.2 496.89,-299.63 502.43,-301.15 507.81,-302.75 513.03,-304.43 518.06,-306.18 522.9,-307.98 527.54,-309.84 531.96,-311.75 536.16,-313.7 540.11,-315.67 543.82,-317.68 547.27,-319.7 550.46,-321.74 553.37,-323.79 555.99,-325.85 558.32,-327.91 560.35,-329.96 562.07,-332 563.48,-334.04 564.58,-336.06 565.34,-338.06 565.78,-340.05 565.89,-342.02 565.67,-343.96 565.11,-345.88 564.21,-347.78 562.97,-349.65 561.4,-351.49 559.5,-353.3 557.26,-355.08 554.69,-356.83 551.8,-358.55 548.6,-360.24 545.08,-361.89 541.26,-363.5 537.14,-365.07 532.74,-366.61 528.07,-368.1 523.13,-369.54 517.94,-370.94 512.52,-372.29 506.88,-373.58 501.03,-374.81 494.99,-375.98 488.78,-377.09 482.41,-378.13 475.91,-379.09 469.29,-379.97 462.57,-380.77 455.78,-381.48 448.93,-382.1 442.04,-382.62 435.14,-383.03 428.25,-383.34 421.38,-383.54 414.57,-383.62 407.82,-383.57 401.17,-383.41 394.63,-383.11 388.22,-382.69 381.96,-382.13 375.88,-381.43 369.98,-380.6 364.3,-379.63 358.85,-378.52 353.64,-377.27 348.68,-375.89 344.01,-374.37 339.62,-372.72 335.53,-370.94 331.75,-369.03 328.3,-367.01 325.18,-364.87 322.41,-362.62 319.98,-360.27 317.9,-357.83 316.19,-355.3 314.83,-352.69 313.85,-350.02 313.22,-347.29 312.96,-344.51 313.07,-341.7 313.54,-338.86 314.36,-336.01 315.54,-333.16 317.06,-330.32 318.93,-327.5 321.13,-324.71"/>
<text text-anchor="middle" x="440.79" y="-335.01" font-family="sans-serif" font-size="16.00">PaymentContext</text>
</g>
<!-- AccountingContext&#45;&gt;PaymentContext -->
<g id="edge1" class="edge">
<title>AccountingContext&#45;&gt;PaymentContext</title>
<path fill="none" stroke="black" stroke-width="2" d="M380.22,-442.3C384.16,-430.19 389.05,-417.16 394.79,-405.69 398.48,-398.33 402.91,-390.86 407.54,-383.73"/>
<text text-anchor="middle" x="470.29" y="-409.09" font-family="sans-serif" font-size="12.00"> &#160;&#160;&#160;&#160;&#160;&#160;&#160;&#160;&#160;&#160;&#160;&#160;&#160;&#160;&#160;&#160;&#160;&#160;&#160;&#160;&#160;&#160;&#160;&#160;&#160;&#160;&#160;&#160;&#160;&#160;&#160;&#160;&#160;&#160;&#160;&#160;&#160;&#160;&#160;</text>
<polygon fill="white" stroke="transparent" points="384.54,-373.73 384.54,-392.73 400.54,-392.73 400.54,-373.73 384.54,-373.73"/>
<polyline fill="none" stroke="black" points="400.54,-373.73 400.54,-392.73 "/>
<text text-anchor="start" x="387.54" y="-380.13" font-family="sans-serif" font-size="12.00">D</text>
<polygon fill="white" stroke="transparent" points="400.54,-373.73 400.54,-392.73 430.54,-392.73 430.54,-373.73 400.54,-373.73"/>
<polygon fill="none" stroke="black" points="400.54,-373.73 400.54,-392.73 430.54,-392.73 430.54,-373.73 400.54,-373.73"/>
<text text-anchor="start" x="403.54" y="-380.13" font-family="sans-serif" font-size="12.00">ACL</text>
<polygon fill="white" stroke="transparent" points="345.22,-432.3 345.22,-451.3 361.22,-451.3 361.22,-432.3 345.22,-432.3"/>
<polyline fill="none" stroke="black" points="361.22,-432.3 361.22,-451.3 "/>
<text text-anchor="start" x="348.22" y="-438.7" font-family="sans-serif" font-size="12.00">U</text>
<polygon fill="white" stroke="transparent" points="361.22,-432.3 361.22,-451.3 416.22,-451.3 416.22,-432.3 361.22,-432.3"/>
<polygon fill="none" stroke="black" points="361.22,-432.3 361.22,-451.3 416.22,-451.3 416.22,-432.3 361.22,-432.3"/>
<text text-anchor="start" x="364.22" y="-438.7" font-family="sans-serif" font-size="12.00">OHS, PL</text>
</g>
<!-- OrderContext -->
<g id="node3" class="node">
<title>OrderContext</title>
<polygon fill="none" stroke="black" stroke-width="2" points="542.5,-205.49 540.58,-208.25 538.38,-210.96 535.91,-213.61 533.19,-216.19 530.22,-218.68 527,-221.08 523.56,-223.37 519.9,-225.55 516.04,-227.61 511.97,-229.54 507.73,-231.33 503.31,-232.99 498.73,-234.49 494.01,-235.85 489.15,-237.05 484.17,-238.09 479.09,-238.97 473.91,-239.69 468.65,-240.25 463.33,-240.65 457.95,-240.89 452.53,-240.97 447.09,-240.89 441.63,-240.66 436.17,-240.28 430.73,-239.76 425.31,-239.11 419.94,-238.32 414.61,-237.4 409.35,-236.36 404.17,-235.21 399.08,-233.96 394.09,-232.6 389.22,-231.15 384.47,-229.62 379.86,-228.01 375.4,-226.33 371.1,-224.59 366.97,-222.8 363.02,-220.95 359.26,-219.07 355.7,-217.14 352.35,-215.19 349.22,-213.22 346.32,-211.22 343.65,-209.22 341.23,-207.2 339.06,-205.18 337.14,-203.16 335.49,-201.15 334.11,-199.14 333,-197.14 332.17,-195.15 331.62,-193.18 331.36,-191.22 331.39,-189.28 331.7,-187.36 332.31,-185.46 333.21,-183.58 334.4,-181.73 335.87,-179.9 337.64,-178.1 339.69,-176.33 342.01,-174.58 344.62,-172.86 347.49,-171.18 350.62,-169.52 354.01,-167.91 357.65,-166.33 361.53,-164.78 365.63,-163.28 369.96,-161.83 374.49,-160.42 379.21,-159.07 384.11,-157.77 389.19,-156.53 394.41,-155.35 399.78,-154.24 405.26,-153.2 410.86,-152.24 416.54,-151.37 422.3,-150.58 428.12,-149.88 433.97,-149.28 439.84,-148.78 445.72,-148.39 451.59,-148.11 457.42,-147.95 463.2,-147.91 468.92,-148 474.55,-148.21 480.07,-148.56 485.48,-149.04 490.75,-149.66 495.87,-150.41 500.82,-151.31 505.59,-152.35 510.16,-153.53 514.52,-154.85 518.65,-156.3 522.55,-157.89 526.21,-159.62 529.61,-161.47 532.73,-163.44 535.59,-165.54 538.16,-167.74 540.44,-170.05 542.43,-172.46 544.11,-174.96 545.5,-177.54 546.57,-180.19 547.34,-182.9 547.8,-185.66 547.95,-188.46 547.79,-191.29 547.33,-194.14 546.57,-197 545.5,-199.85 544.15,-202.68 542.5,-205.49"/>
<text text-anchor="middle" x="438.79" y="-189.09" font-family="sans-serif" font-size="16.00">OrderContext</text>
</g>
<!-- PaymentContext&#45;&gt;OrderContext -->
<g id="edge2" class="edge">
<title>PaymentContext&#45;&gt;OrderContext</title>
<path fill="none" stroke="black" stroke-width="2" d="M440.06,-290.67C439.97,-284.37 439.88,-277.99 439.79,-271.93 439.65,-261.77 439.51,-250.86 439.37,-240.52"/>
<text text-anchor="middle" x="515.29" y="-262.33" font-family="sans-serif" font-size="12.00"> &#160;&#160;&#160;&#160;&#160;&#160;&#160;&#160;&#160;&#160;&#160;&#160;&#160;&#160;&#160;&#160;&#160;&#160;&#160;&#160;&#160;&#160;&#160;&#160;&#160;&#160;&#160;&#160;&#160;&#160;&#160;&#160;&#160;&#160;&#160;&#160;&#160;&#160;&#160;</text>
<polygon fill="white" stroke="transparent" points="416.37,-230.52 416.37,-249.52 432.37,-249.52 432.37,-230.52 416.37,-230.52"/>
<polyline fill="none" stroke="black" points="432.37,-230.52 432.37,-249.52 "/>
<text text-anchor="start" x="419.37" y="-236.92" font-family="sans-serif" font-size="12.00">D</text>
<polygon fill="white" stroke="transparent" points="432.37,-230.52 432.37,-249.52 462.37,-249.52 462.37,-230.52 432.37,-230.52"/>
<polygon fill="none" stroke="black" points="432.37,-230.52 432.37,-249.52 462.37,-249.52 462.37,-230.52 432.37,-230.52"/>
<text text-anchor="start" x="435.37" y="-236.92" font-family="sans-serif" font-size="12.00">ACL</text>
<polygon fill="white" stroke="transparent" points="433.06,-281.67 433.06,-298.67 447.06,-298.67 447.06,-281.67 433.06,-281.67"/>
<text text-anchor="start" x="435.06" y="-287.07" font-family="sans-serif" font-size="12.00">U</text>
</g>
<!-- AdvertisingCampaignContext -->
<g id="node4" class="node">
<title>AdvertisingCampaignContext</title>
<polygon fill="none" stroke="black" stroke-width="2" points="1456.98,-463.22 1463.46,-460.73 1470.38,-458.33 1477.7,-456.01 1485.41,-453.78 1493.47,-451.67 1501.85,-449.66 1510.53,-447.78 1519.48,-446.04 1528.67,-444.42 1538.06,-442.95 1547.64,-441.64 1557.36,-440.47 1567.21,-439.46 1577.16,-438.61 1587.17,-437.93 1597.22,-437.41 1607.29,-437.06 1617.35,-436.87 1627.38,-436.84 1637.35,-436.98 1647.24,-437.28 1657.02,-437.73 1666.68,-438.34 1676.2,-439.09 1685.56,-439.99 1694.73,-441.02 1703.7,-442.19 1712.46,-443.48 1720.98,-444.89 1729.26,-446.4 1737.27,-448.02 1745,-449.74 1752.44,-451.54 1759.58,-453.41 1766.39,-455.36 1772.88,-457.36 1779.02,-459.42 1784.81,-461.53 1790.23,-463.67 1795.27,-465.84 1799.93,-468.03 1804.19,-470.23 1808.04,-472.45 1811.47,-474.66 1814.47,-476.87 1817.04,-479.07 1819.17,-481.26 1820.84,-483.42 1822.05,-485.56 1822.79,-487.67 1823.05,-489.75 1822.84,-491.79 1822.14,-493.8 1820.95,-495.76 1819.27,-497.67 1817.09,-499.55 1814.41,-501.37 1811.24,-503.15 1807.57,-504.87 1803.41,-506.55 1798.75,-508.17 1793.62,-509.74 1788,-511.25 1781.91,-512.71 1775.37,-514.12 1768.37,-515.47 1760.95,-516.76 1753.1,-517.99 1744.85,-519.16 1736.22,-520.27 1727.22,-521.32 1717.88,-522.3 1708.23,-523.22 1698.28,-524.07 1688.08,-524.84 1677.63,-525.55 1666.98,-526.17 1656.16,-526.72 1645.2,-527.18 1634.13,-527.56 1622.99,-527.86 1611.81,-528.06 1600.64,-528.16 1589.5,-528.17 1578.44,-528.08 1567.48,-527.88 1556.68,-527.57 1546.06,-527.16 1535.67,-526.63 1525.53,-525.99 1515.69,-525.23 1506.18,-524.35 1497.03,-523.36 1488.27,-522.25 1479.94,-521.01 1472.07,-519.66 1464.67,-518.19 1457.79,-516.6 1451.43,-514.9 1445.62,-513.09 1440.39,-511.17 1435.74,-509.15 1431.7,-507.03 1428.26,-504.81 1425.45,-502.51 1423.27,-500.12 1421.73,-497.67 1420.82,-495.15 1420.55,-492.57 1420.91,-489.94 1421.89,-487.27 1423.5,-484.58 1425.71,-481.86 1428.52,-479.14 1431.91,-476.42 1435.87,-473.71 1440.38,-471.02 1445.41,-468.37 1450.95,-465.77 1456.98,-463.22"/>
<text text-anchor="middle" x="1628.79" y="-481.74" font-family="sans-serif" font-size="16.00">AdvertisingCampaignContext</text>
</g>
<!-- CatalogContext -->
<g id="node5" class="node">
<title>CatalogContext</title>
<polygon fill="none" stroke="black" stroke-width="2" points="851.26,-377.68 844.28,-376.38 837.5,-374.99 830.94,-373.51 824.63,-371.93 818.6,-370.28 812.87,-368.54 807.47,-366.74 802.42,-364.86 797.73,-362.93 793.43,-360.95 789.53,-358.92 786.04,-356.84 782.98,-354.74 780.36,-352.6 778.17,-350.44 776.44,-348.26 775.16,-346.07 774.33,-343.87 773.94,-341.67 774,-339.48 774.51,-337.29 775.44,-335.12 776.79,-332.97 778.55,-330.84 780.71,-328.74 783.25,-326.68 786.15,-324.65 789.39,-322.66 792.97,-320.71 796.85,-318.82 801.01,-316.98 805.45,-315.19 810.12,-313.46 815.02,-311.8 820.11,-310.2 825.38,-308.68 830.81,-307.22 836.37,-305.84 842.04,-304.54 847.8,-303.32 853.64,-302.18 859.53,-301.13 865.45,-300.17 871.39,-299.3 877.32,-298.53 883.25,-297.85 889.14,-297.27 895,-296.79 900.8,-296.41 906.53,-296.14 912.19,-295.97 917.77,-295.91 923.26,-295.96 928.65,-296.11 933.94,-296.38 939.11,-296.76 944.18,-297.25 949.12,-297.86 953.95,-298.57 958.65,-299.4 963.22,-300.33 967.66,-301.38 971.97,-302.53 976.15,-303.79 980.19,-305.15 984.09,-306.62 987.84,-308.18 991.45,-309.84 994.91,-311.58 998.21,-313.42 1001.35,-315.34 1004.33,-317.34 1007.13,-319.41 1009.75,-321.54 1012.19,-323.74 1014.44,-326 1016.48,-328.3 1018.32,-330.65 1019.93,-333.03 1021.31,-335.44 1022.46,-337.86 1023.35,-340.31 1023.99,-342.75 1024.36,-345.2 1024.45,-347.63 1024.26,-350.04 1023.76,-352.43 1022.96,-354.78 1021.85,-357.09 1020.42,-359.34 1018.66,-361.54 1016.56,-363.68 1014.14,-365.74 1011.37,-367.72 1008.27,-369.61 1004.83,-371.41 1001.05,-373.11 996.93,-374.7 992.49,-376.18 987.73,-377.55 982.65,-378.8 977.28,-379.93 971.61,-380.93 965.68,-381.8 959.48,-382.53 953.04,-383.14 946.39,-383.6 939.53,-383.94 932.5,-384.13 925.32,-384.19 918.01,-384.11 910.61,-383.9 903.13,-383.56 895.61,-383.09 888.07,-382.48 880.56,-381.76 873.09,-380.91 865.69,-379.94 858.41,-378.87 851.26,-377.68"/>
<text text-anchor="middle" x="906.79" y="-335.01" font-family="sans-serif" font-size="16.00">CatalogContext</text>
</g>
<!-- CatalogContext&#45;&gt;OrderContext -->
<g id="edge3" class="edge">
<title>CatalogContext&#45;&gt;OrderContext</title>
<path fill="none" stroke="black" stroke-width="2" d="M821.4,-309.61C801.23,-303.06 779.78,-296.17 759.79,-289.93 681.92,-265.6 593.03,-239.11 528.56,-220.12"/>
<text text-anchor="middle" x="773.29" y="-262.33" font-family="sans-serif" font-size="12.00"> &#160;&#160;&#160;&#160;&#160;&#160;&#160;&#160;&#160;&#160;&#160;&#160;&#160;&#160;&#160;&#160;&#160;&#160;&#160;&#160;&#160;&#160;&#160;&#160;&#160;&#160;&#160;&#160;&#160;&#160;&#160;&#160;&#160;&#160;&#160;&#160;&#160;&#160;&#160;</text>
<polygon fill="white" stroke="transparent" points="505.56,-210.12 505.56,-229.12 521.56,-229.12 521.56,-210.12 505.56,-210.12"/>
<polyline fill="none" stroke="black" points="521.56,-210.12 521.56,-229.12 "/>
<text text-anchor="start" x="508.56" y="-216.52" font-family="sans-serif" font-size="12.00">D</text>
<polygon fill="white" stroke="transparent" points="521.56,-210.12 521.56,-229.12 551.56,-229.12 551.56,-210.12 521.56,-210.12"/>
<polygon fill="none" stroke="black" points="521.56,-210.12 521.56,-229.12 551.56,-229.12 551.56,-210.12 521.56,-210.12"/>
<text text-anchor="start" x="524.56" y="-216.52" font-family="sans-serif" font-size="12.00">ACL</text>
<polygon fill="white" stroke="transparent" points="814.4,-300.61 814.4,-317.61 828.4,-317.61 828.4,-300.61 814.4,-300.61"/>
<text text-anchor="start" x="816.4" y="-306.01" font-family="sans-serif" font-size="12.00">U</text>
</g>
<!-- ProfileContext -->
<g id="node6" class="node">
<title>ProfileContext</title>
<polygon fill="none" stroke="black" stroke-width="2" points="1253.42,-231.76 1246.96,-230.47 1240.69,-229.08 1234.62,-227.59 1228.78,-226.02 1223.21,-224.36 1217.91,-222.63 1212.91,-220.82 1208.24,-218.95 1203.9,-217.02 1199.92,-215.03 1196.31,-213 1193.08,-210.93 1190.25,-208.82 1187.83,-206.68 1185.81,-204.52 1184.2,-202.34 1183.02,-200.15 1182.25,-197.96 1181.89,-195.76 1181.95,-193.56 1182.41,-191.38 1183.28,-189.21 1184.53,-187.06 1186.16,-184.93 1188.15,-182.83 1190.5,-180.76 1193.18,-178.73 1196.19,-176.74 1199.49,-174.8 1203.08,-172.9 1206.94,-171.06 1211.04,-169.28 1215.36,-167.55 1219.89,-165.89 1224.6,-164.29 1229.48,-162.76 1234.5,-161.3 1239.64,-159.92 1244.89,-158.62 1250.22,-157.4 1255.62,-156.27 1261.07,-155.22 1266.54,-154.25 1272.04,-153.39 1277.53,-152.61 1283.01,-151.93 1288.47,-151.35 1293.88,-150.87 1299.25,-150.49 1304.55,-150.22 1309.79,-150.05 1314.95,-149.99 1320.03,-150.04 1325.01,-150.2 1329.9,-150.47 1334.69,-150.85 1339.38,-151.34 1343.95,-151.94 1348.41,-152.66 1352.76,-153.48 1356.99,-154.42 1361.1,-155.46 1365.09,-156.62 1368.96,-157.88 1372.69,-159.24 1376.3,-160.7 1379.77,-162.26 1383.11,-163.92 1386.31,-165.67 1389.36,-167.5 1392.27,-169.42 1395.02,-171.42 1397.62,-173.49 1400.04,-175.63 1402.3,-177.83 1404.38,-180.08 1406.27,-182.39 1407.96,-184.73 1409.46,-187.11 1410.74,-189.52 1411.8,-191.95 1412.63,-194.39 1413.22,-196.84 1413.56,-199.28 1413.64,-201.71 1413.46,-204.13 1413,-206.51 1412.26,-208.86 1411.23,-211.17 1409.91,-213.43 1408.28,-215.63 1406.34,-217.76 1404.1,-219.82 1401.54,-221.8 1398.67,-223.69 1395.48,-225.49 1391.99,-227.19 1388.18,-228.78 1384.07,-230.27 1379.67,-231.64 1374.97,-232.89 1370,-234.01 1364.76,-235.01 1359.27,-235.88 1353.53,-236.62 1347.58,-237.22 1341.42,-237.69 1335.08,-238.02 1328.58,-238.22 1321.93,-238.27 1315.17,-238.2 1308.32,-237.99 1301.4,-237.64 1294.45,-237.17 1287.48,-236.57 1280.52,-235.84 1273.61,-234.99 1266.77,-234.03 1260.03,-232.95 1253.42,-231.76"/>
<text text-anchor="middle" x="1304.79" y="-189.09" font-family="sans-serif" font-size="16.00">ProfileContext</text>
</g>
<!-- CatalogContext&#45;&gt;ProfileContext -->
<g id="edge4" class="edge">
<title>CatalogContext&#45;&gt;ProfileContext</title>
<path fill="none" stroke="black" stroke-width="2" d="M988.29,-308.34C1056.41,-283.71 1153.13,-248.73 1221.69,-223.94"/>
<text text-anchor="middle" x="1192.29" y="-262.33" font-family="sans-serif" font-size="12.00"> &#160;&#160;&#160;&#160;&#160;&#160;&#160;&#160;&#160;&#160;&#160;&#160;&#160;&#160;&#160;&#160;&#160;&#160;&#160;&#160;&#160;&#160;&#160;&#160;&#160;&#160;&#160;&#160;&#160;&#160;&#160;&#160;&#160;&#160;&#160;&#160;&#160;&#160;&#160;</text>
<polygon fill="white" stroke="transparent" points="1198.69,-213.94 1198.69,-232.94 1214.69,-232.94 1214.69,-213.94 1198.69,-213.94"/>
<polyline fill="none" stroke="black" points="1214.69,-213.94 1214.69,-232.94 "/>
<text text-anchor="start" x="1201.69" y="-220.34" font-family="sans-serif" font-size="12.00">D</text>
<polygon fill="white" stroke="transparent" points="1214.69,-213.94 1214.69,-232.94 1244.69,-232.94 1244.69,-213.94 1214.69,-213.94"/>
<polygon fill="none" stroke="black" points="1214.69,-213.94 1214.69,-232.94 1244.69,-232.94 1244.69,-213.94 1214.69,-213.94"/>
<text text-anchor="start" x="1217.69" y="-220.34" font-family="sans-serif" font-size="12.00">ACL</text>
<polygon fill="white" stroke="transparent" points="981.29,-299.34 981.29,-316.34 995.29,-316.34 995.29,-299.34 981.29,-299.34"/>
<text text-anchor="start" x="983.29" y="-304.74" font-family="sans-serif" font-size="12.00">U</text>
</g>
<!-- RecommandationContext -->
<g id="node7" class="node">
<title>RecommandationContext</title>
<polygon fill="none" stroke="black" stroke-width="2" points="1197.8,-13.06 1206.85,-11.29 1216.14,-9.62 1225.64,-8.07 1235.3,-6.64 1245.09,-5.34 1254.97,-4.17 1264.92,-3.14 1274.88,-2.25 1284.83,-1.51 1294.74,-0.92 1304.57,-0.48 1314.29,-0.2 1323.87,-0.07 1333.29,-0.1 1342.52,-0.29 1351.54,-0.63 1360.32,-1.13 1368.84,-1.79 1377.08,-2.59 1385.04,-3.54 1392.69,-4.63 1400.01,-5.85 1407.01,-7.21 1413.66,-8.7 1419.97,-10.3 1425.91,-12.02 1431.5,-13.84 1436.73,-15.76 1441.58,-17.76 1446.07,-19.85 1450.18,-22.02 1453.93,-24.24 1457.31,-26.53 1460.32,-28.86 1462.97,-31.22 1465.25,-33.62 1467.17,-36.04 1468.74,-38.47 1469.95,-40.9 1470.81,-43.33 1471.31,-45.75 1471.47,-48.15 1471.28,-50.52 1470.75,-52.86 1469.88,-55.16 1468.66,-57.42 1467.11,-59.62 1465.21,-61.77 1462.97,-63.85 1460.4,-65.88 1457.48,-67.83 1454.23,-69.71 1450.63,-71.51 1446.7,-73.23 1442.43,-74.87 1437.82,-76.43 1432.88,-77.91 1427.6,-79.3 1422,-80.6 1416.06,-81.81 1409.81,-82.93 1403.23,-83.97 1396.35,-84.91 1389.16,-85.77 1381.69,-86.53 1373.93,-87.21 1365.9,-87.8 1357.62,-88.3 1349.1,-88.71 1340.35,-89.03 1331.41,-89.26 1322.28,-89.4 1313,-89.46 1303.58,-89.43 1294.05,-89.31 1284.44,-89.1 1274.77,-88.81 1265.09,-88.43 1255.41,-87.96 1245.78,-87.4 1236.22,-86.75 1226.77,-86.02 1217.46,-85.2 1208.33,-84.29 1199.41,-83.29 1190.74,-82.2 1182.36,-81.03 1174.29,-79.77 1166.58,-78.43 1159.25,-77 1152.33,-75.48 1145.87,-73.89 1139.87,-72.21 1134.39,-70.46 1129.43,-68.63 1125.02,-66.72 1121.18,-64.75 1117.94,-62.71 1115.3,-60.6 1113.28,-58.44 1111.89,-56.23 1111.13,-53.97 1111.02,-51.67 1111.55,-49.33 1112.73,-46.96 1114.54,-44.56 1116.98,-42.15 1120.04,-39.74 1123.7,-37.32 1127.96,-34.91 1132.79,-32.51 1138.17,-30.14 1144.07,-27.8 1150.48,-25.51 1157.36,-23.26 1164.69,-21.07 1172.43,-18.94 1180.55,-16.9 1189.02,-14.93 1197.8,-13.06"/>
<text text-anchor="middle" x="1304.79" y="-44.13" font-family="sans-serif" font-size="16.00">RecommandationContext</text>
</g>
<!-- CatalogContext&#45;&gt;RecommandationContext -->
<g id="edge5" class="edge">
<title>CatalogContext&#45;&gt;RecommandationContext</title>
<path fill="none" stroke="black" stroke-width="2" d="M921.73,-295.74C939.26,-252.13 972.37,-184.83 1021.79,-144.86 1061.22,-112.97 1111.8,-91.45 1159.27,-77.02"/>
<text text-anchor="middle" x="1097.29" y="-189.79" font-family="sans-serif" font-size="12.00"> &#160;&#160;&#160;&#160;&#160;&#160;&#160;&#160;&#160;&#160;&#160;&#160;&#160;&#160;&#160;&#160;&#160;&#160;&#160;&#160;&#160;&#160;&#160;&#160;&#160;&#160;&#160;&#160;&#160;&#160;&#160;&#160;&#160;&#160;&#160;&#160;&#160;&#160;&#160;</text>
<polygon fill="white" stroke="transparent" points="1140.27,-67.02 1140.27,-86.02 1156.27,-86.02 1156.27,-67.02 1140.27,-67.02"/>
<polyline fill="none" stroke="black" points="1156.27,-67.02 1156.27,-86.02 "/>
<text text-anchor="start" x="1143.27" y="-73.42" font-family="sans-serif" font-size="12.00">D</text>
<polygon fill="white" stroke="transparent" points="1156.27,-67.02 1156.27,-86.02 1178.27,-86.02 1178.27,-67.02 1156.27,-67.02"/>
<polygon fill="none" stroke="black" points="1156.27,-67.02 1156.27,-86.02 1178.27,-86.02 1178.27,-67.02 1156.27,-67.02"/>
<text text-anchor="start" x="1159.27" y="-73.42" font-family="sans-serif" font-size="12.00">CF</text>
<polygon fill="white" stroke="transparent" points="914.73,-286.74 914.73,-303.74 928.73,-303.74 928.73,-286.74 914.73,-286.74"/>
<text text-anchor="start" x="916.73" y="-292.14" font-family="sans-serif" font-size="12.00">U</text>
</g>
<!-- ProfileContext&#45;&gt;RecommandationContext -->
<g id="edge6" class="edge">
<title>ProfileContext&#45;&gt;RecommandationContext</title>
<path fill="none" stroke="black" stroke-width="2" d="M1304.79,-150.16C1304.79,-131.04 1304.79,-108.46 1304.79,-89.49"/>
<text text-anchor="middle" x="1380.29" y="-117.26" font-family="sans-serif" font-size="12.00"> &#160;&#160;&#160;&#160;&#160;&#160;&#160;&#160;&#160;&#160;&#160;&#160;&#160;&#160;&#160;&#160;&#160;&#160;&#160;&#160;&#160;&#160;&#160;&#160;&#160;&#160;&#160;&#160;&#160;&#160;&#160;&#160;&#160;&#160;&#160;&#160;&#160;&#160;&#160;</text>
<polygon fill="white" stroke="transparent" points="1281.79,-79.49 1281.79,-98.49 1297.79,-98.49 1297.79,-79.49 1281.79,-79.49"/>
<polyline fill="none" stroke="black" points="1297.79,-79.49 1297.79,-98.49 "/>
<text text-anchor="start" x="1284.79" y="-85.89" font-family="sans-serif" font-size="12.00">D</text>
<polygon fill="white" stroke="transparent" points="1297.79,-79.49 1297.79,-98.49 1327.79,-98.49 1327.79,-79.49 1297.79,-79.49"/>
<polygon fill="none" stroke="black" points="1297.79,-79.49 1297.79,-98.49 1327.79,-98.49 1327.79,-79.49 1297.79,-79.49"/>
<text text-anchor="start" x="1300.79" y="-85.89" font-family="sans-serif" font-size="12.00">ACL</text>
<polygon fill="white" stroke="transparent" points="1269.79,-140.16 1269.79,-159.16 1285.79,-159.16 1285.79,-140.16 1269.79,-140.16"/>
<polyline fill="none" stroke="black" points="1285.79,-140.16 1285.79,-159.16 "/>
<text text-anchor="start" x="1272.79" y="-146.56" font-family="sans-serif" font-size="12.00">U</text>
<polygon fill="white" stroke="transparent" points="1285.79,-140.16 1285.79,-159.16 1340.79,-159.16 1340.79,-140.16 1285.79,-140.16"/>
<polygon fill="none" stroke="black" points="1285.79,-140.16 1285.79,-159.16 1340.79,-159.16 1340.79,-140.16 1285.79,-140.16"/>
<text text-anchor="start" x="1288.79" y="-146.56" font-family="sans-serif" font-size="12.00">OHS, PL</text>
</g>
<!-- IdentityContext -->
<g id="node8" class="node">
<title>IdentityContext</title>
<polygon fill="none" stroke="black" stroke-width="2" points="1411.55,-650.4 1408.39,-653.03 1404.96,-655.6 1401.25,-658.09 1397.3,-660.49 1393.1,-662.8 1388.68,-664.99 1384.04,-667.07 1379.21,-669.03 1374.2,-670.85 1369.02,-672.54 1363.69,-674.08 1358.23,-675.47 1352.65,-676.71 1346.96,-677.79 1341.19,-678.7 1335.35,-679.45 1329.45,-680.04 1323.51,-680.46 1317.54,-680.72 1311.56,-680.81 1305.59,-680.74 1299.62,-680.51 1293.69,-680.13 1287.81,-679.59 1281.98,-678.91 1276.22,-678.09 1270.54,-677.13 1264.95,-676.04 1259.47,-674.83 1254.1,-673.5 1248.87,-672.06 1243.77,-670.53 1238.83,-668.9 1234.04,-667.19 1229.42,-665.4 1224.99,-663.54 1220.74,-661.62 1216.69,-659.65 1212.85,-657.63 1209.22,-655.58 1205.82,-653.49 1202.65,-651.39 1199.73,-649.26 1197.05,-647.12 1194.63,-644.98 1192.47,-642.84 1190.58,-640.7 1188.97,-638.57 1187.63,-636.46 1186.59,-634.37 1185.84,-632.29 1185.38,-630.25 1185.23,-628.23 1185.38,-626.24 1185.83,-624.28 1186.6,-622.36 1187.67,-620.47 1189.05,-618.62 1190.75,-616.81 1192.75,-615.04 1195.06,-613.31 1197.67,-611.62 1200.58,-609.97 1203.79,-608.37 1207.29,-606.81 1211.08,-605.3 1215.13,-603.84 1219.46,-602.43 1224.04,-601.06 1228.87,-599.75 1233.93,-598.5 1239.21,-597.3 1244.7,-596.16 1250.38,-595.08 1256.24,-594.07 1262.27,-593.13 1268.43,-592.26 1274.73,-591.46 1281.12,-590.74 1287.61,-590.1 1294.17,-589.56 1300.77,-589.1 1307.4,-588.73 1314.03,-588.47 1320.65,-588.31 1327.23,-588.25 1333.76,-588.31 1340.2,-588.48 1346.55,-588.77 1352.77,-589.18 1358.85,-589.71 1364.77,-590.37 1370.51,-591.15 1376.04,-592.06 1381.36,-593.1 1386.44,-594.28 1391.26,-595.58 1395.82,-597 1400.09,-598.56 1404.07,-600.24 1407.74,-602.04 1411.08,-603.95 1414.1,-605.98 1416.78,-608.12 1419.11,-610.36 1421.09,-612.7 1422.71,-615.12 1423.97,-617.62 1424.87,-620.19 1425.41,-622.83 1425.58,-625.52 1425.4,-628.26 1424.85,-631.02 1423.96,-633.81 1422.71,-636.61 1421.13,-639.42 1419.21,-642.21 1416.97,-644.98 1414.41,-647.71 1411.55,-650.4"/>
<text text-anchor="middle" x="1302.79" y="-628.23" font-family="sans-serif" font-size="16.00">IdentityContext</text>
</g>
<!-- IdentityContext&#45;&gt;AccountingContext -->
<g id="edge18" class="edge">
<title>IdentityContext&#45;&gt;AccountingContext</title>
<path fill="none" stroke="black" stroke-width="2" d="M1185.28,-629.73C953.76,-626.14 455.75,-612.91 394.79,-565.39 383.88,-556.88 377.5,-543.66 373.78,-530.47"/>
<text text-anchor="middle" x="470.29" y="-555.79" font-family="sans-serif" font-size="12.00"> &#160;&#160;&#160;&#160;&#160;&#160;&#160;&#160;&#160;&#160;&#160;&#160;&#160;&#160;&#160;&#160;&#160;&#160;&#160;&#160;&#160;&#160;&#160;&#160;&#160;&#160;&#160;&#160;&#160;&#160;&#160;&#160;&#160;&#160;&#160;&#160;&#160;&#160;&#160;</text>
<polygon fill="white" stroke="transparent" points="354.78,-520.47 354.78,-539.47 370.78,-539.47 370.78,-520.47 354.78,-520.47"/>
<polyline fill="none" stroke="black" points="370.78,-520.47 370.78,-539.47 "/>
<text text-anchor="start" x="357.78" y="-526.87" font-family="sans-serif" font-size="12.00">D</text>
<polygon fill="white" stroke="transparent" points="370.78,-520.47 370.78,-539.47 392.78,-539.47 392.78,-520.47 370.78,-520.47"/>
<polygon fill="none" stroke="black" points="370.78,-520.47 370.78,-539.47 392.78,-539.47 392.78,-520.47 370.78,-520.47"/>
<text text-anchor="start" x="373.78" y="-526.87" font-family="sans-serif" font-size="12.00">CF</text>
<polygon fill="white" stroke="transparent" points="1178.28,-620.73 1178.28,-637.73 1192.28,-637.73 1192.28,-620.73 1178.28,-620.73"/>
<text text-anchor="start" x="1180.28" y="-626.13" font-family="sans-serif" font-size="12.00">U</text>
</g>
<!-- IdentityContext&#45;&gt;PaymentContext -->
<g id="edge11" class="edge">
<title>IdentityContext&#45;&gt;PaymentContext</title>
<path fill="none" stroke="black" stroke-width="2" d="M1185.47,-630.76C1004.42,-627.86 668.72,-611.84 581.79,-534.39 537.45,-494.87 581.34,-453.27 545.79,-405.69 536.26,-392.93 523.47,-382.04 510.09,-373.01"/>
<text text-anchor="middle" x="657.29" y="-482.44" font-family="sans-serif" font-size="12.00"> &#160;&#160;&#160;&#160;&#160;&#160;&#160;&#160;&#160;&#160;&#160;&#160;&#160;&#160;&#160;&#160;&#160;&#160;&#160;&#160;&#160;&#160;&#160;&#160;&#160;&#160;&#160;&#160;&#160;&#160;&#160;&#160;&#160;&#160;&#160;&#160;&#160;&#160;&#160;</text>
<polygon fill="white" stroke="transparent" points="491.09,-363.01 491.09,-382.01 507.09,-382.01 507.09,-363.01 491.09,-363.01"/>
<polyline fill="none" stroke="black" points="507.09,-363.01 507.09,-382.01 "/>
<text text-anchor="start" x="494.09" y="-369.41" font-family="sans-serif" font-size="12.00">D</text>
<polygon fill="white" stroke="transparent" points="507.09,-363.01 507.09,-382.01 529.09,-382.01 529.09,-363.01 507.09,-363.01"/>
<polygon fill="none" stroke="black" points="507.09,-363.01 507.09,-382.01 529.09,-382.01 529.09,-363.01 507.09,-363.01"/>
<text text-anchor="start" x="510.09" y="-369.41" font-family="sans-serif" font-size="12.00">CF</text>
<polygon fill="white" stroke="transparent" points="1178.47,-621.76 1178.47,-638.76 1192.47,-638.76 1192.47,-621.76 1178.47,-621.76"/>
<text text-anchor="start" x="1180.47" y="-627.16" font-family="sans-serif" font-size="12.00">U</text>
</g>
<!-- IdentityContext&#45;&gt;OrderContext -->
<g id="edge14" class="edge">
<title>IdentityContext&#45;&gt;OrderContext</title>
<path fill="none" stroke="black" stroke-width="2" d="M1184.95,-630.29C938.58,-627.18 377.54,-611.59 204.79,-534.39 108.35,-491.29 64.01,-482.68 17.79,-387.69 -1.22,-348.62 -9.3,-323.9 17.79,-289.93 56.94,-240.84 225.09,-214.88 336.67,-202.79"/>
<text text-anchor="middle" x="110.29" y="-409.09" font-family="sans-serif" font-size="12.00"> &#160;&#160;&#160;&#160;&#160;&#160;&#160;&#160;&#160;&#160;&#160;&#160;&#160;&#160;&#160;&#160;&#160;&#160;&#160;&#160;&#160;&#160;&#160;&#160;&#160;&#160;&#160;&#160;&#160;&#160;&#160;&#160;&#160;&#160;&#160;&#160;&#160;&#160;&#160;</text>
<polygon fill="white" stroke="transparent" points="317.67,-192.79 317.67,-211.79 333.67,-211.79 333.67,-192.79 317.67,-192.79"/>
<polyline fill="none" stroke="black" points="333.67,-192.79 333.67,-211.79 "/>
<text text-anchor="start" x="320.67" y="-199.19" font-family="sans-serif" font-size="12.00">D</text>
<polygon fill="white" stroke="transparent" points="333.67,-192.79 333.67,-211.79 355.67,-211.79 355.67,-192.79 333.67,-192.79"/>
<polygon fill="none" stroke="black" points="333.67,-192.79 333.67,-211.79 355.67,-211.79 355.67,-192.79 333.67,-192.79"/>
<text text-anchor="start" x="336.67" y="-199.19" font-family="sans-serif" font-size="12.00">CF</text>
<polygon fill="white" stroke="transparent" points="1177.95,-621.29 1177.95,-638.29 1191.95,-638.29 1191.95,-621.29 1177.95,-621.29"/>
<text text-anchor="start" x="1179.95" y="-626.69" font-family="sans-serif" font-size="12.00">U</text>
</g>
<!-- IdentityContext&#45;&gt;AdvertisingCampaignContext -->
<g id="edge10" class="edge">
<title>IdentityContext&#45;&gt;AdvertisingCampaignContext</title>
<path fill="none" stroke="black" stroke-width="2" d="M1386.32,-594.01C1432.73,-573.44 1490.52,-547.82 1538.04,-526.76"/>
<text text-anchor="middle" x="1550.29" y="-555.79" font-family="sans-serif" font-size="12.00"> &#160;&#160;&#160;&#160;&#160;&#160;&#160;&#160;&#160;&#160;&#160;&#160;&#160;&#160;&#160;&#160;&#160;&#160;&#160;&#160;&#160;&#160;&#160;&#160;&#160;&#160;&#160;&#160;&#160;&#160;&#160;&#160;&#160;&#160;&#160;&#160;&#160;&#160;&#160;</text>
<polygon fill="white" stroke="transparent" points="1519.04,-516.76 1519.04,-535.76 1535.04,-535.76 1535.04,-516.76 1519.04,-516.76"/>
<polyline fill="none" stroke="black" points="1535.04,-516.76 1535.04,-535.76 "/>
<text text-anchor="start" x="1522.04" y="-523.16" font-family="sans-serif" font-size="12.00">D</text>
<polygon fill="white" stroke="transparent" points="1535.04,-516.76 1535.04,-535.76 1557.04,-535.76 1557.04,-516.76 1535.04,-516.76"/>
<polygon fill="none" stroke="black" points="1535.04,-516.76 1535.04,-535.76 1557.04,-535.76 1557.04,-516.76 1535.04,-516.76"/>
<text text-anchor="start" x="1538.04" y="-523.16" font-family="sans-serif" font-size="12.00">CF</text>
<polygon fill="white" stroke="transparent" points="1379.32,-585.01 1379.32,-602.01 1393.32,-602.01 1393.32,-585.01 1379.32,-585.01"/>
<text text-anchor="start" x="1381.32" y="-590.41" font-family="sans-serif" font-size="12.00">U</text>
</g>
<!-- IdentityContext&#45;&gt;CatalogContext -->
<g id="edge15" class="edge">
<title>IdentityContext&#45;&gt;CatalogContext</title>
<path fill="none" stroke="black" stroke-width="2" d="M1185.11,-627.33C1041.03,-620.03 809.48,-598.39 755.79,-534.39 727.89,-501.12 734.97,-474.79 755.79,-436.69 771.1,-408.68 798.36,-387.56 825.54,-372.32"/>
<text text-anchor="middle" x="831.29" y="-482.44" font-family="sans-serif" font-size="12.00"> &#160;&#160;&#160;&#160;&#160;&#160;&#160;&#160;&#160;&#160;&#160;&#160;&#160;&#160;&#160;&#160;&#160;&#160;&#160;&#160;&#160;&#160;&#160;&#160;&#160;&#160;&#160;&#160;&#160;&#160;&#160;&#160;&#160;&#160;&#160;&#160;&#160;&#160;&#160;</text>
<polygon fill="white" stroke="transparent" points="806.54,-362.32 806.54,-381.32 822.54,-381.32 822.54,-362.32 806.54,-362.32"/>
<polyline fill="none" stroke="black" points="822.54,-362.32 822.54,-381.32 "/>
<text text-anchor="start" x="809.54" y="-368.72" font-family="sans-serif" font-size="12.00">D</text>
<polygon fill="white" stroke="transparent" points="822.54,-362.32 822.54,-381.32 844.54,-381.32 844.54,-362.32 822.54,-362.32"/>
<polygon fill="none" stroke="black" points="822.54,-362.32 822.54,-381.32 844.54,-381.32 844.54,-362.32 822.54,-362.32"/>
<text text-anchor="start" x="825.54" y="-368.72" font-family="sans-serif" font-size="12.00">CF</text>
<polygon fill="white" stroke="transparent" points="1178.11,-618.33 1178.11,-635.33 1192.11,-635.33 1192.11,-618.33 1178.11,-618.33"/>
<text text-anchor="start" x="1180.11" y="-623.73" font-family="sans-serif" font-size="12.00">U</text>
</g>
<!-- IdentityContext&#45;&gt;ProfileContext -->
<g id="edge9" class="edge">
<title>IdentityContext&#45;&gt;ProfileContext</title>
<path fill="none" stroke="black" stroke-width="2" d="M1346.09,-588.62C1359.21,-572.95 1371.95,-554.15 1378.79,-534.39 1386.13,-513.2 1384.55,-312.7 1376.79,-289.93 1370.34,-270.99 1358.6,-252.76 1346.45,-237.35"/>
<text text-anchor="middle" x="1458.29" y="-409.09" font-family="sans-serif" font-size="12.00"> &#160;&#160;&#160;&#160;&#160;&#160;&#160;&#160;&#160;&#160;&#160;&#160;&#160;&#160;&#160;&#160;&#160;&#160;&#160;&#160;&#160;&#160;&#160;&#160;&#160;&#160;&#160;&#160;&#160;&#160;&#160;&#160;&#160;&#160;&#160;&#160;&#160;&#160;&#160;</text>
<polygon fill="white" stroke="transparent" points="1327.45,-227.35 1327.45,-246.35 1343.45,-246.35 1343.45,-227.35 1327.45,-227.35"/>
<polyline fill="none" stroke="black" points="1343.45,-227.35 1343.45,-246.35 "/>
<text text-anchor="start" x="1330.45" y="-233.75" font-family="sans-serif" font-size="12.00">D</text>
<polygon fill="white" stroke="transparent" points="1343.45,-227.35 1343.45,-246.35 1365.45,-246.35 1365.45,-227.35 1343.45,-227.35"/>
<polygon fill="none" stroke="black" points="1343.45,-227.35 1343.45,-246.35 1365.45,-246.35 1365.45,-227.35 1343.45,-227.35"/>
<text text-anchor="start" x="1346.45" y="-233.75" font-family="sans-serif" font-size="12.00">CF</text>
<polygon fill="white" stroke="transparent" points="1339.09,-579.62 1339.09,-596.62 1353.09,-596.62 1353.09,-579.62 1339.09,-579.62"/>
<text text-anchor="start" x="1341.09" y="-585.02" font-family="sans-serif" font-size="12.00">U</text>
</g>
<!-- IdentityContext&#45;&gt;RecommandationContext -->
<g id="edge12" class="edge">
<title>IdentityContext&#45;&gt;RecommandationContext</title>
<path fill="none" stroke="black" stroke-width="2" d="M1424.75,-619.14C1547.99,-606.83 1743.82,-586.49 1912.79,-565.39 2022.95,-551.63 2149.79,-597.55 2149.79,-486.54 2149.79,-486.54 2149.79,-486.54 2149.79,-191.89 2149.79,-123.36 1712.08,-79.42 1466.72,-60.17"/>
<text text-anchor="middle" x="2225.29" y="-335.71" font-family="sans-serif" font-size="12.00"> &#160;&#160;&#160;&#160;&#160;&#160;&#160;&#160;&#160;&#160;&#160;&#160;&#160;&#160;&#160;&#160;&#160;&#160;&#160;&#160;&#160;&#160;&#160;&#160;&#160;&#160;&#160;&#160;&#160;&#160;&#160;&#160;&#160;&#160;&#160;&#160;&#160;&#160;&#160;</text>
<polygon fill="white" stroke="transparent" points="1447.72,-50.17 1447.72,-69.17 1463.72,-69.17 1463.72,-50.17 1447.72,-50.17"/>
<polyline fill="none" stroke="black" points="1463.72,-50.17 1463.72,-69.17 "/>
<text text-anchor="start" x="1450.72" y="-56.57" font-family="sans-serif" font-size="12.00">D</text>
<polygon fill="white" stroke="transparent" points="1463.72,-50.17 1463.72,-69.17 1485.72,-69.17 1485.72,-50.17 1463.72,-50.17"/>
<polygon fill="none" stroke="black" points="1463.72,-50.17 1463.72,-69.17 1485.72,-69.17 1485.72,-50.17 1463.72,-50.17"/>
<text text-anchor="start" x="1466.72" y="-56.57" font-family="sans-serif" font-size="12.00">CF</text>
<polygon fill="white" stroke="transparent" points="1417.75,-610.14 1417.75,-627.14 1431.75,-627.14 1431.75,-610.14 1417.75,-610.14"/>
<text text-anchor="start" x="1419.75" y="-615.54" font-family="sans-serif" font-size="12.00">U</text>
</g>
<!-- ReportingContext -->
<g id="node9" class="node">
<title>ReportingContext</title>
<polygon fill="none" stroke="black" stroke-width="2" points="1864,-471.44 1866.63,-468.69 1869.59,-466 1872.86,-463.38 1876.45,-460.84 1880.32,-458.38 1884.48,-456.02 1888.9,-453.77 1893.58,-451.64 1898.5,-449.63 1903.64,-447.75 1908.99,-446.01 1914.54,-444.41 1920.26,-442.97 1926.14,-441.68 1932.18,-440.54 1938.34,-439.57 1944.61,-438.76 1950.98,-438.11 1957.43,-437.62 1963.95,-437.3 1970.52,-437.14 1977.11,-437.14 1983.72,-437.29 1990.34,-437.6 1996.93,-438.05 2003.5,-438.65 2010.01,-439.39 2016.47,-440.26 2022.85,-441.25 2029.13,-442.37 2035.31,-443.59 2041.37,-444.93 2047.3,-446.36 2053.07,-447.88 2058.68,-449.48 2064.12,-451.16 2069.37,-452.91 2074.42,-454.71 2079.26,-456.57 2083.87,-458.48 2088.24,-460.43 2092.37,-462.4 2096.24,-464.41 2099.83,-466.43 2103.15,-468.47 2106.19,-470.52 2108.92,-472.58 2111.35,-474.63 2113.47,-476.69 2115.27,-478.73 2116.74,-480.77 2117.88,-482.79 2118.68,-484.79 2119.14,-486.78 2119.25,-488.75 2119.02,-490.69 2118.43,-492.61 2117.49,-494.51 2116.21,-496.38 2114.57,-498.22 2112.58,-500.03 2110.25,-501.81 2107.57,-503.56 2104.56,-505.28 2101.21,-506.97 2097.55,-508.62 2093.56,-510.23 2089.27,-511.8 2084.68,-513.34 2079.8,-514.83 2074.66,-516.27 2069.25,-517.67 2063.59,-519.02 2057.71,-520.31 2051.61,-521.54 2045.31,-522.71 2038.83,-523.82 2032.19,-524.86 2025.41,-525.82 2018.51,-526.7 2011.51,-527.5 2004.42,-528.21 1997.28,-528.83 1990.1,-529.35 1982.9,-529.76 1975.71,-530.07 1968.55,-530.27 1961.44,-530.34 1954.41,-530.3 1947.47,-530.14 1940.65,-529.84 1933.96,-529.41 1927.44,-528.85 1921.1,-528.16 1914.95,-527.33 1909.03,-526.36 1903.34,-525.25 1897.9,-524 1892.74,-522.62 1887.86,-521.1 1883.28,-519.45 1879.02,-517.67 1875.08,-515.76 1871.48,-513.74 1868.23,-511.6 1865.34,-509.35 1862.8,-507 1860.64,-504.56 1858.85,-502.03 1857.44,-499.42 1856.41,-496.75 1855.76,-494.02 1855.49,-491.24 1855.6,-488.43 1856.09,-485.59 1856.95,-482.74 1858.17,-479.89 1859.76,-477.05 1861.71,-474.22 1864,-471.44"/>
<text text-anchor="middle" x="1988.79" y="-481.74" font-family="sans-serif" font-size="16.00">ReportingContext</text>
</g>
<!-- IdentityContext&#45;&gt;ReportingContext -->
<g id="edge7" class="edge">
<title>IdentityContext&#45;&gt;ReportingContext</title>
<path fill="none" stroke="black" stroke-width="2" d="M1422.77,-614.84C1533.52,-598.69 1702.09,-571.01 1845.79,-534.39 1860.13,-530.73 1875.1,-526.36 1889.73,-521.77"/>
<text text-anchor="middle" x="1833.29" y="-555.79" font-family="sans-serif" font-size="12.00"> &#160;&#160;&#160;&#160;&#160;&#160;&#160;&#160;&#160;&#160;&#160;&#160;&#160;&#160;&#160;&#160;&#160;&#160;&#160;&#160;&#160;&#160;&#160;&#160;&#160;&#160;&#160;&#160;&#160;&#160;&#160;&#160;&#160;&#160;&#160;&#160;&#160;&#160;&#160;</text>
<polygon fill="white" stroke="transparent" points="1870.73,-511.77 1870.73,-530.77 1886.73,-530.77 1886.73,-511.77 1870.73,-511.77"/>
<polyline fill="none" stroke="black" points="1886.73,-511.77 1886.73,-530.77 "/>
<text text-anchor="start" x="1873.73" y="-518.17" font-family="sans-serif" font-size="12.00">D</text>
<polygon fill="white" stroke="transparent" points="1886.73,-511.77 1886.73,-530.77 1908.73,-530.77 1908.73,-511.77 1886.73,-511.77"/>
<polygon fill="none" stroke="black" points="1886.73,-511.77 1886.73,-530.77 1908.73,-530.77 1908.73,-511.77 1886.73,-511.77"/>
<text text-anchor="start" x="1889.73" y="-518.17" font-family="sans-serif" font-size="12.00">CF</text>
<polygon fill="white" stroke="transparent" points="1415.77,-605.84 1415.77,-622.84 1429.77,-622.84 1429.77,-605.84 1415.77,-605.84"/>
<text text-anchor="start" x="1417.77" y="-611.24" font-family="sans-serif" font-size="12.00">U</text>
</g>
<!-- InventoryContext -->
<g id="node10" class="node">
<title>InventoryContext</title>
<polygon fill="none" stroke="black" stroke-width="2" points="918.99,-475.9 920.74,-473.08 922.83,-470.31 925.26,-467.6 928.01,-464.95 931.08,-462.37 934.46,-459.89 938.14,-457.5 942.1,-455.22 946.34,-453.05 950.85,-451 955.6,-449.09 960.59,-447.31 965.8,-445.68 971.22,-444.19 976.83,-442.85 982.62,-441.67 988.58,-440.65 994.68,-439.78 1000.91,-439.07 1007.25,-438.52 1013.7,-438.13 1020.22,-437.9 1026.81,-437.82 1033.44,-437.9 1040.11,-438.12 1046.79,-438.48 1053.46,-438.99 1060.11,-439.62 1066.73,-440.39 1073.29,-441.28 1079.79,-442.28 1086.19,-443.39 1092.5,-444.6 1098.68,-445.91 1104.73,-447.3 1110.63,-448.78 1116.36,-450.33 1121.92,-451.95 1127.27,-453.63 1132.43,-455.36 1137.36,-457.14 1142.05,-458.95 1146.5,-460.81 1150.69,-462.69 1154.6,-464.6 1158.24,-466.53 1161.58,-468.48 1164.63,-470.43 1167.36,-472.39 1169.77,-474.36 1171.86,-476.33 1173.61,-478.3 1175.02,-480.26 1176.09,-482.22 1176.82,-484.16 1177.19,-486.1 1177.2,-488.03 1176.87,-489.94 1176.17,-491.84 1175.12,-493.73 1173.72,-495.6 1171.96,-497.45 1169.86,-499.28 1167.41,-501.09 1164.63,-502.88 1161.51,-504.64 1158.07,-506.39 1154.32,-508.1 1150.25,-509.78 1145.9,-511.43 1141.25,-513.05 1136.34,-514.62 1131.16,-516.15 1125.74,-517.64 1120.09,-519.08 1114.23,-520.46 1108.16,-521.79 1101.92,-523.05 1095.51,-524.24 1088.96,-525.36 1082.28,-526.4 1075.49,-527.35 1068.62,-528.21 1061.68,-528.98 1054.69,-529.64 1047.68,-530.2 1040.65,-530.64 1033.65,-530.97 1026.68,-531.17 1019.76,-531.25 1012.92,-531.2 1006.18,-531.01 999.56,-530.68 993.07,-530.21 986.73,-529.6 980.57,-528.84 974.6,-527.94 968.83,-526.89 963.3,-525.7 958,-524.36 952.96,-522.88 948.19,-521.27 943.71,-519.51 939.52,-517.63 935.64,-515.62 932.08,-513.49 928.85,-511.24 925.95,-508.89 923.39,-506.45 921.19,-503.91 919.34,-501.29 917.85,-498.61 916.72,-495.86 915.96,-493.06 915.56,-490.23 915.52,-487.37 915.85,-484.5 916.54,-481.62 917.59,-478.75 918.99,-475.9"/>
<text text-anchor="middle" x="1046.79" y="-481.74" font-family="sans-serif" font-size="16.00">InventoryContext</text>
</g>
<!-- IdentityContext&#45;&gt;InventoryContext -->
<g id="edge8" class="edge">
<title>IdentityContext&#45;&gt;InventoryContext</title>
<path fill="none" stroke="black" stroke-width="2" d="M1191.81,-615.76C1132.18,-605.06 1067.18,-588.52 1048.79,-565.39 1041.12,-555.74 1038.6,-543.13 1038.55,-530.83"/>
<text text-anchor="middle" x="1124.29" y="-555.79" font-family="sans-serif" font-size="12.00"> &#160;&#160;&#160;&#160;&#160;&#160;&#160;&#160;&#160;&#160;&#160;&#160;&#160;&#160;&#160;&#160;&#160;&#160;&#160;&#160;&#160;&#160;&#160;&#160;&#160;&#160;&#160;&#160;&#160;&#160;&#160;&#160;&#160;&#160;&#160;&#160;&#160;&#160;&#160;</text>
<polygon fill="white" stroke="transparent" points="1019.55,-520.83 1019.55,-539.83 1035.55,-539.83 1035.55,-520.83 1019.55,-520.83"/>
<polyline fill="none" stroke="black" points="1035.55,-520.83 1035.55,-539.83 "/>
<text text-anchor="start" x="1022.55" y="-527.23" font-family="sans-serif" font-size="12.00">D</text>
<polygon fill="white" stroke="transparent" points="1035.55,-520.83 1035.55,-539.83 1057.55,-539.83 1057.55,-520.83 1035.55,-520.83"/>
<polygon fill="none" stroke="black" points="1035.55,-520.83 1035.55,-539.83 1057.55,-539.83 1057.55,-520.83 1035.55,-520.83"/>
<text text-anchor="start" x="1038.55" y="-527.23" font-family="sans-serif" font-size="12.00">CF</text>
<polygon fill="white" stroke="transparent" points="1184.81,-606.76 1184.81,-623.76 1198.81,-623.76 1198.81,-606.76 1184.81,-606.76"/>
<text text-anchor="start" x="1186.81" y="-612.16" font-family="sans-serif" font-size="12.00">U</text>
</g>
<!-- ShoppingCartContext -->
<g id="node11" class="node">
<title>ShoppingCartContext</title>
<polygon fill="none" stroke="black" stroke-width="2" points="1058.73,-333.75 1059.75,-330.9 1061.19,-328.09 1063.05,-325.32 1065.32,-322.6 1067.99,-319.95 1071.05,-317.38 1074.5,-314.89 1078.33,-312.49 1082.53,-310.2 1087.08,-308.02 1091.97,-305.97 1097.19,-304.03 1102.73,-302.24 1108.56,-300.58 1114.68,-299.06 1121.07,-297.69 1127.7,-296.47 1134.57,-295.4 1141.64,-294.48 1148.92,-293.72 1156.36,-293.11 1163.96,-292.65 1171.69,-292.34 1179.53,-292.18 1187.46,-292.17 1195.46,-292.3 1203.5,-292.56 1211.58,-292.96 1219.65,-293.48 1227.71,-294.13 1235.72,-294.89 1243.68,-295.77 1251.55,-296.75 1259.31,-297.82 1266.95,-298.99 1274.44,-300.25 1281.76,-301.58 1288.9,-302.98 1295.83,-304.45 1302.53,-305.98 1308.99,-307.57 1315.19,-309.2 1321.12,-310.88 1326.74,-312.6 1332.06,-314.35 1337.05,-316.13 1341.7,-317.93 1346.01,-319.76 1349.95,-321.61 1353.51,-323.47 1356.69,-325.34 1359.48,-327.22 1361.87,-329.11 1363.85,-331.01 1365.42,-332.91 1366.57,-334.81 1367.3,-336.72 1367.61,-338.62 1367.49,-340.52 1366.95,-342.42 1365.98,-344.32 1364.6,-346.21 1362.79,-348.09 1360.58,-349.97 1357.96,-351.83 1354.94,-353.69 1351.53,-355.53 1347.73,-357.35 1343.57,-359.16 1339.04,-360.94 1334.17,-362.7 1328.96,-364.43 1323.43,-366.13 1317.6,-367.79 1311.47,-369.41 1305.07,-370.98 1298.42,-372.5 1291.53,-373.96 1284.42,-375.36 1277.12,-376.7 1269.63,-377.96 1261.99,-379.14 1254.21,-380.23 1246.32,-381.23 1238.33,-382.13 1230.28,-382.92 1222.17,-383.61 1214.04,-384.18 1205.91,-384.62 1197.79,-384.94 1189.72,-385.12 1181.7,-385.17 1173.78,-385.08 1165.96,-384.84 1158.28,-384.46 1150.74,-383.93 1143.38,-383.25 1136.21,-382.41 1129.25,-381.42 1122.52,-380.29 1116.04,-379 1109.82,-377.57 1103.9,-375.99 1098.27,-374.28 1092.96,-372.43 1087.98,-370.44 1083.35,-368.34 1079.07,-366.12 1075.16,-363.79 1071.63,-361.36 1068.49,-358.83 1065.74,-356.23 1063.4,-353.56 1061.47,-350.82 1059.96,-348.03 1058.87,-345.21 1058.2,-342.35 1057.95,-339.48 1058.13,-336.61 1058.73,-333.75"/>
<text text-anchor="middle" x="1212.79" y="-335.01" font-family="sans-serif" font-size="16.00">ShoppingCartContext</text>
</g>
<!-- IdentityContext&#45;&gt;ShoppingCartContext -->
<g id="edge17" class="edge">
<title>IdentityContext&#45;&gt;ShoppingCartContext</title>
<path fill="none" stroke="black" stroke-width="2" d="M1264.47,-592.47C1250.42,-575.95 1235.98,-555.59 1227.79,-534.39 1209,-485.71 1207.39,-425.19 1209.09,-384.68"/>
<text text-anchor="middle" x="1303.29" y="-482.44" font-family="sans-serif" font-size="12.00"> &#160;&#160;&#160;&#160;&#160;&#160;&#160;&#160;&#160;&#160;&#160;&#160;&#160;&#160;&#160;&#160;&#160;&#160;&#160;&#160;&#160;&#160;&#160;&#160;&#160;&#160;&#160;&#160;&#160;&#160;&#160;&#160;&#160;&#160;&#160;&#160;&#160;&#160;&#160;</text>
<polygon fill="white" stroke="transparent" points="1190.09,-374.68 1190.09,-393.68 1206.09,-393.68 1206.09,-374.68 1190.09,-374.68"/>
<polyline fill="none" stroke="black" points="1206.09,-374.68 1206.09,-393.68 "/>
<text text-anchor="start" x="1193.09" y="-381.08" font-family="sans-serif" font-size="12.00">D</text>
<polygon fill="white" stroke="transparent" points="1206.09,-374.68 1206.09,-393.68 1228.09,-393.68 1228.09,-374.68 1206.09,-374.68"/>
<polygon fill="none" stroke="black" points="1206.09,-374.68 1206.09,-393.68 1228.09,-393.68 1228.09,-374.68 1206.09,-374.68"/>
<text text-anchor="start" x="1209.09" y="-381.08" font-family="sans-serif" font-size="12.00">CF</text>
<polygon fill="white" stroke="transparent" points="1257.47,-583.47 1257.47,-600.47 1271.47,-600.47 1271.47,-583.47 1257.47,-583.47"/>
<text text-anchor="start" x="1259.47" y="-588.87" font-family="sans-serif" font-size="12.00">U</text>
</g>
<!-- NotificationContext -->
<g id="node12" class="node">
<title>NotificationContext</title>
<polygon fill="none" stroke="black" stroke-width="2" points="2456.22,-495.18 2454.34,-497.99 2452.09,-500.77 2449.48,-503.48 2446.52,-506.13 2443.22,-508.71 2439.58,-511.19 2435.63,-513.58 2431.36,-515.86 2426.81,-518.03 2421.96,-520.07 2416.85,-521.99 2411.49,-523.76 2405.88,-525.4 2400.06,-526.89 2394.02,-528.22 2387.79,-529.41 2381.39,-530.43 2374.83,-531.3 2368.13,-532.01 2361.31,-532.55 2354.38,-532.94 2347.37,-533.18 2340.28,-533.25 2333.15,-533.18 2325.98,-532.96 2318.8,-532.59 2311.62,-532.09 2304.47,-531.45 2297.35,-530.69 2290.3,-529.8 2283.31,-528.8 2276.43,-527.69 2269.65,-526.48 2263,-525.17 2256.49,-523.77 2250.15,-522.3 2243.99,-520.75 2238.01,-519.13 2232.25,-517.45 2226.71,-515.72 2221.41,-513.94 2216.36,-512.12 2211.58,-510.27 2207.07,-508.38 2202.86,-506.47 2198.95,-504.55 2195.36,-502.6 2192.09,-500.65 2189.15,-498.68 2186.56,-496.72 2184.31,-494.75 2182.43,-492.78 2180.91,-490.82 2179.76,-488.86 2178.98,-486.91 2178.58,-484.97 2178.56,-483.05 2178.93,-481.13 2179.67,-479.23 2180.8,-477.35 2182.31,-475.48 2184.2,-473.63 2186.46,-471.8 2189.09,-469.99 2192.08,-468.2 2195.43,-466.43 2199.13,-464.69 2203.17,-462.98 2207.54,-461.3 2212.23,-459.65 2217.22,-458.03 2222.51,-456.46 2228.07,-454.92 2233.9,-453.43 2239.97,-452 2246.28,-450.61 2252.8,-449.29 2259.51,-448.03 2266.4,-446.84 2273.45,-445.72 2280.63,-444.68 2287.93,-443.73 2295.32,-442.87 2302.79,-442.1 2310.3,-441.44 2317.84,-440.88 2325.39,-440.43 2332.93,-440.11 2340.42,-439.9 2347.86,-439.83 2355.21,-439.88 2362.46,-440.07 2369.59,-440.4 2376.57,-440.87 2383.38,-441.48 2390.01,-442.23 2396.43,-443.14 2402.62,-444.18 2408.58,-445.38 2414.27,-446.71 2419.69,-448.19 2424.82,-449.81 2429.64,-451.56 2434.14,-453.45 2438.31,-455.46 2442.14,-457.59 2445.62,-459.83 2448.74,-462.18 2451.49,-464.63 2453.86,-467.17 2455.84,-469.78 2457.45,-472.47 2458.66,-475.22 2459.48,-478.01 2459.91,-480.85 2459.95,-483.71 2459.59,-486.58 2458.85,-489.46 2457.72,-492.33 2456.22,-495.18"/>
<text text-anchor="middle" x="2318.79" y="-481.74" font-family="sans-serif" font-size="16.00">NotificationContext</text>
</g>
<!-- IdentityContext&#45;&gt;NotificationContext -->
<g id="edge13" class="edge">
<title>IdentityContext&#45;&gt;NotificationContext</title>
<path fill="none" stroke="black" stroke-width="2" d="M1425.67,-627.59C1629.5,-620.9 2028.47,-603.33 2163.79,-565.39 2196.64,-556.18 2230.69,-539.74 2258.48,-524.24"/>
<text text-anchor="middle" x="2274.29" y="-555.79" font-family="sans-serif" font-size="12.00"> &#160;&#160;&#160;&#160;&#160;&#160;&#160;&#160;&#160;&#160;&#160;&#160;&#160;&#160;&#160;&#160;&#160;&#160;&#160;&#160;&#160;&#160;&#160;&#160;&#160;&#160;&#160;&#160;&#160;&#160;&#160;&#160;&#160;&#160;&#160;&#160;&#160;&#160;&#160;</text>
<polygon fill="white" stroke="transparent" points="2239.48,-514.24 2239.48,-533.24 2255.48,-533.24 2255.48,-514.24 2239.48,-514.24"/>
<polyline fill="none" stroke="black" points="2255.48,-514.24 2255.48,-533.24 "/>
<text text-anchor="start" x="2242.48" y="-520.64" font-family="sans-serif" font-size="12.00">D</text>
<polygon fill="white" stroke="transparent" points="2255.48,-514.24 2255.48,-533.24 2277.48,-533.24 2277.48,-514.24 2255.48,-514.24"/>
<polygon fill="none" stroke="black" points="2255.48,-514.24 2255.48,-533.24 2277.48,-533.24 2277.48,-514.24 2255.48,-514.24"/>
<text text-anchor="start" x="2258.48" y="-520.64" font-family="sans-serif" font-size="12.00">CF</text>
<polygon fill="white" stroke="transparent" points="1418.67,-618.59 1418.67,-635.59 1432.67,-635.59 1432.67,-618.59 1418.67,-618.59"/>
<text text-anchor="start" x="1420.67" y="-623.99" font-family="sans-serif" font-size="12.00">U</text>
</g>
<!-- ReviewContext -->
<g id="node13" class="node">
<title>ReviewContext</title>
<polygon fill="none" stroke="black" stroke-width="2" points="2665.61,-447.2 2672.3,-448.59 2678.79,-450.08 2685.05,-451.65 2691.06,-453.32 2696.8,-455.06 2702.22,-456.87 2707.33,-458.76 2712.09,-460.7 2716.48,-462.7 2720.5,-464.75 2724.12,-466.84 2727.33,-468.97 2730.12,-471.13 2732.48,-473.31 2734.41,-475.51 2735.9,-477.72 2736.95,-479.94 2737.56,-482.16 2737.73,-484.37 2737.46,-486.57 2736.77,-488.76 2735.66,-490.93 2734.14,-493.08 2732.22,-495.19 2729.92,-497.27 2727.25,-499.32 2724.23,-501.32 2720.88,-503.28 2717.21,-505.18 2713.25,-507.04 2709.01,-508.84 2704.52,-510.57 2699.79,-512.25 2694.86,-513.86 2689.74,-515.4 2684.45,-516.86 2679.02,-518.26 2673.46,-519.57 2667.81,-520.81 2662.07,-521.96 2656.27,-523.02 2650.42,-524 2644.56,-524.89 2638.68,-525.69 2632.81,-526.39 2626.96,-527 2621.16,-527.51 2615.4,-527.91 2609.7,-528.22 2604.08,-528.42 2598.54,-528.51 2593.09,-528.5 2587.74,-528.38 2582.49,-528.15 2577.36,-527.82 2572.34,-527.37 2567.44,-526.81 2562.67,-526.14 2558.03,-525.36 2553.52,-524.47 2549.14,-523.47 2544.9,-522.36 2540.8,-521.15 2536.84,-519.83 2533.02,-518.41 2529.36,-516.89 2525.84,-515.27 2522.47,-513.56 2519.26,-511.76 2516.21,-509.87 2513.32,-507.9 2510.6,-505.86 2508.06,-503.74 2505.69,-501.56 2503.52,-499.32 2501.54,-497.03 2499.76,-494.69 2498.18,-492.31 2496.83,-489.89 2495.7,-487.46 2494.81,-485 2494.16,-482.54 2493.77,-480.07 2493.64,-477.61 2493.77,-475.17 2494.19,-472.74 2494.89,-470.35 2495.89,-468 2497.19,-465.69 2498.8,-463.45 2500.72,-461.26 2502.96,-459.14 2505.52,-457.1 2508.41,-455.15 2511.61,-453.29 2515.14,-451.53 2518.99,-449.87 2523.15,-448.32 2527.62,-446.89 2532.4,-445.57 2537.47,-444.38 2542.82,-443.32 2548.44,-442.39 2554.32,-441.59 2560.43,-440.93 2566.77,-440.41 2573.31,-440.02 2580.03,-439.78 2586.91,-439.67 2593.93,-439.71 2601.05,-439.88 2608.26,-440.18 2615.53,-440.62 2622.83,-441.2 2630.12,-441.9 2637.39,-442.73 2644.6,-443.67 2651.73,-444.74 2658.74,-445.92 2665.61,-447.2"/>
<text text-anchor="middle" x="2607.79" y="-481.74" font-family="sans-serif" font-size="16.00">ReviewContext</text>
</g>
<!-- IdentityContext&#45;&gt;ReviewContext -->
<g id="edge16" class="edge">
<title>IdentityContext&#45;&gt;ReviewContext</title>
<path fill="none" stroke="black" stroke-width="2" d="M1425.06,-631.32C1621.97,-630.03 2020.95,-620.07 2353.79,-565.39 2414.05,-555.49 2479.84,-534.77 2529.36,-517.06"/>
<text text-anchor="middle" x="2485.29" y="-555.79" font-family="sans-serif" font-size="12.00"> &#160;&#160;&#160;&#160;&#160;&#160;&#160;&#160;&#160;&#160;&#160;&#160;&#160;&#160;&#160;&#160;&#160;&#160;&#160;&#160;&#160;&#160;&#160;&#160;&#160;&#160;&#160;&#160;&#160;&#160;&#160;&#160;&#160;&#160;&#160;&#160;&#160;&#160;&#160;</text>
<polygon fill="white" stroke="transparent" points="2510.36,-507.06 2510.36,-526.06 2526.36,-526.06 2526.36,-507.06 2510.36,-507.06"/>
<polyline fill="none" stroke="black" points="2526.36,-507.06 2526.36,-526.06 "/>
<text text-anchor="start" x="2513.36" y="-513.46" font-family="sans-serif" font-size="12.00">D</text>
<polygon fill="white" stroke="transparent" points="2526.36,-507.06 2526.36,-526.06 2548.36,-526.06 2548.36,-507.06 2526.36,-507.06"/>
<polygon fill="none" stroke="black" points="2526.36,-507.06 2526.36,-526.06 2548.36,-526.06 2548.36,-507.06 2526.36,-507.06"/>
<text text-anchor="start" x="2529.36" y="-513.46" font-family="sans-serif" font-size="12.00">CF</text>
<polygon fill="white" stroke="transparent" points="1418.06,-622.32 1418.06,-639.32 1432.06,-639.32 1432.06,-622.32 1418.06,-622.32"/>
<text text-anchor="start" x="1420.06" y="-627.72" font-family="sans-serif" font-size="12.00">U</text>
</g>
<!-- InventoryContext&#45;&gt;OrderContext -->
<g id="edge21" class="edge">
<title>InventoryContext&#45;&gt;OrderContext</title>
<path fill="none" stroke="black" stroke-width="2" d="M954.18,-449.54C939.78,-444.8 924.98,-440.33 910.79,-436.69 781.2,-403.47 709.02,-481.66 613.79,-387.69 572.42,-346.86 626.97,-304.44 590.79,-258.93 575.88,-240.17 554.52,-226.73 532.51,-217.13"/>
<text text-anchor="middle" x="689.29" y="-335.71" font-family="sans-serif" font-size="12.00"> &#160;&#160;&#160;&#160;&#160;&#160;&#160;&#160;&#160;&#160;&#160;&#160;&#160;&#160;&#160;&#160;&#160;&#160;&#160;&#160;&#160;&#160;&#160;&#160;&#160;&#160;&#160;&#160;&#160;&#160;&#160;&#160;&#160;&#160;&#160;&#160;&#160;&#160;&#160;</text>
<polygon fill="white" stroke="transparent" points="509.51,-207.13 509.51,-226.13 525.51,-226.13 525.51,-207.13 509.51,-207.13"/>
<polyline fill="none" stroke="black" points="525.51,-207.13 525.51,-226.13 "/>
<text text-anchor="start" x="512.51" y="-213.53" font-family="sans-serif" font-size="12.00">D</text>
<polygon fill="white" stroke="transparent" points="525.51,-207.13 525.51,-226.13 555.51,-226.13 555.51,-207.13 525.51,-207.13"/>
<polygon fill="none" stroke="black" points="525.51,-207.13 525.51,-226.13 555.51,-226.13 555.51,-207.13 525.51,-207.13"/>
<text text-anchor="start" x="528.51" y="-213.53" font-family="sans-serif" font-size="12.00">ACL</text>
<polygon fill="white" stroke="transparent" points="947.18,-440.54 947.18,-457.54 961.18,-457.54 961.18,-440.54 947.18,-440.54"/>
<text text-anchor="start" x="949.18" y="-445.94" font-family="sans-serif" font-size="12.00">U</text>
</g>
<!-- InventoryContext&#45;&gt;CatalogContext -->
<g id="edge20" class="edge">
<title>InventoryContext&#45;&gt;CatalogContext</title>
<path fill="none" stroke="black" stroke-width="2" d="M948.12,-451.96C912.53,-439.23 879.8,-425.97 874.79,-418.69 867,-407.37 869.1,-393.86 874.92,-381.25"/>
<text text-anchor="middle" x="950.29" y="-409.09" font-family="sans-serif" font-size="12.00"> &#160;&#160;&#160;&#160;&#160;&#160;&#160;&#160;&#160;&#160;&#160;&#160;&#160;&#160;&#160;&#160;&#160;&#160;&#160;&#160;&#160;&#160;&#160;&#160;&#160;&#160;&#160;&#160;&#160;&#160;&#160;&#160;&#160;&#160;&#160;&#160;&#160;&#160;&#160;</text>
<polygon fill="white" stroke="transparent" points="851.92,-371.25 851.92,-390.25 867.92,-390.25 867.92,-371.25 851.92,-371.25"/>
<polyline fill="none" stroke="black" points="867.92,-371.25 867.92,-390.25 "/>
<text text-anchor="start" x="854.92" y="-377.65" font-family="sans-serif" font-size="12.00">D</text>
<polygon fill="white" stroke="transparent" points="867.92,-371.25 867.92,-390.25 897.92,-390.25 897.92,-371.25 867.92,-371.25"/>
<polygon fill="none" stroke="black" points="867.92,-371.25 867.92,-390.25 897.92,-390.25 897.92,-371.25 867.92,-371.25"/>
<text text-anchor="start" x="870.92" y="-377.65" font-family="sans-serif" font-size="12.00">ACL</text>
<polygon fill="white" stroke="transparent" points="913.12,-441.96 913.12,-460.96 929.12,-460.96 929.12,-441.96 913.12,-441.96"/>
<polyline fill="none" stroke="black" points="929.12,-441.96 929.12,-460.96 "/>
<text text-anchor="start" x="916.12" y="-448.36" font-family="sans-serif" font-size="12.00">U</text>
<polygon fill="white" stroke="transparent" points="929.12,-441.96 929.12,-460.96 984.12,-460.96 984.12,-441.96 929.12,-441.96"/>
<polygon fill="none" stroke="black" points="929.12,-441.96 929.12,-460.96 984.12,-460.96 984.12,-441.96 929.12,-441.96"/>
<text text-anchor="start" x="932.12" y="-448.36" font-family="sans-serif" font-size="12.00">OHS, PL</text>
</g>
<!-- InventoryContext&#45;&gt;ShoppingCartContext -->
<g id="edge19" class="edge">
<title>InventoryContext&#45;&gt;ShoppingCartContext</title>
<path fill="none" stroke="black" stroke-width="2" d="M1039.42,-437.97C1039.82,-426.59 1042.31,-415.02 1048.79,-405.69 1058.95,-391.07 1072.92,-379.7 1088.45,-370.85"/>
<text text-anchor="middle" x="1124.29" y="-409.09" font-family="sans-serif" font-size="12.00"> &#160;&#160;&#160;&#160;&#160;&#160;&#160;&#160;&#160;&#160;&#160;&#160;&#160;&#160;&#160;&#160;&#160;&#160;&#160;&#160;&#160;&#160;&#160;&#160;&#160;&#160;&#160;&#160;&#160;&#160;&#160;&#160;&#160;&#160;&#160;&#160;&#160;&#160;&#160;</text>
<polygon fill="white" stroke="transparent" points="1069.45,-360.85 1069.45,-379.85 1085.45,-379.85 1085.45,-360.85 1069.45,-360.85"/>
<polyline fill="none" stroke="black" points="1085.45,-360.85 1085.45,-379.85 "/>
<text text-anchor="start" x="1072.45" y="-367.25" font-family="sans-serif" font-size="12.00">D</text>
<polygon fill="white" stroke="transparent" points="1085.45,-360.85 1085.45,-379.85 1107.45,-379.85 1107.45,-360.85 1085.45,-360.85"/>
<polygon fill="none" stroke="black" points="1085.45,-360.85 1085.45,-379.85 1107.45,-379.85 1107.45,-360.85 1085.45,-360.85"/>
<text text-anchor="start" x="1088.45" y="-367.25" font-family="sans-serif" font-size="12.00">CF</text>
<polygon fill="white" stroke="transparent" points="1004.42,-427.97 1004.42,-446.97 1020.42,-446.97 1020.42,-427.97 1004.42,-427.97"/>
<polyline fill="none" stroke="black" points="1020.42,-427.97 1020.42,-446.97 "/>
<text text-anchor="start" x="1007.42" y="-434.37" font-family="sans-serif" font-size="12.00">U</text>
<polygon fill="white" stroke="transparent" points="1020.42,-427.97 1020.42,-446.97 1075.42,-446.97 1075.42,-427.97 1020.42,-427.97"/>
<polygon fill="none" stroke="black" points="1020.42,-427.97 1020.42,-446.97 1075.42,-446.97 1075.42,-427.97 1020.42,-427.97"/>
<text text-anchor="start" x="1023.42" y="-434.37" font-family="sans-serif" font-size="12.00">OHS, PL</text>
</g>
<!-- ShippingContext -->
<g id="node14" class="node">
<title>ShippingContext</title>
<polygon fill="none" stroke="black" stroke-width="2" points="277.85,-321.44 281.27,-324.05 284.34,-326.69 287.05,-329.36 289.4,-332.03 291.36,-334.71 292.93,-337.37 294.1,-340.02 294.86,-342.64 295.21,-345.22 295.14,-347.75 294.66,-350.22 293.75,-352.64 292.43,-354.98 290.69,-357.24 288.55,-359.42 286,-361.51 283.05,-363.51 279.72,-365.41 276.02,-367.2 271.96,-368.89 267.55,-370.47 262.8,-371.94 257.75,-373.3 252.4,-374.55 246.77,-375.68 240.89,-376.7 234.78,-377.61 228.45,-378.4 221.94,-379.09 215.26,-379.66 208.44,-380.13 201.51,-380.5 194.48,-380.76 187.38,-380.93 180.24,-380.99 173.08,-380.96 165.93,-380.84 158.8,-380.63 151.72,-380.34 144.72,-379.96 137.81,-379.49 131.02,-378.95 124.36,-378.33 117.85,-377.64 111.52,-376.87 105.37,-376.03 99.43,-375.13 93.7,-374.15 88.21,-373.11 82.96,-372 77.97,-370.82 73.24,-369.58 68.79,-368.28 64.61,-366.92 60.73,-365.49 57.14,-364 53.84,-362.45 50.85,-360.85 48.16,-359.18 45.78,-357.45 43.71,-355.67 41.94,-353.84 40.48,-351.95 39.32,-350.01 38.47,-348.02 37.92,-345.99 37.67,-343.91 37.71,-341.79 38.05,-339.64 38.67,-337.45 39.58,-335.24 40.77,-333 42.23,-330.75 43.97,-328.49 45.97,-326.22 48.24,-323.95 50.76,-321.69 53.53,-319.45 56.55,-317.23 59.81,-315.04 63.3,-312.89 67.02,-310.79 70.97,-308.74 75.13,-306.76 79.51,-304.85 84.08,-303.02 88.86,-301.28 93.82,-299.64 98.96,-298.11 104.28,-296.69 109.76,-295.38 115.39,-294.21 121.16,-293.17 127.07,-292.27 133.1,-291.52 139.24,-290.92 145.48,-290.47 151.8,-290.18 158.19,-290.05 164.64,-290.08 171.13,-290.28 177.64,-290.65 184.15,-291.18 190.66,-291.87 197.14,-292.73 203.57,-293.74 209.93,-294.91 216.22,-296.24 222.39,-297.7 228.45,-299.31 234.36,-301.06 240.11,-302.93 245.67,-304.92 251.03,-307.02 256.17,-309.22 261.06,-311.52 265.69,-313.9 270.05,-316.35 274.11,-318.87 277.85,-321.44"/>
<text text-anchor="middle" x="160.79" y="-335.01" font-family="sans-serif" font-size="16.00">ShippingContext</text>
</g>
<!-- ShippingContext&#45;&gt;OrderContext -->
<g id="edge22" class="edge">
<title>ShippingContext&#45;&gt;OrderContext</title>
<path fill="none" stroke="black" stroke-width="2" d="M219.92,-296.96C239.78,-284.04 262.35,-270.2 283.79,-258.93 309.5,-245.42 338.64,-232.59 364.66,-221.95"/>
<text text-anchor="middle" x="359.29" y="-262.33" font-family="sans-serif" font-size="12.00"> &#160;&#160;&#160;&#160;&#160;&#160;&#160;&#160;&#160;&#160;&#160;&#160;&#160;&#160;&#160;&#160;&#160;&#160;&#160;&#160;&#160;&#160;&#160;&#160;&#160;&#160;&#160;&#160;&#160;&#160;&#160;&#160;&#160;&#160;&#160;&#160;&#160;&#160;&#160;</text>
<polygon fill="white" stroke="transparent" points="341.66,-211.95 341.66,-230.95 357.66,-230.95 357.66,-211.95 341.66,-211.95"/>
<polyline fill="none" stroke="black" points="357.66,-211.95 357.66,-230.95 "/>
<text text-anchor="start" x="344.66" y="-218.35" font-family="sans-serif" font-size="12.00">D</text>
<polygon fill="white" stroke="transparent" points="357.66,-211.95 357.66,-230.95 387.66,-230.95 387.66,-211.95 357.66,-211.95"/>
<polygon fill="none" stroke="black" points="357.66,-211.95 357.66,-230.95 387.66,-230.95 387.66,-211.95 357.66,-211.95"/>
<text text-anchor="start" x="360.66" y="-218.35" font-family="sans-serif" font-size="12.00">ACL</text>
<polygon fill="white" stroke="transparent" points="212.92,-287.96 212.92,-304.96 226.92,-304.96 226.92,-287.96 212.92,-287.96"/>
<text text-anchor="start" x="214.92" y="-293.36" font-family="sans-serif" font-size="12.00">U</text>
</g>
</g>
</svg>
