<svg width="2000px" height="888px"
 viewBox="0.00 0.00 555.94 247.21" xmlns="http://www.w3.org/2000/svg" xmlns:xlink="http://www.w3.org/1999/xlink">
<g id="graph0" class="graph" transform="scale(1.0 1.0) rotate(0) translate(4 243.21)">
<title>ContextMapGraph</title>
<polygon fill="white" stroke="transparent" points="-4,4 -4,-243.21 551.94,-243.21 551.94,4 -4,4"/>
<!-- CatalogContext -->
<g id="node1" class="node">
<title>CatalogContext</title>
<polygon fill="none" stroke="black" stroke-width="2" points="198.97,-9.94 205.6,-8.42 212.36,-7.01 219.23,-5.71 226.17,-4.55 233.16,-3.51 240.18,-2.61 247.19,-1.84 254.19,-1.22 261.13,-0.74 267.99,-0.41 274.76,-0.23 281.42,-0.2 287.94,-0.33 294.3,-0.6 300.48,-1.03 306.48,-1.61 312.27,-2.33 317.85,-3.2 323.2,-4.2 328.31,-5.35 333.17,-6.63 337.77,-8.04 342.11,-9.57 346.19,-11.21 349.99,-12.96 353.52,-14.82 356.78,-16.77 359.77,-18.81 362.47,-20.93 364.91,-23.12 367.08,-25.37 368.97,-27.67 370.61,-30.02 371.98,-32.41 373.09,-34.83 373.95,-37.26 374.56,-39.71 374.92,-42.16 375.05,-44.61 374.93,-47.04 374.58,-49.45 374.01,-51.83 373.2,-54.18 372.17,-56.49 370.93,-58.75 369.46,-60.95 367.78,-63.1 365.88,-65.18 363.77,-67.19 361.45,-69.13 358.92,-70.99 356.19,-72.76 353.24,-74.46 350.09,-76.07 346.73,-77.58 343.17,-79.01 339.41,-80.34 335.45,-81.58 331.28,-82.73 326.92,-83.78 322.37,-84.73 317.63,-85.58 312.71,-86.34 307.6,-87.01 302.33,-87.57 296.89,-88.04 291.29,-88.41 285.55,-88.69 279.67,-88.88 273.67,-88.97 267.55,-88.97 261.34,-88.88 255.04,-88.69 248.68,-88.42 242.27,-88.05 235.84,-87.6 229.39,-87.05 222.95,-86.42 216.54,-85.71 210.18,-84.9 203.9,-84.02 197.72,-83.04 191.66,-81.99 185.75,-80.85 180,-79.63 174.45,-78.33 169.12,-76.95 164.02,-75.49 159.19,-73.95 154.64,-72.35 150.4,-70.67 146.48,-68.91 142.91,-67.1 139.7,-65.21 136.87,-63.27 134.43,-61.27 132.4,-59.21 130.79,-57.1 129.6,-54.95 128.86,-52.76 128.55,-50.52 128.68,-48.26 129.27,-45.98 130.3,-43.67 131.77,-41.35 133.67,-39.02 136.01,-36.7 138.77,-34.38 141.94,-32.08 145.51,-29.8 149.46,-27.55 153.77,-25.33 158.43,-23.17 163.42,-21.06 168.72,-19 174.3,-17.02 180.14,-15.12 186.22,-13.3 192.5,-11.57 198.97,-9.94"/>
<text text-anchor="middle" x="261.36" y="-43.49" font-family="sans-serif" font-size="16.00">CatalogContext</text>
</g>
<!-- IdentityContext -->
<g id="node2" class="node">
<title>IdentityContext</title>
<polygon fill="none" stroke="black" stroke-width="2" points="236.09,-202.46 234.23,-205.24 232.06,-207.97 229.59,-210.64 226.82,-213.24 223.78,-215.76 220.46,-218.19 216.87,-220.52 213.04,-222.74 208.96,-224.84 204.66,-226.82 200.14,-228.67 195.42,-230.37 190.51,-231.94 185.42,-233.35 180.17,-234.61 174.77,-235.72 169.24,-236.67 163.59,-237.46 157.84,-238.09 151.99,-238.56 146.08,-238.87 140.1,-239.03 134.08,-239.03 128.03,-238.88 121.97,-238.58 115.91,-238.14 109.86,-237.56 103.85,-236.85 97.88,-236.01 91.98,-235.06 86.15,-233.98 80.41,-232.81 74.77,-231.53 69.25,-230.16 63.86,-228.7 58.61,-227.17 53.53,-225.56 48.61,-223.89 43.88,-222.16 39.34,-220.38 35.01,-218.56 30.9,-216.69 27.01,-214.8 23.37,-212.88 19.98,-210.94 16.84,-208.98 13.97,-207.01 11.38,-205.03 9.08,-203.05 7.06,-201.07 5.34,-199.09 3.93,-197.12 2.82,-195.15 2.03,-193.19 1.56,-191.25 1.4,-189.32 1.57,-187.41 2.06,-185.51 2.87,-183.63 4.01,-181.77 5.47,-179.93 7.25,-178.11 9.34,-176.32 11.74,-174.55 14.45,-172.8 17.47,-171.09 20.77,-169.4 24.36,-167.74 28.23,-166.12 32.36,-164.53 36.76,-162.98 41.39,-161.47 46.26,-160.01 51.35,-158.59 56.64,-157.23 62.13,-155.93 67.78,-154.68 73.6,-153.5 79.56,-152.39 85.65,-151.36 91.85,-150.41 98.13,-149.54 104.49,-148.76 110.89,-148.08 117.33,-147.5 123.79,-147.03 130.24,-146.67 136.67,-146.43 143.05,-146.31 149.37,-146.31 155.6,-146.45 161.74,-146.71 167.76,-147.12 173.64,-147.66 179.36,-148.34 184.91,-149.16 190.28,-150.13 195.44,-151.24 200.38,-152.48 205.08,-153.87 209.54,-155.4 213.74,-157.06 217.67,-158.86 221.31,-160.78 224.66,-162.82 227.71,-164.98 230.45,-167.24 232.87,-169.61 234.97,-172.07 236.74,-174.62 238.18,-177.24 239.29,-179.93 240.06,-182.67 240.49,-185.45 240.59,-188.27 240.35,-191.11 239.77,-193.96 238.87,-196.81 237.64,-199.65 236.09,-202.46"/>
<text text-anchor="middle" x="120.36" y="-187.6" font-family="sans-serif" font-size="16.00">IdentityContext</text>
</g>
<!-- IdentityContext&#45;&gt;CatalogContext -->
<g id="edge1" class="edge">
<title>IdentityContext&#45;&gt;CatalogContext</title>
<path fill="none" stroke="black" stroke-width="2" d="M163.82,-146.6C182.75,-127.52 204.75,-105.35 223.06,-86.89"/>
<text text-anchor="middle" x="270.86" y="-115.99" font-family="sans-serif" font-size="12.00"> &#160;&#160;&#160;&#160;&#160;&#160;&#160;&#160;&#160;&#160;&#160;&#160;&#160;&#160;&#160;&#160;&#160;&#160;&#160;&#160;&#160;&#160;&#160;&#160;&#160;&#160;&#160;&#160;&#160;&#160;&#160;&#160;&#160;&#160;&#160;&#160;&#160;&#160;&#160;</text>
<polygon fill="white" stroke="transparent" points="204.06,-76.89 204.06,-95.89 220.06,-95.89 220.06,-76.89 204.06,-76.89"/>
<polyline fill="none" stroke="black" points="220.06,-76.89 220.06,-95.89 "/>
<text text-anchor="start" x="207.06" y="-83.29" font-family="sans-serif" font-size="12.00">D</text>
<polygon fill="white" stroke="transparent" points="220.06,-76.89 220.06,-95.89 242.06,-95.89 242.06,-76.89 220.06,-76.89"/>
<polygon fill="none" stroke="black" points="220.06,-76.89 220.06,-95.89 242.06,-95.89 242.06,-76.89 220.06,-76.89"/>
<text text-anchor="start" x="223.06" y="-83.29" font-family="sans-serif" font-size="12.00">CF</text>
<polygon fill="white" stroke="transparent" points="156.82,-137.6 156.82,-154.6 170.82,-154.6 170.82,-137.6 156.82,-137.6"/>
<text text-anchor="start" x="158.82" y="-143" font-family="sans-serif" font-size="12.00">U</text>
</g>
<!-- InventoryContext -->
<g id="node3" class="node">
<title>InventoryContext</title>
<polygon fill="none" stroke="black" stroke-width="2" points="451.74,-150.78 459.75,-151.8 467.58,-152.92 475.19,-154.14 482.56,-155.46 489.64,-156.87 496.43,-158.37 502.88,-159.95 508.97,-161.61 514.68,-163.34 519.99,-165.15 524.88,-167.01 529.33,-168.93 533.32,-170.9 536.85,-172.92 539.9,-174.97 542.47,-177.07 544.56,-179.19 546.15,-181.33 547.25,-183.5 547.87,-185.67 548.01,-187.85 547.67,-190.04 546.87,-192.22 545.61,-194.4 543.92,-196.56 541.8,-198.7 539.27,-200.83 536.36,-202.92 533.07,-204.98 529.43,-207.01 525.47,-208.99 521.2,-210.93 516.64,-212.82 511.82,-214.65 506.77,-216.43 501.5,-218.14 496.04,-219.79 490.42,-221.37 484.64,-222.88 478.74,-224.31 472.74,-225.65 466.65,-226.92 460.5,-228.1 454.3,-229.18 448.07,-230.18 441.82,-231.08 435.58,-231.88 429.35,-232.58 423.14,-233.17 416.98,-233.66 410.86,-234.04 404.8,-234.31 398.81,-234.48 392.88,-234.52 387.04,-234.46 381.28,-234.28 375.61,-233.99 370.03,-233.58 364.55,-233.06 359.17,-232.42 353.89,-231.66 348.72,-230.8 343.66,-229.82 338.71,-228.73 333.89,-227.54 329.18,-226.24 324.6,-224.83 320.15,-223.33 315.84,-221.73 311.66,-220.04 307.64,-218.26 303.78,-216.39 300.07,-214.45 296.55,-212.43 293.2,-210.35 290.05,-208.2 287.1,-206 284.37,-203.74 281.87,-201.45 279.61,-199.11 277.6,-196.75 275.86,-194.37 274.4,-191.97 273.24,-189.56 272.38,-187.16 271.84,-184.76 271.63,-182.38 271.77,-180.02 272.26,-177.69 273.11,-175.4 274.35,-173.15 275.96,-170.96 277.96,-168.83 280.35,-166.76 283.15,-164.77 286.34,-162.86 289.93,-161.03 293.91,-159.29 298.29,-157.65 303.05,-156.12 308.19,-154.68 313.7,-153.36 319.56,-152.16 325.76,-151.07 332.28,-150.1 339.11,-149.26 346.21,-148.54 353.58,-147.95 361.18,-147.49 368.99,-147.16 376.98,-146.96 385.12,-146.88 393.37,-146.94 401.72,-147.12 410.12,-147.43 418.53,-147.86 426.94,-148.42 435.3,-149.09 443.58,-149.88 451.74,-150.78"/>
<text text-anchor="middle" x="403.36" y="-187.6" font-family="sans-serif" font-size="16.00">InventoryContext</text>
</g>
<!-- InventoryContext&#45;&gt;CatalogContext -->
<g id="edge2" class="edge">
<title>InventoryContext&#45;&gt;CatalogContext</title>
<path fill="none" stroke="black" stroke-width="2" d="M377.53,-146.77C369.57,-135.03 360.28,-122.78 350.36,-112.59 341.06,-103.02 330.19,-93.88 319.3,-85.65"/>
<text text-anchor="middle" x="435.86" y="-115.99" font-family="sans-serif" font-size="12.00"> &#160;&#160;&#160;&#160;&#160;&#160;&#160;&#160;&#160;&#160;&#160;&#160;&#160;&#160;&#160;&#160;&#160;&#160;&#160;&#160;&#160;&#160;&#160;&#160;&#160;&#160;&#160;&#160;&#160;&#160;&#160;&#160;&#160;&#160;&#160;&#160;&#160;&#160;&#160;</text>
<polygon fill="white" stroke="transparent" points="296.3,-75.65 296.3,-94.65 312.3,-94.65 312.3,-75.65 296.3,-75.65"/>
<polyline fill="none" stroke="black" points="312.3,-75.65 312.3,-94.65 "/>
<text text-anchor="start" x="299.3" y="-82.05" font-family="sans-serif" font-size="12.00">D</text>
<polygon fill="white" stroke="transparent" points="312.3,-75.65 312.3,-94.65 342.3,-94.65 342.3,-75.65 312.3,-75.65"/>
<polygon fill="none" stroke="black" points="312.3,-75.65 312.3,-94.65 342.3,-94.65 342.3,-75.65 312.3,-75.65"/>
<text text-anchor="start" x="315.3" y="-82.05" font-family="sans-serif" font-size="12.00">ACL</text>
<polygon fill="white" stroke="transparent" points="342.53,-136.77 342.53,-155.77 358.53,-155.77 358.53,-136.77 342.53,-136.77"/>
<polyline fill="none" stroke="black" points="358.53,-136.77 358.53,-155.77 "/>
<text text-anchor="start" x="345.53" y="-143.17" font-family="sans-serif" font-size="12.00">U</text>
<polygon fill="white" stroke="transparent" points="358.53,-136.77 358.53,-155.77 413.53,-155.77 413.53,-136.77 358.53,-136.77"/>
<polygon fill="none" stroke="black" points="358.53,-136.77 358.53,-155.77 413.53,-155.77 413.53,-136.77 358.53,-136.77"/>
<text text-anchor="start" x="361.53" y="-143.17" font-family="sans-serif" font-size="12.00">OHS, PL</text>
</g>
</g>
</svg>
