<svg width="2000px" height="1717px"
 viewBox="0.00 0.00 290.04 249.19" xmlns="http://www.w3.org/2000/svg" xmlns:xlink="http://www.w3.org/1999/xlink">
<g id="graph0" class="graph" transform="scale(1.0 1.0) rotate(0) translate(4 245.19)">
<title>ContextMapGraph</title>
<polygon fill="white" stroke="transparent" points="-4,4 -4,-245.19 286.04,-245.19 286.04,4 -4,4"/>
<!-- CatalogContext -->
<g id="node1" class="node">
<title>CatalogContext</title>
<polygon fill="none" stroke="black" stroke-width="2" points="34.99,-22.71 39.56,-20.39 44.37,-18.16 49.4,-16.02 54.63,-13.98 60.04,-12.06 65.61,-10.26 71.32,-8.59 77.16,-7.06 83.09,-5.66 89.11,-4.42 95.2,-3.33 101.33,-2.39 107.49,-1.61 113.66,-1 119.83,-0.55 125.97,-0.26 132.07,-0.14 138.12,-0.18 144.11,-0.39 150.01,-0.75 155.82,-1.27 161.53,-1.95 167.11,-2.77 172.57,-3.74 177.89,-4.85 183.06,-6.09 188.08,-7.46 192.93,-8.94 197.61,-10.54 202.11,-12.24 206.42,-14.03 210.54,-15.91 214.47,-17.87 218.18,-19.9 221.69,-21.99 224.98,-24.14 228.06,-26.33 230.91,-28.55 233.53,-30.81 235.91,-33.08 238.06,-35.37 239.97,-37.66 241.63,-39.95 243.05,-42.23 244.21,-44.5 245.11,-46.75 245.75,-48.97 246.13,-51.16 246.24,-53.32 246.08,-55.43 245.64,-57.51 244.93,-59.53 243.94,-61.51 242.67,-63.43 241.12,-65.3 239.29,-67.11 237.17,-68.87 234.77,-70.56 232.09,-72.19 229.13,-73.76 225.89,-75.27 222.38,-76.71 218.6,-78.09 214.56,-79.41 210.25,-80.65 205.7,-81.83 200.9,-82.95 195.87,-83.99 190.62,-84.97 185.15,-85.88 179.49,-86.71 173.64,-87.48 167.63,-88.17 161.46,-88.78 155.15,-89.32 148.72,-89.78 142.2,-90.16 135.59,-90.46 128.92,-90.67 122.21,-90.79 115.49,-90.83 108.77,-90.77 102.08,-90.62 95.43,-90.37 88.86,-90.02 82.39,-89.57 76.04,-89.02 69.83,-88.37 63.78,-87.6 57.92,-86.73 52.27,-85.75 46.85,-84.66 41.68,-83.46 36.78,-82.16 32.17,-80.74 27.86,-79.21 23.87,-77.58 20.22,-75.84 16.91,-74.01 13.97,-72.07 11.4,-70.04 9.2,-67.92 7.4,-65.72 5.99,-63.43 4.97,-61.08 4.35,-58.66 4.13,-56.18 4.31,-53.65 4.88,-51.08 5.85,-48.47 7.2,-45.84 8.92,-43.2 11.02,-40.55 13.47,-37.9 16.27,-35.27 19.41,-32.67 22.86,-30.1 26.62,-27.58 30.67,-25.11 34.99,-22.71"/>
<text text-anchor="middle" x="131.04" y="-45.06" font-family="sans-serif" font-size="16.00">CatalogContext</text>
</g>
<!-- InventoryContext -->
<g id="node2" class="node">
<title>InventoryContext</title>
<polygon fill="none" stroke="black" stroke-width="2" points="260.31,-201.35 259,-204.2 257.35,-207.02 255.34,-209.78 253,-212.48 250.33,-215.11 247.34,-217.66 244.04,-220.12 240.43,-222.48 236.53,-224.72 232.35,-226.85 227.89,-228.85 223.18,-230.71 218.23,-232.44 213.04,-234.03 207.64,-235.47 202.03,-236.75 196.24,-237.88 190.27,-238.86 184.15,-239.68 177.9,-240.34 171.52,-240.84 165.03,-241.19 158.46,-241.38 151.81,-241.43 145.11,-241.32 138.38,-241.08 131.63,-240.69 124.88,-240.17 118.14,-239.52 111.44,-238.75 104.79,-237.86 98.22,-236.86 91.73,-235.76 85.34,-234.56 79.07,-233.27 72.95,-231.89 66.97,-230.44 61.17,-228.92 55.55,-227.33 50.13,-225.69 44.92,-224 39.94,-222.26 35.21,-220.48 30.72,-218.67 26.51,-216.82 22.58,-214.96 18.93,-213.07 15.58,-211.16 12.55,-209.25 9.83,-207.32 7.44,-205.38 5.38,-203.45 3.66,-201.51 2.28,-199.57 1.26,-197.63 0.58,-195.69 0.27,-193.76 0.31,-191.84 0.7,-189.93 1.46,-188.02 2.57,-186.13 4.04,-184.24 5.85,-182.37 8.02,-180.51 10.52,-178.67 13.36,-176.85 16.53,-175.05 20.02,-173.27 23.82,-171.51 27.92,-169.78 32.31,-168.08 36.98,-166.42 41.91,-164.79 47.1,-163.2 52.53,-161.66 58.17,-160.17 64.03,-158.74 70.08,-157.37 76.3,-156.06 82.67,-154.83 89.19,-153.67 95.83,-152.6 102.56,-151.61 109.38,-150.72 116.27,-149.93 123.19,-149.25 130.14,-148.68 137.1,-148.23 144.04,-147.91 150.94,-147.71 157.78,-147.64 164.55,-147.71 171.23,-147.92 177.79,-148.28 184.22,-148.78 190.5,-149.43 196.61,-150.22 202.53,-151.17 208.26,-152.27 213.76,-153.51 219.03,-154.91 224.05,-156.44 228.8,-158.12 233.29,-159.93 237.48,-161.88 241.37,-163.95 244.95,-166.14 248.22,-168.44 251.15,-170.84 253.75,-173.35 256.01,-175.93 257.92,-178.6 259.47,-181.33 260.67,-184.11 261.51,-186.94 261.99,-189.81 262.11,-192.69 261.87,-195.59 261.27,-198.48 260.31,-201.35"/>
<text text-anchor="middle" x="131.04" y="-190.16" font-family="sans-serif" font-size="16.00">InventoryContext</text>
</g>
<!-- InventoryContext&#45;&gt;CatalogContext -->
<g id="edge1" class="edge">
<title>InventoryContext&#45;&gt;CatalogContext</title>
<path fill="none" stroke="black" stroke-width="2" d="M131.04,-148.47C131.04,-130.09 131.04,-108.92 131.04,-90.92"/>
<text text-anchor="middle" x="206.54" y="-119.12" font-family="sans-serif" font-size="12.00"> &#160;&#160;&#160;&#160;&#160;&#160;&#160;&#160;&#160;&#160;&#160;&#160;&#160;&#160;&#160;&#160;&#160;&#160;&#160;&#160;&#160;&#160;&#160;&#160;&#160;&#160;&#160;&#160;&#160;&#160;&#160;&#160;&#160;&#160;&#160;&#160;&#160;&#160;&#160;</text>
<polygon fill="white" stroke="transparent" points="108.04,-80.92 108.04,-99.92 124.04,-99.92 124.04,-80.92 108.04,-80.92"/>
<polyline fill="none" stroke="black" points="124.04,-80.92 124.04,-99.92 "/>
<text text-anchor="start" x="111.04" y="-87.32" font-family="sans-serif" font-size="12.00">D</text>
<polygon fill="white" stroke="transparent" points="124.04,-80.92 124.04,-99.92 154.04,-99.92 154.04,-80.92 124.04,-80.92"/>
<polygon fill="none" stroke="black" points="124.04,-80.92 124.04,-99.92 154.04,-99.92 154.04,-80.92 124.04,-80.92"/>
<text text-anchor="start" x="127.04" y="-87.32" font-family="sans-serif" font-size="12.00">ACL</text>
<polygon fill="white" stroke="transparent" points="96.04,-138.47 96.04,-157.47 112.04,-157.47 112.04,-138.47 96.04,-138.47"/>
<polyline fill="none" stroke="black" points="112.04,-138.47 112.04,-157.47 "/>
<text text-anchor="start" x="99.04" y="-144.87" font-family="sans-serif" font-size="12.00">U</text>
<polygon fill="white" stroke="transparent" points="112.04,-138.47 112.04,-157.47 167.04,-157.47 167.04,-138.47 112.04,-138.47"/>
<polygon fill="none" stroke="black" points="112.04,-138.47 112.04,-157.47 167.04,-157.47 167.04,-138.47 112.04,-138.47"/>
<text text-anchor="start" x="115.04" y="-144.87" font-family="sans-serif" font-size="12.00">OHS, PL</text>
</g>
</g>
</svg>
