<svg width="2000px" height="493px"
 viewBox="0.00 0.00 2778.97 685.38" xmlns="http://www.w3.org/2000/svg" xmlns:xlink="http://www.w3.org/1999/xlink">
<g id="graph0" class="graph" transform="scale(1.0 1.0) rotate(0) translate(4 681.38)">
<title>ContextMapGraph</title>
<polygon fill="white" stroke="transparent" points="-4,4 -4,-681.38 2774.97,-681.38 2774.97,4 -4,4"/>
<!-- AccountingContext -->
<g id="node1" class="node">
<title>AccountingContext</title>
<polygon fill="none" stroke="black" stroke-width="2" points="280.08,-445.58 288.31,-444.31 296.65,-443.15 305.08,-442.13 313.55,-441.22 322.04,-440.45 330.51,-439.82 338.94,-439.32 347.28,-438.97 355.52,-438.76 363.63,-438.69 371.57,-438.77 379.33,-439 386.87,-439.37 394.18,-439.89 401.24,-440.56 408.03,-441.36 414.53,-442.31 420.73,-443.39 426.62,-444.6 432.18,-445.95 437.41,-447.41 442.3,-449 446.84,-450.69 451.03,-452.49 454.87,-454.39 458.36,-456.39 461.5,-458.46 464.29,-460.62 466.74,-462.84 468.84,-465.12 470.6,-467.46 472.04,-469.84 473.15,-472.25 473.95,-474.69 474.43,-477.15 474.62,-479.62 474.5,-482.1 474.11,-484.56 473.43,-487.01 472.48,-489.44 471.27,-491.84 469.79,-494.2 468.07,-496.52 466.1,-498.79 463.89,-501 461.44,-503.15 458.76,-505.23 455.86,-507.24 452.73,-509.17 449.38,-511.02 445.81,-512.78 442.03,-514.46 438.04,-516.04 433.83,-517.53 429.41,-518.92 424.79,-520.21 419.96,-521.4 414.93,-522.49 409.7,-523.47 404.27,-524.35 398.66,-525.13 392.85,-525.81 386.86,-526.38 380.7,-526.84 374.37,-527.21 367.88,-527.47 361.24,-527.63 354.46,-527.69 347.55,-527.65 340.53,-527.51 333.42,-527.27 326.21,-526.94 318.95,-526.51 311.64,-525.99 304.3,-525.38 296.95,-524.68 289.63,-523.89 282.34,-523.01 275.12,-522.05 267.99,-521 260.98,-519.87 254.11,-518.66 247.41,-517.37 240.91,-516.01 234.63,-514.57 228.6,-513.05 222.86,-511.47 217.41,-509.81 212.3,-508.09 207.55,-506.31 203.17,-504.46 199.2,-502.56 195.65,-500.61 192.55,-498.6 189.9,-496.55 187.74,-494.45 186.06,-492.32 184.89,-490.15 184.24,-487.95 184.1,-485.72 184.49,-483.48 185.41,-481.22 186.86,-478.95 188.83,-476.68 191.31,-474.42 194.32,-472.17 197.82,-469.93 201.81,-467.72 206.27,-465.53 211.19,-463.39 216.54,-461.29 222.3,-459.24 228.46,-457.25 234.98,-455.33 241.83,-453.48 248.99,-451.71 256.43,-450.03 264.11,-448.45 272.01,-446.96 280.08,-445.58"/>
<text text-anchor="middle" x="340.19" y="-481.54" font-family="sans-serif" font-size="16.00">AccountingContext</text>
</g>
<!-- PaymentContext -->
<g id="node2" class="node">
<title>PaymentContext</title>
<polygon fill="none" stroke="black" stroke-width="2" points="324.93,-344.97 323.9,-342.12 323.22,-339.27 322.9,-336.43 322.93,-333.62 323.33,-330.85 324.08,-328.13 325.2,-325.47 326.69,-322.88 328.52,-320.36 330.71,-317.94 333.25,-315.61 336.14,-313.38 339.36,-311.26 342.9,-309.26 346.76,-307.38 350.93,-305.63 355.39,-304.01 360.13,-302.52 365.14,-301.17 370.4,-299.96 375.9,-298.88 381.62,-297.95 387.54,-297.15 393.65,-296.5 399.92,-295.98 406.33,-295.59 412.87,-295.34 419.52,-295.21 426.25,-295.21 433.05,-295.33 439.89,-295.57 446.75,-295.92 453.62,-296.37 460.46,-296.93 467.27,-297.59 474.01,-298.34 480.67,-299.18 487.23,-300.1 493.67,-301.1 499.97,-302.17 506.11,-303.32 512.08,-304.52 517.85,-305.79 523.42,-307.11 528.76,-308.49 533.87,-309.92 538.72,-311.39 543.31,-312.91 547.63,-314.46 551.65,-316.06 555.39,-317.69 558.81,-319.36 561.93,-321.06 564.73,-322.8 567.2,-324.56 569.34,-326.35 571.15,-328.17 572.63,-330.02 573.77,-331.9 574.57,-333.79 575.03,-335.71 575.16,-337.66 574.96,-339.62 574.42,-341.6 573.55,-343.6 572.36,-345.61 570.85,-347.63 569.03,-349.66 566.9,-351.7 564.48,-353.74 561.76,-355.77 558.75,-357.8 555.47,-359.82 551.93,-361.82 548.13,-363.8 544.08,-365.75 539.8,-367.66 535.29,-369.54 530.57,-371.37 525.65,-373.14 520.54,-374.86 515.26,-376.5 509.81,-378.07 504.21,-379.55 498.47,-380.95 492.6,-382.24 486.63,-383.43 480.56,-384.51 474.41,-385.46 468.19,-386.29 461.92,-386.99 455.61,-387.55 449.27,-387.97 442.93,-388.23 436.6,-388.35 430.29,-388.31 424.01,-388.11 417.8,-387.75 411.65,-387.23 405.58,-386.54 399.62,-385.69 393.77,-384.69 388.06,-383.52 382.49,-382.2 377.09,-380.72 371.86,-379.09 366.83,-377.33 362.01,-375.42 357.4,-373.38 353.03,-371.23 348.91,-368.95 345.05,-366.58 341.47,-364.1 338.17,-361.54 335.16,-358.9 332.47,-356.2 330.09,-353.45 328.03,-350.65 326.31,-347.82 324.93,-344.97"/>
<text text-anchor="middle" x="450.19" y="-336.3" font-family="sans-serif" font-size="16.00">PaymentContext</text>
</g>
<!-- AccountingContext&#45;&gt;PaymentContext -->
<g id="edge1" class="edge">
<title>AccountingContext&#45;&gt;PaymentContext</title>
<path fill="none" stroke="black" stroke-width="2" d="M351.23,-438.6C355.17,-427.5 360.39,-416.08 367.19,-406.53 373.04,-398.31 380.21,-390.6 387.86,-383.56"/>
<text text-anchor="middle" x="442.69" y="-409.93" font-family="sans-serif" font-size="12.00"> &#160;&#160;&#160;&#160;&#160;&#160;&#160;&#160;&#160;&#160;&#160;&#160;&#160;&#160;&#160;&#160;&#160;&#160;&#160;&#160;&#160;&#160;&#160;&#160;&#160;&#160;&#160;&#160;&#160;&#160;&#160;&#160;&#160;&#160;&#160;&#160;&#160;&#160;&#160;</text>
<polygon fill="white" stroke="transparent" points="364.86,-373.56 364.86,-392.56 380.86,-392.56 380.86,-373.56 364.86,-373.56"/>
<polyline fill="none" stroke="black" points="380.86,-373.56 380.86,-392.56 "/>
<text text-anchor="start" x="367.86" y="-379.96" font-family="sans-serif" font-size="12.00">D</text>
<polygon fill="white" stroke="transparent" points="380.86,-373.56 380.86,-392.56 410.86,-392.56 410.86,-373.56 380.86,-373.56"/>
<polygon fill="none" stroke="black" points="380.86,-373.56 380.86,-392.56 410.86,-392.56 410.86,-373.56 380.86,-373.56"/>
<text text-anchor="start" x="383.86" y="-379.96" font-family="sans-serif" font-size="12.00">ACL</text>
<polygon fill="white" stroke="transparent" points="316.23,-428.6 316.23,-447.6 332.23,-447.6 332.23,-428.6 316.23,-428.6"/>
<polyline fill="none" stroke="black" points="332.23,-428.6 332.23,-447.6 "/>
<text text-anchor="start" x="319.23" y="-435" font-family="sans-serif" font-size="12.00">U</text>
<polygon fill="white" stroke="transparent" points="332.23,-428.6 332.23,-447.6 387.23,-447.6 387.23,-428.6 332.23,-428.6"/>
<polygon fill="none" stroke="black" points="332.23,-428.6 332.23,-447.6 387.23,-447.6 387.23,-428.6 332.23,-428.6"/>
<text text-anchor="start" x="335.23" y="-435" font-family="sans-serif" font-size="12.00">OHS, PL</text>
</g>
<!-- OrderContext -->
<g id="node3" class="node">
<title>OrderContext</title>
<polygon fill="none" stroke="black" stroke-width="2" points="483.13,-235.13 476.48,-236.12 469.78,-236.98 463.04,-237.73 456.29,-238.34 449.57,-238.83 442.89,-239.18 436.29,-239.4 429.78,-239.47 423.4,-239.41 417.15,-239.21 411.07,-238.88 405.16,-238.4 399.46,-237.78 393.98,-237.03 388.72,-236.14 383.71,-235.13 378.96,-233.98 374.47,-232.71 370.26,-231.32 366.33,-229.81 362.69,-228.19 359.34,-226.46 356.29,-224.64 353.53,-222.72 351.07,-220.71 348.9,-218.63 347.02,-216.47 345.43,-214.25 344.13,-211.97 343.1,-209.65 342.34,-207.28 341.85,-204.88 341.62,-202.46 341.64,-200.02 341.9,-197.57 342.39,-195.12 343.12,-192.68 344.06,-190.25 345.21,-187.85 346.56,-185.48 348.12,-183.15 349.86,-180.86 351.78,-178.62 353.88,-176.44 356.15,-174.33 358.58,-172.28 361.17,-170.31 363.92,-168.42 366.83,-166.61 369.88,-164.89 373.07,-163.27 376.41,-161.73 379.89,-160.3 383.51,-158.97 387.26,-157.74 391.15,-156.61 395.16,-155.59 399.31,-154.68 403.58,-153.88 407.98,-153.18 412.5,-152.59 417.13,-152.12 421.88,-151.75 426.74,-151.49 431.7,-151.33 436.76,-151.29 441.9,-151.35 447.13,-151.51 452.42,-151.77 457.78,-152.14 463.19,-152.6 468.64,-153.17 474.12,-153.82 479.6,-154.58 485.09,-155.42 490.55,-156.35 495.98,-157.37 501.35,-158.48 506.65,-159.67 511.86,-160.93 516.96,-162.28 521.93,-163.7 526.74,-165.19 531.39,-166.76 535.84,-168.39 540.09,-170.08 544.09,-171.84 547.85,-173.65 551.34,-175.52 554.53,-177.44 557.42,-179.4 559.98,-181.41 562.21,-183.46 564.08,-185.55 565.58,-187.66 566.7,-189.81 567.44,-191.97 567.78,-194.16 567.72,-196.35 567.25,-198.56 566.37,-200.77 565.08,-202.97 563.39,-205.16 561.29,-207.34 558.79,-209.5 555.91,-211.63 552.64,-213.73 549,-215.79 545.01,-217.8 540.68,-219.76 536.02,-221.66 531.06,-223.5 525.82,-225.26 520.32,-226.95 514.57,-228.56 508.62,-230.07 502.47,-231.49 496.15,-232.81 489.7,-234.03 483.13,-235.13"/>
<text text-anchor="middle" x="447.19" y="-190.05" font-family="sans-serif" font-size="16.00">OrderContext</text>
</g>
<!-- PaymentContext&#45;&gt;OrderContext -->
<g id="edge2" class="edge">
<title>PaymentContext&#45;&gt;OrderContext</title>
<path fill="none" stroke="black" stroke-width="2" d="M448.75,-295.81C448.54,-288.42 448.34,-280.82 448.19,-273.67 447.94,-262.45 447.75,-250.33 447.61,-239.04"/>
<text text-anchor="middle" x="523.69" y="-264.07" font-family="sans-serif" font-size="12.00"> &#160;&#160;&#160;&#160;&#160;&#160;&#160;&#160;&#160;&#160;&#160;&#160;&#160;&#160;&#160;&#160;&#160;&#160;&#160;&#160;&#160;&#160;&#160;&#160;&#160;&#160;&#160;&#160;&#160;&#160;&#160;&#160;&#160;&#160;&#160;&#160;&#160;&#160;&#160;</text>
<polygon fill="white" stroke="transparent" points="424.61,-229.04 424.61,-248.04 440.61,-248.04 440.61,-229.04 424.61,-229.04"/>
<polyline fill="none" stroke="black" points="440.61,-229.04 440.61,-248.04 "/>
<text text-anchor="start" x="427.61" y="-235.44" font-family="sans-serif" font-size="12.00">D</text>
<polygon fill="white" stroke="transparent" points="440.61,-229.04 440.61,-248.04 470.61,-248.04 470.61,-229.04 440.61,-229.04"/>
<polygon fill="none" stroke="black" points="440.61,-229.04 440.61,-248.04 470.61,-248.04 470.61,-229.04 440.61,-229.04"/>
<text text-anchor="start" x="443.61" y="-235.44" font-family="sans-serif" font-size="12.00">ACL</text>
<polygon fill="white" stroke="transparent" points="441.75,-286.81 441.75,-303.81 455.75,-303.81 455.75,-286.81 441.75,-286.81"/>
<text text-anchor="start" x="443.75" y="-292.21" font-family="sans-serif" font-size="12.00">U</text>
</g>
<!-- AdvertisingCampaignContext -->
<g id="node4" class="node">
<title>AdvertisingCampaignContext</title>
<polygon fill="none" stroke="black" stroke-width="2" points="1422.86,-487.9 1421.9,-485.05 1421.5,-482.21 1421.66,-479.39 1422.38,-476.61 1423.67,-473.86 1425.51,-471.18 1427.92,-468.56 1430.87,-466.01 1434.38,-463.55 1438.42,-461.18 1442.99,-458.92 1448.08,-456.76 1453.68,-454.72 1459.76,-452.8 1466.31,-451 1473.32,-449.34 1480.77,-447.81 1488.62,-446.42 1496.87,-445.17 1505.48,-444.07 1514.44,-443.1 1523.71,-442.28 1533.26,-441.6 1543.07,-441.06 1553.12,-440.65 1563.36,-440.39 1573.77,-440.25 1584.32,-440.25 1594.97,-440.37 1605.7,-440.61 1616.46,-440.97 1627.24,-441.44 1637.99,-442.02 1648.69,-442.7 1659.3,-443.48 1669.79,-444.35 1680.13,-445.3 1690.29,-446.33 1700.24,-447.44 1709.95,-448.62 1719.4,-449.86 1728.55,-451.17 1737.39,-452.53 1745.88,-453.95 1754.01,-455.41 1761.74,-456.92 1769.07,-458.47 1775.98,-460.06 1782.43,-461.68 1788.43,-463.34 1793.94,-465.03 1798.97,-466.74 1803.5,-468.49 1807.51,-470.26 1811,-472.05 1813.97,-473.87 1816.4,-475.71 1818.3,-477.57 1819.66,-479.45 1820.48,-481.35 1820.76,-483.26 1820.5,-485.19 1819.7,-487.13 1818.38,-489.09 1816.54,-491.05 1814.18,-493.03 1811.31,-495.01 1807.95,-496.99 1804.1,-498.97 1799.77,-500.95 1794.99,-502.92 1789.75,-504.88 1784.09,-506.82 1778.01,-508.74 1771.52,-510.63 1764.66,-512.5 1757.43,-514.32 1749.85,-516.1 1741.95,-517.83 1733.75,-519.5 1725.26,-521.11 1716.5,-522.64 1707.51,-524.1 1698.29,-525.47 1688.88,-526.75 1679.3,-527.92 1669.57,-529 1659.71,-529.95 1649.75,-530.79 1639.71,-531.5 1629.62,-532.08 1619.5,-532.52 1609.38,-532.82 1599.29,-532.97 1589.24,-532.96 1579.26,-532.81 1569.39,-532.5 1559.63,-532.03 1550.03,-531.4 1540.6,-530.61 1531.37,-529.66 1522.36,-528.55 1513.59,-527.29 1505.1,-525.88 1496.9,-524.31 1489.02,-522.61 1481.47,-520.76 1474.29,-518.78 1467.49,-516.68 1461.09,-514.46 1455.11,-512.13 1449.57,-509.7 1444.48,-507.18 1439.87,-504.58 1435.74,-501.91 1432.11,-499.18 1429,-496.4 1426.42,-493.59 1424.37,-490.75 1422.86,-487.9"/>
<text text-anchor="middle" x="1622.19" y="-481.54" font-family="sans-serif" font-size="16.00">AdvertisingCampaignContext</text>
</g>
<!-- CatalogContext -->
<g id="node5" class="node">
<title>CatalogContext</title>
<polygon fill="none" stroke="black" stroke-width="2" points="784.19,-344.2 783.35,-341.35 782.84,-338.5 782.66,-335.67 782.83,-332.86 783.34,-330.1 784.18,-327.39 785.37,-324.74 786.9,-322.16 788.76,-319.66 790.95,-317.26 793.47,-314.94 796.31,-312.74 799.46,-310.65 802.92,-308.67 806.67,-306.82 810.7,-305.1 815.01,-303.51 819.58,-302.05 824.39,-300.73 829.44,-299.55 834.7,-298.52 840.17,-297.62 845.82,-296.86 851.64,-296.24 857.61,-295.76 863.71,-295.41 869.93,-295.2 876.23,-295.11 882.62,-295.15 889.06,-295.32 895.53,-295.59 902.02,-295.98 908.51,-296.48 914.98,-297.08 921.4,-297.78 927.75,-298.57 934.03,-299.45 940.21,-300.41 946.27,-301.44 952.19,-302.55 957.96,-303.73 963.56,-304.97 968.97,-306.27 974.19,-307.63 979.19,-309.03 983.96,-310.49 988.5,-311.99 992.78,-313.53 996.79,-315.11 1000.54,-316.73 1004,-318.38 1007.17,-320.07 1010.04,-321.78 1012.61,-323.53 1014.87,-325.31 1016.82,-327.11 1018.45,-328.94 1019.76,-330.79 1020.76,-332.66 1021.43,-334.56 1021.78,-336.48 1021.8,-338.42 1021.52,-340.38 1020.91,-342.35 1020,-344.34 1018.77,-346.34 1017.25,-348.35 1015.42,-350.37 1013.31,-352.39 1010.91,-354.4 1008.23,-356.42 1005.29,-358.43 1002.09,-360.42 998.63,-362.39 994.93,-364.35 991,-366.27 986.85,-368.15 982.49,-370 977.93,-371.8 973.18,-373.54 968.25,-375.22 963.16,-376.82 957.92,-378.36 952.54,-379.8 947.03,-381.16 941.41,-382.42 935.69,-383.57 929.88,-384.6 924.01,-385.52 918.07,-386.31 912.09,-386.97 906.08,-387.49 900.05,-387.86 894.03,-388.09 888.02,-388.17 882.03,-388.09 876.1,-387.85 870.22,-387.45 864.41,-386.9 858.69,-386.18 853.08,-385.29 847.58,-384.25 842.22,-383.05 837.01,-381.7 831.95,-380.19 827.07,-378.54 822.39,-376.74 817.9,-374.81 813.63,-372.75 809.59,-370.57 805.79,-368.28 802.24,-365.88 798.96,-363.39 795.95,-360.82 793.23,-358.17 790.8,-355.45 788.68,-352.69 786.86,-349.89 785.36,-347.05 784.19,-344.2"/>
<text text-anchor="middle" x="903.19" y="-336.3" font-family="sans-serif" font-size="16.00">CatalogContext</text>
</g>
<!-- CatalogContext&#45;&gt;OrderContext -->
<g id="edge4" class="edge">
<title>CatalogContext&#45;&gt;OrderContext</title>
<path fill="none" stroke="black" stroke-width="2" d="M809.32,-305.51C795.56,-300.76 781.53,-296.02 768.19,-291.67 690.85,-266.43 602.29,-239.9 537.81,-221"/>
<text text-anchor="middle" x="781.69" y="-264.07" font-family="sans-serif" font-size="12.00"> &#160;&#160;&#160;&#160;&#160;&#160;&#160;&#160;&#160;&#160;&#160;&#160;&#160;&#160;&#160;&#160;&#160;&#160;&#160;&#160;&#160;&#160;&#160;&#160;&#160;&#160;&#160;&#160;&#160;&#160;&#160;&#160;&#160;&#160;&#160;&#160;&#160;&#160;&#160;</text>
<polygon fill="white" stroke="transparent" points="514.81,-211 514.81,-230 530.81,-230 530.81,-211 514.81,-211"/>
<polyline fill="none" stroke="black" points="530.81,-211 530.81,-230 "/>
<text text-anchor="start" x="517.81" y="-217.4" font-family="sans-serif" font-size="12.00">D</text>
<polygon fill="white" stroke="transparent" points="530.81,-211 530.81,-230 560.81,-230 560.81,-211 530.81,-211"/>
<polygon fill="none" stroke="black" points="530.81,-211 530.81,-230 560.81,-230 560.81,-211 530.81,-211"/>
<text text-anchor="start" x="533.81" y="-217.4" font-family="sans-serif" font-size="12.00">ACL</text>
<polygon fill="white" stroke="transparent" points="802.32,-296.51 802.32,-313.51 816.32,-313.51 816.32,-296.51 802.32,-296.51"/>
<text text-anchor="start" x="804.32" y="-301.91" font-family="sans-serif" font-size="12.00">U</text>
</g>
<!-- ProfileContext -->
<g id="node6" class="node">
<title>ProfileContext</title>
<polygon fill="none" stroke="black" stroke-width="2" points="1409.18,-173.73 1412.59,-176.25 1415.7,-178.81 1418.51,-181.4 1421,-184.01 1423.17,-186.63 1424.99,-189.25 1426.46,-191.86 1427.58,-194.45 1428.34,-197.01 1428.72,-199.54 1428.74,-202.01 1428.38,-204.44 1427.65,-206.8 1426.55,-209.1 1425.08,-211.32 1423.25,-213.47 1421.06,-215.53 1418.52,-217.5 1415.64,-219.38 1412.42,-221.16 1408.89,-222.84 1405.06,-224.41 1400.93,-225.89 1396.53,-227.26 1391.88,-228.52 1386.98,-229.68 1381.86,-230.73 1376.54,-231.67 1371.04,-232.51 1365.38,-233.25 1359.57,-233.88 1353.65,-234.41 1347.63,-234.84 1341.53,-235.17 1335.38,-235.41 1329.2,-235.55 1323,-235.6 1316.81,-235.56 1310.65,-235.44 1304.54,-235.23 1298.49,-234.93 1292.53,-234.55 1286.67,-234.1 1280.94,-233.56 1275.33,-232.95 1269.88,-232.26 1264.59,-231.5 1259.48,-230.66 1254.56,-229.76 1249.83,-228.78 1245.31,-227.73 1241.01,-226.6 1236.94,-225.41 1233.1,-224.15 1229.5,-222.83 1226.13,-221.43 1223.02,-219.97 1220.15,-218.44 1217.54,-216.84 1215.18,-215.18 1213.08,-213.45 1211.23,-211.67 1209.64,-209.82 1208.3,-207.92 1207.22,-205.96 1206.38,-203.94 1205.8,-201.88 1205.47,-199.77 1205.38,-197.61 1205.53,-195.42 1205.93,-193.19 1206.56,-190.94 1207.43,-188.66 1208.53,-186.36 1209.86,-184.05 1211.42,-181.74 1213.2,-179.43 1215.2,-177.13 1217.41,-174.84 1219.84,-172.58 1222.48,-170.36 1225.32,-168.18 1228.37,-166.04 1231.62,-163.97 1235.06,-161.96 1238.69,-160.03 1242.5,-158.18 1246.5,-156.43 1250.67,-154.78 1255,-153.23 1259.5,-151.81 1264.16,-150.5 1268.96,-149.33 1273.91,-148.29 1278.98,-147.39 1284.17,-146.65 1289.48,-146.05 1294.89,-145.61 1300.38,-145.33 1305.95,-145.21 1311.58,-145.25 1317.27,-145.46 1322.99,-145.83 1328.72,-146.37 1334.47,-147.07 1340.2,-147.92 1345.9,-148.94 1351.55,-150.1 1357.14,-151.42 1362.65,-152.88 1368.06,-154.47 1373.35,-156.2 1378.5,-158.05 1383.49,-160.01 1388.31,-162.08 1392.94,-164.25 1397.36,-166.51 1401.55,-168.85 1405.5,-171.26 1409.18,-173.73"/>
<text text-anchor="middle" x="1311.19" y="-190.05" font-family="sans-serif" font-size="16.00">ProfileContext</text>
</g>
<!-- CatalogContext&#45;&gt;ProfileContext -->
<g id="edge3" class="edge">
<title>CatalogContext&#45;&gt;ProfileContext</title>
<path fill="none" stroke="black" stroke-width="2" d="M982.24,-309.77C998.73,-303.73 1016.01,-297.45 1032.19,-291.67 1098.33,-268.03 1173.58,-241.97 1229.25,-222.84"/>
<text text-anchor="middle" x="1191.69" y="-264.07" font-family="sans-serif" font-size="12.00"> &#160;&#160;&#160;&#160;&#160;&#160;&#160;&#160;&#160;&#160;&#160;&#160;&#160;&#160;&#160;&#160;&#160;&#160;&#160;&#160;&#160;&#160;&#160;&#160;&#160;&#160;&#160;&#160;&#160;&#160;&#160;&#160;&#160;&#160;&#160;&#160;&#160;&#160;&#160;</text>
<polygon fill="white" stroke="transparent" points="1206.25,-212.84 1206.25,-231.84 1222.25,-231.84 1222.25,-212.84 1206.25,-212.84"/>
<polyline fill="none" stroke="black" points="1222.25,-212.84 1222.25,-231.84 "/>
<text text-anchor="start" x="1209.25" y="-219.24" font-family="sans-serif" font-size="12.00">D</text>
<polygon fill="white" stroke="transparent" points="1222.25,-212.84 1222.25,-231.84 1252.25,-231.84 1252.25,-212.84 1222.25,-212.84"/>
<polygon fill="none" stroke="black" points="1222.25,-212.84 1222.25,-231.84 1252.25,-231.84 1252.25,-212.84 1222.25,-212.84"/>
<text text-anchor="start" x="1225.25" y="-219.24" font-family="sans-serif" font-size="12.00">ACL</text>
<polygon fill="white" stroke="transparent" points="975.24,-300.77 975.24,-317.77 989.24,-317.77 989.24,-300.77 975.24,-300.77"/>
<text text-anchor="start" x="977.24" y="-306.17" font-family="sans-serif" font-size="12.00">U</text>
</g>
<!-- RecommandationContext -->
<g id="node7" class="node">
<title>RecommandationContext</title>
<polygon fill="none" stroke="black" stroke-width="2" points="1201.64,-13.55 1210.58,-11.74 1219.76,-10.03 1229.16,-8.43 1238.73,-6.96 1248.44,-5.61 1258.25,-4.4 1268.13,-3.32 1278.04,-2.39 1287.95,-1.6 1297.82,-0.97 1307.63,-0.49 1317.34,-0.16 1326.92,0.01 1336.35,0.01 1345.6,-0.13 1354.65,-0.44 1363.47,-0.9 1372.05,-1.52 1380.36,-2.29 1388.39,-3.2 1396.12,-4.26 1403.54,-5.46 1410.64,-6.79 1417.4,-8.24 1423.82,-9.82 1429.9,-11.52 1435.62,-13.32 1440.98,-15.21 1445.98,-17.21 1450.62,-19.28 1454.89,-21.43 1458.8,-23.64 1462.34,-25.91 1465.52,-28.23 1468.33,-30.59 1470.79,-32.98 1472.88,-35.4 1474.62,-37.82 1476,-40.26 1477.03,-42.69 1477.71,-45.11 1478.03,-47.51 1478.01,-49.89 1477.64,-52.23 1476.93,-54.54 1475.87,-56.81 1474.47,-59.02 1472.72,-61.18 1470.63,-63.28 1468.19,-65.31 1465.41,-67.28 1462.29,-69.18 1458.82,-71 1455,-72.74 1450.84,-74.4 1446.34,-75.99 1441.5,-77.48 1436.31,-78.9 1430.79,-80.22 1424.94,-81.46 1418.76,-82.62 1412.25,-83.68 1405.43,-84.66 1398.29,-85.55 1390.86,-86.35 1383.14,-87.06 1375.15,-87.68 1366.89,-88.22 1358.39,-88.66 1349.66,-89.02 1340.73,-89.3 1331.6,-89.48 1322.31,-89.58 1312.88,-89.59 1303.34,-89.51 1293.7,-89.34 1284.01,-89.09 1274.29,-88.75 1264.57,-88.32 1254.89,-87.8 1245.27,-87.2 1235.76,-86.5 1226.39,-85.72 1217.18,-84.85 1208.19,-83.89 1199.44,-82.84 1190.96,-81.7 1182.8,-80.48 1174.98,-79.16 1167.55,-77.76 1160.52,-76.28 1153.93,-74.71 1147.82,-73.05 1142.2,-71.32 1137.11,-69.51 1132.57,-67.62 1128.59,-65.66 1125.19,-63.63 1122.4,-61.53 1120.23,-59.38 1118.68,-57.17 1117.77,-54.91 1117.5,-52.6 1117.87,-50.25 1118.87,-47.88 1120.52,-45.47 1122.79,-43.05 1125.68,-40.61 1129.18,-38.18 1133.27,-35.74 1137.94,-33.32 1143.16,-30.92 1148.91,-28.55 1155.16,-26.23 1161.89,-23.94 1169.07,-21.72 1176.67,-19.56 1184.65,-17.47 1192.99,-15.47 1201.64,-13.55"/>
<text text-anchor="middle" x="1311.19" y="-44.21" font-family="sans-serif" font-size="16.00">RecommandationContext</text>
</g>
<!-- CatalogContext&#45;&gt;RecommandationContext -->
<g id="edge5" class="edge">
<title>CatalogContext&#45;&gt;RecommandationContext</title>
<path fill="none" stroke="black" stroke-width="2" d="M921.08,-297.65C941.97,-253.85 980.51,-185.63 1033.19,-145.03 1073.13,-114.25 1123.62,-92.93 1170.58,-78.35"/>
<text text-anchor="middle" x="1108.69" y="-190.75" font-family="sans-serif" font-size="12.00"> &#160;&#160;&#160;&#160;&#160;&#160;&#160;&#160;&#160;&#160;&#160;&#160;&#160;&#160;&#160;&#160;&#160;&#160;&#160;&#160;&#160;&#160;&#160;&#160;&#160;&#160;&#160;&#160;&#160;&#160;&#160;&#160;&#160;&#160;&#160;&#160;&#160;&#160;&#160;</text>
<polygon fill="white" stroke="transparent" points="1151.58,-68.35 1151.58,-87.35 1167.58,-87.35 1167.58,-68.35 1151.58,-68.35"/>
<polyline fill="none" stroke="black" points="1167.58,-68.35 1167.58,-87.35 "/>
<text text-anchor="start" x="1154.58" y="-74.75" font-family="sans-serif" font-size="12.00">D</text>
<polygon fill="white" stroke="transparent" points="1167.58,-68.35 1167.58,-87.35 1189.58,-87.35 1189.58,-68.35 1167.58,-68.35"/>
<polygon fill="none" stroke="black" points="1167.58,-68.35 1167.58,-87.35 1189.58,-87.35 1189.58,-68.35 1167.58,-68.35"/>
<text text-anchor="start" x="1170.58" y="-74.75" font-family="sans-serif" font-size="12.00">CF</text>
<polygon fill="white" stroke="transparent" points="914.08,-288.65 914.08,-305.65 928.08,-305.65 928.08,-288.65 914.08,-288.65"/>
<text text-anchor="start" x="916.08" y="-294.05" font-family="sans-serif" font-size="12.00">U</text>
</g>
<!-- ProfileContext&#45;&gt;RecommandationContext -->
<g id="edge6" class="edge">
<title>ProfileContext&#45;&gt;RecommandationContext</title>
<path fill="none" stroke="black" stroke-width="2" d="M1311.19,-144.95C1311.19,-127.14 1311.19,-107.1 1311.19,-89.96"/>
<text text-anchor="middle" x="1386.69" y="-117.43" font-family="sans-serif" font-size="12.00"> &#160;&#160;&#160;&#160;&#160;&#160;&#160;&#160;&#160;&#160;&#160;&#160;&#160;&#160;&#160;&#160;&#160;&#160;&#160;&#160;&#160;&#160;&#160;&#160;&#160;&#160;&#160;&#160;&#160;&#160;&#160;&#160;&#160;&#160;&#160;&#160;&#160;&#160;&#160;</text>
<polygon fill="white" stroke="transparent" points="1288.19,-79.96 1288.19,-98.96 1304.19,-98.96 1304.19,-79.96 1288.19,-79.96"/>
<polyline fill="none" stroke="black" points="1304.19,-79.96 1304.19,-98.96 "/>
<text text-anchor="start" x="1291.19" y="-86.36" font-family="sans-serif" font-size="12.00">D</text>
<polygon fill="white" stroke="transparent" points="1304.19,-79.96 1304.19,-98.96 1334.19,-98.96 1334.19,-79.96 1304.19,-79.96"/>
<polygon fill="none" stroke="black" points="1304.19,-79.96 1304.19,-98.96 1334.19,-98.96 1334.19,-79.96 1304.19,-79.96"/>
<text text-anchor="start" x="1307.19" y="-86.36" font-family="sans-serif" font-size="12.00">ACL</text>
<polygon fill="white" stroke="transparent" points="1276.19,-134.95 1276.19,-153.95 1292.19,-153.95 1292.19,-134.95 1276.19,-134.95"/>
<polyline fill="none" stroke="black" points="1292.19,-134.95 1292.19,-153.95 "/>
<text text-anchor="start" x="1279.19" y="-141.35" font-family="sans-serif" font-size="12.00">U</text>
<polygon fill="white" stroke="transparent" points="1292.19,-134.95 1292.19,-153.95 1347.19,-153.95 1347.19,-134.95 1292.19,-134.95"/>
<polygon fill="none" stroke="black" points="1292.19,-134.95 1292.19,-153.95 1347.19,-153.95 1347.19,-134.95 1292.19,-134.95"/>
<text text-anchor="start" x="1295.19" y="-141.35" font-family="sans-serif" font-size="12.00">OHS, PL</text>
</g>
<!-- IdentityContext -->
<g id="node8" class="node">
<title>IdentityContext</title>
<polygon fill="none" stroke="black" stroke-width="2" points="1217.43,-660.56 1211.87,-658.53 1206.58,-656.43 1201.59,-654.27 1196.9,-652.05 1192.56,-649.78 1188.56,-647.47 1184.94,-645.13 1181.71,-642.77 1178.87,-640.4 1176.45,-638.01 1174.44,-635.63 1172.87,-633.25 1171.73,-630.89 1171.04,-628.56 1170.79,-626.24 1170.97,-623.97 1171.6,-621.73 1172.66,-619.54 1174.16,-617.4 1176.07,-615.31 1178.39,-613.28 1181.11,-611.31 1184.22,-609.41 1187.7,-607.58 1191.53,-605.82 1195.69,-604.14 1200.17,-602.53 1204.94,-601 1209.99,-599.55 1215.29,-598.18 1220.82,-596.9 1226.55,-595.7 1232.46,-594.58 1238.53,-593.55 1244.74,-592.6 1251.05,-591.74 1257.46,-590.97 1263.92,-590.29 1270.42,-589.69 1276.95,-589.18 1283.47,-588.76 1289.97,-588.42 1296.42,-588.18 1302.81,-588.03 1309.13,-587.96 1315.35,-587.99 1321.46,-588.1 1327.44,-588.31 1333.29,-588.61 1338.99,-589 1344.52,-589.48 1349.89,-590.06 1355.08,-590.73 1360.08,-591.5 1364.89,-592.35 1369.5,-593.3 1373.92,-594.35 1378.12,-595.49 1382.11,-596.72 1385.9,-598.04 1389.46,-599.45 1392.82,-600.96 1395.95,-602.55 1398.87,-604.22 1401.57,-605.98 1404.05,-607.82 1406.31,-609.74 1408.34,-611.73 1410.16,-613.8 1411.76,-615.93 1413.13,-618.11 1414.28,-620.36 1415.2,-622.65 1415.9,-624.99 1416.36,-627.37 1416.6,-629.78 1416.6,-632.21 1416.37,-634.66 1415.89,-637.11 1415.18,-639.57 1414.22,-642.02 1413.01,-644.45 1411.55,-646.86 1409.84,-649.23 1407.87,-651.56 1405.64,-653.85 1403.16,-656.07 1400.41,-658.22 1397.4,-660.3 1394.13,-662.29 1390.59,-664.19 1386.8,-665.99 1382.74,-667.68 1378.44,-669.25 1373.88,-670.71 1369.08,-672.03 1364.04,-673.22 1358.77,-674.28 1353.29,-675.19 1347.59,-675.96 1341.7,-676.57 1335.63,-677.03 1329.39,-677.34 1322.99,-677.5 1316.46,-677.5 1309.82,-677.34 1303.08,-677.03 1296.27,-676.57 1289.4,-675.96 1282.51,-675.2 1275.61,-674.29 1268.73,-673.25 1261.89,-672.07 1255.13,-670.76 1248.45,-669.33 1241.9,-667.78 1235.5,-666.12 1229.27,-664.36 1223.24,-662.5 1217.43,-660.56"/>
<text text-anchor="middle" x="1303.19" y="-625.97" font-family="sans-serif" font-size="16.00">IdentityContext</text>
</g>
<!-- IdentityContext&#45;&gt;AccountingContext -->
<g id="edge15" class="edge">
<title>IdentityContext&#45;&gt;AccountingContext</title>
<path fill="none" stroke="black" stroke-width="2" d="M1170.95,-627.61C927.97,-624.33 429.49,-611.8 367.19,-564.15 355.71,-555.38 349.09,-541.42 345.28,-527.73"/>
<text text-anchor="middle" x="442.69" y="-554.55" font-family="sans-serif" font-size="12.00"> &#160;&#160;&#160;&#160;&#160;&#160;&#160;&#160;&#160;&#160;&#160;&#160;&#160;&#160;&#160;&#160;&#160;&#160;&#160;&#160;&#160;&#160;&#160;&#160;&#160;&#160;&#160;&#160;&#160;&#160;&#160;&#160;&#160;&#160;&#160;&#160;&#160;&#160;&#160;</text>
<polygon fill="white" stroke="transparent" points="326.28,-517.73 326.28,-536.73 342.28,-536.73 342.28,-517.73 326.28,-517.73"/>
<polyline fill="none" stroke="black" points="342.28,-517.73 342.28,-536.73 "/>
<text text-anchor="start" x="329.28" y="-524.13" font-family="sans-serif" font-size="12.00">D</text>
<polygon fill="white" stroke="transparent" points="342.28,-517.73 342.28,-536.73 364.28,-536.73 364.28,-517.73 342.28,-517.73"/>
<polygon fill="none" stroke="black" points="342.28,-517.73 342.28,-536.73 364.28,-536.73 364.28,-517.73 342.28,-517.73"/>
<text text-anchor="start" x="345.28" y="-524.13" font-family="sans-serif" font-size="12.00">CF</text>
<polygon fill="white" stroke="transparent" points="1163.95,-618.61 1163.95,-635.61 1177.95,-635.61 1177.95,-618.61 1163.95,-618.61"/>
<text text-anchor="start" x="1165.95" y="-624.01" font-family="sans-serif" font-size="12.00">U</text>
</g>
<!-- IdentityContext&#45;&gt;PaymentContext -->
<g id="edge13" class="edge">
<title>IdentityContext&#45;&gt;PaymentContext</title>
<path fill="none" stroke="black" stroke-width="2" d="M1171.2,-629.27C980.99,-627.19 642.86,-612.09 554.19,-533.15 510.48,-494.25 548.31,-456.69 518.19,-406.53 512.79,-397.54 505.84,-388.96 498.45,-381.14"/>
<text text-anchor="middle" x="629.69" y="-482.24" font-family="sans-serif" font-size="12.00"> &#160;&#160;&#160;&#160;&#160;&#160;&#160;&#160;&#160;&#160;&#160;&#160;&#160;&#160;&#160;&#160;&#160;&#160;&#160;&#160;&#160;&#160;&#160;&#160;&#160;&#160;&#160;&#160;&#160;&#160;&#160;&#160;&#160;&#160;&#160;&#160;&#160;&#160;&#160;</text>
<polygon fill="white" stroke="transparent" points="479.45,-371.14 479.45,-390.14 495.45,-390.14 495.45,-371.14 479.45,-371.14"/>
<polyline fill="none" stroke="black" points="495.45,-371.14 495.45,-390.14 "/>
<text text-anchor="start" x="482.45" y="-377.54" font-family="sans-serif" font-size="12.00">D</text>
<polygon fill="white" stroke="transparent" points="495.45,-371.14 495.45,-390.14 517.45,-390.14 517.45,-371.14 495.45,-371.14"/>
<polygon fill="none" stroke="black" points="495.45,-371.14 495.45,-390.14 517.45,-390.14 517.45,-371.14 495.45,-371.14"/>
<text text-anchor="start" x="498.45" y="-377.54" font-family="sans-serif" font-size="12.00">CF</text>
<polygon fill="white" stroke="transparent" points="1164.2,-620.27 1164.2,-637.27 1178.2,-637.27 1178.2,-620.27 1164.2,-620.27"/>
<text text-anchor="start" x="1166.2" y="-625.67" font-family="sans-serif" font-size="12.00">U</text>
</g>
<!-- IdentityContext&#45;&gt;OrderContext -->
<g id="edge16" class="edge">
<title>IdentityContext&#45;&gt;OrderContext</title>
<path fill="none" stroke="black" stroke-width="2" d="M1170.85,-629.49C911.59,-628.99 347.08,-617.84 175.19,-533.15 89.79,-491.08 55.55,-475.65 17.19,-388.53 -0.16,-349.13 -9.7,-325.28 17.19,-291.67 57.07,-241.81 227.67,-215.81 341.62,-203.75"/>
<text text-anchor="middle" x="107.69" y="-409.93" font-family="sans-serif" font-size="12.00"> &#160;&#160;&#160;&#160;&#160;&#160;&#160;&#160;&#160;&#160;&#160;&#160;&#160;&#160;&#160;&#160;&#160;&#160;&#160;&#160;&#160;&#160;&#160;&#160;&#160;&#160;&#160;&#160;&#160;&#160;&#160;&#160;&#160;&#160;&#160;&#160;&#160;&#160;&#160;</text>
<polygon fill="white" stroke="transparent" points="322.62,-193.75 322.62,-212.75 338.62,-212.75 338.62,-193.75 322.62,-193.75"/>
<polyline fill="none" stroke="black" points="338.62,-193.75 338.62,-212.75 "/>
<text text-anchor="start" x="325.62" y="-200.15" font-family="sans-serif" font-size="12.00">D</text>
<polygon fill="white" stroke="transparent" points="338.62,-193.75 338.62,-212.75 360.62,-212.75 360.62,-193.75 338.62,-193.75"/>
<polygon fill="none" stroke="black" points="338.62,-193.75 338.62,-212.75 360.62,-212.75 360.62,-193.75 338.62,-193.75"/>
<text text-anchor="start" x="341.62" y="-200.15" font-family="sans-serif" font-size="12.00">CF</text>
<polygon fill="white" stroke="transparent" points="1163.85,-620.49 1163.85,-637.49 1177.85,-637.49 1177.85,-620.49 1163.85,-620.49"/>
<text text-anchor="start" x="1165.85" y="-625.89" font-family="sans-serif" font-size="12.00">U</text>
</g>
<!-- IdentityContext&#45;&gt;AdvertisingCampaignContext -->
<g id="edge10" class="edge">
<title>IdentityContext&#45;&gt;AdvertisingCampaignContext</title>
<path fill="none" stroke="black" stroke-width="2" d="M1377.98,-595.38C1422.27,-575.6 1478.83,-550.35 1526.37,-529.12"/>
<text text-anchor="middle" x="1547.69" y="-554.55" font-family="sans-serif" font-size="12.00"> &#160;&#160;&#160;&#160;&#160;&#160;&#160;&#160;&#160;&#160;&#160;&#160;&#160;&#160;&#160;&#160;&#160;&#160;&#160;&#160;&#160;&#160;&#160;&#160;&#160;&#160;&#160;&#160;&#160;&#160;&#160;&#160;&#160;&#160;&#160;&#160;&#160;&#160;&#160;</text>
<polygon fill="white" stroke="transparent" points="1507.37,-519.12 1507.37,-538.12 1523.37,-538.12 1523.37,-519.12 1507.37,-519.12"/>
<polyline fill="none" stroke="black" points="1523.37,-519.12 1523.37,-538.12 "/>
<text text-anchor="start" x="1510.37" y="-525.52" font-family="sans-serif" font-size="12.00">D</text>
<polygon fill="white" stroke="transparent" points="1523.37,-519.12 1523.37,-538.12 1545.37,-538.12 1545.37,-519.12 1523.37,-519.12"/>
<polygon fill="none" stroke="black" points="1523.37,-519.12 1523.37,-538.12 1545.37,-538.12 1545.37,-519.12 1523.37,-519.12"/>
<text text-anchor="start" x="1526.37" y="-525.52" font-family="sans-serif" font-size="12.00">CF</text>
<polygon fill="white" stroke="transparent" points="1370.98,-586.38 1370.98,-603.38 1384.98,-603.38 1384.98,-586.38 1370.98,-586.38"/>
<text text-anchor="start" x="1372.98" y="-591.78" font-family="sans-serif" font-size="12.00">U</text>
</g>
<!-- IdentityContext&#45;&gt;CatalogContext -->
<g id="edge18" class="edge">
<title>IdentityContext&#45;&gt;CatalogContext</title>
<path fill="none" stroke="black" stroke-width="2" d="M1170.94,-625.86C1019.11,-619.41 783.8,-598.78 728.19,-533.15 700.71,-500.73 706.57,-474.12 728.19,-437.53 746.27,-406.91 777.93,-385.36 809.39,-370.51"/>
<text text-anchor="middle" x="803.69" y="-482.24" font-family="sans-serif" font-size="12.00"> &#160;&#160;&#160;&#160;&#160;&#160;&#160;&#160;&#160;&#160;&#160;&#160;&#160;&#160;&#160;&#160;&#160;&#160;&#160;&#160;&#160;&#160;&#160;&#160;&#160;&#160;&#160;&#160;&#160;&#160;&#160;&#160;&#160;&#160;&#160;&#160;&#160;&#160;&#160;</text>
<polygon fill="white" stroke="transparent" points="790.39,-360.51 790.39,-379.51 806.39,-379.51 806.39,-360.51 790.39,-360.51"/>
<polyline fill="none" stroke="black" points="806.39,-360.51 806.39,-379.51 "/>
<text text-anchor="start" x="793.39" y="-366.91" font-family="sans-serif" font-size="12.00">D</text>
<polygon fill="white" stroke="transparent" points="806.39,-360.51 806.39,-379.51 828.39,-379.51 828.39,-360.51 806.39,-360.51"/>
<polygon fill="none" stroke="black" points="806.39,-360.51 806.39,-379.51 828.39,-379.51 828.39,-360.51 806.39,-360.51"/>
<text text-anchor="start" x="809.39" y="-366.91" font-family="sans-serif" font-size="12.00">CF</text>
<polygon fill="white" stroke="transparent" points="1163.94,-616.86 1163.94,-633.86 1177.94,-633.86 1177.94,-616.86 1163.94,-616.86"/>
<text text-anchor="start" x="1165.94" y="-622.26" font-family="sans-serif" font-size="12.00">U</text>
</g>
<!-- IdentityContext&#45;&gt;ProfileContext -->
<g id="edge12" class="edge">
<title>IdentityContext&#45;&gt;ProfileContext</title>
<path fill="none" stroke="black" stroke-width="2" d="M1343.78,-588.98C1357.52,-573 1371.35,-553.54 1379.19,-533.15 1417.71,-432.9 1423.59,-393.06 1388.19,-291.67 1380.89,-270.78 1367,-251.03 1353.01,-234.88"/>
<text text-anchor="middle" x="1486.69" y="-409.93" font-family="sans-serif" font-size="12.00"> &#160;&#160;&#160;&#160;&#160;&#160;&#160;&#160;&#160;&#160;&#160;&#160;&#160;&#160;&#160;&#160;&#160;&#160;&#160;&#160;&#160;&#160;&#160;&#160;&#160;&#160;&#160;&#160;&#160;&#160;&#160;&#160;&#160;&#160;&#160;&#160;&#160;&#160;&#160;</text>
<polygon fill="white" stroke="transparent" points="1334.01,-224.88 1334.01,-243.88 1350.01,-243.88 1350.01,-224.88 1334.01,-224.88"/>
<polyline fill="none" stroke="black" points="1350.01,-224.88 1350.01,-243.88 "/>
<text text-anchor="start" x="1337.01" y="-231.28" font-family="sans-serif" font-size="12.00">D</text>
<polygon fill="white" stroke="transparent" points="1350.01,-224.88 1350.01,-243.88 1372.01,-243.88 1372.01,-224.88 1350.01,-224.88"/>
<polygon fill="none" stroke="black" points="1350.01,-224.88 1350.01,-243.88 1372.01,-243.88 1372.01,-224.88 1350.01,-224.88"/>
<text text-anchor="start" x="1353.01" y="-231.28" font-family="sans-serif" font-size="12.00">CF</text>
<polygon fill="white" stroke="transparent" points="1336.78,-579.98 1336.78,-596.98 1350.78,-596.98 1350.78,-579.98 1336.78,-579.98"/>
<text text-anchor="start" x="1338.78" y="-585.38" font-family="sans-serif" font-size="12.00">U</text>
</g>
<!-- IdentityContext&#45;&gt;RecommandationContext -->
<g id="edge7" class="edge">
<title>IdentityContext&#45;&gt;RecommandationContext</title>
<path fill="none" stroke="black" stroke-width="2" d="M1413.29,-618.24C1533.38,-606.43 1731.21,-586.05 1901.19,-564.15 2006.55,-550.58 2127.19,-592.57 2127.19,-486.34 2127.19,-486.34 2127.19,-486.34 2127.19,-192.85 2127.19,-127.08 1710.78,-81.88 1472.89,-61.42"/>
<text text-anchor="middle" x="2202.69" y="-337" font-family="sans-serif" font-size="12.00"> &#160;&#160;&#160;&#160;&#160;&#160;&#160;&#160;&#160;&#160;&#160;&#160;&#160;&#160;&#160;&#160;&#160;&#160;&#160;&#160;&#160;&#160;&#160;&#160;&#160;&#160;&#160;&#160;&#160;&#160;&#160;&#160;&#160;&#160;&#160;&#160;&#160;&#160;&#160;</text>
<polygon fill="white" stroke="transparent" points="1453.89,-51.42 1453.89,-70.42 1469.89,-70.42 1469.89,-51.42 1453.89,-51.42"/>
<polyline fill="none" stroke="black" points="1469.89,-51.42 1469.89,-70.42 "/>
<text text-anchor="start" x="1456.89" y="-57.82" font-family="sans-serif" font-size="12.00">D</text>
<polygon fill="white" stroke="transparent" points="1469.89,-51.42 1469.89,-70.42 1491.89,-70.42 1491.89,-51.42 1469.89,-51.42"/>
<polygon fill="none" stroke="black" points="1469.89,-51.42 1469.89,-70.42 1491.89,-70.42 1491.89,-51.42 1469.89,-51.42"/>
<text text-anchor="start" x="1472.89" y="-57.82" font-family="sans-serif" font-size="12.00">CF</text>
<polygon fill="white" stroke="transparent" points="1406.29,-609.24 1406.29,-626.24 1420.29,-626.24 1420.29,-609.24 1406.29,-609.24"/>
<text text-anchor="start" x="1408.29" y="-614.64" font-family="sans-serif" font-size="12.00">U</text>
</g>
<!-- ReviewContext -->
<g id="node9" class="node">
<title>ReviewContext</title>
<polygon fill="none" stroke="black" stroke-width="2" points="1904.17,-448.98 1910.41,-447.32 1916.8,-445.78 1923.31,-444.35 1929.91,-443.04 1936.58,-441.86 1943.29,-440.82 1950.02,-439.91 1956.74,-439.15 1963.44,-438.54 1970.09,-438.08 1976.66,-437.77 1983.14,-437.61 1989.5,-437.61 1995.74,-437.76 2001.83,-438.07 2007.75,-438.54 2013.5,-439.15 2019.06,-439.92 2024.41,-440.83 2029.54,-441.88 2034.46,-443.08 2039.14,-444.4 2043.59,-445.86 2047.79,-447.43 2051.74,-449.12 2055.44,-450.92 2058.89,-452.82 2062.08,-454.81 2065.02,-456.89 2067.7,-459.04 2070.12,-461.26 2072.29,-463.54 2074.21,-465.88 2075.88,-468.25 2077.31,-470.66 2078.49,-473.09 2079.42,-475.54 2080.12,-478 2080.58,-480.45 2080.81,-482.9 2080.81,-485.33 2080.58,-487.74 2080.12,-490.12 2079.45,-492.45 2078.54,-494.75 2077.42,-496.99 2076.09,-499.18 2074.53,-501.31 2072.76,-503.37 2070.77,-505.37 2068.56,-507.28 2066.15,-509.12 2063.51,-510.88 2060.67,-512.56 2057.61,-514.15 2054.34,-515.65 2050.86,-517.07 2047.17,-518.39 2043.27,-519.62 2039.17,-520.76 2034.87,-521.8 2030.37,-522.76 2025.68,-523.61 2020.8,-524.38 2015.74,-525.05 2010.51,-525.62 2005.11,-526.11 1999.55,-526.5 1993.85,-526.8 1988.01,-527.01 1982.05,-527.12 1975.98,-527.15 1969.82,-527.08 1963.59,-526.93 1957.29,-526.68 1950.95,-526.35 1944.59,-525.93 1938.23,-525.42 1931.89,-524.82 1925.58,-524.14 1919.34,-523.36 1913.18,-522.51 1907.13,-521.56 1901.2,-520.53 1895.44,-519.41 1889.84,-518.21 1884.45,-516.93 1879.28,-515.56 1874.36,-514.11 1869.7,-512.58 1865.34,-510.97 1861.27,-509.29 1857.54,-507.53 1854.15,-505.7 1851.12,-503.8 1848.46,-501.83 1846.2,-499.8 1844.33,-497.71 1842.88,-495.57 1841.84,-493.38 1841.23,-491.14 1841.04,-488.86 1841.29,-486.55 1841.97,-484.21 1843.08,-481.85 1844.61,-479.48 1846.56,-477.1 1848.93,-474.71 1851.69,-472.34 1854.85,-469.98 1858.38,-467.64 1862.28,-465.33 1866.52,-463.06 1871.09,-460.84 1875.96,-458.68 1881.12,-456.58 1886.54,-454.55 1892.21,-452.6 1898.09,-450.75 1904.17,-448.98"/>
<text text-anchor="middle" x="1970.19" y="-481.54" font-family="sans-serif" font-size="16.00">ReviewContext</text>
</g>
<!-- IdentityContext&#45;&gt;ReviewContext -->
<g id="edge8" class="edge">
<title>IdentityContext&#45;&gt;ReviewContext</title>
<path fill="none" stroke="black" stroke-width="2" d="M1410.58,-614.13C1518.18,-598.35 1688.06,-570.4 1832.19,-533.15 1849.58,-528.66 1867.94,-523.06 1885.39,-517.31"/>
<text text-anchor="middle" x="1821.69" y="-554.55" font-family="sans-serif" font-size="12.00"> &#160;&#160;&#160;&#160;&#160;&#160;&#160;&#160;&#160;&#160;&#160;&#160;&#160;&#160;&#160;&#160;&#160;&#160;&#160;&#160;&#160;&#160;&#160;&#160;&#160;&#160;&#160;&#160;&#160;&#160;&#160;&#160;&#160;&#160;&#160;&#160;&#160;&#160;&#160;</text>
<polygon fill="white" stroke="transparent" points="1866.39,-507.31 1866.39,-526.31 1882.39,-526.31 1882.39,-507.31 1866.39,-507.31"/>
<polyline fill="none" stroke="black" points="1882.39,-507.31 1882.39,-526.31 "/>
<text text-anchor="start" x="1869.39" y="-513.71" font-family="sans-serif" font-size="12.00">D</text>
<polygon fill="white" stroke="transparent" points="1882.39,-507.31 1882.39,-526.31 1904.39,-526.31 1904.39,-507.31 1882.39,-507.31"/>
<polygon fill="none" stroke="black" points="1882.39,-507.31 1882.39,-526.31 1904.39,-526.31 1904.39,-507.31 1882.39,-507.31"/>
<text text-anchor="start" x="1885.39" y="-513.71" font-family="sans-serif" font-size="12.00">CF</text>
<polygon fill="white" stroke="transparent" points="1403.58,-605.13 1403.58,-622.13 1417.58,-622.13 1417.58,-605.13 1403.58,-605.13"/>
<text text-anchor="start" x="1405.58" y="-610.53" font-family="sans-serif" font-size="12.00">U</text>
</g>
<!-- ShoppingCartContext -->
<g id="node10" class="node">
<title>ShoppingCartContext</title>
<polygon fill="none" stroke="black" stroke-width="2" points="1336.83,-314.71 1342.82,-317.02 1348.43,-319.39 1353.63,-321.81 1358.39,-324.26 1362.7,-326.74 1366.53,-329.24 1369.87,-331.75 1372.71,-334.25 1375.03,-336.75 1376.81,-339.24 1378.06,-341.7 1378.76,-344.12 1378.91,-346.51 1378.51,-348.85 1377.56,-351.14 1376.06,-353.37 1374.02,-355.54 1371.45,-357.63 1368.37,-359.65 1364.77,-361.6 1360.68,-363.46 1356.11,-365.24 1351.09,-366.93 1345.64,-368.54 1339.77,-370.05 1333.51,-371.47 1326.9,-372.79 1319.95,-374.02 1312.7,-375.16 1305.17,-376.2 1297.39,-377.15 1289.4,-378.01 1281.22,-378.77 1272.88,-379.43 1264.43,-380.01 1255.88,-380.49 1247.27,-380.89 1238.62,-381.19 1229.97,-381.41 1221.35,-381.53 1212.78,-381.58 1204.29,-381.53 1195.9,-381.4 1187.64,-381.19 1179.52,-380.89 1171.58,-380.51 1163.84,-380.05 1156.3,-379.5 1148.99,-378.87 1141.92,-378.16 1135.1,-377.37 1128.56,-376.49 1122.29,-375.54 1116.32,-374.5 1110.64,-373.38 1105.26,-372.18 1100.2,-370.9 1095.45,-369.54 1091.02,-368.1 1086.92,-366.58 1083.13,-364.99 1079.67,-363.32 1076.54,-361.57 1073.74,-359.75 1071.26,-357.87 1069.1,-355.92 1067.27,-353.9 1065.76,-351.82 1064.58,-349.69 1063.71,-347.5 1063.16,-345.27 1062.93,-343 1063.02,-340.69 1063.42,-338.35 1064.13,-335.98 1065.16,-333.6 1066.5,-331.21 1068.15,-328.81 1070.11,-326.42 1072.38,-324.05 1074.95,-321.69 1077.84,-319.37 1081.03,-317.08 1084.53,-314.84 1088.34,-312.66 1092.44,-310.54 1096.85,-308.5 1101.55,-306.54 1106.55,-304.67 1111.83,-302.89 1117.4,-301.23 1123.24,-299.68 1129.36,-298.25 1135.73,-296.94 1142.36,-295.77 1149.23,-294.74 1156.33,-293.86 1163.65,-293.12 1171.17,-292.54 1178.87,-292.11 1186.75,-291.84 1194.77,-291.74 1202.92,-291.79 1211.19,-292 1219.53,-292.38 1227.94,-292.91 1236.39,-293.6 1244.84,-294.45 1253.29,-295.44 1261.68,-296.58 1270.01,-297.87 1278.23,-299.29 1286.32,-300.84 1294.26,-302.51 1302,-304.3 1309.52,-306.2 1316.8,-308.2 1323.79,-310.29 1330.48,-312.46 1336.83,-314.71"/>
<text text-anchor="middle" x="1210.19" y="-336.3" font-family="sans-serif" font-size="16.00">ShoppingCartContext</text>
</g>
<!-- IdentityContext&#45;&gt;ShoppingCartContext -->
<g id="edge9" class="edge">
<title>IdentityContext&#45;&gt;ShoppingCartContext</title>
<path fill="none" stroke="black" stroke-width="2" d="M1264.64,-590.15C1250.75,-573.89 1236.47,-553.93 1228.19,-533.15 1208.47,-483.69 1206.3,-421.58 1207.49,-381.62"/>
<text text-anchor="middle" x="1303.69" y="-482.24" font-family="sans-serif" font-size="12.00"> &#160;&#160;&#160;&#160;&#160;&#160;&#160;&#160;&#160;&#160;&#160;&#160;&#160;&#160;&#160;&#160;&#160;&#160;&#160;&#160;&#160;&#160;&#160;&#160;&#160;&#160;&#160;&#160;&#160;&#160;&#160;&#160;&#160;&#160;&#160;&#160;&#160;&#160;&#160;</text>
<polygon fill="white" stroke="transparent" points="1188.49,-371.62 1188.49,-390.62 1204.49,-390.62 1204.49,-371.62 1188.49,-371.62"/>
<polyline fill="none" stroke="black" points="1204.49,-371.62 1204.49,-390.62 "/>
<text text-anchor="start" x="1191.49" y="-378.02" font-family="sans-serif" font-size="12.00">D</text>
<polygon fill="white" stroke="transparent" points="1204.49,-371.62 1204.49,-390.62 1226.49,-390.62 1226.49,-371.62 1204.49,-371.62"/>
<polygon fill="none" stroke="black" points="1204.49,-371.62 1204.49,-390.62 1226.49,-390.62 1226.49,-371.62 1204.49,-371.62"/>
<text text-anchor="start" x="1207.49" y="-378.02" font-family="sans-serif" font-size="12.00">CF</text>
<polygon fill="white" stroke="transparent" points="1257.64,-581.15 1257.64,-598.15 1271.64,-598.15 1271.64,-581.15 1257.64,-581.15"/>
<text text-anchor="start" x="1259.64" y="-586.55" font-family="sans-serif" font-size="12.00">U</text>
</g>
<!-- ReportingContext -->
<g id="node11" class="node">
<title>ReportingContext</title>
<polygon fill="none" stroke="black" stroke-width="2" points="2323.78,-442.32 2332.23,-442.86 2340.56,-443.51 2348.73,-444.27 2356.71,-445.15 2364.46,-446.14 2371.96,-447.23 2379.17,-448.42 2386.07,-449.71 2392.62,-451.09 2398.82,-452.57 2404.63,-454.13 2410.03,-455.77 2415.02,-457.49 2419.56,-459.28 2423.66,-461.14 2427.3,-463.06 2430.47,-465.04 2433.17,-467.07 2435.39,-469.15 2437.15,-471.26 2438.42,-473.42 2439.23,-475.6 2439.58,-477.81 2439.48,-480.03 2438.94,-482.27 2437.96,-484.52 2436.57,-486.77 2434.78,-489.01 2432.61,-491.24 2430.07,-493.46 2427.19,-495.65 2423.98,-497.82 2420.46,-499.95 2416.66,-502.05 2412.59,-504.1 2408.28,-506.11 2403.74,-508.06 2399,-509.95 2394.07,-511.77 2388.98,-513.53 2383.75,-515.21 2378.39,-516.82 2372.92,-518.34 2367.36,-519.78 2361.71,-521.13 2356.01,-522.38 2350.25,-523.54 2344.45,-524.59 2338.63,-525.54 2332.78,-526.38 2326.93,-527.12 2321.08,-527.74 2315.23,-528.25 2309.4,-528.64 2303.58,-528.92 2297.79,-529.07 2292.02,-529.11 2286.29,-529.03 2280.59,-528.83 2274.94,-528.52 2269.32,-528.08 2263.76,-527.52 2258.24,-526.85 2252.78,-526.06 2247.38,-525.16 2242.04,-524.14 2236.77,-523.02 2231.58,-521.79 2226.48,-520.46 2221.46,-519.02 2216.55,-517.49 2211.75,-515.87 2207.07,-514.16 2202.53,-512.37 2198.12,-510.5 2193.88,-508.56 2189.81,-506.55 2185.93,-504.48 2182.26,-502.35 2178.8,-500.17 2175.57,-497.95 2172.6,-495.69 2169.9,-493.4 2167.49,-491.09 2165.38,-488.76 2163.59,-486.41 2162.14,-484.07 2161.04,-481.72 2160.31,-479.39 2159.96,-477.07 2160,-474.78 2160.45,-472.51 2161.31,-470.29 2162.6,-468.1 2164.32,-465.97 2166.47,-463.89 2169.06,-461.87 2172.1,-459.92 2175.57,-458.04 2179.47,-456.24 2183.81,-454.53 2188.57,-452.9 2193.73,-451.37 2199.3,-449.93 2205.24,-448.59 2211.56,-447.36 2218.21,-446.24 2225.19,-445.22 2232.47,-444.33 2240.02,-443.54 2247.81,-442.88 2255.83,-442.33 2264.02,-441.9 2272.37,-441.6 2280.84,-441.42 2289.4,-441.35 2298.01,-441.42 2306.63,-441.6 2315.23,-441.9 2323.78,-442.32"/>
<text text-anchor="middle" x="2297.19" y="-481.54" font-family="sans-serif" font-size="16.00">ReportingContext</text>
</g>
<!-- IdentityContext&#45;&gt;ReportingContext -->
<g id="edge11" class="edge">
<title>IdentityContext&#45;&gt;ReportingContext</title>
<path fill="none" stroke="black" stroke-width="2" d="M1416.08,-625.43C1612.25,-618.73 2007.84,-601.03 2141.19,-564.15 2174.44,-554.96 2209.01,-538.52 2237.14,-523.12"/>
<text text-anchor="middle" x="2251.69" y="-554.55" font-family="sans-serif" font-size="12.00"> &#160;&#160;&#160;&#160;&#160;&#160;&#160;&#160;&#160;&#160;&#160;&#160;&#160;&#160;&#160;&#160;&#160;&#160;&#160;&#160;&#160;&#160;&#160;&#160;&#160;&#160;&#160;&#160;&#160;&#160;&#160;&#160;&#160;&#160;&#160;&#160;&#160;&#160;&#160;</text>
<polygon fill="white" stroke="transparent" points="2218.14,-513.12 2218.14,-532.12 2234.14,-532.12 2234.14,-513.12 2218.14,-513.12"/>
<polyline fill="none" stroke="black" points="2234.14,-513.12 2234.14,-532.12 "/>
<text text-anchor="start" x="2221.14" y="-519.52" font-family="sans-serif" font-size="12.00">D</text>
<polygon fill="white" stroke="transparent" points="2234.14,-513.12 2234.14,-532.12 2256.14,-532.12 2256.14,-513.12 2234.14,-513.12"/>
<polygon fill="none" stroke="black" points="2234.14,-513.12 2234.14,-532.12 2256.14,-532.12 2256.14,-513.12 2234.14,-513.12"/>
<text text-anchor="start" x="2237.14" y="-519.52" font-family="sans-serif" font-size="12.00">CF</text>
<polygon fill="white" stroke="transparent" points="1409.08,-616.43 1409.08,-633.43 1423.08,-633.43 1423.08,-616.43 1409.08,-616.43"/>
<text text-anchor="start" x="1411.08" y="-621.83" font-family="sans-serif" font-size="12.00">U</text>
</g>
<!-- InventoryContext -->
<g id="node12" class="node">
<title>InventoryContext</title>
<polygon fill="none" stroke="black" stroke-width="2" points="968.93,-446.99 976.33,-445.55 983.87,-444.22 991.5,-443.01 999.21,-441.92 1006.95,-440.97 1014.72,-440.15 1022.46,-439.47 1030.16,-438.93 1037.8,-438.54 1045.33,-438.3 1052.75,-438.21 1060.02,-438.27 1067.13,-438.47 1074.05,-438.83 1080.76,-439.34 1087.25,-439.99 1093.51,-440.8 1099.51,-441.74 1105.24,-442.82 1110.7,-444.04 1115.88,-445.39 1120.76,-446.86 1125.35,-448.45 1129.63,-450.16 1133.6,-451.97 1137.26,-453.88 1140.62,-455.88 1143.67,-457.97 1146.4,-460.13 1148.84,-462.36 1150.97,-464.65 1152.8,-467 1154.34,-469.38 1155.59,-471.8 1156.55,-474.24 1157.23,-476.7 1157.64,-479.17 1157.78,-481.64 1157.66,-484.1 1157.28,-486.54 1156.65,-488.96 1155.77,-491.35 1154.65,-493.7 1153.28,-496 1151.68,-498.26 1149.85,-500.45 1147.79,-502.59 1145.5,-504.65 1142.98,-506.65 1140.25,-508.57 1137.29,-510.4 1134.11,-512.16 1130.72,-513.82 1127.11,-515.4 1123.28,-516.88 1119.25,-518.27 1114.99,-519.56 1110.53,-520.75 1105.87,-521.85 1101,-522.85 1095.92,-523.75 1090.65,-524.55 1085.2,-525.25 1079.55,-525.85 1073.73,-526.35 1067.74,-526.75 1061.58,-527.06 1055.28,-527.26 1048.84,-527.37 1042.27,-527.39 1035.59,-527.31 1028.81,-527.14 1021.96,-526.87 1015.04,-526.51 1008.07,-526.06 1001.08,-525.52 994.1,-524.9 987.13,-524.18 980.2,-523.38 973.34,-522.49 966.57,-521.51 959.92,-520.46 953.41,-519.32 947.07,-518.1 940.92,-516.8 934.99,-515.42 929.31,-513.96 923.9,-512.43 918.78,-510.83 913.98,-509.15 909.52,-507.41 905.42,-505.6 901.71,-503.73 898.4,-501.79 895.51,-499.8 893.06,-497.76 891.06,-495.67 889.52,-493.53 888.45,-491.35 887.86,-489.13 887.75,-486.89 888.14,-484.61 889.02,-482.32 890.38,-480.02 892.23,-477.7 894.56,-475.39 897.35,-473.08 900.61,-470.79 904.31,-468.52 908.45,-466.27 913,-464.06 917.95,-461.89 923.27,-459.77 928.94,-457.71 934.94,-455.72 941.24,-453.8 947.82,-451.96 954.65,-450.21 961.7,-448.55 968.93,-446.99"/>
<text text-anchor="middle" x="1033.19" y="-481.54" font-family="sans-serif" font-size="16.00">InventoryContext</text>
</g>
<!-- IdentityContext&#45;&gt;InventoryContext -->
<g id="edge14" class="edge">
<title>IdentityContext&#45;&gt;InventoryContext</title>
<path fill="none" stroke="black" stroke-width="2" d="M1182.33,-610.56C1126.46,-599.72 1068.27,-584.15 1049.19,-564.15 1039.85,-554.38 1035.32,-540.68 1033.28,-527.5"/>
<text text-anchor="middle" x="1124.69" y="-554.55" font-family="sans-serif" font-size="12.00"> &#160;&#160;&#160;&#160;&#160;&#160;&#160;&#160;&#160;&#160;&#160;&#160;&#160;&#160;&#160;&#160;&#160;&#160;&#160;&#160;&#160;&#160;&#160;&#160;&#160;&#160;&#160;&#160;&#160;&#160;&#160;&#160;&#160;&#160;&#160;&#160;&#160;&#160;&#160;</text>
<polygon fill="white" stroke="transparent" points="1014.28,-517.5 1014.28,-536.5 1030.28,-536.5 1030.28,-517.5 1014.28,-517.5"/>
<polyline fill="none" stroke="black" points="1030.28,-517.5 1030.28,-536.5 "/>
<text text-anchor="start" x="1017.28" y="-523.9" font-family="sans-serif" font-size="12.00">D</text>
<polygon fill="white" stroke="transparent" points="1030.28,-517.5 1030.28,-536.5 1052.28,-536.5 1052.28,-517.5 1030.28,-517.5"/>
<polygon fill="none" stroke="black" points="1030.28,-517.5 1030.28,-536.5 1052.28,-536.5 1052.28,-517.5 1030.28,-517.5"/>
<text text-anchor="start" x="1033.28" y="-523.9" font-family="sans-serif" font-size="12.00">CF</text>
<polygon fill="white" stroke="transparent" points="1175.33,-601.56 1175.33,-618.56 1189.33,-618.56 1189.33,-601.56 1175.33,-601.56"/>
<text text-anchor="start" x="1177.33" y="-606.96" font-family="sans-serif" font-size="12.00">U</text>
</g>
<!-- NotificationContext -->
<g id="node13" class="node">
<title>NotificationContext</title>
<polygon fill="none" stroke="black" stroke-width="2" points="2551.67,-445.81 2559.85,-444.49 2568.16,-443.29 2576.55,-442.21 2585,-441.26 2593.47,-440.44 2601.94,-439.76 2610.36,-439.22 2618.72,-438.82 2626.97,-438.56 2635.1,-438.45 2643.07,-438.49 2650.87,-438.67 2658.46,-439 2665.82,-439.49 2672.94,-440.11 2679.8,-440.88 2686.37,-441.79 2692.65,-442.85 2698.63,-444.03 2704.28,-445.35 2709.61,-446.79 2714.6,-448.35 2719.25,-450.02 2723.56,-451.81 2727.52,-453.69 2731.13,-455.67 2734.4,-457.73 2737.31,-459.88 2739.89,-462.09 2742.13,-464.37 2744.03,-466.7 2745.6,-469.08 2746.85,-471.49 2747.79,-473.93 2748.41,-476.4 2748.73,-478.87 2748.76,-481.35 2748.5,-483.83 2747.96,-486.29 2747.14,-488.73 2746.06,-491.14 2744.71,-493.51 2743.11,-495.85 2741.26,-498.13 2739.17,-500.36 2736.83,-502.53 2734.26,-504.63 2731.46,-506.66 2728.43,-508.61 2725.17,-510.49 2721.69,-512.27 2717.99,-513.97 2714.07,-515.58 2709.93,-517.09 2705.58,-518.51 2701.01,-519.83 2696.23,-521.05 2691.25,-522.17 2686.05,-523.18 2680.66,-524.1 2675.07,-524.91 2669.28,-525.62 2663.31,-526.22 2657.15,-526.72 2650.82,-527.12 2644.32,-527.42 2637.67,-527.62 2630.87,-527.71 2623.94,-527.71 2616.89,-527.61 2609.74,-527.41 2602.49,-527.12 2595.18,-526.73 2587.81,-526.25 2580.42,-525.68 2573.01,-525.02 2565.62,-524.26 2558.26,-523.42 2550.96,-522.5 2543.75,-521.49 2536.65,-520.39 2529.69,-519.22 2522.9,-517.96 2516.3,-516.63 2509.92,-515.22 2503.79,-513.73 2497.93,-512.17 2492.38,-510.55 2487.16,-508.85 2482.29,-507.09 2477.8,-505.26 2473.7,-503.38 2470.03,-501.44 2466.81,-499.44 2464.04,-497.4 2461.75,-495.31 2459.95,-493.18 2458.66,-491.01 2457.88,-488.81 2457.62,-486.58 2457.88,-484.33 2458.68,-482.06 2460,-479.78 2461.85,-477.49 2464.22,-475.21 2467.11,-472.93 2470.49,-470.67 2474.37,-468.43 2478.73,-466.22 2483.54,-464.04 2488.79,-461.91 2494.46,-459.83 2500.53,-457.8 2506.96,-455.84 2513.73,-453.95 2520.81,-452.13 2528.18,-450.41 2535.8,-448.77 2543.64,-447.24 2551.67,-445.81"/>
<text text-anchor="middle" x="2614.19" y="-481.54" font-family="sans-serif" font-size="16.00">NotificationContext</text>
</g>
<!-- IdentityContext&#45;&gt;NotificationContext -->
<g id="edge17" class="edge">
<title>IdentityContext&#45;&gt;NotificationContext</title>
<path fill="none" stroke="black" stroke-width="2" d="M1416.56,-628.88C1606.84,-627.46 2001.99,-617.58 2331.19,-564.15 2395.44,-553.72 2466.04,-534.33 2520.65,-517.51"/>
<text text-anchor="middle" x="2469.69" y="-554.55" font-family="sans-serif" font-size="12.00"> &#160;&#160;&#160;&#160;&#160;&#160;&#160;&#160;&#160;&#160;&#160;&#160;&#160;&#160;&#160;&#160;&#160;&#160;&#160;&#160;&#160;&#160;&#160;&#160;&#160;&#160;&#160;&#160;&#160;&#160;&#160;&#160;&#160;&#160;&#160;&#160;&#160;&#160;&#160;</text>
<polygon fill="white" stroke="transparent" points="2501.65,-507.51 2501.65,-526.51 2517.65,-526.51 2517.65,-507.51 2501.65,-507.51"/>
<polyline fill="none" stroke="black" points="2517.65,-507.51 2517.65,-526.51 "/>
<text text-anchor="start" x="2504.65" y="-513.91" font-family="sans-serif" font-size="12.00">D</text>
<polygon fill="white" stroke="transparent" points="2517.65,-507.51 2517.65,-526.51 2539.65,-526.51 2539.65,-507.51 2517.65,-507.51"/>
<polygon fill="none" stroke="black" points="2517.65,-507.51 2517.65,-526.51 2539.65,-526.51 2539.65,-507.51 2517.65,-507.51"/>
<text text-anchor="start" x="2520.65" y="-513.91" font-family="sans-serif" font-size="12.00">CF</text>
<polygon fill="white" stroke="transparent" points="1409.56,-619.88 1409.56,-636.88 1423.56,-636.88 1423.56,-619.88 1409.56,-619.88"/>
<text text-anchor="start" x="1411.56" y="-625.28" font-family="sans-serif" font-size="12.00">U</text>
</g>
<!-- InventoryContext&#45;&gt;OrderContext -->
<g id="edge21" class="edge">
<title>InventoryContext&#45;&gt;OrderContext</title>
<path fill="none" stroke="black" stroke-width="2" d="M941.25,-453.79C922.17,-447.97 902.11,-442.24 883.19,-437.53 768.66,-409.01 705.33,-472.3 622.19,-388.53 581.51,-347.55 635.04,-305.92 599.19,-260.67 584.54,-242.18 563.68,-228.79 542.09,-219.12"/>
<text text-anchor="middle" x="697.69" y="-337" font-family="sans-serif" font-size="12.00"> &#160;&#160;&#160;&#160;&#160;&#160;&#160;&#160;&#160;&#160;&#160;&#160;&#160;&#160;&#160;&#160;&#160;&#160;&#160;&#160;&#160;&#160;&#160;&#160;&#160;&#160;&#160;&#160;&#160;&#160;&#160;&#160;&#160;&#160;&#160;&#160;&#160;&#160;&#160;</text>
<polygon fill="white" stroke="transparent" points="519.09,-209.12 519.09,-228.12 535.09,-228.12 535.09,-209.12 519.09,-209.12"/>
<polyline fill="none" stroke="black" points="535.09,-209.12 535.09,-228.12 "/>
<text text-anchor="start" x="522.09" y="-215.52" font-family="sans-serif" font-size="12.00">D</text>
<polygon fill="white" stroke="transparent" points="535.09,-209.12 535.09,-228.12 565.09,-228.12 565.09,-209.12 535.09,-209.12"/>
<polygon fill="none" stroke="black" points="535.09,-209.12 535.09,-228.12 565.09,-228.12 565.09,-209.12 535.09,-209.12"/>
<text text-anchor="start" x="538.09" y="-215.52" font-family="sans-serif" font-size="12.00">ACL</text>
<polygon fill="white" stroke="transparent" points="934.25,-444.79 934.25,-461.79 948.25,-461.79 948.25,-444.79 934.25,-444.79"/>
<text text-anchor="start" x="936.25" y="-450.19" font-family="sans-serif" font-size="12.00">U</text>
</g>
<!-- InventoryContext&#45;&gt;CatalogContext -->
<g id="edge19" class="edge">
<title>InventoryContext&#45;&gt;CatalogContext</title>
<path fill="none" stroke="black" stroke-width="2" d="M923.68,-459.31C904.53,-449.96 886.99,-437.13 875.19,-419.53 868.74,-409.92 869.06,-398.66 872.54,-387.72"/>
<text text-anchor="middle" x="950.69" y="-409.93" font-family="sans-serif" font-size="12.00"> &#160;&#160;&#160;&#160;&#160;&#160;&#160;&#160;&#160;&#160;&#160;&#160;&#160;&#160;&#160;&#160;&#160;&#160;&#160;&#160;&#160;&#160;&#160;&#160;&#160;&#160;&#160;&#160;&#160;&#160;&#160;&#160;&#160;&#160;&#160;&#160;&#160;&#160;&#160;</text>
<polygon fill="white" stroke="transparent" points="849.54,-377.72 849.54,-396.72 865.54,-396.72 865.54,-377.72 849.54,-377.72"/>
<polyline fill="none" stroke="black" points="865.54,-377.72 865.54,-396.72 "/>
<text text-anchor="start" x="852.54" y="-384.12" font-family="sans-serif" font-size="12.00">D</text>
<polygon fill="white" stroke="transparent" points="865.54,-377.72 865.54,-396.72 895.54,-396.72 895.54,-377.72 865.54,-377.72"/>
<polygon fill="none" stroke="black" points="865.54,-377.72 865.54,-396.72 895.54,-396.72 895.54,-377.72 865.54,-377.72"/>
<text text-anchor="start" x="868.54" y="-384.12" font-family="sans-serif" font-size="12.00">ACL</text>
<polygon fill="white" stroke="transparent" points="888.68,-449.31 888.68,-468.31 904.68,-468.31 904.68,-449.31 888.68,-449.31"/>
<polyline fill="none" stroke="black" points="904.68,-449.31 904.68,-468.31 "/>
<text text-anchor="start" x="891.68" y="-455.71" font-family="sans-serif" font-size="12.00">U</text>
<polygon fill="white" stroke="transparent" points="904.68,-449.31 904.68,-468.31 959.68,-468.31 959.68,-449.31 904.68,-449.31"/>
<polygon fill="none" stroke="black" points="904.68,-449.31 904.68,-468.31 959.68,-468.31 959.68,-449.31 904.68,-449.31"/>
<text text-anchor="start" x="907.68" y="-455.71" font-family="sans-serif" font-size="12.00">OHS, PL</text>
</g>
<!-- InventoryContext&#45;&gt;ShoppingCartContext -->
<g id="edge20" class="edge">
<title>InventoryContext&#45;&gt;ShoppingCartContext</title>
<path fill="none" stroke="black" stroke-width="2" d="M1035.03,-438.63C1037.41,-427.15 1041.69,-415.54 1049.19,-406.53 1062.02,-391.1 1079.04,-379.28 1097.22,-370.22"/>
<text text-anchor="middle" x="1124.69" y="-409.93" font-family="sans-serif" font-size="12.00"> &#160;&#160;&#160;&#160;&#160;&#160;&#160;&#160;&#160;&#160;&#160;&#160;&#160;&#160;&#160;&#160;&#160;&#160;&#160;&#160;&#160;&#160;&#160;&#160;&#160;&#160;&#160;&#160;&#160;&#160;&#160;&#160;&#160;&#160;&#160;&#160;&#160;&#160;&#160;</text>
<polygon fill="white" stroke="transparent" points="1078.22,-360.22 1078.22,-379.22 1094.22,-379.22 1094.22,-360.22 1078.22,-360.22"/>
<polyline fill="none" stroke="black" points="1094.22,-360.22 1094.22,-379.22 "/>
<text text-anchor="start" x="1081.22" y="-366.62" font-family="sans-serif" font-size="12.00">D</text>
<polygon fill="white" stroke="transparent" points="1094.22,-360.22 1094.22,-379.22 1116.22,-379.22 1116.22,-360.22 1094.22,-360.22"/>
<polygon fill="none" stroke="black" points="1094.22,-360.22 1094.22,-379.22 1116.22,-379.22 1116.22,-360.22 1094.22,-360.22"/>
<text text-anchor="start" x="1097.22" y="-366.62" font-family="sans-serif" font-size="12.00">CF</text>
<polygon fill="white" stroke="transparent" points="1000.03,-428.63 1000.03,-447.63 1016.03,-447.63 1016.03,-428.63 1000.03,-428.63"/>
<polyline fill="none" stroke="black" points="1016.03,-428.63 1016.03,-447.63 "/>
<text text-anchor="start" x="1003.03" y="-435.03" font-family="sans-serif" font-size="12.00">U</text>
<polygon fill="white" stroke="transparent" points="1016.03,-428.63 1016.03,-447.63 1071.03,-447.63 1071.03,-428.63 1016.03,-428.63"/>
<polygon fill="none" stroke="black" points="1016.03,-428.63 1016.03,-447.63 1071.03,-447.63 1071.03,-428.63 1016.03,-428.63"/>
<text text-anchor="start" x="1019.03" y="-435.03" font-family="sans-serif" font-size="12.00">OHS, PL</text>
</g>
<!-- ShippingContext -->
<g id="node14" class="node">
<title>ShippingContext</title>
<polygon fill="none" stroke="black" stroke-width="2" points="247.72,-373.72 241.45,-375.62 235,-377.41 228.38,-379.09 221.62,-380.66 214.76,-382.09 207.8,-383.4 200.78,-384.56 193.72,-385.59 186.65,-386.46 179.59,-387.18 172.56,-387.75 165.59,-388.16 158.69,-388.41 151.89,-388.51 145.2,-388.44 138.64,-388.21 132.23,-387.82 125.97,-387.28 119.9,-386.58 114.02,-385.74 108.33,-384.74 102.85,-383.6 97.6,-382.33 92.57,-380.93 87.78,-379.4 83.22,-377.75 78.91,-376 74.85,-374.14 71.04,-372.19 67.48,-370.15 64.18,-368.03 61.14,-365.84 58.35,-363.59 55.83,-361.29 53.56,-358.95 51.54,-356.57 49.79,-354.17 48.29,-351.75 47.05,-349.32 46.06,-346.89 45.32,-344.47 44.84,-342.06 44.62,-339.67 44.65,-337.32 44.93,-334.99 45.46,-332.71 46.25,-330.48 47.29,-328.3 48.59,-326.17 50.14,-324.11 51.95,-322.11 54.01,-320.18 56.33,-318.33 58.91,-316.54 61.74,-314.84 64.83,-313.21 68.17,-311.67 71.77,-310.2 75.62,-308.82 79.72,-307.53 84.06,-306.32 88.65,-305.19 93.48,-304.15 98.53,-303.2 103.81,-302.33 109.31,-301.55 115.02,-300.86 120.92,-300.25 127.01,-299.72 133.27,-299.29 139.69,-298.94 146.26,-298.67 152.95,-298.49 159.75,-298.4 166.65,-298.4 173.62,-298.48 180.64,-298.65 187.69,-298.91 194.74,-299.25 201.78,-299.68 208.78,-300.21 215.71,-300.82 222.56,-301.52 229.29,-302.32 235.87,-303.2 242.3,-304.18 248.53,-305.25 254.54,-306.41 260.31,-307.66 265.82,-309 271.04,-310.43 275.95,-311.95 280.53,-313.55 284.76,-315.24 288.62,-317.02 292.09,-318.87 295.16,-320.8 297.81,-322.81 300.04,-324.89 301.82,-327.03 303.16,-329.23 304.05,-331.5 304.48,-333.81 304.45,-336.16 303.97,-338.56 303.02,-340.99 301.63,-343.44 299.79,-345.91 297.51,-348.38 294.8,-350.86 291.68,-353.33 288.16,-355.78 284.25,-358.21 279.98,-360.6 275.35,-362.95 270.4,-365.24 265.13,-367.48 259.58,-369.64 253.77,-371.72 247.72,-373.72"/>
<text text-anchor="middle" x="165.19" y="-336.3" font-family="sans-serif" font-size="16.00">ShippingContext</text>
</g>
<!-- ShippingContext&#45;&gt;OrderContext -->
<g id="edge22" class="edge">
<title>ShippingContext&#45;&gt;OrderContext</title>
<path fill="none" stroke="black" stroke-width="2" d="M222.28,-301.28C243.78,-287.73 268.71,-272.81 292.19,-260.67 314.52,-249.11 339.34,-237.9 362.45,-228.09"/>
<text text-anchor="middle" x="367.69" y="-264.07" font-family="sans-serif" font-size="12.00"> &#160;&#160;&#160;&#160;&#160;&#160;&#160;&#160;&#160;&#160;&#160;&#160;&#160;&#160;&#160;&#160;&#160;&#160;&#160;&#160;&#160;&#160;&#160;&#160;&#160;&#160;&#160;&#160;&#160;&#160;&#160;&#160;&#160;&#160;&#160;&#160;&#160;&#160;&#160;</text>
<polygon fill="white" stroke="transparent" points="339.45,-218.09 339.45,-237.09 355.45,-237.09 355.45,-218.09 339.45,-218.09"/>
<polyline fill="none" stroke="black" points="355.45,-218.09 355.45,-237.09 "/>
<text text-anchor="start" x="342.45" y="-224.49" font-family="sans-serif" font-size="12.00">D</text>
<polygon fill="white" stroke="transparent" points="355.45,-218.09 355.45,-237.09 385.45,-237.09 385.45,-218.09 355.45,-218.09"/>
<polygon fill="none" stroke="black" points="355.45,-218.09 355.45,-237.09 385.45,-237.09 385.45,-218.09 355.45,-218.09"/>
<text text-anchor="start" x="358.45" y="-224.49" font-family="sans-serif" font-size="12.00">ACL</text>
<polygon fill="white" stroke="transparent" points="215.28,-292.28 215.28,-309.28 229.28,-309.28 229.28,-292.28 215.28,-292.28"/>
<text text-anchor="start" x="217.28" y="-297.68" font-family="sans-serif" font-size="12.00">U</text>
</g>
</g>
</svg>
