<svg width="2000px" height="1154px"
 viewBox="0.00 0.00 938.41 541.06" xmlns="http://www.w3.org/2000/svg" xmlns:xlink="http://www.w3.org/1999/xlink">
<g id="graph0" class="graph" transform="scale(1.0 1.0) rotate(0) translate(4 537.06)">
<title>ContextMapGraph</title>
<polygon fill="white" stroke="transparent" points="-4,4 -4,-537.06 934.41,-537.06 934.41,4 -4,4"/>
<!-- BillingContext -->
<g id="node1" class="node">
<title>BillingContext</title>
<polygon fill="none" stroke="black" stroke-width="2" points="154.46,-299.93 161.49,-300.71 168.39,-301.6 175.13,-302.6 181.69,-303.7 188.03,-304.9 194.13,-306.2 199.96,-307.59 205.51,-309.06 210.75,-310.63 215.66,-312.27 220.23,-313.98 224.44,-315.77 228.27,-317.62 231.72,-319.53 234.77,-321.49 237.43,-323.5 239.67,-325.56 241.5,-327.65 242.92,-329.77 243.93,-331.92 244.54,-334.1 244.74,-336.29 244.54,-338.49 243.96,-340.69 243,-342.9 241.68,-345.1 240.01,-347.29 238,-349.46 235.66,-351.61 233.02,-353.73 230.1,-355.83 226.9,-357.88 223.45,-359.9 219.77,-361.87 215.87,-363.79 211.78,-365.65 207.51,-367.45 203.08,-369.19 198.5,-370.86 193.81,-372.46 189.01,-373.98 184.12,-375.41 179.15,-376.77 174.13,-378.03 169.05,-379.2 163.95,-380.28 158.82,-381.26 153.68,-382.14 148.54,-382.91 143.41,-383.58 138.3,-384.14 133.21,-384.59 128.15,-384.92 123.13,-385.14 118.15,-385.25 113.21,-385.24 108.33,-385.11 103.5,-384.86 98.72,-384.5 94.01,-384.02 89.36,-383.42 84.77,-382.71 80.25,-381.88 75.81,-380.94 71.44,-379.89 67.15,-378.73 62.94,-377.47 58.83,-376.1 54.8,-374.63 50.88,-373.06 47.07,-371.4 43.36,-369.65 39.78,-367.82 36.34,-365.91 33.03,-363.93 29.87,-361.88 26.88,-359.77 24.05,-357.6 21.41,-355.39 18.97,-353.13 16.74,-350.83 14.73,-348.5 12.95,-346.15 11.42,-343.79 10.16,-341.41 9.16,-339.04 8.46,-336.67 8.05,-334.31 7.94,-331.98 8.16,-329.67 8.71,-327.39 9.59,-325.16 10.81,-322.97 12.39,-320.84 14.31,-318.78 16.6,-316.78 19.24,-314.85 22.24,-313 25.59,-311.24 29.3,-309.57 33.35,-307.99 37.73,-306.52 42.44,-305.14 47.47,-303.88 52.79,-302.73 58.41,-301.69 64.29,-300.77 70.41,-299.96 76.77,-299.28 83.33,-298.72 90.07,-298.29 96.97,-297.98 104,-297.79 111.13,-297.73 118.34,-297.8 125.59,-297.98 132.86,-298.29 140.11,-298.72 147.32,-299.27 154.46,-299.93"/>
<text text-anchor="middle" x="122.41" y="-338.04" font-family="sans-serif" font-size="16.00">BillingContext</text>
</g>
<!-- CatalogContext -->
<g id="node2" class="node">
<title>CatalogContext</title>
<polygon fill="none" stroke="black" stroke-width="2" points="683.62,-174.08 687.55,-176.55 691.17,-179.06 694.46,-181.61 697.41,-184.18 700,-186.76 702.22,-189.35 704.07,-191.93 705.52,-194.5 706.59,-197.05 707.25,-199.56 707.5,-202.04 707.34,-204.46 706.78,-206.83 705.81,-209.14 704.43,-211.38 702.65,-213.54 700.47,-215.63 697.91,-217.63 694.96,-219.54 691.65,-221.36 687.99,-223.09 683.99,-224.72 679.66,-226.25 675.03,-227.67 670.11,-229 664.91,-230.22 659.47,-231.34 653.8,-232.36 647.92,-233.27 641.86,-234.08 635.63,-234.79 629.27,-235.4 622.79,-235.92 616.22,-236.33 609.58,-236.65 602.89,-236.88 596.19,-237.02 589.48,-237.07 582.8,-237.02 576.16,-236.9 569.58,-236.69 563.09,-236.39 556.7,-236.02 550.44,-235.56 544.31,-235.03 538.34,-234.42 532.54,-233.73 526.93,-232.97 521.51,-232.13 516.29,-231.22 511.3,-230.23 506.54,-229.17 502.02,-228.04 497.74,-226.84 493.71,-225.56 489.93,-224.21 486.42,-222.79 483.17,-221.31 480.19,-219.75 477.48,-218.13 475.03,-216.43 472.86,-214.68 470.96,-212.86 469.33,-210.97 467.97,-209.03 466.87,-207.03 466.05,-204.98 465.48,-202.88 465.18,-200.73 465.14,-198.54 465.36,-196.31 465.83,-194.05 466.55,-191.77 467.53,-189.46 468.75,-187.14 470.21,-184.8 471.92,-182.47 473.86,-180.15 476.04,-177.84 478.46,-175.55 481.11,-173.29 483.98,-171.08 487.07,-168.91 490.39,-166.79 493.93,-164.74 497.67,-162.76 501.63,-160.87 505.79,-159.06 510.15,-157.35 514.7,-155.75 519.43,-154.27 524.35,-152.9 529.44,-151.66 534.7,-150.56 540.11,-149.6 545.66,-148.78 551.35,-148.11 557.16,-147.6 563.08,-147.24 569.11,-147.04 575.21,-147.01 581.39,-147.14 587.61,-147.43 593.88,-147.88 600.16,-148.5 606.45,-149.28 612.72,-150.21 618.96,-151.3 625.14,-152.53 631.24,-153.91 637.25,-155.43 643.14,-157.08 648.9,-158.85 654.49,-160.74 659.91,-162.74 665.13,-164.85 670.13,-167.04 674.89,-169.32 679.4,-171.67 683.62,-174.08"/>
<text text-anchor="middle" x="579.41" y="-191.71" font-family="sans-serif" font-size="16.00">CatalogContext</text>
</g>
<!-- RecommandationContext -->
<g id="node3" class="node">
<title>RecommandationContext</title>
<polygon fill="none" stroke="black" stroke-width="2" points="811.57,-73.79 805.16,-76.17 798.39,-78.47 791.28,-80.67 783.86,-82.77 776.16,-84.76 768.21,-86.63 760.03,-88.38 751.65,-89.99 743.11,-91.45 734.41,-92.78 725.6,-93.95 716.7,-94.96 707.74,-95.82 698.74,-96.51 689.72,-97.04 680.71,-97.41 671.74,-97.61 662.82,-97.64 653.97,-97.51 645.23,-97.22 636.59,-96.77 628.1,-96.17 619.75,-95.42 611.57,-94.52 603.58,-93.48 595.79,-92.31 588.21,-91 580.85,-89.58 573.74,-88.05 566.87,-86.41 560.26,-84.67 553.93,-82.84 547.88,-80.93 542.12,-78.95 536.66,-76.9 531.51,-74.8 526.67,-72.65 522.16,-70.46 517.98,-68.24 514.15,-66 510.66,-63.74 507.53,-61.47 504.76,-59.2 502.35,-56.94 500.33,-54.69 498.68,-52.45 497.42,-50.24 496.56,-48.05 496.09,-45.9 496.03,-43.78 496.38,-41.7 497.15,-39.67 498.32,-37.68 499.92,-35.74 501.95,-33.85 504.39,-32.02 507.26,-30.24 510.56,-28.51 514.28,-26.84 518.42,-25.24 522.98,-23.69 527.95,-22.2 533.32,-20.77 539.1,-19.41 545.26,-18.11 551.8,-16.87 558.71,-15.69 565.97,-14.58 573.57,-13.54 581.5,-12.56 589.72,-11.66 598.22,-10.82 606.99,-10.05 615.99,-9.36 625.21,-8.74 634.61,-8.2 644.17,-7.73 653.86,-7.35 663.66,-7.06 673.52,-6.85 683.42,-6.73 693.32,-6.7 703.2,-6.76 713.02,-6.93 722.75,-7.19 732.35,-7.56 741.78,-8.03 751.02,-8.6 760.04,-9.29 768.79,-10.08 777.25,-10.99 785.39,-12.01 793.17,-13.14 800.58,-14.39 807.57,-15.75 814.13,-17.22 820.24,-18.8 825.86,-20.49 830.99,-22.28 835.59,-24.18 839.67,-26.18 843.2,-28.27 846.16,-30.45 848.57,-32.71 850.4,-35.05 851.65,-37.47 852.32,-39.94 852.41,-42.47 851.93,-45.05 850.87,-47.67 849.25,-50.32 847.08,-52.98 844.37,-55.66 841.13,-58.33 837.37,-61 833.12,-63.64 828.4,-66.25 823.21,-68.82 817.6,-71.34 811.57,-73.79"/>
<text text-anchor="middle" x="666.41" y="-45.08" font-family="sans-serif" font-size="16.00">RecommandationContext</text>
</g>
<!-- CatalogContext&#45;&gt;RecommandationContext -->
<g id="edge1" class="edge">
<title>CatalogContext&#45;&gt;RecommandationContext</title>
<path fill="none" stroke="black" stroke-width="2" d="M579.07,-146.96C580.53,-136.23 583.35,-125.22 588.41,-115.76 592.68,-107.79 598.34,-100.38 604.68,-93.63"/>
<text text-anchor="middle" x="663.91" y="-119.16" font-family="sans-serif" font-size="12.00"> &#160;&#160;&#160;&#160;&#160;&#160;&#160;&#160;&#160;&#160;&#160;&#160;&#160;&#160;&#160;&#160;&#160;&#160;&#160;&#160;&#160;&#160;&#160;&#160;&#160;&#160;&#160;&#160;&#160;&#160;&#160;&#160;&#160;&#160;&#160;&#160;&#160;&#160;&#160;</text>
<polygon fill="white" stroke="transparent" points="585.68,-83.63 585.68,-102.63 601.68,-102.63 601.68,-83.63 585.68,-83.63"/>
<polyline fill="none" stroke="black" points="601.68,-83.63 601.68,-102.63 "/>
<text text-anchor="start" x="588.68" y="-90.03" font-family="sans-serif" font-size="12.00">D</text>
<polygon fill="white" stroke="transparent" points="601.68,-83.63 601.68,-102.63 623.68,-102.63 623.68,-83.63 601.68,-83.63"/>
<polygon fill="none" stroke="black" points="601.68,-83.63 601.68,-102.63 623.68,-102.63 623.68,-83.63 601.68,-83.63"/>
<text text-anchor="start" x="604.68" y="-90.03" font-family="sans-serif" font-size="12.00">CF</text>
<polygon fill="white" stroke="transparent" points="572.07,-137.96 572.07,-154.96 586.07,-154.96 586.07,-137.96 572.07,-137.96"/>
<text text-anchor="start" x="574.07" y="-143.36" font-family="sans-serif" font-size="12.00">U</text>
</g>
<!-- IdentityContext -->
<g id="node4" class="node">
<title>IdentityContext</title>
<polygon fill="none" stroke="black" stroke-width="2" points="318.41,-481.17 319.2,-478.33 320.32,-475.51 321.75,-472.74 323.5,-470.03 325.56,-467.38 327.93,-464.8 330.6,-462.31 333.55,-459.92 336.79,-457.63 340.31,-455.45 344.09,-453.39 348.12,-451.46 352.4,-449.66 356.9,-448 361.63,-446.49 366.56,-445.11 371.69,-443.89 376.99,-442.82 382.46,-441.91 388.07,-441.14 393.82,-440.53 399.69,-440.08 405.66,-439.77 411.72,-439.61 417.84,-439.6 424.02,-439.72 430.24,-439.99 436.47,-440.38 442.71,-440.91 448.93,-441.56 455.12,-442.32 461.27,-443.2 467.35,-444.17 473.34,-445.25 479.24,-446.42 485.03,-447.67 490.69,-449 496.2,-450.41 501.55,-451.88 506.73,-453.41 511.72,-455 516.51,-456.63 521.08,-458.31 525.43,-460.03 529.53,-461.78 533.39,-463.56 536.99,-465.36 540.31,-467.19 543.35,-469.03 546.11,-470.89 548.56,-472.77 550.72,-474.65 552.56,-476.54 554.09,-478.44 555.3,-480.34 556.19,-482.24 556.76,-484.14 556.99,-486.05 556.9,-487.95 556.48,-489.85 555.74,-491.74 554.67,-493.64 553.28,-495.52 551.57,-497.39 549.54,-499.26 547.21,-501.12 544.57,-502.96 541.64,-504.78 538.43,-506.58 534.93,-508.37 531.17,-510.13 527.14,-511.86 522.87,-513.55 518.36,-515.21 513.63,-516.83 508.69,-518.4 503.55,-519.92 498.23,-521.39 492.74,-522.79 487.1,-524.12 481.32,-525.38 475.41,-526.56 469.4,-527.65 463.31,-528.65 457.14,-529.55 450.92,-530.35 444.66,-531.03 438.38,-531.6 432.09,-532.05 425.82,-532.36 419.59,-532.55 413.4,-532.6 407.28,-532.51 401.24,-532.27 395.3,-531.89 389.48,-531.35 383.8,-530.67 378.26,-529.84 372.88,-528.85 367.68,-527.71 362.68,-526.43 357.88,-525 353.3,-523.42 348.95,-521.7 344.85,-519.85 341.01,-517.87 337.43,-515.76 334.12,-513.54 331.1,-511.21 328.38,-508.78 325.95,-506.26 323.83,-503.66 322.02,-500.98 320.53,-498.24 319.36,-495.46 318.52,-492.63 318,-489.78 317.81,-486.91 317.95,-484.04 318.41,-481.17"/>
<text text-anchor="middle" x="437.41" y="-482.44" font-family="sans-serif" font-size="16.00">IdentityContext</text>
</g>
<!-- IdentityContext&#45;&gt;BillingContext -->
<g id="edge3" class="edge">
<title>IdentityContext&#45;&gt;BillingContext</title>
<path fill="none" stroke="black" stroke-width="2" d="M319.8,-476.5C241.47,-467.98 148.47,-451.68 123.41,-421.42 115.23,-411.54 112.93,-398.32 113.28,-385.55"/>
<text text-anchor="middle" x="198.91" y="-411.82" font-family="sans-serif" font-size="12.00"> &#160;&#160;&#160;&#160;&#160;&#160;&#160;&#160;&#160;&#160;&#160;&#160;&#160;&#160;&#160;&#160;&#160;&#160;&#160;&#160;&#160;&#160;&#160;&#160;&#160;&#160;&#160;&#160;&#160;&#160;&#160;&#160;&#160;&#160;&#160;&#160;&#160;&#160;&#160;</text>
<polygon fill="white" stroke="transparent" points="94.28,-375.55 94.28,-394.55 110.28,-394.55 110.28,-375.55 94.28,-375.55"/>
<polyline fill="none" stroke="black" points="110.28,-375.55 110.28,-394.55 "/>
<text text-anchor="start" x="97.28" y="-381.95" font-family="sans-serif" font-size="12.00">D</text>
<polygon fill="white" stroke="transparent" points="110.28,-375.55 110.28,-394.55 132.28,-394.55 132.28,-375.55 110.28,-375.55"/>
<polygon fill="none" stroke="black" points="110.28,-375.55 110.28,-394.55 132.28,-394.55 132.28,-375.55 110.28,-375.55"/>
<text text-anchor="start" x="113.28" y="-381.95" font-family="sans-serif" font-size="12.00">CF</text>
<polygon fill="white" stroke="transparent" points="312.8,-467.5 312.8,-484.5 326.8,-484.5 326.8,-467.5 312.8,-467.5"/>
<text text-anchor="start" x="314.8" y="-472.9" font-family="sans-serif" font-size="12.00">U</text>
</g>
<!-- IdentityContext&#45;&gt;CatalogContext -->
<g id="edge2" class="edge">
<title>IdentityContext&#45;&gt;CatalogContext</title>
<path fill="none" stroke="black" stroke-width="2" d="M355.35,-448.43C332.42,-433.85 310.28,-414.66 297.41,-390.42 277.18,-352.27 272.32,-328.4 297.41,-293.26 335.61,-239.77 405.32,-215.54 465.86,-204.7"/>
<text text-anchor="middle" x="372.91" y="-338.74" font-family="sans-serif" font-size="12.00"> &#160;&#160;&#160;&#160;&#160;&#160;&#160;&#160;&#160;&#160;&#160;&#160;&#160;&#160;&#160;&#160;&#160;&#160;&#160;&#160;&#160;&#160;&#160;&#160;&#160;&#160;&#160;&#160;&#160;&#160;&#160;&#160;&#160;&#160;&#160;&#160;&#160;&#160;&#160;</text>
<polygon fill="white" stroke="transparent" points="446.86,-194.7 446.86,-213.7 462.86,-213.7 462.86,-194.7 446.86,-194.7"/>
<polyline fill="none" stroke="black" points="462.86,-194.7 462.86,-213.7 "/>
<text text-anchor="start" x="449.86" y="-201.1" font-family="sans-serif" font-size="12.00">D</text>
<polygon fill="white" stroke="transparent" points="462.86,-194.7 462.86,-213.7 484.86,-213.7 484.86,-194.7 462.86,-194.7"/>
<polygon fill="none" stroke="black" points="462.86,-194.7 462.86,-213.7 484.86,-213.7 484.86,-194.7 462.86,-194.7"/>
<text text-anchor="start" x="465.86" y="-201.1" font-family="sans-serif" font-size="12.00">CF</text>
<polygon fill="white" stroke="transparent" points="348.35,-439.43 348.35,-456.43 362.35,-456.43 362.35,-439.43 348.35,-439.43"/>
<text text-anchor="start" x="350.35" y="-444.83" font-family="sans-serif" font-size="12.00">U</text>
</g>
<!-- IdentityContext&#45;&gt;RecommandationContext -->
<g id="edge4" class="edge">
<title>IdentityContext&#45;&gt;RecommandationContext</title>
<path fill="none" stroke="black" stroke-width="2" d="M540.03,-466.97C617.2,-450.74 713.14,-424.35 734.41,-390.42 799.25,-286.97 789.01,-227.32 739.41,-115.76 735.95,-107.96 731.05,-100.69 725.41,-94.05"/>
<text text-anchor="middle" x="854.91" y="-265.66" font-family="sans-serif" font-size="12.00"> &#160;&#160;&#160;&#160;&#160;&#160;&#160;&#160;&#160;&#160;&#160;&#160;&#160;&#160;&#160;&#160;&#160;&#160;&#160;&#160;&#160;&#160;&#160;&#160;&#160;&#160;&#160;&#160;&#160;&#160;&#160;&#160;&#160;&#160;&#160;&#160;&#160;&#160;&#160;</text>
<polygon fill="white" stroke="transparent" points="706.41,-84.05 706.41,-103.05 722.41,-103.05 722.41,-84.05 706.41,-84.05"/>
<polyline fill="none" stroke="black" points="722.41,-84.05 722.41,-103.05 "/>
<text text-anchor="start" x="709.41" y="-90.45" font-family="sans-serif" font-size="12.00">D</text>
<polygon fill="white" stroke="transparent" points="722.41,-84.05 722.41,-103.05 744.41,-103.05 744.41,-84.05 722.41,-84.05"/>
<polygon fill="none" stroke="black" points="722.41,-84.05 722.41,-103.05 744.41,-103.05 744.41,-84.05 722.41,-84.05"/>
<text text-anchor="start" x="725.41" y="-90.45" font-family="sans-serif" font-size="12.00">CF</text>
<polygon fill="white" stroke="transparent" points="533.03,-457.97 533.03,-474.97 547.03,-474.97 547.03,-457.97 533.03,-457.97"/>
<text text-anchor="start" x="535.03" y="-463.37" font-family="sans-serif" font-size="12.00">U</text>
</g>
<!-- InventoryContext -->
<g id="node5" class="node">
<title>InventoryContext</title>
<polygon fill="none" stroke="black" stroke-width="2" points="471.17,-324.19 474.49,-321.54 478.13,-318.96 482.06,-316.45 486.28,-314.02 490.76,-311.7 495.5,-309.47 500.47,-307.37 505.67,-305.38 511.08,-303.53 516.67,-301.81 522.43,-300.24 528.35,-298.81 534.41,-297.54 540.59,-296.43 546.87,-295.48 553.24,-294.69 559.68,-294.07 566.17,-293.61 572.7,-293.31 579.26,-293.18 585.82,-293.21 592.37,-293.4 598.89,-293.75 605.38,-294.25 611.81,-294.89 618.17,-295.68 624.45,-296.6 630.63,-297.65 636.71,-298.83 642.66,-300.12 648.48,-301.52 654.15,-303.02 659.66,-304.61 665,-306.29 670.15,-308.05 675.12,-309.87 679.88,-311.76 684.42,-313.7 688.74,-315.69 692.82,-317.72 696.66,-319.78 700.24,-321.87 703.56,-323.97 706.61,-326.09 709.38,-328.21 711.86,-330.34 714.04,-332.46 715.92,-334.57 717.49,-336.67 718.75,-338.76 719.68,-340.82 720.29,-342.86 720.56,-344.88 720.5,-346.87 720.1,-348.83 719.37,-350.75 718.29,-352.64 716.87,-354.5 715.1,-356.32 713,-358.1 710.55,-359.84 707.78,-361.54 704.67,-363.21 701.23,-364.83 697.47,-366.4 693.4,-367.94 689.03,-369.42 684.36,-370.86 679.4,-372.25 674.18,-373.59 668.69,-374.88 662.96,-376.11 657,-377.28 650.82,-378.39 644.44,-379.44 637.89,-380.42 631.17,-381.33 624.31,-382.17 617.33,-382.93 610.24,-383.6 603.08,-384.19 595.87,-384.69 588.61,-385.1 581.35,-385.41 574.1,-385.61 566.88,-385.71 559.72,-385.69 552.64,-385.56 545.67,-385.32 538.82,-384.95 532.12,-384.46 525.6,-383.84 519.27,-383.09 513.15,-382.22 507.26,-381.21 501.63,-380.07 496.27,-378.81 491.2,-377.41 486.43,-375.88 481.98,-374.23 477.87,-372.46 474.09,-370.57 470.68,-368.56 467.63,-366.44 464.96,-364.22 462.67,-361.9 460.76,-359.49 459.25,-357 458.13,-354.44 457.4,-351.81 457.07,-349.12 457.13,-346.39 457.58,-343.63 458.42,-340.83 459.64,-338.03 461.23,-335.22 463.19,-332.42 465.51,-329.64 468.17,-326.9 471.17,-324.19"/>
<text text-anchor="middle" x="591.41" y="-338.04" font-family="sans-serif" font-size="16.00">InventoryContext</text>
</g>
<!-- IdentityContext&#45;&gt;InventoryContext -->
<g id="edge5" class="edge">
<title>IdentityContext&#45;&gt;InventoryContext</title>
<path fill="none" stroke="black" stroke-width="2" d="M479.49,-446.33C499.89,-427.47 524.43,-404.78 545.32,-385.45"/>
<text text-anchor="middle" x="593.91" y="-411.82" font-family="sans-serif" font-size="12.00"> &#160;&#160;&#160;&#160;&#160;&#160;&#160;&#160;&#160;&#160;&#160;&#160;&#160;&#160;&#160;&#160;&#160;&#160;&#160;&#160;&#160;&#160;&#160;&#160;&#160;&#160;&#160;&#160;&#160;&#160;&#160;&#160;&#160;&#160;&#160;&#160;&#160;&#160;&#160;</text>
<polygon fill="white" stroke="transparent" points="526.32,-375.45 526.32,-394.45 542.32,-394.45 542.32,-375.45 526.32,-375.45"/>
<polyline fill="none" stroke="black" points="542.32,-375.45 542.32,-394.45 "/>
<text text-anchor="start" x="529.32" y="-381.85" font-family="sans-serif" font-size="12.00">D</text>
<polygon fill="white" stroke="transparent" points="542.32,-375.45 542.32,-394.45 564.32,-394.45 564.32,-375.45 542.32,-375.45"/>
<polygon fill="none" stroke="black" points="542.32,-375.45 542.32,-394.45 564.32,-394.45 564.32,-375.45 542.32,-375.45"/>
<text text-anchor="start" x="545.32" y="-381.85" font-family="sans-serif" font-size="12.00">CF</text>
<polygon fill="white" stroke="transparent" points="472.49,-437.33 472.49,-454.33 486.49,-454.33 486.49,-437.33 472.49,-437.33"/>
<text text-anchor="start" x="474.49" y="-442.73" font-family="sans-serif" font-size="12.00">U</text>
</g>
<!-- InventoryContext&#45;&gt;CatalogContext -->
<g id="edge6" class="edge">
<title>InventoryContext&#45;&gt;CatalogContext</title>
<path fill="none" stroke="black" stroke-width="2" d="M582.51,-292.96C581.66,-287.02 580.93,-281.01 580.41,-275.26 579.3,-262.87 578.85,-249.34 578.74,-237.04"/>
<text text-anchor="middle" x="655.91" y="-265.66" font-family="sans-serif" font-size="12.00"> &#160;&#160;&#160;&#160;&#160;&#160;&#160;&#160;&#160;&#160;&#160;&#160;&#160;&#160;&#160;&#160;&#160;&#160;&#160;&#160;&#160;&#160;&#160;&#160;&#160;&#160;&#160;&#160;&#160;&#160;&#160;&#160;&#160;&#160;&#160;&#160;&#160;&#160;&#160;</text>
<polygon fill="white" stroke="transparent" points="555.74,-227.04 555.74,-246.04 571.74,-246.04 571.74,-227.04 555.74,-227.04"/>
<polyline fill="none" stroke="black" points="571.74,-227.04 571.74,-246.04 "/>
<text text-anchor="start" x="558.74" y="-233.44" font-family="sans-serif" font-size="12.00">D</text>
<polygon fill="white" stroke="transparent" points="571.74,-227.04 571.74,-246.04 601.74,-246.04 601.74,-227.04 571.74,-227.04"/>
<polygon fill="none" stroke="black" points="571.74,-227.04 571.74,-246.04 601.74,-246.04 601.74,-227.04 571.74,-227.04"/>
<text text-anchor="start" x="574.74" y="-233.44" font-family="sans-serif" font-size="12.00">ACL</text>
<polygon fill="white" stroke="transparent" points="547.51,-282.96 547.51,-301.96 563.51,-301.96 563.51,-282.96 547.51,-282.96"/>
<polyline fill="none" stroke="black" points="563.51,-282.96 563.51,-301.96 "/>
<text text-anchor="start" x="550.51" y="-289.36" font-family="sans-serif" font-size="12.00">U</text>
<polygon fill="white" stroke="transparent" points="563.51,-282.96 563.51,-301.96 618.51,-301.96 618.51,-282.96 563.51,-282.96"/>
<polygon fill="none" stroke="black" points="563.51,-282.96 563.51,-301.96 618.51,-301.96 618.51,-282.96 563.51,-282.96"/>
<text text-anchor="start" x="566.51" y="-289.36" font-family="sans-serif" font-size="12.00">OHS, PL</text>
</g>
</g>
</svg>
