<svg width="2000px" height="498px"
 viewBox="0.00 0.00 2772.37 689.81" xmlns="http://www.w3.org/2000/svg" xmlns:xlink="http://www.w3.org/1999/xlink">
<g id="graph0" class="graph" transform="scale(1.0 1.0) rotate(0) translate(4 685.81)">
<title>ContextMapGraph</title>
<polygon fill="white" stroke="transparent" points="-4,4 -4,-685.81 2768.37,-685.81 2768.37,4 -4,4"/>
<!-- AccountingContext -->
<g id="node1" class="node">
<title>AccountingContext</title>
<polygon fill="none" stroke="black" stroke-width="2" points="244.99,-484.13 245.44,-481.27 246.27,-478.43 247.48,-475.63 249.07,-472.87 251.04,-470.18 253.38,-467.55 256.08,-465.01 259.14,-462.55 262.55,-460.2 266.29,-457.95 270.37,-455.82 274.76,-453.8 279.47,-451.92 284.46,-450.17 289.74,-448.56 295.28,-447.09 301.07,-445.77 307.1,-444.6 313.34,-443.58 319.78,-442.7 326.41,-441.98 333.2,-441.41 340.13,-440.99 347.19,-440.71 354.36,-440.58 361.61,-440.59 368.93,-440.74 376.29,-441.01 383.68,-441.42 391.07,-441.95 398.44,-442.6 405.78,-443.35 413.06,-444.22 420.25,-445.18 427.35,-446.24 434.34,-447.38 441.18,-448.61 447.87,-449.91 454.38,-451.28 460.69,-452.71 466.8,-454.21 472.68,-455.75 478.31,-457.35 483.68,-458.98 488.78,-460.66 493.59,-462.37 498.1,-464.1 502.3,-465.87 506.17,-467.66 509.7,-469.47 512.89,-471.3 515.73,-473.14 518.21,-475 520.32,-476.87 522.05,-478.75 523.41,-480.64 524.39,-482.54 524.99,-484.44 525.2,-486.35 525.03,-488.26 524.48,-490.17 523.54,-492.09 522.23,-494 520.54,-495.91 518.49,-497.82 516.07,-499.72 513.29,-501.62 510.17,-503.5 506.71,-505.37 502.92,-507.22 498.81,-509.06 494.39,-510.87 489.68,-512.65 484.68,-514.4 479.42,-516.11 473.9,-517.78 468.14,-519.4 462.16,-520.97 455.97,-522.48 449.59,-523.92 443.04,-525.3 436.33,-526.59 429.48,-527.8 422.51,-528.92 415.45,-529.94 408.3,-530.85 401.09,-531.66 393.83,-532.35 386.56,-532.91 379.27,-533.35 372.01,-533.66 364.77,-533.83 357.6,-533.85 350.49,-533.73 343.48,-533.46 336.58,-533.04 329.81,-532.46 323.19,-531.73 316.73,-530.85 310.46,-529.81 304.38,-528.62 298.53,-527.27 292.91,-525.78 287.53,-524.15 282.42,-522.37 277.59,-520.46 273.05,-518.42 268.81,-516.26 264.88,-513.98 261.28,-511.6 258.02,-509.12 255.1,-506.55 252.54,-503.91 250.33,-501.19 248.5,-498.43 247.04,-495.61 245.95,-492.76 245.25,-489.89 244.92,-487.01 244.99,-484.13"/>
<text text-anchor="middle" x="385.09" y="-483.12" font-family="sans-serif" font-size="16.00">AccountingContext</text>
</g>
<!-- PaymentContext -->
<g id="node2" class="node">
<title>PaymentContext</title>
<polygon fill="none" stroke="black" stroke-width="2" points="323.08,-341.93 322.76,-339.06 322.8,-336.2 323.18,-333.36 323.92,-330.57 325,-327.82 326.44,-325.14 328.22,-322.52 330.34,-319.98 332.79,-317.53 335.58,-315.19 338.7,-312.94 342.12,-310.81 345.86,-308.8 349.89,-306.92 354.2,-305.16 358.79,-303.54 363.64,-302.07 368.74,-300.73 374.07,-299.54 379.61,-298.49 385.36,-297.59 391.29,-296.83 397.39,-296.22 403.63,-295.75 410.01,-295.42 416.5,-295.23 423.08,-295.18 429.73,-295.26 436.44,-295.46 443.18,-295.79 449.94,-296.23 456.69,-296.79 463.42,-297.45 470.1,-298.22 476.71,-299.08 483.24,-300.03 489.67,-301.07 495.97,-302.19 502.14,-303.38 508.15,-304.64 513.99,-305.97 519.63,-307.35 525.07,-308.79 530.28,-310.27 535.26,-311.81 539.99,-313.38 544.46,-315 548.66,-316.65 552.57,-318.33 556.18,-320.04 559.49,-321.78 562.49,-323.55 565.17,-325.34 567.52,-327.15 569.55,-328.98 571.24,-330.83 572.59,-332.7 573.6,-334.59 574.26,-336.49 574.59,-338.4 574.57,-340.33 574.22,-342.27 573.52,-344.21 572.49,-346.17 571.13,-348.13 569.44,-350.1 567.44,-352.07 565.11,-354.03 562.49,-356 559.56,-357.95 556.34,-359.9 552.84,-361.83 549.07,-363.74 545.04,-365.62 540.76,-367.47 536.24,-369.29 531.5,-371.07 526.54,-372.8 521.38,-374.48 516.04,-376.1 510.52,-377.65 504.84,-379.12 499.02,-380.52 493.07,-381.83 487.01,-383.04 480.84,-384.15 474.59,-385.15 468.28,-386.04 461.91,-386.81 455.51,-387.44 449.08,-387.95 442.66,-388.31 436.24,-388.53 429.86,-388.61 423.52,-388.53 417.24,-388.29 411.04,-387.91 404.93,-387.36 398.94,-386.65 393.07,-385.78 387.34,-384.76 381.76,-383.58 376.36,-382.24 371.15,-380.75 366.13,-379.12 361.33,-377.34 356.76,-375.43 352.42,-373.38 348.34,-371.21 344.53,-368.93 340.99,-366.54 337.74,-364.06 334.78,-361.48 332.13,-358.83 329.8,-356.12 327.79,-353.34 326.1,-350.53 324.75,-347.68 323.74,-344.81 323.08,-341.93"/>
<text text-anchor="middle" x="449.09" y="-337.09" font-family="sans-serif" font-size="16.00">PaymentContext</text>
</g>
<!-- AccountingContext&#45;&gt;PaymentContext -->
<g id="edge1" class="edge">
<title>AccountingContext&#45;&gt;PaymentContext</title>
<path fill="none" stroke="black" stroke-width="2" d="M387.07,-441.53C388.71,-430.05 391.48,-417.94 396.09,-407.32 399,-400.62 402.8,-394.04 407.02,-387.79"/>
<text text-anchor="middle" x="471.59" y="-410.72" font-family="sans-serif" font-size="12.00"> &#160;&#160;&#160;&#160;&#160;&#160;&#160;&#160;&#160;&#160;&#160;&#160;&#160;&#160;&#160;&#160;&#160;&#160;&#160;&#160;&#160;&#160;&#160;&#160;&#160;&#160;&#160;&#160;&#160;&#160;&#160;&#160;&#160;&#160;&#160;&#160;&#160;&#160;&#160;</text>
<polygon fill="white" stroke="transparent" points="384.02,-377.79 384.02,-396.79 400.02,-396.79 400.02,-377.79 384.02,-377.79"/>
<polyline fill="none" stroke="black" points="400.02,-377.79 400.02,-396.79 "/>
<text text-anchor="start" x="387.02" y="-384.19" font-family="sans-serif" font-size="12.00">D</text>
<polygon fill="white" stroke="transparent" points="400.02,-377.79 400.02,-396.79 430.02,-396.79 430.02,-377.79 400.02,-377.79"/>
<polygon fill="none" stroke="black" points="400.02,-377.79 400.02,-396.79 430.02,-396.79 430.02,-377.79 400.02,-377.79"/>
<text text-anchor="start" x="403.02" y="-384.19" font-family="sans-serif" font-size="12.00">ACL</text>
<polygon fill="white" stroke="transparent" points="352.07,-431.53 352.07,-450.53 368.07,-450.53 368.07,-431.53 352.07,-431.53"/>
<polyline fill="none" stroke="black" points="368.07,-431.53 368.07,-450.53 "/>
<text text-anchor="start" x="355.07" y="-437.93" font-family="sans-serif" font-size="12.00">U</text>
<polygon fill="white" stroke="transparent" points="368.07,-431.53 368.07,-450.53 423.07,-450.53 423.07,-431.53 368.07,-431.53"/>
<polygon fill="none" stroke="black" points="368.07,-431.53 368.07,-450.53 423.07,-450.53 423.07,-431.53 368.07,-431.53"/>
<text text-anchor="start" x="371.07" y="-437.93" font-family="sans-serif" font-size="12.00">OHS, PL</text>
</g>
<!-- OrderContext -->
<g id="node3" class="node">
<title>OrderContext</title>
<polygon fill="none" stroke="black" stroke-width="2" points="338.6,-203.61 337.1,-200.8 335.91,-197.99 335.02,-195.18 334.45,-192.39 334.19,-189.62 334.26,-186.9 334.65,-184.22 335.36,-181.6 336.4,-179.04 337.76,-176.56 339.44,-174.17 341.43,-171.87 343.74,-169.67 346.36,-167.57 349.27,-165.59 352.47,-163.72 355.95,-161.97 359.7,-160.35 363.71,-158.86 367.97,-157.49 372.46,-156.26 377.17,-155.15 382.08,-154.18 387.18,-153.35 392.45,-152.64 397.87,-152.06 403.44,-151.61 409.12,-151.28 414.9,-151.07 420.76,-150.99 426.68,-151.01 432.65,-151.15 438.64,-151.4 444.64,-151.75 450.62,-152.19 456.57,-152.73 462.47,-153.37 468.3,-154.08 474.04,-154.88 479.68,-155.76 485.2,-156.7 490.58,-157.72 495.81,-158.81 500.88,-159.95 505.76,-161.16 510.45,-162.42 514.93,-163.74 519.2,-165.1 523.24,-166.52 527.04,-167.98 530.59,-169.49 533.89,-171.05 536.93,-172.64 539.71,-174.28 542.21,-175.96 544.44,-177.68 546.38,-179.43 548.05,-181.22 549.43,-183.05 550.52,-184.91 551.33,-186.8 551.86,-188.73 552.11,-190.69 552.07,-192.67 551.76,-194.68 551.17,-196.72 550.31,-198.77 549.18,-200.85 547.79,-202.94 546.14,-205.03 544.24,-207.14 542.1,-209.25 539.72,-211.35 537.11,-213.45 534.27,-215.53 531.21,-217.59 527.95,-219.63 524.48,-221.63 520.83,-223.59 516.98,-225.5 512.96,-227.36 508.78,-229.15 504.44,-230.88 499.95,-232.52 495.32,-234.08 490.56,-235.54 485.69,-236.91 480.71,-238.16 475.64,-239.3 470.47,-240.31 465.24,-241.2 459.94,-241.94 454.59,-242.55 449.21,-243.01 443.79,-243.31 438.37,-243.47 432.94,-243.46 427.52,-243.29 422.13,-242.96 416.78,-242.46 411.48,-241.8 406.24,-240.98 401.08,-239.99 396.02,-238.84 391.06,-237.54 386.23,-236.08 381.53,-234.48 376.98,-232.73 372.58,-230.85 368.37,-228.84 364.34,-226.71 360.52,-224.46 356.91,-222.11 353.53,-219.67 350.38,-217.14 347.49,-214.54 344.85,-211.87 342.49,-209.15 340.4,-206.39 338.6,-203.61"/>
<text text-anchor="middle" x="445.09" y="-191.15" font-family="sans-serif" font-size="16.00">OrderContext</text>
</g>
<!-- PaymentContext&#45;&gt;OrderContext -->
<g id="edge2" class="edge">
<title>PaymentContext&#45;&gt;OrderContext</title>
<path fill="none" stroke="black" stroke-width="2" d="M446.87,-295.9C446.57,-288.74 446.29,-281.39 446.09,-274.46 445.79,-264.38 445.59,-253.56 445.44,-243.29"/>
<text text-anchor="middle" x="521.59" y="-264.86" font-family="sans-serif" font-size="12.00"> &#160;&#160;&#160;&#160;&#160;&#160;&#160;&#160;&#160;&#160;&#160;&#160;&#160;&#160;&#160;&#160;&#160;&#160;&#160;&#160;&#160;&#160;&#160;&#160;&#160;&#160;&#160;&#160;&#160;&#160;&#160;&#160;&#160;&#160;&#160;&#160;&#160;&#160;&#160;</text>
<polygon fill="white" stroke="transparent" points="422.44,-233.29 422.44,-252.29 438.44,-252.29 438.44,-233.29 422.44,-233.29"/>
<polyline fill="none" stroke="black" points="438.44,-233.29 438.44,-252.29 "/>
<text text-anchor="start" x="425.44" y="-239.69" font-family="sans-serif" font-size="12.00">D</text>
<polygon fill="white" stroke="transparent" points="438.44,-233.29 438.44,-252.29 468.44,-252.29 468.44,-233.29 438.44,-233.29"/>
<polygon fill="none" stroke="black" points="438.44,-233.29 438.44,-252.29 468.44,-252.29 468.44,-233.29 438.44,-233.29"/>
<text text-anchor="start" x="441.44" y="-239.69" font-family="sans-serif" font-size="12.00">ACL</text>
<polygon fill="white" stroke="transparent" points="439.87,-286.9 439.87,-303.9 453.87,-303.9 453.87,-286.9 439.87,-286.9"/>
<text text-anchor="start" x="441.87" y="-292.3" font-family="sans-serif" font-size="12.00">U</text>
</g>
<!-- AdvertisingCampaignContext -->
<g id="node4" class="node">
<title>AdvertisingCampaignContext</title>
<polygon fill="none" stroke="black" stroke-width="2" points="1839.55,-499.52 1836,-502.28 1831.94,-504.99 1827.38,-507.64 1822.36,-510.22 1816.87,-512.71 1810.94,-515.11 1804.58,-517.4 1797.83,-519.58 1790.69,-521.64 1783.19,-523.57 1775.35,-525.36 1767.19,-527.02 1758.74,-528.52 1750.02,-529.88 1741.06,-531.08 1731.87,-532.12 1722.48,-533 1712.92,-533.72 1703.21,-534.28 1693.38,-534.68 1683.46,-534.92 1673.45,-534.99 1663.4,-534.92 1653.33,-534.69 1643.25,-534.31 1633.21,-533.79 1623.21,-533.14 1613.28,-532.35 1603.45,-531.43 1593.74,-530.39 1584.18,-529.24 1574.78,-527.99 1565.57,-526.63 1556.57,-525.18 1547.81,-523.65 1539.3,-522.04 1531.06,-520.36 1523.12,-518.62 1515.49,-516.83 1508.2,-514.98 1501.26,-513.09 1494.69,-511.17 1488.51,-509.22 1482.73,-507.25 1477.37,-505.25 1472.45,-503.25 1467.98,-501.23 1463.97,-499.21 1460.43,-497.19 1457.38,-495.18 1454.83,-493.17 1452.78,-491.17 1451.25,-489.18 1450.24,-487.21 1449.76,-485.25 1449.81,-483.31 1450.39,-481.39 1451.51,-479.49 1453.17,-477.61 1455.37,-475.76 1458.09,-473.93 1461.35,-472.13 1465.13,-470.36 1469.43,-468.61 1474.23,-466.89 1479.53,-465.21 1485.32,-463.55 1491.58,-461.94 1498.3,-460.36 1505.45,-458.81 1513.03,-457.31 1521.01,-455.86 1529.37,-454.45 1538.09,-453.1 1547.15,-451.8 1556.51,-450.56 1566.16,-449.38 1576.06,-448.27 1586.19,-447.23 1596.52,-446.27 1607.01,-445.4 1617.64,-444.61 1628.38,-443.91 1639.19,-443.31 1650.03,-442.81 1660.88,-442.42 1671.71,-442.14 1682.48,-441.98 1693.15,-441.94 1703.7,-442.03 1714.09,-442.24 1724.29,-442.59 1734.28,-443.07 1744.01,-443.69 1753.45,-444.44 1762.59,-445.34 1771.4,-446.38 1779.83,-447.56 1787.88,-448.88 1795.52,-450.33 1802.72,-451.92 1809.47,-453.65 1815.74,-455.5 1821.52,-457.47 1826.79,-459.57 1831.53,-461.77 1835.74,-464.08 1839.41,-466.49 1842.52,-468.99 1845.08,-471.57 1847.06,-474.22 1848.48,-476.93 1849.33,-479.69 1849.6,-482.49 1849.31,-485.32 1848.46,-488.17 1847.05,-491.03 1845.09,-493.88 1842.59,-496.71 1839.55,-499.52"/>
<text text-anchor="middle" x="1648.09" y="-483.12" font-family="sans-serif" font-size="16.00">AdvertisingCampaignContext</text>
</g>
<!-- CatalogContext -->
<g id="node5" class="node">
<title>CatalogContext</title>
<polygon fill="none" stroke="black" stroke-width="2" points="952.39,-299.46 959.81,-300.38 967.07,-301.42 974.14,-302.56 980.99,-303.8 987.61,-305.14 993.95,-306.57 999.99,-308.08 1005.72,-309.68 1011.1,-311.36 1016.12,-313.11 1020.76,-314.93 1025.01,-316.81 1028.85,-318.74 1032.27,-320.73 1035.25,-322.77 1037.8,-324.84 1039.91,-326.95 1041.57,-329.09 1042.78,-331.25 1043.56,-333.43 1043.89,-335.63 1043.79,-337.83 1043.27,-340.04 1042.33,-342.24 1040.99,-344.44 1039.26,-346.62 1037.15,-348.78 1034.69,-350.92 1031.88,-353.03 1028.75,-355.11 1025.32,-357.16 1021.6,-359.16 1017.62,-361.11 1013.4,-363.01 1008.95,-364.86 1004.31,-366.65 999.48,-368.37 994.49,-370.02 989.35,-371.61 984.1,-373.11 978.75,-374.54 973.31,-375.88 967.8,-377.14 962.24,-378.31 956.64,-379.38 951.02,-380.36 945.4,-381.24 939.77,-382.01 934.16,-382.68 928.58,-383.25 923.02,-383.7 917.51,-384.05 912.05,-384.28 906.65,-384.4 901.3,-384.4 896.02,-384.29 890.81,-384.06 885.68,-383.72 880.62,-383.25 875.64,-382.68 870.75,-381.98 865.94,-381.17 861.23,-380.25 856.61,-379.21 852.08,-378.06 847.66,-376.81 843.34,-375.45 839.13,-373.99 835.04,-372.43 831.06,-370.78 827.22,-369.03 823.51,-367.2 819.94,-365.29 816.52,-363.3 813.27,-361.24 810.18,-359.12 807.28,-356.94 804.57,-354.7 802.06,-352.42 799.77,-350.1 797.71,-347.75 795.9,-345.37 794.33,-342.97 793.04,-340.56 792.02,-338.15 791.3,-335.75 790.88,-333.35 790.78,-330.98 791.01,-328.63 791.57,-326.31 792.48,-324.04 793.74,-321.82 795.37,-319.65 797.36,-317.54 799.72,-315.5 802.45,-313.54 805.55,-311.66 809.03,-309.87 812.87,-308.17 817.07,-306.56 821.63,-305.06 826.54,-303.67 831.77,-302.39 837.33,-301.22 843.2,-300.17 849.35,-299.24 855.78,-298.44 862.45,-297.76 869.35,-297.21 876.45,-296.78 883.73,-296.48 891.16,-296.31 898.71,-296.27 906.35,-296.36 914.05,-296.57 921.78,-296.91 929.51,-297.37 937.21,-297.95 944.85,-298.64 952.39,-299.46"/>
<text text-anchor="middle" x="912.09" y="-337.09" font-family="sans-serif" font-size="16.00">CatalogContext</text>
</g>
<!-- CatalogContext&#45;&gt;OrderContext -->
<g id="edge5" class="edge">
<title>CatalogContext&#45;&gt;OrderContext</title>
<path fill="none" stroke="black" stroke-width="2" d="M814.02,-307.7C798.02,-302.54 781.61,-297.31 766.09,-292.46 685.14,-267.15 592.31,-239.37 527.38,-220.15"/>
<text text-anchor="middle" x="779.59" y="-264.86" font-family="sans-serif" font-size="12.00"> &#160;&#160;&#160;&#160;&#160;&#160;&#160;&#160;&#160;&#160;&#160;&#160;&#160;&#160;&#160;&#160;&#160;&#160;&#160;&#160;&#160;&#160;&#160;&#160;&#160;&#160;&#160;&#160;&#160;&#160;&#160;&#160;&#160;&#160;&#160;&#160;&#160;&#160;&#160;</text>
<polygon fill="white" stroke="transparent" points="504.38,-210.15 504.38,-229.15 520.38,-229.15 520.38,-210.15 504.38,-210.15"/>
<polyline fill="none" stroke="black" points="520.38,-210.15 520.38,-229.15 "/>
<text text-anchor="start" x="507.38" y="-216.55" font-family="sans-serif" font-size="12.00">D</text>
<polygon fill="white" stroke="transparent" points="520.38,-210.15 520.38,-229.15 550.38,-229.15 550.38,-210.15 520.38,-210.15"/>
<polygon fill="none" stroke="black" points="520.38,-210.15 520.38,-229.15 550.38,-229.15 550.38,-210.15 520.38,-210.15"/>
<text text-anchor="start" x="523.38" y="-216.55" font-family="sans-serif" font-size="12.00">ACL</text>
<polygon fill="white" stroke="transparent" points="807.02,-298.7 807.02,-315.7 821.02,-315.7 821.02,-298.7 807.02,-298.7"/>
<text text-anchor="start" x="809.02" y="-304.1" font-family="sans-serif" font-size="12.00">U</text>
</g>
<!-- ProfileContext -->
<g id="node6" class="node">
<title>ProfileContext</title>
<polygon fill="none" stroke="black" stroke-width="2" points="1277.59,-157.6 1283.7,-156.08 1289.93,-154.67 1296.26,-153.37 1302.65,-152.21 1309.1,-151.17 1315.57,-150.26 1322.03,-149.5 1328.48,-148.88 1334.87,-148.4 1341.2,-148.07 1347.44,-147.89 1353.57,-147.86 1359.58,-147.99 1365.44,-148.26 1371.15,-148.69 1376.67,-149.26 1382.01,-149.99 1387.15,-150.86 1392.08,-151.86 1396.79,-153.01 1401.27,-154.29 1405.51,-155.7 1409.51,-157.22 1413.27,-158.87 1416.77,-160.62 1420.03,-162.48 1423.03,-164.43 1425.78,-166.47 1428.28,-168.59 1430.52,-170.77 1432.52,-173.03 1434.27,-175.33 1435.77,-177.68 1437.04,-180.07 1438.06,-182.49 1438.85,-184.92 1439.42,-187.37 1439.75,-189.82 1439.87,-192.27 1439.76,-194.7 1439.44,-197.11 1438.91,-199.49 1438.16,-201.84 1437.22,-204.15 1436.07,-206.41 1434.71,-208.61 1433.16,-210.76 1431.42,-212.84 1429.47,-214.85 1427.34,-216.78 1425.01,-218.64 1422.48,-220.42 1419.77,-222.12 1416.87,-223.72 1413.77,-225.24 1410.49,-226.67 1407.02,-228 1403.37,-229.24 1399.53,-230.39 1395.51,-231.44 1391.32,-232.39 1386.95,-233.24 1382.41,-234 1377.71,-234.66 1372.85,-235.23 1367.83,-235.7 1362.68,-236.07 1357.38,-236.35 1351.96,-236.54 1346.43,-236.63 1340.79,-236.63 1335.07,-236.54 1329.27,-236.35 1323.41,-236.08 1317.5,-235.71 1311.56,-235.26 1305.62,-234.71 1299.68,-234.08 1293.78,-233.37 1287.92,-232.56 1282.13,-231.67 1276.44,-230.7 1270.85,-229.65 1265.4,-228.51 1260.11,-227.29 1254.99,-225.98 1250.07,-224.6 1245.38,-223.15 1240.92,-221.61 1236.73,-220 1232.82,-218.32 1229.21,-216.57 1225.92,-214.76 1222.96,-212.87 1220.35,-210.93 1218.11,-208.93 1216.24,-206.87 1214.75,-204.76 1213.66,-202.61 1212.97,-200.41 1212.68,-198.18 1212.81,-195.92 1213.35,-193.63 1214.3,-191.33 1215.65,-189.01 1217.41,-186.68 1219.56,-184.36 1222.11,-182.04 1225.03,-179.74 1228.32,-177.46 1231.96,-175.21 1235.93,-172.99 1240.23,-170.83 1244.83,-168.71 1249.71,-166.66 1254.85,-164.68 1260.23,-162.78 1265.83,-160.96 1271.63,-159.23 1277.59,-157.6"/>
<text text-anchor="middle" x="1335.09" y="-191.15" font-family="sans-serif" font-size="16.00">ProfileContext</text>
</g>
<!-- CatalogContext&#45;&gt;ProfileContext -->
<g id="edge3" class="edge">
<title>CatalogContext&#45;&gt;ProfileContext</title>
<path fill="none" stroke="black" stroke-width="2" d="M1003.09,-308.92C1076.42,-283.97 1178.75,-249.15 1250.36,-224.78"/>
<text text-anchor="middle" x="1211.59" y="-264.86" font-family="sans-serif" font-size="12.00"> &#160;&#160;&#160;&#160;&#160;&#160;&#160;&#160;&#160;&#160;&#160;&#160;&#160;&#160;&#160;&#160;&#160;&#160;&#160;&#160;&#160;&#160;&#160;&#160;&#160;&#160;&#160;&#160;&#160;&#160;&#160;&#160;&#160;&#160;&#160;&#160;&#160;&#160;&#160;</text>
<polygon fill="white" stroke="transparent" points="1227.36,-214.78 1227.36,-233.78 1243.36,-233.78 1243.36,-214.78 1227.36,-214.78"/>
<polyline fill="none" stroke="black" points="1243.36,-214.78 1243.36,-233.78 "/>
<text text-anchor="start" x="1230.36" y="-221.18" font-family="sans-serif" font-size="12.00">D</text>
<polygon fill="white" stroke="transparent" points="1243.36,-214.78 1243.36,-233.78 1273.36,-233.78 1273.36,-214.78 1243.36,-214.78"/>
<polygon fill="none" stroke="black" points="1243.36,-214.78 1243.36,-233.78 1273.36,-233.78 1273.36,-214.78 1243.36,-214.78"/>
<text text-anchor="start" x="1246.36" y="-221.18" font-family="sans-serif" font-size="12.00">ACL</text>
<polygon fill="white" stroke="transparent" points="996.09,-299.92 996.09,-316.92 1010.09,-316.92 1010.09,-299.92 996.09,-299.92"/>
<text text-anchor="start" x="998.09" y="-305.32" font-family="sans-serif" font-size="12.00">U</text>
</g>
<!-- RecommandationContext -->
<g id="node7" class="node">
<title>RecommandationContext</title>
<polygon fill="none" stroke="black" stroke-width="2" points="1177.39,-28.93 1182.41,-26.34 1187.83,-23.81 1193.64,-21.36 1199.8,-19.01 1206.31,-16.76 1213.14,-14.62 1220.26,-12.59 1227.65,-10.7 1235.29,-8.94 1243.16,-7.31 1251.23,-5.84 1259.47,-4.52 1267.87,-3.35 1276.4,-2.35 1285.03,-1.51 1293.74,-0.83 1302.52,-0.32 1311.33,0.03 1320.16,0.21 1328.98,0.22 1337.78,0.08 1346.53,-0.23 1355.22,-0.69 1363.82,-1.3 1372.32,-2.06 1380.69,-2.96 1388.93,-3.99 1397.01,-5.15 1404.92,-6.44 1412.63,-7.83 1420.15,-9.34 1427.44,-10.94 1434.51,-12.63 1441.32,-14.41 1447.88,-16.26 1454.15,-18.18 1460.15,-20.15 1465.84,-22.18 1471.22,-24.25 1476.27,-26.35 1480.99,-28.48 1485.36,-30.63 1489.38,-32.8 1493.03,-34.97 1496.3,-37.15 1499.18,-39.32 1501.66,-41.49 1503.74,-43.64 1505.41,-45.77 1506.66,-47.88 1507.48,-49.96 1507.86,-52.02 1507.81,-54.04 1507.31,-56.03 1506.37,-57.99 1504.97,-59.9 1503.13,-61.78 1500.83,-63.61 1498.08,-65.4 1494.88,-67.15 1491.24,-68.85 1487.15,-70.51 1482.63,-72.12 1477.67,-73.68 1472.3,-75.19 1466.51,-76.66 1460.33,-78.07 1453.76,-79.43 1446.82,-80.73 1439.52,-81.98 1431.89,-83.18 1423.94,-84.31 1415.69,-85.38 1407.16,-86.38 1398.38,-87.32 1389.37,-88.19 1380.17,-88.98 1370.78,-89.7 1361.25,-90.34 1351.6,-90.89 1341.87,-91.35 1332.07,-91.73 1322.25,-92.01 1312.44,-92.18 1302.66,-92.26 1292.95,-92.23 1283.35,-92.09 1273.87,-91.84 1264.56,-91.47 1255.45,-90.98 1246.57,-90.37 1237.94,-89.63 1229.59,-88.78 1221.56,-87.79 1213.88,-86.68 1206.56,-85.44 1199.63,-84.08 1193.11,-82.59 1187.03,-80.98 1181.4,-79.25 1176.25,-77.4 1171.59,-75.43 1167.42,-73.36 1163.78,-71.19 1160.65,-68.92 1158.06,-66.55 1156.01,-64.11 1154.5,-61.59 1153.54,-59 1153.11,-56.35 1153.23,-53.66 1153.89,-50.92 1155.08,-48.16 1156.79,-45.38 1159.01,-42.59 1161.74,-39.8 1164.96,-37.04 1168.65,-34.29 1172.8,-31.59 1177.39,-28.93"/>
<text text-anchor="middle" x="1335.09" y="-44.92" font-family="sans-serif" font-size="16.00">RecommandationContext</text>
</g>
<!-- CatalogContext&#45;&gt;RecommandationContext -->
<g id="edge4" class="edge">
<title>CatalogContext&#45;&gt;RecommandationContext</title>
<path fill="none" stroke="black" stroke-width="2" d="M933.03,-297.37C956.58,-253.68 998.75,-186.54 1053.09,-146.45 1092.86,-117.1 1142.21,-96.19 1188.44,-81.5"/>
<text text-anchor="middle" x="1128.59" y="-191.85" font-family="sans-serif" font-size="12.00"> &#160;&#160;&#160;&#160;&#160;&#160;&#160;&#160;&#160;&#160;&#160;&#160;&#160;&#160;&#160;&#160;&#160;&#160;&#160;&#160;&#160;&#160;&#160;&#160;&#160;&#160;&#160;&#160;&#160;&#160;&#160;&#160;&#160;&#160;&#160;&#160;&#160;&#160;&#160;</text>
<polygon fill="white" stroke="transparent" points="1169.44,-71.5 1169.44,-90.5 1185.44,-90.5 1185.44,-71.5 1169.44,-71.5"/>
<polyline fill="none" stroke="black" points="1185.44,-71.5 1185.44,-90.5 "/>
<text text-anchor="start" x="1172.44" y="-77.9" font-family="sans-serif" font-size="12.00">D</text>
<polygon fill="white" stroke="transparent" points="1185.44,-71.5 1185.44,-90.5 1207.44,-90.5 1207.44,-71.5 1185.44,-71.5"/>
<polygon fill="none" stroke="black" points="1185.44,-71.5 1185.44,-90.5 1207.44,-90.5 1207.44,-71.5 1185.44,-71.5"/>
<text text-anchor="start" x="1188.44" y="-77.9" font-family="sans-serif" font-size="12.00">CF</text>
<polygon fill="white" stroke="transparent" points="926.03,-288.37 926.03,-305.37 940.03,-305.37 940.03,-288.37 926.03,-288.37"/>
<text text-anchor="start" x="928.03" y="-293.77" font-family="sans-serif" font-size="12.00">U</text>
</g>
<!-- ProfileContext&#45;&gt;RecommandationContext -->
<g id="edge6" class="edge">
<title>ProfileContext&#45;&gt;RecommandationContext</title>
<path fill="none" stroke="black" stroke-width="2" d="M1335.09,-148.32C1335.09,-130.16 1335.09,-109.4 1335.09,-91.63"/>
<text text-anchor="middle" x="1410.59" y="-118.85" font-family="sans-serif" font-size="12.00"> &#160;&#160;&#160;&#160;&#160;&#160;&#160;&#160;&#160;&#160;&#160;&#160;&#160;&#160;&#160;&#160;&#160;&#160;&#160;&#160;&#160;&#160;&#160;&#160;&#160;&#160;&#160;&#160;&#160;&#160;&#160;&#160;&#160;&#160;&#160;&#160;&#160;&#160;&#160;</text>
<polygon fill="white" stroke="transparent" points="1312.09,-81.63 1312.09,-100.63 1328.09,-100.63 1328.09,-81.63 1312.09,-81.63"/>
<polyline fill="none" stroke="black" points="1328.09,-81.63 1328.09,-100.63 "/>
<text text-anchor="start" x="1315.09" y="-88.03" font-family="sans-serif" font-size="12.00">D</text>
<polygon fill="white" stroke="transparent" points="1328.09,-81.63 1328.09,-100.63 1358.09,-100.63 1358.09,-81.63 1328.09,-81.63"/>
<polygon fill="none" stroke="black" points="1328.09,-81.63 1328.09,-100.63 1358.09,-100.63 1358.09,-81.63 1328.09,-81.63"/>
<text text-anchor="start" x="1331.09" y="-88.03" font-family="sans-serif" font-size="12.00">ACL</text>
<polygon fill="white" stroke="transparent" points="1300.09,-138.32 1300.09,-157.32 1316.09,-157.32 1316.09,-138.32 1300.09,-138.32"/>
<polyline fill="none" stroke="black" points="1316.09,-138.32 1316.09,-157.32 "/>
<text text-anchor="start" x="1303.09" y="-144.72" font-family="sans-serif" font-size="12.00">U</text>
<polygon fill="white" stroke="transparent" points="1316.09,-138.32 1316.09,-157.32 1371.09,-157.32 1371.09,-138.32 1316.09,-138.32"/>
<polygon fill="none" stroke="black" points="1316.09,-138.32 1316.09,-157.32 1371.09,-157.32 1371.09,-138.32 1316.09,-138.32"/>
<text text-anchor="start" x="1319.09" y="-144.72" font-family="sans-serif" font-size="12.00">OHS, PL</text>
</g>
<!-- IdentityContext -->
<g id="node8" class="node">
<title>IdentityContext</title>
<polygon fill="none" stroke="black" stroke-width="2" points="1219.34,-614.8 1222.49,-612.16 1225.93,-609.59 1229.63,-607.11 1233.59,-604.7 1237.78,-602.4 1242.21,-600.2 1246.84,-598.12 1251.67,-596.17 1256.69,-594.34 1261.87,-592.66 1267.19,-591.11 1272.66,-589.72 1278.24,-588.49 1283.92,-587.41 1289.69,-586.5 1295.53,-585.74 1301.43,-585.16 1307.37,-584.73 1313.34,-584.48 1319.32,-584.39 1325.3,-584.46 1331.26,-584.68 1337.19,-585.07 1343.08,-585.6 1348.91,-586.29 1354.67,-587.11 1360.35,-588.07 1365.93,-589.16 1371.41,-590.37 1376.78,-591.7 1382.01,-593.13 1387.11,-594.67 1392.06,-596.3 1396.84,-598.01 1401.46,-599.8 1405.9,-601.66 1410.15,-603.57 1414.19,-605.55 1418.04,-607.56 1421.66,-609.62 1425.06,-611.7 1428.23,-613.81 1431.16,-615.94 1433.83,-618.07 1436.26,-620.22 1438.41,-622.36 1440.3,-624.5 1441.92,-626.62 1443.25,-628.74 1444.29,-630.83 1445.04,-632.9 1445.5,-634.95 1445.66,-636.97 1445.51,-638.96 1445.05,-640.92 1444.29,-642.84 1443.21,-644.73 1441.83,-646.58 1440.14,-648.39 1438.13,-650.16 1435.83,-651.89 1433.21,-653.58 1430.3,-655.22 1427.09,-656.83 1423.59,-658.38 1419.81,-659.89 1415.75,-661.36 1411.43,-662.77 1406.84,-664.13 1402.02,-665.44 1396.96,-666.7 1391.67,-667.9 1386.18,-669.04 1380.5,-670.11 1374.64,-671.12 1368.62,-672.07 1362.45,-672.94 1356.16,-673.74 1349.76,-674.46 1343.27,-675.09 1336.72,-675.64 1330.11,-676.1 1323.49,-676.46 1316.85,-676.73 1310.23,-676.89 1303.65,-676.94 1297.12,-676.89 1290.68,-676.72 1284.33,-676.43 1278.11,-676.02 1272.03,-675.49 1266.11,-674.83 1260.38,-674.05 1254.84,-673.13 1249.53,-672.09 1244.45,-670.92 1239.62,-669.62 1235.06,-668.19 1230.79,-666.64 1226.81,-664.96 1223.15,-663.16 1219.8,-661.24 1216.78,-659.21 1214.11,-657.07 1211.77,-654.84 1209.79,-652.5 1208.17,-650.08 1206.91,-647.58 1206.01,-645 1205.47,-642.36 1205.3,-639.67 1205.49,-636.94 1206.03,-634.17 1206.93,-631.38 1208.17,-628.58 1209.76,-625.78 1211.67,-622.99 1213.92,-620.22 1216.47,-617.49 1219.34,-614.8"/>
<text text-anchor="middle" x="1328.09" y="-629.37" font-family="sans-serif" font-size="16.00">IdentityContext</text>
</g>
<!-- IdentityContext&#45;&gt;AccountingContext -->
<g id="edge18" class="edge">
<title>IdentityContext&#45;&gt;AccountingContext</title>
<path fill="none" stroke="black" stroke-width="2" d="M1206.7,-631.97C967.67,-630.39 454.08,-620.66 396.09,-566.53 387.02,-558.06 382.97,-545.84 381.53,-533.54"/>
<text text-anchor="middle" x="471.59" y="-556.93" font-family="sans-serif" font-size="12.00"> &#160;&#160;&#160;&#160;&#160;&#160;&#160;&#160;&#160;&#160;&#160;&#160;&#160;&#160;&#160;&#160;&#160;&#160;&#160;&#160;&#160;&#160;&#160;&#160;&#160;&#160;&#160;&#160;&#160;&#160;&#160;&#160;&#160;&#160;&#160;&#160;&#160;&#160;&#160;</text>
<polygon fill="white" stroke="transparent" points="362.53,-523.54 362.53,-542.54 378.53,-542.54 378.53,-523.54 362.53,-523.54"/>
<polyline fill="none" stroke="black" points="378.53,-523.54 378.53,-542.54 "/>
<text text-anchor="start" x="365.53" y="-529.94" font-family="sans-serif" font-size="12.00">D</text>
<polygon fill="white" stroke="transparent" points="378.53,-523.54 378.53,-542.54 400.53,-542.54 400.53,-523.54 378.53,-523.54"/>
<polygon fill="none" stroke="black" points="378.53,-523.54 378.53,-542.54 400.53,-542.54 400.53,-523.54 378.53,-523.54"/>
<text text-anchor="start" x="381.53" y="-529.94" font-family="sans-serif" font-size="12.00">CF</text>
<polygon fill="white" stroke="transparent" points="1199.7,-622.97 1199.7,-639.97 1213.7,-639.97 1213.7,-622.97 1199.7,-622.97"/>
<text text-anchor="start" x="1201.7" y="-628.37" font-family="sans-serif" font-size="12.00">U</text>
</g>
<!-- IdentityContext&#45;&gt;PaymentContext -->
<g id="edge10" class="edge">
<title>IdentityContext&#45;&gt;PaymentContext</title>
<path fill="none" stroke="black" stroke-width="2" d="M1206.45,-632.51C1019.24,-630.45 672.71,-615.56 583.09,-535.53 538.95,-496.1 581.86,-455.22 547.09,-407.32 538.5,-395.48 527.06,-385.16 515.04,-376.42"/>
<text text-anchor="middle" x="658.59" y="-483.82" font-family="sans-serif" font-size="12.00"> &#160;&#160;&#160;&#160;&#160;&#160;&#160;&#160;&#160;&#160;&#160;&#160;&#160;&#160;&#160;&#160;&#160;&#160;&#160;&#160;&#160;&#160;&#160;&#160;&#160;&#160;&#160;&#160;&#160;&#160;&#160;&#160;&#160;&#160;&#160;&#160;&#160;&#160;&#160;</text>
<polygon fill="white" stroke="transparent" points="496.04,-366.42 496.04,-385.42 512.04,-385.42 512.04,-366.42 496.04,-366.42"/>
<polyline fill="none" stroke="black" points="512.04,-366.42 512.04,-385.42 "/>
<text text-anchor="start" x="499.04" y="-372.82" font-family="sans-serif" font-size="12.00">D</text>
<polygon fill="white" stroke="transparent" points="512.04,-366.42 512.04,-385.42 534.04,-385.42 534.04,-366.42 512.04,-366.42"/>
<polygon fill="none" stroke="black" points="512.04,-366.42 512.04,-385.42 534.04,-385.42 534.04,-366.42 512.04,-366.42"/>
<text text-anchor="start" x="515.04" y="-372.82" font-family="sans-serif" font-size="12.00">CF</text>
<polygon fill="white" stroke="transparent" points="1199.45,-623.51 1199.45,-640.51 1213.45,-640.51 1213.45,-623.51 1199.45,-623.51"/>
<text text-anchor="start" x="1201.45" y="-628.91" font-family="sans-serif" font-size="12.00">U</text>
</g>
<!-- IdentityContext&#45;&gt;OrderContext -->
<g id="edge17" class="edge">
<title>IdentityContext&#45;&gt;OrderContext</title>
<path fill="none" stroke="black" stroke-width="2" d="M1206.93,-630.72C960.26,-626.28 408.48,-608.27 236.09,-535.53 128.61,-490.17 73,-492.25 18.09,-389.32 -2.17,-351.34 -8.79,-326.09 18.09,-292.46 57.56,-243.07 226.08,-217.12 339.24,-205"/>
<text text-anchor="middle" x="111.59" y="-410.72" font-family="sans-serif" font-size="12.00"> &#160;&#160;&#160;&#160;&#160;&#160;&#160;&#160;&#160;&#160;&#160;&#160;&#160;&#160;&#160;&#160;&#160;&#160;&#160;&#160;&#160;&#160;&#160;&#160;&#160;&#160;&#160;&#160;&#160;&#160;&#160;&#160;&#160;&#160;&#160;&#160;&#160;&#160;&#160;</text>
<polygon fill="white" stroke="transparent" points="320.24,-195 320.24,-214 336.24,-214 336.24,-195 320.24,-195"/>
<polyline fill="none" stroke="black" points="336.24,-195 336.24,-214 "/>
<text text-anchor="start" x="323.24" y="-201.4" font-family="sans-serif" font-size="12.00">D</text>
<polygon fill="white" stroke="transparent" points="336.24,-195 336.24,-214 358.24,-214 358.24,-195 336.24,-195"/>
<polygon fill="none" stroke="black" points="336.24,-195 336.24,-214 358.24,-214 358.24,-195 336.24,-195"/>
<text text-anchor="start" x="339.24" y="-201.4" font-family="sans-serif" font-size="12.00">CF</text>
<polygon fill="white" stroke="transparent" points="1199.93,-621.72 1199.93,-638.72 1213.93,-638.72 1213.93,-621.72 1199.93,-621.72"/>
<text text-anchor="start" x="1201.93" y="-627.12" font-family="sans-serif" font-size="12.00">U</text>
</g>
<!-- IdentityContext&#45;&gt;AdvertisingCampaignContext -->
<g id="edge15" class="edge">
<title>IdentityContext&#45;&gt;AdvertisingCampaignContext</title>
<path fill="none" stroke="black" stroke-width="2" d="M1400.7,-599.44C1448.92,-577.7 1512.42,-549.08 1563.01,-526.27"/>
<text text-anchor="middle" x="1572.59" y="-556.93" font-family="sans-serif" font-size="12.00"> &#160;&#160;&#160;&#160;&#160;&#160;&#160;&#160;&#160;&#160;&#160;&#160;&#160;&#160;&#160;&#160;&#160;&#160;&#160;&#160;&#160;&#160;&#160;&#160;&#160;&#160;&#160;&#160;&#160;&#160;&#160;&#160;&#160;&#160;&#160;&#160;&#160;&#160;&#160;</text>
<polygon fill="white" stroke="transparent" points="1544.01,-516.27 1544.01,-535.27 1560.01,-535.27 1560.01,-516.27 1544.01,-516.27"/>
<polyline fill="none" stroke="black" points="1560.01,-516.27 1560.01,-535.27 "/>
<text text-anchor="start" x="1547.01" y="-522.67" font-family="sans-serif" font-size="12.00">D</text>
<polygon fill="white" stroke="transparent" points="1560.01,-516.27 1560.01,-535.27 1582.01,-535.27 1582.01,-516.27 1560.01,-516.27"/>
<polygon fill="none" stroke="black" points="1560.01,-516.27 1560.01,-535.27 1582.01,-535.27 1582.01,-516.27 1560.01,-516.27"/>
<text text-anchor="start" x="1563.01" y="-522.67" font-family="sans-serif" font-size="12.00">CF</text>
<polygon fill="white" stroke="transparent" points="1393.7,-590.44 1393.7,-607.44 1407.7,-607.44 1407.7,-590.44 1393.7,-590.44"/>
<text text-anchor="start" x="1395.7" y="-595.84" font-family="sans-serif" font-size="12.00">U</text>
</g>
<!-- IdentityContext&#45;&gt;CatalogContext -->
<g id="edge13" class="edge">
<title>IdentityContext&#45;&gt;CatalogContext</title>
<path fill="none" stroke="black" stroke-width="2" d="M1207.57,-629.35C1057.39,-623 813.59,-602.39 757.09,-535.53 729.21,-502.53 736.11,-476.09 757.09,-438.32 773.64,-408.54 803.62,-386.77 832.83,-371.53"/>
<text text-anchor="middle" x="832.59" y="-483.82" font-family="sans-serif" font-size="12.00"> &#160;&#160;&#160;&#160;&#160;&#160;&#160;&#160;&#160;&#160;&#160;&#160;&#160;&#160;&#160;&#160;&#160;&#160;&#160;&#160;&#160;&#160;&#160;&#160;&#160;&#160;&#160;&#160;&#160;&#160;&#160;&#160;&#160;&#160;&#160;&#160;&#160;&#160;&#160;</text>
<polygon fill="white" stroke="transparent" points="813.83,-361.53 813.83,-380.53 829.83,-380.53 829.83,-361.53 813.83,-361.53"/>
<polyline fill="none" stroke="black" points="829.83,-361.53 829.83,-380.53 "/>
<text text-anchor="start" x="816.83" y="-367.93" font-family="sans-serif" font-size="12.00">D</text>
<polygon fill="white" stroke="transparent" points="829.83,-361.53 829.83,-380.53 851.83,-380.53 851.83,-361.53 829.83,-361.53"/>
<polygon fill="none" stroke="black" points="829.83,-361.53 829.83,-380.53 851.83,-380.53 851.83,-361.53 829.83,-361.53"/>
<text text-anchor="start" x="832.83" y="-367.93" font-family="sans-serif" font-size="12.00">CF</text>
<polygon fill="white" stroke="transparent" points="1200.57,-620.35 1200.57,-637.35 1214.57,-637.35 1214.57,-620.35 1200.57,-620.35"/>
<text text-anchor="start" x="1202.57" y="-625.75" font-family="sans-serif" font-size="12.00">U</text>
</g>
<!-- IdentityContext&#45;&gt;ProfileContext -->
<g id="edge8" class="edge">
<title>IdentityContext&#45;&gt;ProfileContext</title>
<path fill="none" stroke="black" stroke-width="2" d="M1370.07,-589.9C1383.25,-574.11 1396.37,-555.2 1404.09,-535.53 1443.62,-434.85 1453.09,-394.1 1416.09,-292.46 1408.31,-271.08 1393.48,-251.15 1378.62,-235.01"/>
<text text-anchor="middle" x="1514.59" y="-410.72" font-family="sans-serif" font-size="12.00"> &#160;&#160;&#160;&#160;&#160;&#160;&#160;&#160;&#160;&#160;&#160;&#160;&#160;&#160;&#160;&#160;&#160;&#160;&#160;&#160;&#160;&#160;&#160;&#160;&#160;&#160;&#160;&#160;&#160;&#160;&#160;&#160;&#160;&#160;&#160;&#160;&#160;&#160;&#160;</text>
<polygon fill="white" stroke="transparent" points="1359.62,-225.01 1359.62,-244.01 1375.62,-244.01 1375.62,-225.01 1359.62,-225.01"/>
<polyline fill="none" stroke="black" points="1375.62,-225.01 1375.62,-244.01 "/>
<text text-anchor="start" x="1362.62" y="-231.41" font-family="sans-serif" font-size="12.00">D</text>
<polygon fill="white" stroke="transparent" points="1375.62,-225.01 1375.62,-244.01 1397.62,-244.01 1397.62,-225.01 1375.62,-225.01"/>
<polygon fill="none" stroke="black" points="1375.62,-225.01 1375.62,-244.01 1397.62,-244.01 1397.62,-225.01 1375.62,-225.01"/>
<text text-anchor="start" x="1378.62" y="-231.41" font-family="sans-serif" font-size="12.00">CF</text>
<polygon fill="white" stroke="transparent" points="1363.07,-580.9 1363.07,-597.9 1377.07,-597.9 1377.07,-580.9 1363.07,-580.9"/>
<text text-anchor="start" x="1365.07" y="-586.3" font-family="sans-serif" font-size="12.00">U</text>
</g>
<!-- IdentityContext&#45;&gt;RecommandationContext -->
<g id="edge14" class="edge">
<title>IdentityContext&#45;&gt;RecommandationContext</title>
<path fill="none" stroke="black" stroke-width="2" d="M1441.68,-625.99C1612.27,-616.23 1944.63,-595.35 2226.09,-566.53 2343.65,-554.49 2480.09,-606.1 2480.09,-487.92 2480.09,-487.92 2480.09,-487.92 2480.09,-193.95 2480.09,-97.19 1828.04,-64.33 1508.06,-54.04"/>
<text text-anchor="middle" x="2555.59" y="-337.79" font-family="sans-serif" font-size="12.00"> &#160;&#160;&#160;&#160;&#160;&#160;&#160;&#160;&#160;&#160;&#160;&#160;&#160;&#160;&#160;&#160;&#160;&#160;&#160;&#160;&#160;&#160;&#160;&#160;&#160;&#160;&#160;&#160;&#160;&#160;&#160;&#160;&#160;&#160;&#160;&#160;&#160;&#160;&#160;</text>
<polygon fill="white" stroke="transparent" points="1489.06,-44.04 1489.06,-63.04 1505.06,-63.04 1505.06,-44.04 1489.06,-44.04"/>
<polyline fill="none" stroke="black" points="1505.06,-44.04 1505.06,-63.04 "/>
<text text-anchor="start" x="1492.06" y="-50.44" font-family="sans-serif" font-size="12.00">D</text>
<polygon fill="white" stroke="transparent" points="1505.06,-44.04 1505.06,-63.04 1527.06,-63.04 1527.06,-44.04 1505.06,-44.04"/>
<polygon fill="none" stroke="black" points="1505.06,-44.04 1505.06,-63.04 1527.06,-63.04 1527.06,-44.04 1505.06,-44.04"/>
<text text-anchor="start" x="1508.06" y="-50.44" font-family="sans-serif" font-size="12.00">CF</text>
<polygon fill="white" stroke="transparent" points="1434.68,-616.99 1434.68,-633.99 1448.68,-633.99 1448.68,-616.99 1434.68,-616.99"/>
<text text-anchor="start" x="1436.68" y="-622.39" font-family="sans-serif" font-size="12.00">U</text>
</g>
<!-- ReportingContext -->
<g id="node9" class="node">
<title>ReportingContext</title>
<polygon fill="none" stroke="black" stroke-width="2" points="2105.63,-517.31 2099.77,-519.42 2093.68,-521.43 2087.39,-523.34 2080.92,-525.14 2074.29,-526.81 2067.53,-528.36 2060.67,-529.77 2053.72,-531.04 2046.71,-532.16 2039.66,-533.13 2032.6,-533.95 2025.54,-534.61 2018.51,-535.11 2011.53,-535.45 2004.62,-535.62 1997.79,-535.63 1991.06,-535.48 1984.45,-535.16 1977.98,-534.69 1971.65,-534.06 1965.48,-533.28 1959.48,-532.35 1953.67,-531.28 1948.05,-530.07 1942.64,-528.72 1937.43,-527.25 1932.44,-525.67 1927.67,-523.97 1923.14,-522.17 1918.84,-520.27 1914.77,-518.29 1910.95,-516.23 1907.38,-514.1 1904.06,-511.91 1900.99,-509.66 1898.17,-507.38 1895.61,-505.05 1893.31,-502.71 1891.27,-500.34 1889.49,-497.97 1887.97,-495.59 1886.73,-493.22 1885.75,-490.86 1885.04,-488.52 1884.6,-486.2 1884.44,-483.92 1884.55,-481.67 1884.95,-479.47 1885.62,-477.32 1886.57,-475.21 1887.81,-473.16 1889.33,-471.18 1891.14,-469.25 1893.24,-467.39 1895.62,-465.59 1898.29,-463.87 1901.25,-462.21 1904.5,-460.63 1908.04,-459.12 1911.85,-457.69 1915.95,-456.33 1920.33,-455.05 1924.97,-453.84 1929.88,-452.71 1935.05,-451.66 1940.47,-450.69 1946.13,-449.79 1952.02,-448.97 1958.13,-448.24 1964.44,-447.58 1970.95,-447 1977.63,-446.5 1984.47,-446.08 1991.45,-445.74 1998.55,-445.49 2005.76,-445.32 2013.04,-445.23 2020.38,-445.23 2027.76,-445.32 2035.15,-445.5 2042.52,-445.76 2049.86,-446.12 2057.13,-446.57 2064.31,-447.12 2071.37,-447.76 2078.3,-448.5 2085.05,-449.33 2091.61,-450.26 2097.94,-451.3 2104.04,-452.43 2109.86,-453.66 2115.4,-454.99 2120.62,-456.41 2125.5,-457.94 2130.03,-459.56 2134.19,-461.28 2137.95,-463.08 2141.31,-464.98 2144.26,-466.96 2146.77,-469.02 2148.84,-471.16 2150.46,-473.37 2151.63,-475.65 2152.34,-477.99 2152.58,-480.39 2152.37,-482.83 2151.7,-485.31 2150.58,-487.83 2149,-490.37 2146.99,-492.92 2144.55,-495.49 2141.69,-498.05 2138.42,-500.6 2134.76,-503.13 2130.73,-505.62 2126.34,-508.08 2121.62,-510.49 2116.58,-512.83 2111.24,-515.11 2105.63,-517.31"/>
<text text-anchor="middle" x="2010.09" y="-483.12" font-family="sans-serif" font-size="16.00">ReportingContext</text>
</g>
<!-- IdentityContext&#45;&gt;ReportingContext -->
<g id="edge7" class="edge">
<title>IdentityContext&#45;&gt;ReportingContext</title>
<path fill="none" stroke="black" stroke-width="2" d="M1432.69,-617.1C1540.38,-600.66 1712.65,-571.78 1859.09,-535.53 1877.9,-530.87 1897.8,-525.17 1916.77,-519.35"/>
<text text-anchor="middle" x="1847.59" y="-556.93" font-family="sans-serif" font-size="12.00"> &#160;&#160;&#160;&#160;&#160;&#160;&#160;&#160;&#160;&#160;&#160;&#160;&#160;&#160;&#160;&#160;&#160;&#160;&#160;&#160;&#160;&#160;&#160;&#160;&#160;&#160;&#160;&#160;&#160;&#160;&#160;&#160;&#160;&#160;&#160;&#160;&#160;&#160;&#160;</text>
<polygon fill="white" stroke="transparent" points="1897.77,-509.35 1897.77,-528.35 1913.77,-528.35 1913.77,-509.35 1897.77,-509.35"/>
<polyline fill="none" stroke="black" points="1913.77,-509.35 1913.77,-528.35 "/>
<text text-anchor="start" x="1900.77" y="-515.75" font-family="sans-serif" font-size="12.00">D</text>
<polygon fill="white" stroke="transparent" points="1913.77,-509.35 1913.77,-528.35 1935.77,-528.35 1935.77,-509.35 1913.77,-509.35"/>
<polygon fill="none" stroke="black" points="1913.77,-509.35 1913.77,-528.35 1935.77,-528.35 1935.77,-509.35 1913.77,-509.35"/>
<text text-anchor="start" x="1916.77" y="-515.75" font-family="sans-serif" font-size="12.00">CF</text>
<polygon fill="white" stroke="transparent" points="1425.69,-608.1 1425.69,-625.1 1439.69,-625.1 1439.69,-608.1 1425.69,-608.1"/>
<text text-anchor="start" x="1427.69" y="-613.5" font-family="sans-serif" font-size="12.00">U</text>
</g>
<!-- NotificationContext -->
<g id="node10" class="node">
<title>NotificationContext</title>
<polygon fill="none" stroke="black" stroke-width="2" points="2170.95,-482.59 2171.72,-479.71 2172.87,-476.87 2174.4,-474.07 2176.31,-471.32 2178.58,-468.64 2181.22,-466.03 2184.21,-463.5 2187.55,-461.07 2191.23,-458.74 2195.24,-456.52 2199.57,-454.43 2204.2,-452.45 2209.12,-450.61 2214.33,-448.91 2219.79,-447.35 2225.51,-445.94 2231.47,-444.68 2237.64,-443.56 2244.01,-442.61 2250.57,-441.8 2257.29,-441.15 2264.17,-440.65 2271.16,-440.3 2278.27,-440.1 2285.47,-440.05 2292.74,-440.14 2300.06,-440.36 2307.41,-440.72 2314.77,-441.21 2322.12,-441.83 2329.44,-442.56 2336.71,-443.4 2343.91,-444.34 2351.02,-445.39 2358.01,-446.53 2364.89,-447.76 2371.61,-449.06 2378.17,-450.44 2384.54,-451.89 2390.71,-453.4 2396.67,-454.97 2402.39,-456.58 2407.85,-458.24 2413.06,-459.95 2417.98,-461.68 2422.61,-463.45 2426.94,-465.25 2430.95,-467.07 2434.63,-468.91 2437.97,-470.76 2440.96,-472.64 2443.6,-474.52 2445.87,-476.41 2447.78,-478.31 2449.31,-480.22 2450.46,-482.13 2451.23,-484.05 2451.62,-485.97 2451.62,-487.88 2451.23,-489.8 2450.46,-491.72 2449.31,-493.63 2447.78,-495.54 2445.87,-497.44 2443.6,-499.33 2440.96,-501.21 2437.97,-503.08 2434.63,-504.94 2430.95,-506.78 2426.94,-508.6 2422.61,-510.4 2417.98,-512.17 2413.06,-513.9 2407.85,-515.61 2402.39,-517.27 2396.67,-518.88 2390.71,-520.45 2384.54,-521.96 2378.17,-523.41 2371.61,-524.79 2364.89,-526.09 2358.01,-527.32 2351.02,-528.46 2343.91,-529.5 2336.71,-530.45 2329.44,-531.29 2322.12,-532.02 2314.77,-532.64 2307.41,-533.12 2300.06,-533.48 2292.74,-533.71 2285.47,-533.8 2278.27,-533.75 2271.16,-533.55 2264.17,-533.2 2257.29,-532.7 2250.57,-532.05 2244.01,-531.24 2237.64,-530.28 2231.47,-529.17 2225.51,-527.91 2219.79,-526.5 2214.33,-524.94 2209.12,-523.23 2204.2,-521.39 2199.57,-519.42 2195.24,-517.32 2191.23,-515.11 2187.55,-512.78 2184.21,-510.35 2181.22,-507.82 2178.58,-505.21 2176.31,-502.53 2174.4,-499.78 2172.87,-496.98 2171.72,-494.13 2170.95,-491.26 2170.56,-488.37 2170.56,-485.48 2170.95,-482.59"/>
<text text-anchor="middle" x="2311.09" y="-483.12" font-family="sans-serif" font-size="16.00">NotificationContext</text>
</g>
<!-- IdentityContext&#45;&gt;NotificationContext -->
<g id="edge9" class="edge">
<title>IdentityContext&#45;&gt;NotificationContext</title>
<path fill="none" stroke="black" stroke-width="2" d="M1441.84,-626.48C1603.39,-616.7 1907.81,-592.04 2161.09,-535.53 2176.56,-532.08 2192.71,-527.75 2208.46,-523.11"/>
<text text-anchor="middle" x="2146.59" y="-556.93" font-family="sans-serif" font-size="12.00"> &#160;&#160;&#160;&#160;&#160;&#160;&#160;&#160;&#160;&#160;&#160;&#160;&#160;&#160;&#160;&#160;&#160;&#160;&#160;&#160;&#160;&#160;&#160;&#160;&#160;&#160;&#160;&#160;&#160;&#160;&#160;&#160;&#160;&#160;&#160;&#160;&#160;&#160;&#160;</text>
<polygon fill="white" stroke="transparent" points="2189.46,-513.11 2189.46,-532.11 2205.46,-532.11 2205.46,-513.11 2189.46,-513.11"/>
<polyline fill="none" stroke="black" points="2205.46,-513.11 2205.46,-532.11 "/>
<text text-anchor="start" x="2192.46" y="-519.51" font-family="sans-serif" font-size="12.00">D</text>
<polygon fill="white" stroke="transparent" points="2205.46,-513.11 2205.46,-532.11 2227.46,-532.11 2227.46,-513.11 2205.46,-513.11"/>
<polygon fill="none" stroke="black" points="2205.46,-513.11 2205.46,-532.11 2227.46,-532.11 2227.46,-513.11 2205.46,-513.11"/>
<text text-anchor="start" x="2208.46" y="-519.51" font-family="sans-serif" font-size="12.00">CF</text>
<polygon fill="white" stroke="transparent" points="1434.84,-617.48 1434.84,-634.48 1448.84,-634.48 1448.84,-617.48 1434.84,-617.48"/>
<text text-anchor="start" x="1436.84" y="-622.88" font-family="sans-serif" font-size="12.00">U</text>
</g>
<!-- InventoryContext -->
<g id="node11" class="node">
<title>InventoryContext</title>
<polygon fill="none" stroke="black" stroke-width="2" points="1072.31,-530.47 1063.81,-530.78 1055.32,-530.97 1046.89,-531.03 1038.54,-530.97 1030.32,-530.78 1022.24,-530.47 1014.35,-530.04 1006.67,-529.48 999.23,-528.8 992.06,-528 985.18,-527.08 978.61,-526.04 972.38,-524.88 966.5,-523.62 960.98,-522.25 955.85,-520.77 951.11,-519.19 946.78,-517.52 942.85,-515.76 939.34,-513.91 936.25,-511.99 933.58,-509.99 931.32,-507.92 929.48,-505.79 928.05,-503.6 927.01,-501.37 926.38,-499.1 926.12,-496.79 926.24,-494.45 926.72,-492.09 927.55,-489.72 928.71,-487.35 930.2,-484.98 931.98,-482.61 934.06,-480.26 936.42,-477.93 939.03,-475.64 941.89,-473.38 944.97,-471.16 948.28,-468.99 951.78,-466.88 955.48,-464.83 959.35,-462.85 963.39,-460.94 967.58,-459.11 971.91,-457.36 976.37,-455.7 980.96,-454.14 985.67,-452.67 990.49,-451.3 995.41,-450.03 1000.43,-448.87 1005.55,-447.82 1010.75,-446.88 1016.04,-446.05 1021.4,-445.34 1026.85,-444.74 1032.36,-444.26 1037.95,-443.9 1043.61,-443.65 1049.32,-443.53 1055.1,-443.51 1060.93,-443.62 1066.81,-443.84 1072.73,-444.18 1078.68,-444.62 1084.67,-445.18 1090.67,-445.85 1096.69,-446.62 1102.7,-447.5 1108.7,-448.48 1114.68,-449.56 1120.61,-450.73 1126.49,-452 1132.31,-453.35 1138.03,-454.79 1143.65,-456.31 1149.14,-457.9 1154.49,-459.57 1159.68,-461.31 1164.68,-463.11 1169.47,-464.97 1174.03,-466.89 1178.34,-468.86 1182.38,-470.88 1186.12,-472.94 1189.54,-475.03 1192.63,-477.15 1195.36,-479.31 1197.72,-481.48 1199.68,-483.67 1201.22,-485.87 1202.34,-488.07 1203.02,-490.28 1203.25,-492.48 1203.02,-494.67 1202.31,-496.84 1201.13,-498.99 1199.46,-501.11 1197.32,-503.21 1194.69,-505.26 1191.59,-507.27 1188.02,-509.23 1183.98,-511.14 1179.5,-512.99 1174.57,-514.78 1169.22,-516.49 1163.47,-518.14 1157.34,-519.7 1150.85,-521.18 1144.02,-522.57 1136.88,-523.87 1129.46,-525.07 1121.79,-526.17 1113.9,-527.16 1105.82,-528.05 1097.59,-528.83 1089.24,-529.49 1080.8,-530.04 1072.31,-530.47"/>
<text text-anchor="middle" x="1060.09" y="-483.12" font-family="sans-serif" font-size="16.00">InventoryContext</text>
</g>
<!-- IdentityContext&#45;&gt;InventoryContext -->
<g id="edge11" class="edge">
<title>IdentityContext&#45;&gt;InventoryContext</title>
<path fill="none" stroke="black" stroke-width="2" d="M1218,-615.77C1158.89,-604.71 1094.13,-588.16 1074.09,-566.53 1065.24,-556.97 1061,-543.83 1059.18,-531.03"/>
<text text-anchor="middle" x="1149.59" y="-556.93" font-family="sans-serif" font-size="12.00"> &#160;&#160;&#160;&#160;&#160;&#160;&#160;&#160;&#160;&#160;&#160;&#160;&#160;&#160;&#160;&#160;&#160;&#160;&#160;&#160;&#160;&#160;&#160;&#160;&#160;&#160;&#160;&#160;&#160;&#160;&#160;&#160;&#160;&#160;&#160;&#160;&#160;&#160;&#160;</text>
<polygon fill="white" stroke="transparent" points="1040.18,-521.03 1040.18,-540.03 1056.18,-540.03 1056.18,-521.03 1040.18,-521.03"/>
<polyline fill="none" stroke="black" points="1056.18,-521.03 1056.18,-540.03 "/>
<text text-anchor="start" x="1043.18" y="-527.43" font-family="sans-serif" font-size="12.00">D</text>
<polygon fill="white" stroke="transparent" points="1056.18,-521.03 1056.18,-540.03 1078.18,-540.03 1078.18,-521.03 1056.18,-521.03"/>
<polygon fill="none" stroke="black" points="1056.18,-521.03 1056.18,-540.03 1078.18,-540.03 1078.18,-521.03 1056.18,-521.03"/>
<text text-anchor="start" x="1059.18" y="-527.43" font-family="sans-serif" font-size="12.00">CF</text>
<polygon fill="white" stroke="transparent" points="1211,-606.77 1211,-623.77 1225,-623.77 1225,-606.77 1211,-606.77"/>
<text text-anchor="start" x="1213" y="-612.17" font-family="sans-serif" font-size="12.00">U</text>
</g>
<!-- ShoppingCartContext -->
<g id="node12" class="node">
<title>ShoppingCartContext</title>
<polygon fill="none" stroke="black" stroke-width="2" points="1145.79,-376.89 1137.36,-375.3 1129.22,-373.62 1121.41,-371.86 1113.97,-370.02 1106.92,-368.11 1100.29,-366.14 1094.11,-364.11 1088.41,-362.03 1083.2,-359.91 1078.51,-357.75 1074.37,-355.57 1070.77,-353.36 1067.74,-351.14 1065.28,-348.91 1063.4,-346.67 1062.11,-344.44 1061.4,-342.21 1061.28,-340 1061.73,-337.81 1062.76,-335.64 1064.35,-333.5 1066.48,-331.39 1069.15,-329.32 1072.34,-327.29 1076.02,-325.31 1080.18,-323.38 1084.8,-321.5 1089.84,-319.67 1095.28,-317.91 1101.09,-316.2 1107.26,-314.57 1113.73,-313 1120.5,-311.49 1127.53,-310.07 1134.78,-308.71 1142.23,-307.43 1149.84,-306.24 1157.6,-305.12 1165.47,-304.08 1173.42,-303.13 1181.42,-302.26 1189.46,-301.49 1197.5,-300.8 1205.53,-300.2 1213.51,-299.7 1221.44,-299.29 1229.28,-298.98 1237.03,-298.77 1244.66,-298.65 1252.17,-298.64 1259.53,-298.72 1266.74,-298.91 1273.79,-299.21 1280.66,-299.6 1287.36,-300.1 1293.86,-300.71 1300.17,-301.42 1306.28,-302.24 1312.19,-303.16 1317.89,-304.19 1323.37,-305.32 1328.65,-306.55 1333.7,-307.88 1338.54,-309.32 1343.15,-310.85 1347.54,-312.47 1351.71,-314.18 1355.64,-315.98 1359.34,-317.87 1362.8,-319.83 1366.02,-321.87 1368.99,-323.98 1371.71,-326.15 1374.16,-328.39 1376.36,-330.67 1378.28,-333 1379.91,-335.37 1381.26,-337.78 1382.31,-340.21 1383.06,-342.65 1383.49,-345.11 1383.59,-347.56 1383.35,-350.01 1382.78,-352.45 1381.84,-354.86 1380.55,-357.24 1378.88,-359.58 1376.84,-361.87 1374.41,-364.11 1371.59,-366.28 1368.37,-368.38 1364.76,-370.4 1360.74,-372.33 1356.33,-374.16 1351.51,-375.9 1346.3,-377.52 1340.7,-379.04 1334.71,-380.43 1328.35,-381.7 1321.63,-382.85 1314.55,-383.86 1307.14,-384.73 1299.41,-385.47 1291.39,-386.06 1283.09,-386.52 1274.54,-386.83 1265.77,-386.99 1256.79,-387.02 1247.65,-386.9 1238.38,-386.64 1229,-386.23 1219.55,-385.7 1210.06,-385.02 1200.58,-384.22 1191.14,-383.29 1181.77,-382.23 1172.51,-381.06 1163.4,-379.78 1154.49,-378.38 1145.79,-376.89"/>
<text text-anchor="middle" x="1234.09" y="-337.09" font-family="sans-serif" font-size="16.00">ShoppingCartContext</text>
</g>
<!-- IdentityContext&#45;&gt;ShoppingCartContext -->
<g id="edge16" class="edge">
<title>IdentityContext&#45;&gt;ShoppingCartContext</title>
<path fill="none" stroke="black" stroke-width="2" d="M1284.48,-586.84C1272.29,-571.65 1260.4,-553.88 1253.09,-535.53 1233.85,-487.2 1230.88,-426.94 1231.57,-386.6"/>
<text text-anchor="middle" x="1328.59" y="-483.82" font-family="sans-serif" font-size="12.00"> &#160;&#160;&#160;&#160;&#160;&#160;&#160;&#160;&#160;&#160;&#160;&#160;&#160;&#160;&#160;&#160;&#160;&#160;&#160;&#160;&#160;&#160;&#160;&#160;&#160;&#160;&#160;&#160;&#160;&#160;&#160;&#160;&#160;&#160;&#160;&#160;&#160;&#160;&#160;</text>
<polygon fill="white" stroke="transparent" points="1212.57,-376.6 1212.57,-395.6 1228.57,-395.6 1228.57,-376.6 1212.57,-376.6"/>
<polyline fill="none" stroke="black" points="1228.57,-376.6 1228.57,-395.6 "/>
<text text-anchor="start" x="1215.57" y="-383" font-family="sans-serif" font-size="12.00">D</text>
<polygon fill="white" stroke="transparent" points="1228.57,-376.6 1228.57,-395.6 1250.57,-395.6 1250.57,-376.6 1228.57,-376.6"/>
<polygon fill="none" stroke="black" points="1228.57,-376.6 1228.57,-395.6 1250.57,-395.6 1250.57,-376.6 1228.57,-376.6"/>
<text text-anchor="start" x="1231.57" y="-383" font-family="sans-serif" font-size="12.00">CF</text>
<polygon fill="white" stroke="transparent" points="1277.48,-577.84 1277.48,-594.84 1291.48,-594.84 1291.48,-577.84 1277.48,-577.84"/>
<text text-anchor="start" x="1279.48" y="-583.24" font-family="sans-serif" font-size="12.00">U</text>
</g>
<!-- ReviewContext -->
<g id="node13" class="node">
<title>ReviewContext</title>
<polygon fill="none" stroke="black" stroke-width="2" points="2598.78,-528.52 2591.52,-527.65 2584.4,-526.66 2577.47,-525.57 2570.74,-524.37 2564.24,-523.08 2558,-521.7 2552.05,-520.22 2546.4,-518.66 2541.08,-517.02 2536.11,-515.31 2531.51,-513.52 2527.29,-511.68 2523.47,-509.77 2520.05,-507.81 2517.05,-505.8 2514.47,-503.74 2512.32,-501.65 2510.61,-499.53 2509.32,-497.38 2508.47,-495.2 2508.04,-493.02 2508.04,-490.82 2508.45,-488.61 2509.26,-486.41 2510.46,-484.21 2512.04,-482.02 2513.99,-479.85 2516.29,-477.7 2518.93,-475.57 2521.87,-473.48 2525.12,-471.42 2528.65,-469.4 2532.43,-467.42 2536.45,-465.5 2540.7,-463.63 2545.14,-461.81 2549.76,-460.06 2554.54,-458.38 2559.46,-456.77 2564.5,-455.23 2569.65,-453.78 2574.88,-452.4 2580.19,-451.11 2585.55,-449.91 2590.94,-448.8 2596.37,-447.79 2601.8,-446.88 2607.24,-446.07 2612.67,-445.36 2618.08,-444.77 2623.46,-444.28 2628.81,-443.9 2634.12,-443.63 2639.37,-443.48 2644.58,-443.44 2649.72,-443.52 2654.8,-443.71 2659.82,-444.02 2664.76,-444.45 2669.63,-445 2674.43,-445.66 2679.14,-446.44 2683.77,-447.33 2688.32,-448.34 2692.78,-449.45 2697.14,-450.67 2701.41,-452 2705.57,-453.43 2709.63,-454.96 2713.58,-456.59 2717.4,-458.3 2721.1,-460.11 2724.66,-461.99 2728.07,-463.95 2731.34,-465.99 2734.44,-468.09 2737.37,-470.24 2740.11,-472.46 2742.65,-474.72 2744.99,-477.02 2747.1,-479.35 2748.98,-481.71 2750.61,-484.1 2751.99,-486.49 2753.09,-488.89 2753.9,-491.28 2754.42,-493.67 2754.63,-496.04 2754.52,-498.39 2754.07,-500.7 2753.29,-502.97 2752.17,-505.2 2750.69,-507.38 2748.85,-509.49 2746.64,-511.54 2744.08,-513.51 2741.14,-515.41 2737.84,-517.22 2734.18,-518.94 2730.17,-520.57 2725.8,-522.09 2721.09,-523.52 2716.05,-524.83 2710.69,-526.03 2705.03,-527.11 2699.08,-528.08 2692.87,-528.92 2686.4,-529.64 2679.71,-530.24 2672.82,-530.71 2665.75,-531.05 2658.53,-531.27 2651.18,-531.36 2643.74,-531.32 2636.24,-531.16 2628.69,-530.87 2621.15,-530.46 2613.62,-529.93 2606.16,-529.29 2598.78,-528.52"/>
<text text-anchor="middle" x="2636.09" y="-483.12" font-family="sans-serif" font-size="16.00">ReviewContext</text>
</g>
<!-- IdentityContext&#45;&gt;ReviewContext -->
<g id="edge12" class="edge">
<title>IdentityContext&#45;&gt;ReviewContext</title>
<path fill="none" stroke="black" stroke-width="2" d="M1445.01,-632.18C1700.2,-631.14 2299.77,-622.59 2494.09,-566.53 2524.41,-557.78 2555.38,-541.64 2580.63,-526.25"/>
<text text-anchor="middle" x="2602.59" y="-556.93" font-family="sans-serif" font-size="12.00"> &#160;&#160;&#160;&#160;&#160;&#160;&#160;&#160;&#160;&#160;&#160;&#160;&#160;&#160;&#160;&#160;&#160;&#160;&#160;&#160;&#160;&#160;&#160;&#160;&#160;&#160;&#160;&#160;&#160;&#160;&#160;&#160;&#160;&#160;&#160;&#160;&#160;&#160;&#160;</text>
<polygon fill="white" stroke="transparent" points="2561.63,-516.25 2561.63,-535.25 2577.63,-535.25 2577.63,-516.25 2561.63,-516.25"/>
<polyline fill="none" stroke="black" points="2577.63,-516.25 2577.63,-535.25 "/>
<text text-anchor="start" x="2564.63" y="-522.65" font-family="sans-serif" font-size="12.00">D</text>
<polygon fill="white" stroke="transparent" points="2577.63,-516.25 2577.63,-535.25 2599.63,-535.25 2599.63,-516.25 2577.63,-516.25"/>
<polygon fill="none" stroke="black" points="2577.63,-516.25 2577.63,-535.25 2599.63,-535.25 2599.63,-516.25 2577.63,-516.25"/>
<text text-anchor="start" x="2580.63" y="-522.65" font-family="sans-serif" font-size="12.00">CF</text>
<polygon fill="white" stroke="transparent" points="1438.01,-623.18 1438.01,-640.18 1452.01,-640.18 1452.01,-623.18 1438.01,-623.18"/>
<text text-anchor="start" x="1440.01" y="-628.58" font-family="sans-serif" font-size="12.00">U</text>
</g>
<!-- InventoryContext&#45;&gt;OrderContext -->
<g id="edge19" class="edge">
<title>InventoryContext&#45;&gt;OrderContext</title>
<path fill="none" stroke="black" stroke-width="2" d="M974.6,-456.11C954.28,-449.66 932.55,-443.3 912.09,-438.32 784.23,-407.2 713.68,-481.82 620.09,-389.32 579.02,-348.73 632.99,-306.68 597.09,-261.46 580.74,-240.87 556.66,-226.63 532.47,-216.83"/>
<text text-anchor="middle" x="695.59" y="-337.79" font-family="sans-serif" font-size="12.00"> &#160;&#160;&#160;&#160;&#160;&#160;&#160;&#160;&#160;&#160;&#160;&#160;&#160;&#160;&#160;&#160;&#160;&#160;&#160;&#160;&#160;&#160;&#160;&#160;&#160;&#160;&#160;&#160;&#160;&#160;&#160;&#160;&#160;&#160;&#160;&#160;&#160;&#160;&#160;</text>
<polygon fill="white" stroke="transparent" points="509.47,-206.83 509.47,-225.83 525.47,-225.83 525.47,-206.83 509.47,-206.83"/>
<polyline fill="none" stroke="black" points="525.47,-206.83 525.47,-225.83 "/>
<text text-anchor="start" x="512.47" y="-213.23" font-family="sans-serif" font-size="12.00">D</text>
<polygon fill="white" stroke="transparent" points="525.47,-206.83 525.47,-225.83 555.47,-225.83 555.47,-206.83 525.47,-206.83"/>
<polygon fill="none" stroke="black" points="525.47,-206.83 525.47,-225.83 555.47,-225.83 555.47,-206.83 525.47,-206.83"/>
<text text-anchor="start" x="528.47" y="-213.23" font-family="sans-serif" font-size="12.00">ACL</text>
<polygon fill="white" stroke="transparent" points="967.6,-447.11 967.6,-464.11 981.6,-464.11 981.6,-447.11 967.6,-447.11"/>
<text text-anchor="start" x="969.6" y="-452.51" font-family="sans-serif" font-size="12.00">U</text>
</g>
<!-- InventoryContext&#45;&gt;CatalogContext -->
<g id="edge21" class="edge">
<title>InventoryContext&#45;&gt;CatalogContext</title>
<path fill="none" stroke="black" stroke-width="2" d="M956.58,-464C934.37,-454.33 913.55,-440.39 900.09,-420.32 893.03,-409.8 892.59,-396.71 894.93,-384.26"/>
<text text-anchor="middle" x="975.59" y="-410.72" font-family="sans-serif" font-size="12.00"> &#160;&#160;&#160;&#160;&#160;&#160;&#160;&#160;&#160;&#160;&#160;&#160;&#160;&#160;&#160;&#160;&#160;&#160;&#160;&#160;&#160;&#160;&#160;&#160;&#160;&#160;&#160;&#160;&#160;&#160;&#160;&#160;&#160;&#160;&#160;&#160;&#160;&#160;&#160;</text>
<polygon fill="white" stroke="transparent" points="871.93,-374.26 871.93,-393.26 887.93,-393.26 887.93,-374.26 871.93,-374.26"/>
<polyline fill="none" stroke="black" points="887.93,-374.26 887.93,-393.26 "/>
<text text-anchor="start" x="874.93" y="-380.66" font-family="sans-serif" font-size="12.00">D</text>
<polygon fill="white" stroke="transparent" points="887.93,-374.26 887.93,-393.26 917.93,-393.26 917.93,-374.26 887.93,-374.26"/>
<polygon fill="none" stroke="black" points="887.93,-374.26 887.93,-393.26 917.93,-393.26 917.93,-374.26 887.93,-374.26"/>
<text text-anchor="start" x="890.93" y="-380.66" font-family="sans-serif" font-size="12.00">ACL</text>
<polygon fill="white" stroke="transparent" points="921.58,-454 921.58,-473 937.58,-473 937.58,-454 921.58,-454"/>
<polyline fill="none" stroke="black" points="937.58,-454 937.58,-473 "/>
<text text-anchor="start" x="924.58" y="-460.4" font-family="sans-serif" font-size="12.00">U</text>
<polygon fill="white" stroke="transparent" points="937.58,-454 937.58,-473 992.58,-473 992.58,-454 937.58,-454"/>
<polygon fill="none" stroke="black" points="937.58,-454 937.58,-473 992.58,-473 992.58,-454 937.58,-454"/>
<text text-anchor="start" x="940.58" y="-460.4" font-family="sans-serif" font-size="12.00">OHS, PL</text>
</g>
<!-- InventoryContext&#45;&gt;ShoppingCartContext -->
<g id="edge20" class="edge">
<title>InventoryContext&#45;&gt;ShoppingCartContext</title>
<path fill="none" stroke="black" stroke-width="2" d="M1059.98,-443.51C1061.84,-430.75 1065.9,-417.46 1074.09,-407.32 1086.25,-392.26 1102.44,-380.64 1119.86,-371.67"/>
<text text-anchor="middle" x="1149.59" y="-410.72" font-family="sans-serif" font-size="12.00"> &#160;&#160;&#160;&#160;&#160;&#160;&#160;&#160;&#160;&#160;&#160;&#160;&#160;&#160;&#160;&#160;&#160;&#160;&#160;&#160;&#160;&#160;&#160;&#160;&#160;&#160;&#160;&#160;&#160;&#160;&#160;&#160;&#160;&#160;&#160;&#160;&#160;&#160;&#160;</text>
<polygon fill="white" stroke="transparent" points="1100.86,-361.67 1100.86,-380.67 1116.86,-380.67 1116.86,-361.67 1100.86,-361.67"/>
<polyline fill="none" stroke="black" points="1116.86,-361.67 1116.86,-380.67 "/>
<text text-anchor="start" x="1103.86" y="-368.07" font-family="sans-serif" font-size="12.00">D</text>
<polygon fill="white" stroke="transparent" points="1116.86,-361.67 1116.86,-380.67 1138.86,-380.67 1138.86,-361.67 1116.86,-361.67"/>
<polygon fill="none" stroke="black" points="1116.86,-361.67 1116.86,-380.67 1138.86,-380.67 1138.86,-361.67 1116.86,-361.67"/>
<text text-anchor="start" x="1119.86" y="-368.07" font-family="sans-serif" font-size="12.00">CF</text>
<polygon fill="white" stroke="transparent" points="1024.98,-433.51 1024.98,-452.51 1040.98,-452.51 1040.98,-433.51 1024.98,-433.51"/>
<polyline fill="none" stroke="black" points="1040.98,-433.51 1040.98,-452.51 "/>
<text text-anchor="start" x="1027.98" y="-439.91" font-family="sans-serif" font-size="12.00">U</text>
<polygon fill="white" stroke="transparent" points="1040.98,-433.51 1040.98,-452.51 1095.98,-452.51 1095.98,-433.51 1040.98,-433.51"/>
<polygon fill="none" stroke="black" points="1040.98,-433.51 1040.98,-452.51 1095.98,-452.51 1095.98,-433.51 1040.98,-433.51"/>
<text text-anchor="start" x="1043.98" y="-439.91" font-family="sans-serif" font-size="12.00">OHS, PL</text>
</g>
<!-- ShippingContext -->
<g id="node14" class="node">
<title>ShippingContext</title>
<polygon fill="none" stroke="black" stroke-width="2" points="62,-366.28 57.08,-363.96 52.47,-361.6 48.2,-359.18 44.29,-356.73 40.75,-354.25 37.59,-351.75 34.85,-349.24 32.52,-346.73 30.61,-344.23 29.15,-341.75 28.12,-339.29 27.55,-336.86 27.42,-334.48 27.75,-332.14 28.53,-329.85 29.76,-327.62 31.44,-325.45 33.55,-323.36 36.09,-321.33 39.04,-319.39 42.4,-317.53 46.16,-315.75 50.28,-314.06 54.77,-312.45 59.59,-310.94 64.73,-309.52 70.17,-308.2 75.88,-306.96 81.84,-305.83 88.03,-304.79 94.42,-303.84 100.99,-302.98 107.71,-302.22 114.56,-301.56 121.51,-300.98 128.54,-300.5 135.61,-300.1 142.72,-299.8 149.83,-299.58 156.91,-299.45 163.96,-299.41 170.94,-299.46 177.83,-299.59 184.62,-299.8 191.29,-300.1 197.82,-300.48 204.18,-300.94 210.38,-301.49 216.39,-302.12 222.2,-302.83 227.8,-303.62 233.18,-304.5 238.33,-305.45 243.24,-306.49 247.91,-307.61 252.32,-308.81 256.48,-310.09 260.39,-311.45 264.03,-312.89 267.4,-314.41 270.51,-316 273.35,-317.67 275.93,-319.42 278.23,-321.23 280.27,-323.12 282.04,-325.07 283.55,-327.09 284.79,-329.17 285.76,-331.3 286.48,-333.48 286.93,-335.72 287.12,-337.99 287.05,-340.3 286.72,-342.64 286.13,-345.01 285.29,-347.39 284.19,-349.78 282.83,-352.18 281.22,-354.57 279.35,-356.94 277.23,-359.3 274.86,-361.62 272.24,-363.91 269.36,-366.14 266.23,-368.33 262.86,-370.44 259.24,-372.49 255.38,-374.45 251.27,-376.32 246.93,-378.09 242.35,-379.76 237.55,-381.31 232.52,-382.74 227.28,-384.05 221.83,-385.22 216.19,-386.24 210.35,-387.13 204.34,-387.87 198.16,-388.45 191.82,-388.88 185.35,-389.14 178.76,-389.25 172.06,-389.2 165.27,-388.99 158.41,-388.61 151.5,-388.08 144.56,-387.39 137.6,-386.54 130.67,-385.55 123.77,-384.4 116.92,-383.12 110.16,-381.7 103.51,-380.15 96.99,-378.47 90.63,-376.69 84.45,-374.79 78.47,-372.79 72.72,-370.7 67.22,-368.52 62,-366.28"/>
<text text-anchor="middle" x="166.09" y="-337.09" font-family="sans-serif" font-size="16.00">ShippingContext</text>
</g>
<!-- ShippingContext&#45;&gt;OrderContext -->
<g id="edge22" class="edge">
<title>ShippingContext&#45;&gt;OrderContext</title>
<path fill="none" stroke="black" stroke-width="2" d="M220.8,-302.56C241.99,-288.84 266.73,-273.68 290.09,-261.46 313.78,-249.07 340.33,-237.17 364.68,-226.99"/>
<text text-anchor="middle" x="365.59" y="-264.86" font-family="sans-serif" font-size="12.00"> &#160;&#160;&#160;&#160;&#160;&#160;&#160;&#160;&#160;&#160;&#160;&#160;&#160;&#160;&#160;&#160;&#160;&#160;&#160;&#160;&#160;&#160;&#160;&#160;&#160;&#160;&#160;&#160;&#160;&#160;&#160;&#160;&#160;&#160;&#160;&#160;&#160;&#160;&#160;</text>
<polygon fill="white" stroke="transparent" points="341.68,-216.99 341.68,-235.99 357.68,-235.99 357.68,-216.99 341.68,-216.99"/>
<polyline fill="none" stroke="black" points="357.68,-216.99 357.68,-235.99 "/>
<text text-anchor="start" x="344.68" y="-223.39" font-family="sans-serif" font-size="12.00">D</text>
<polygon fill="white" stroke="transparent" points="357.68,-216.99 357.68,-235.99 387.68,-235.99 387.68,-216.99 357.68,-216.99"/>
<polygon fill="none" stroke="black" points="357.68,-216.99 357.68,-235.99 387.68,-235.99 387.68,-216.99 357.68,-216.99"/>
<text text-anchor="start" x="360.68" y="-223.39" font-family="sans-serif" font-size="12.00">ACL</text>
<polygon fill="white" stroke="transparent" points="213.8,-293.56 213.8,-310.56 227.8,-310.56 227.8,-293.56 213.8,-293.56"/>
<text text-anchor="start" x="215.8" y="-298.96" font-family="sans-serif" font-size="12.00">U</text>
</g>
</g>
</svg>
