<svg width="2000px" height="635px"
 viewBox="0.00 0.00 1685.00 535.40" xmlns="http://www.w3.org/2000/svg" xmlns:xlink="http://www.w3.org/1999/xlink">
<g id="graph0" class="graph" transform="scale(1.0 1.0) rotate(0) translate(4 531.4)">
<title>ContextMapGraph</title>
<polygon fill="white" stroke="transparent" points="-4,4 -4,-531.4 1681,-531.4 1681,4 -4,4"/>
<!-- AccountingContext -->
<g id="node1" class="node">
<title>AccountingContext</title>
<polygon fill="none" stroke="black" stroke-width="2" points="135.97,-297.08 145.04,-296.67 154.11,-296.38 163.13,-296.22 172.07,-296.18 180.89,-296.27 189.57,-296.49 198.06,-296.83 206.35,-297.3 214.38,-297.9 222.15,-298.62 229.62,-299.46 236.77,-300.43 243.57,-301.51 250.01,-302.71 256.06,-304.02 261.72,-305.45 266.97,-306.97 271.8,-308.6 276.2,-310.32 280.16,-312.13 283.68,-314.03 286.77,-316 289.42,-318.05 291.63,-320.16 293.4,-322.34 294.76,-324.57 295.7,-326.84 296.23,-329.15 296.36,-331.5 296.11,-333.87 295.49,-336.26 294.51,-338.65 293.19,-341.05 291.54,-343.44 289.58,-345.83 287.32,-348.19 284.78,-350.52 281.97,-352.82 278.91,-355.08 275.62,-357.3 272.1,-359.45 268.38,-361.55 264.46,-363.59 260.35,-365.55 256.07,-367.43 251.63,-369.24 247.03,-370.95 242.3,-372.58 237.42,-374.11 232.42,-375.54 227.29,-376.87 222.05,-378.09 216.69,-379.2 211.23,-380.21 205.66,-381.1 200,-381.88 194.23,-382.54 188.38,-383.09 182.44,-383.52 176.42,-383.83 170.31,-384.02 164.13,-384.1 157.88,-384.06 151.56,-383.91 145.19,-383.64 138.76,-383.26 132.29,-382.77 125.79,-382.17 119.27,-381.47 112.73,-380.66 106.2,-379.75 99.68,-378.74 93.2,-377.63 86.76,-376.43 80.39,-375.14 74.1,-373.76 67.92,-372.31 61.86,-370.77 55.94,-369.16 50.2,-367.47 44.65,-365.72 39.31,-363.91 34.21,-362.04 29.38,-360.12 24.83,-358.14 20.6,-356.12 16.69,-354.06 13.15,-351.97 9.99,-349.84 7.22,-347.69 4.88,-345.52 2.98,-343.33 1.53,-341.13 0.56,-338.93 0.07,-336.72 0.08,-334.52 0.59,-332.33 1.61,-330.16 3.16,-328.01 5.22,-325.89 7.8,-323.8 10.89,-321.74 14.5,-319.73 18.61,-317.77 23.2,-315.86 28.27,-314.01 33.8,-312.23 39.78,-310.52 46.17,-308.88 52.95,-307.32 60.1,-305.84 67.6,-304.46 75.41,-303.17 83.49,-301.97 91.83,-300.88 100.37,-299.89 109.1,-299.02 117.97,-298.25 126.94,-297.61 135.97,-297.08"/>
<text text-anchor="middle" x="153.93" y="-336.81" font-family="sans-serif" font-size="16.00">AccountingContext</text>
</g>
<!-- BillingContext -->
<g id="node2" class="node">
<title>BillingContext</title>
<polygon fill="none" stroke="black" stroke-width="2" points="535.63,-313.24 540.24,-315.47 544.59,-317.77 548.65,-320.11 552.4,-322.51 555.83,-324.93 558.92,-327.38 561.66,-329.85 564.03,-332.33 566.03,-334.81 567.65,-337.27 568.87,-339.73 569.7,-342.15 570.13,-344.55 570.15,-346.9 569.77,-349.22 569,-351.48 567.82,-353.68 566.25,-355.83 564.3,-357.9 561.97,-359.91 559.28,-361.84 556.23,-363.7 552.85,-365.47 549.14,-367.16 545.12,-368.77 540.81,-370.28 536.23,-371.71 531.4,-373.05 526.33,-374.3 521.06,-375.46 515.59,-376.53 509.95,-377.51 504.17,-378.39 498.27,-379.19 492.27,-379.89 486.18,-380.5 480.04,-381.03 473.86,-381.46 467.67,-381.81 461.49,-382.06 455.33,-382.23 449.22,-382.32 443.17,-382.31 437.2,-382.22 431.32,-382.04 425.56,-381.78 419.93,-381.42 414.43,-380.99 409.09,-380.47 403.91,-379.86 398.91,-379.16 394.08,-378.38 389.45,-377.51 385.01,-376.56 380.78,-375.52 376.75,-374.39 372.94,-373.18 369.34,-371.89 365.97,-370.51 362.81,-369.05 359.88,-367.5 357.17,-365.87 354.68,-364.17 352.42,-362.39 350.39,-360.53 348.58,-358.6 346.99,-356.6 345.63,-354.54 344.49,-352.41 343.58,-350.23 342.88,-348 342.41,-345.72 342.17,-343.4 342.14,-341.04 342.34,-338.65 342.76,-336.25 343.41,-333.82 344.27,-331.39 345.36,-328.96 346.68,-326.54 348.22,-324.14 349.99,-321.76 351.98,-319.42 354.2,-317.12 356.64,-314.87 359.31,-312.69 362.21,-310.57 365.33,-308.53 368.67,-306.57 372.23,-304.71 376.01,-302.96 380.01,-301.31 384.22,-299.78 388.63,-298.38 393.24,-297.11 398.04,-295.97 403.03,-294.98 408.2,-294.13 413.53,-293.43 419.01,-292.89 424.64,-292.5 430.39,-292.27 436.26,-292.21 442.23,-292.3 448.29,-292.55 454.41,-292.96 460.57,-293.53 466.77,-294.25 472.97,-295.13 479.16,-296.15 485.32,-297.31 491.42,-298.62 497.45,-300.06 503.38,-301.62 509.19,-303.3 514.85,-305.1 520.35,-306.99 525.66,-308.99 530.76,-311.07 535.63,-313.24"/>
<text text-anchor="middle" x="447.93" y="-336.81" font-family="sans-serif" font-size="16.00">BillingContext</text>
</g>
<!-- CatalogContext -->
<g id="node3" class="node">
<title>CatalogContext</title>
<polygon fill="none" stroke="black" stroke-width="2" points="811.06,-208.62 808.36,-205.93 805.99,-203.22 803.96,-200.5 802.27,-197.78 800.95,-195.06 799.98,-192.37 799.39,-189.7 799.18,-187.07 799.34,-184.49 799.89,-181.97 800.81,-179.51 802.12,-177.13 803.8,-174.83 805.86,-172.61 808.28,-170.49 811.07,-168.47 814.2,-166.55 817.68,-164.73 821.49,-163.03 825.61,-161.45 830.04,-159.98 834.76,-158.63 839.75,-157.39 845,-156.28 850.48,-155.28 856.18,-154.41 862.07,-153.65 868.14,-153.01 874.37,-152.48 880.73,-152.07 887.2,-151.76 893.76,-151.56 900.39,-151.47 907.06,-151.48 913.76,-151.58 920.46,-151.78 927.13,-152.07 933.76,-152.45 940.33,-152.92 946.81,-153.47 953.19,-154.09 959.44,-154.79 965.56,-155.57 971.52,-156.42 977.3,-157.33 982.89,-158.32 988.28,-159.37 993.46,-160.48 998.4,-161.65 1003.1,-162.88 1007.55,-164.17 1011.74,-165.52 1015.66,-166.92 1019.31,-168.38 1022.67,-169.9 1025.75,-171.47 1028.54,-173.09 1031.03,-174.77 1033.23,-176.49 1035.13,-178.27 1036.73,-180.09 1038.04,-181.96 1039.04,-183.88 1039.76,-185.84 1040.18,-187.85 1040.3,-189.89 1040.14,-191.96 1039.7,-194.07 1038.98,-196.21 1037.98,-198.38 1036.7,-200.56 1035.17,-202.76 1033.37,-204.97 1031.31,-207.19 1029,-209.4 1026.45,-211.61 1023.66,-213.8 1020.64,-215.97 1017.39,-218.11 1013.93,-220.22 1010.25,-222.28 1006.36,-224.28 1002.28,-226.23 998,-228.1 993.55,-229.9 988.91,-231.61 984.12,-233.23 979.16,-234.75 974.05,-236.16 968.81,-237.45 963.43,-238.61 957.94,-239.65 952.33,-240.55 946.63,-241.3 940.84,-241.91 934.98,-242.36 929.06,-242.66 923.08,-242.8 917.08,-242.77 911.05,-242.58 905.02,-242.23 899,-241.71 893,-241.02 887.04,-240.18 881.14,-239.17 875.31,-238 869.58,-236.68 863.95,-235.21 858.45,-233.6 853.09,-231.85 847.89,-229.97 842.86,-227.97 838.04,-225.85 833.42,-223.63 829.03,-221.31 824.89,-218.91 821,-216.42 817.39,-213.87 814.07,-211.27 811.06,-208.62"/>
<text text-anchor="middle" x="923.93" y="-190.3" font-family="sans-serif" font-size="16.00">CatalogContext</text>
</g>
<!-- RecommandationContext -->
<g id="node4" class="node">
<title>RecommandationContext</title>
<polygon fill="none" stroke="black" stroke-width="2" points="972.59,-34.77 975.93,-32.02 979.7,-29.32 983.91,-26.68 988.54,-24.12 993.57,-21.65 998.97,-19.27 1004.75,-17 1010.88,-14.84 1017.33,-12.8 1024.09,-10.9 1031.15,-9.13 1038.47,-7.5 1046.05,-6.03 1053.85,-4.7 1061.86,-3.54 1070.05,-2.53 1078.41,-1.68 1086.91,-1 1095.53,-0.47 1104.25,-0.11 1113.04,0.08 1121.88,0.13 1130.76,0.01 1139.65,-0.26 1148.53,-0.67 1157.37,-1.23 1166.17,-1.93 1174.88,-2.76 1183.51,-3.72 1192.01,-4.79 1200.39,-5.98 1208.61,-7.28 1216.65,-8.67 1224.5,-10.15 1232.14,-11.72 1239.55,-13.37 1246.71,-15.08 1253.61,-16.85 1260.22,-18.68 1266.54,-20.56 1272.54,-22.47 1278.21,-24.43 1283.54,-26.4 1288.51,-28.4 1293.11,-30.42 1297.32,-32.45 1301.13,-34.49 1304.53,-36.52 1307.51,-38.56 1310.07,-40.59 1312.18,-42.61 1313.85,-44.63 1315.06,-46.62 1315.82,-48.6 1316.11,-50.57 1315.93,-52.51 1315.28,-54.43 1314.15,-56.33 1312.56,-58.2 1310.49,-60.05 1307.95,-61.87 1304.95,-63.66 1301.48,-65.43 1297.56,-67.16 1293.19,-68.86 1288.39,-70.53 1283.16,-72.16 1277.51,-73.76 1271.46,-75.32 1265.03,-76.83 1258.23,-78.31 1251.07,-79.73 1243.58,-81.11 1235.78,-82.43 1227.69,-83.7 1219.32,-84.91 1210.71,-86.05 1201.88,-87.12 1192.86,-88.12 1183.66,-89.04 1174.33,-89.88 1164.87,-90.63 1155.34,-91.29 1145.74,-91.85 1136.12,-92.31 1126.5,-92.66 1116.91,-92.89 1107.39,-93.01 1097.95,-93.01 1088.63,-92.89 1079.46,-92.63 1070.47,-92.25 1061.68,-91.73 1053.12,-91.07 1044.83,-90.27 1036.81,-89.34 1029.1,-88.26 1021.73,-87.05 1014.71,-85.7 1008.06,-84.21 1001.8,-82.59 995.96,-80.84 990.55,-78.96 985.58,-76.96 981.07,-74.84 977.03,-72.62 973.47,-70.28 970.4,-67.86 967.82,-65.34 965.75,-62.75 964.18,-60.09 963.12,-57.37 962.56,-54.6 962.51,-51.79 962.97,-48.95 963.92,-46.1 965.37,-43.25 967.3,-40.4 969.71,-37.57 972.59,-34.77"/>
<text text-anchor="middle" x="1140.93" y="-44.33" font-family="sans-serif" font-size="16.00">RecommandationContext</text>
</g>
<!-- CatalogContext&#45;&gt;RecommandationContext -->
<g id="edge1" class="edge">
<title>CatalogContext&#45;&gt;RecommandationContext</title>
<path fill="none" stroke="black" stroke-width="2" d="M977.85,-157.33C1007.35,-137.75 1044.12,-113.35 1075.28,-92.68"/>
<text text-anchor="middle" x="1115.43" y="-117.65" font-family="sans-serif" font-size="12.00"> &#160;&#160;&#160;&#160;&#160;&#160;&#160;&#160;&#160;&#160;&#160;&#160;&#160;&#160;&#160;&#160;&#160;&#160;&#160;&#160;&#160;&#160;&#160;&#160;&#160;&#160;&#160;&#160;&#160;&#160;&#160;&#160;&#160;&#160;&#160;&#160;&#160;&#160;&#160;</text>
<polygon fill="white" stroke="transparent" points="1056.28,-82.68 1056.28,-101.68 1072.28,-101.68 1072.28,-82.68 1056.28,-82.68"/>
<polyline fill="none" stroke="black" points="1072.28,-82.68 1072.28,-101.68 "/>
<text text-anchor="start" x="1059.28" y="-89.08" font-family="sans-serif" font-size="12.00">D</text>
<polygon fill="white" stroke="transparent" points="1072.28,-82.68 1072.28,-101.68 1094.28,-101.68 1094.28,-82.68 1072.28,-82.68"/>
<polygon fill="none" stroke="black" points="1072.28,-82.68 1072.28,-101.68 1094.28,-101.68 1094.28,-82.68 1072.28,-82.68"/>
<text text-anchor="start" x="1075.28" y="-89.08" font-family="sans-serif" font-size="12.00">CF</text>
<polygon fill="white" stroke="transparent" points="970.85,-148.33 970.85,-165.33 984.85,-165.33 984.85,-148.33 970.85,-148.33"/>
<text text-anchor="start" x="972.85" y="-153.73" font-family="sans-serif" font-size="12.00">U</text>
</g>
<!-- IdentityContext -->
<g id="node5" class="node">
<title>IdentityContext</title>
<polygon fill="none" stroke="black" stroke-width="2" points="964.23,-441.41 971.65,-442.34 978.91,-443.37 985.98,-444.51 992.83,-445.75 999.45,-447.09 1005.79,-448.52 1011.83,-450.03 1017.56,-451.63 1022.94,-453.31 1027.96,-455.06 1032.61,-456.88 1036.85,-458.76 1040.69,-460.69 1044.11,-462.68 1047.09,-464.72 1049.64,-466.79 1051.75,-468.9 1053.41,-471.04 1054.62,-473.2 1055.4,-475.38 1055.73,-477.58 1055.63,-479.78 1055.11,-481.99 1054.17,-484.19 1052.83,-486.39 1051.1,-488.57 1048.99,-490.73 1046.53,-492.87 1043.72,-494.99 1040.59,-497.07 1037.16,-499.11 1033.45,-501.11 1029.46,-503.06 1025.24,-504.96 1020.79,-506.81 1016.15,-508.6 1011.32,-510.32 1006.33,-511.98 1001.2,-513.56 995.94,-515.06 990.59,-516.49 985.15,-517.84 979.64,-519.09 974.08,-520.26 968.48,-521.33 962.86,-522.31 957.24,-523.19 951.61,-523.96 946,-524.64 940.42,-525.2 934.86,-525.66 929.35,-526 923.89,-526.23 918.49,-526.35 913.14,-526.36 907.86,-526.24 902.65,-526.01 897.52,-525.67 892.46,-525.21 887.48,-524.63 882.59,-523.93 877.78,-523.12 873.07,-522.2 868.45,-521.16 863.92,-520.01 859.5,-518.76 855.18,-517.4 850.97,-515.94 846.88,-514.38 842.9,-512.73 839.06,-510.98 835.35,-509.15 831.78,-507.24 828.36,-505.25 825.11,-503.19 822.02,-501.07 819.12,-498.89 816.41,-496.65 813.9,-494.37 811.62,-492.05 809.56,-489.7 807.74,-487.32 806.17,-484.92 804.88,-482.52 803.86,-480.1 803.14,-477.7 802.72,-475.3 802.62,-472.93 802.85,-470.58 803.41,-468.26 804.32,-465.99 805.59,-463.77 807.21,-461.6 809.2,-459.49 811.56,-457.45 814.29,-455.49 817.39,-453.61 820.87,-451.82 824.71,-450.12 828.91,-448.51 833.47,-447.01 838.38,-445.62 843.62,-444.34 849.18,-443.17 855.04,-442.12 861.2,-441.2 867.62,-440.39 874.29,-439.71 881.19,-439.16 888.29,-438.73 895.57,-438.43 903,-438.26 910.55,-438.22 918.19,-438.31 925.89,-438.52 933.62,-438.86 941.35,-439.32 949.06,-439.9 956.69,-440.6 964.23,-441.41"/>
<text text-anchor="middle" x="923.93" y="-479.04" font-family="sans-serif" font-size="16.00">IdentityContext</text>
</g>
<!-- IdentityContext&#45;&gt;AccountingContext -->
<g id="edge2" class="edge">
<title>IdentityContext&#45;&gt;AccountingContext</title>
<path fill="none" stroke="black" stroke-width="2" d="M802.75,-476.41C645.35,-468.27 379.75,-450.55 286.93,-420.28 259.26,-411.26 231.15,-395.75 207.95,-380.88"/>
<text text-anchor="middle" x="362.43" y="-410.68" font-family="sans-serif" font-size="12.00"> &#160;&#160;&#160;&#160;&#160;&#160;&#160;&#160;&#160;&#160;&#160;&#160;&#160;&#160;&#160;&#160;&#160;&#160;&#160;&#160;&#160;&#160;&#160;&#160;&#160;&#160;&#160;&#160;&#160;&#160;&#160;&#160;&#160;&#160;&#160;&#160;&#160;&#160;&#160;</text>
<polygon fill="white" stroke="transparent" points="188.95,-370.88 188.95,-389.88 204.95,-389.88 204.95,-370.88 188.95,-370.88"/>
<polyline fill="none" stroke="black" points="204.95,-370.88 204.95,-389.88 "/>
<text text-anchor="start" x="191.95" y="-377.28" font-family="sans-serif" font-size="12.00">D</text>
<polygon fill="white" stroke="transparent" points="204.95,-370.88 204.95,-389.88 226.95,-389.88 226.95,-370.88 204.95,-370.88"/>
<polygon fill="none" stroke="black" points="204.95,-370.88 204.95,-389.88 226.95,-389.88 226.95,-370.88 204.95,-370.88"/>
<text text-anchor="start" x="207.95" y="-377.28" font-family="sans-serif" font-size="12.00">CF</text>
<polygon fill="white" stroke="transparent" points="795.75,-467.41 795.75,-484.41 809.75,-484.41 809.75,-467.41 795.75,-467.41"/>
<text text-anchor="start" x="797.75" y="-472.81" font-family="sans-serif" font-size="12.00">U</text>
</g>
<!-- IdentityContext&#45;&gt;BillingContext -->
<g id="edge4" class="edge">
<title>IdentityContext&#45;&gt;BillingContext</title>
<path fill="none" stroke="black" stroke-width="2" d="M802.66,-474.29C669.75,-464.76 472.17,-446.39 448.93,-420.28 439.85,-410.08 437.71,-395.84 438.48,-382.28"/>
<text text-anchor="middle" x="524.43" y="-410.68" font-family="sans-serif" font-size="12.00"> &#160;&#160;&#160;&#160;&#160;&#160;&#160;&#160;&#160;&#160;&#160;&#160;&#160;&#160;&#160;&#160;&#160;&#160;&#160;&#160;&#160;&#160;&#160;&#160;&#160;&#160;&#160;&#160;&#160;&#160;&#160;&#160;&#160;&#160;&#160;&#160;&#160;&#160;&#160;</text>
<polygon fill="white" stroke="transparent" points="419.48,-372.28 419.48,-391.28 435.48,-391.28 435.48,-372.28 419.48,-372.28"/>
<polyline fill="none" stroke="black" points="435.48,-372.28 435.48,-391.28 "/>
<text text-anchor="start" x="422.48" y="-378.68" font-family="sans-serif" font-size="12.00">D</text>
<polygon fill="white" stroke="transparent" points="435.48,-372.28 435.48,-391.28 457.48,-391.28 457.48,-372.28 435.48,-372.28"/>
<polygon fill="none" stroke="black" points="435.48,-372.28 435.48,-391.28 457.48,-391.28 457.48,-372.28 435.48,-372.28"/>
<text text-anchor="start" x="438.48" y="-378.68" font-family="sans-serif" font-size="12.00">CF</text>
<polygon fill="white" stroke="transparent" points="795.66,-465.29 795.66,-482.29 809.66,-482.29 809.66,-465.29 795.66,-465.29"/>
<text text-anchor="start" x="797.66" y="-470.69" font-family="sans-serif" font-size="12.00">U</text>
</g>
<!-- IdentityContext&#45;&gt;CatalogContext -->
<g id="edge5" class="edge">
<title>IdentityContext&#45;&gt;CatalogContext</title>
<path fill="none" stroke="black" stroke-width="2" d="M807.74,-460.84C732.93,-444.68 645.59,-419.95 622.93,-389.28 597.23,-354.49 597.45,-326.91 622.93,-291.95 664.23,-235.27 739.27,-211.04 804.09,-200.99"/>
<text text-anchor="middle" x="698.43" y="-337.51" font-family="sans-serif" font-size="12.00"> &#160;&#160;&#160;&#160;&#160;&#160;&#160;&#160;&#160;&#160;&#160;&#160;&#160;&#160;&#160;&#160;&#160;&#160;&#160;&#160;&#160;&#160;&#160;&#160;&#160;&#160;&#160;&#160;&#160;&#160;&#160;&#160;&#160;&#160;&#160;&#160;&#160;&#160;&#160;</text>
<polygon fill="white" stroke="transparent" points="785.09,-190.99 785.09,-209.99 801.09,-209.99 801.09,-190.99 785.09,-190.99"/>
<polyline fill="none" stroke="black" points="801.09,-190.99 801.09,-209.99 "/>
<text text-anchor="start" x="788.09" y="-197.39" font-family="sans-serif" font-size="12.00">D</text>
<polygon fill="white" stroke="transparent" points="801.09,-190.99 801.09,-209.99 823.09,-209.99 823.09,-190.99 801.09,-190.99"/>
<polygon fill="none" stroke="black" points="801.09,-190.99 801.09,-209.99 823.09,-209.99 823.09,-190.99 801.09,-190.99"/>
<text text-anchor="start" x="804.09" y="-197.39" font-family="sans-serif" font-size="12.00">CF</text>
<polygon fill="white" stroke="transparent" points="800.74,-451.84 800.74,-468.84 814.74,-468.84 814.74,-451.84 800.74,-451.84"/>
<text text-anchor="start" x="802.74" y="-457.24" font-family="sans-serif" font-size="12.00">U</text>
</g>
<!-- IdentityContext&#45;&gt;RecommandationContext -->
<g id="edge8" class="edge">
<title>IdentityContext&#45;&gt;RecommandationContext</title>
<path fill="none" stroke="black" stroke-width="2" d="M1053.91,-471.63C1162.89,-459.88 1305.74,-435.86 1337.93,-389.28 1410.09,-284.86 1273.4,-152.61 1193.25,-88.09"/>
<text text-anchor="middle" x="1423.43" y="-264.35" font-family="sans-serif" font-size="12.00"> &#160;&#160;&#160;&#160;&#160;&#160;&#160;&#160;&#160;&#160;&#160;&#160;&#160;&#160;&#160;&#160;&#160;&#160;&#160;&#160;&#160;&#160;&#160;&#160;&#160;&#160;&#160;&#160;&#160;&#160;&#160;&#160;&#160;&#160;&#160;&#160;&#160;&#160;&#160;</text>
<polygon fill="white" stroke="transparent" points="1174.25,-78.09 1174.25,-97.09 1190.25,-97.09 1190.25,-78.09 1174.25,-78.09"/>
<polyline fill="none" stroke="black" points="1190.25,-78.09 1190.25,-97.09 "/>
<text text-anchor="start" x="1177.25" y="-84.49" font-family="sans-serif" font-size="12.00">D</text>
<polygon fill="white" stroke="transparent" points="1190.25,-78.09 1190.25,-97.09 1212.25,-97.09 1212.25,-78.09 1190.25,-78.09"/>
<polygon fill="none" stroke="black" points="1190.25,-78.09 1190.25,-97.09 1212.25,-97.09 1212.25,-78.09 1190.25,-78.09"/>
<text text-anchor="start" x="1193.25" y="-84.49" font-family="sans-serif" font-size="12.00">CF</text>
<polygon fill="white" stroke="transparent" points="1046.91,-462.63 1046.91,-479.63 1060.91,-479.63 1060.91,-462.63 1046.91,-462.63"/>
<text text-anchor="start" x="1048.91" y="-468.03" font-family="sans-serif" font-size="12.00">U</text>
</g>
<!-- ProfileContext -->
<g id="node6" class="node">
<title>ProfileContext</title>
<polygon fill="none" stroke="black" stroke-width="2" points="1257.3,-301.75 1263.76,-303.04 1270.04,-304.43 1276.1,-305.92 1281.94,-307.49 1287.52,-309.15 1292.82,-310.88 1297.81,-312.69 1302.49,-314.56 1306.82,-316.49 1310.8,-318.48 1314.41,-320.51 1317.64,-322.58 1320.47,-324.69 1322.9,-326.83 1324.92,-328.99 1326.52,-331.17 1327.71,-333.36 1328.48,-335.55 1328.83,-337.75 1328.77,-339.95 1328.31,-342.13 1327.45,-344.3 1326.2,-346.45 1324.57,-348.58 1322.57,-350.68 1320.23,-352.75 1317.54,-354.78 1314.54,-356.77 1311.23,-358.71 1307.64,-360.61 1303.79,-362.45 1299.69,-364.23 1295.36,-365.96 1290.83,-367.62 1286.12,-369.22 1281.24,-370.75 1276.22,-372.21 1271.08,-373.59 1265.83,-374.89 1260.5,-376.11 1255.1,-377.24 1249.66,-378.29 1244.18,-379.25 1238.69,-380.12 1233.19,-380.9 1227.71,-381.58 1222.26,-382.16 1216.84,-382.64 1211.48,-383.02 1206.17,-383.29 1200.93,-383.46 1195.77,-383.52 1190.7,-383.47 1185.71,-383.31 1180.82,-383.04 1176.03,-382.66 1171.35,-382.17 1166.77,-381.57 1162.31,-380.85 1157.96,-380.03 1153.73,-379.09 1149.62,-378.05 1145.63,-376.89 1141.77,-375.63 1138.03,-374.27 1134.42,-372.81 1130.95,-371.25 1127.61,-369.59 1124.41,-367.84 1121.36,-366 1118.45,-364.09 1115.7,-362.09 1113.11,-360.02 1110.68,-357.88 1108.42,-355.68 1106.35,-353.43 1104.46,-351.12 1102.76,-348.78 1101.27,-346.4 1099.99,-343.99 1098.93,-341.56 1098.1,-339.12 1097.51,-336.67 1097.17,-334.23 1097.08,-331.8 1097.27,-329.38 1097.72,-327 1098.46,-324.65 1099.49,-322.34 1100.82,-320.08 1102.45,-317.88 1104.38,-315.75 1106.63,-313.69 1109.18,-311.71 1112.06,-309.82 1115.24,-308.02 1118.74,-306.32 1122.54,-304.72 1126.65,-303.24 1131.06,-301.87 1135.75,-300.62 1140.72,-299.5 1145.96,-298.5 1151.46,-297.63 1157.19,-296.89 1163.14,-296.29 1169.3,-295.82 1175.64,-295.49 1182.15,-295.29 1188.79,-295.24 1195.55,-295.31 1202.4,-295.52 1209.32,-295.87 1216.28,-296.34 1223.25,-296.94 1230.2,-297.67 1237.11,-298.52 1243.95,-299.48 1250.69,-300.56 1257.3,-301.75"/>
<text text-anchor="middle" x="1205.93" y="-336.81" font-family="sans-serif" font-size="16.00">ProfileContext</text>
</g>
<!-- IdentityContext&#45;&gt;ProfileContext -->
<g id="edge3" class="edge">
<title>IdentityContext&#45;&gt;ProfileContext</title>
<path fill="none" stroke="black" stroke-width="2" d="M1012.02,-449.98C1034.2,-441.11 1057.72,-430.96 1078.93,-420.28 1103.37,-407.98 1129.24,-392.46 1151.2,-378.46"/>
<text text-anchor="middle" x="1176.43" y="-410.68" font-family="sans-serif" font-size="12.00"> &#160;&#160;&#160;&#160;&#160;&#160;&#160;&#160;&#160;&#160;&#160;&#160;&#160;&#160;&#160;&#160;&#160;&#160;&#160;&#160;&#160;&#160;&#160;&#160;&#160;&#160;&#160;&#160;&#160;&#160;&#160;&#160;&#160;&#160;&#160;&#160;&#160;&#160;&#160;</text>
<polygon fill="white" stroke="transparent" points="1132.2,-368.46 1132.2,-387.46 1148.2,-387.46 1148.2,-368.46 1132.2,-368.46"/>
<polyline fill="none" stroke="black" points="1148.2,-368.46 1148.2,-387.46 "/>
<text text-anchor="start" x="1135.2" y="-374.86" font-family="sans-serif" font-size="12.00">D</text>
<polygon fill="white" stroke="transparent" points="1148.2,-368.46 1148.2,-387.46 1170.2,-387.46 1170.2,-368.46 1148.2,-368.46"/>
<polygon fill="none" stroke="black" points="1148.2,-368.46 1148.2,-387.46 1170.2,-387.46 1170.2,-368.46 1148.2,-368.46"/>
<text text-anchor="start" x="1151.2" y="-374.86" font-family="sans-serif" font-size="12.00">CF</text>
<polygon fill="white" stroke="transparent" points="1005.02,-440.98 1005.02,-457.98 1019.02,-457.98 1019.02,-440.98 1005.02,-440.98"/>
<text text-anchor="start" x="1007.02" y="-446.38" font-family="sans-serif" font-size="12.00">U</text>
</g>
<!-- InventoryContext -->
<g id="node7" class="node">
<title>InventoryContext</title>
<polygon fill="none" stroke="black" stroke-width="2" points="1020.44,-370.48 1014.73,-372.63 1008.78,-374.68 1002.63,-376.63 996.3,-378.46 989.8,-380.17 983.16,-381.76 976.41,-383.21 969.57,-384.53 962.67,-385.69 955.72,-386.71 948.74,-387.57 941.76,-388.27 934.81,-388.81 927.89,-389.19 921.03,-389.4 914.24,-389.45 907.55,-389.34 900.97,-389.06 894.51,-388.63 888.19,-388.03 882.02,-387.29 876.01,-386.39 870.18,-385.35 864.53,-384.17 859.08,-382.86 853.83,-381.42 848.79,-379.86 843.97,-378.18 839.37,-376.41 835,-374.53 830.86,-372.57 826.95,-370.53 823.29,-368.42 819.88,-366.24 816.71,-364.02 813.79,-361.74 811.12,-359.43 808.72,-357.1 806.57,-354.74 804.68,-352.37 803.05,-350 801.69,-347.63 800.59,-345.28 799.76,-342.94 799.21,-340.62 798.93,-338.34 798.93,-336.09 799.2,-333.88 799.76,-331.72 800.59,-329.61 801.72,-327.55 803.13,-325.55 804.82,-323.61 806.81,-321.74 809.08,-319.92 811.65,-318.18 814.51,-316.51 817.65,-314.91 821.08,-313.37 824.8,-311.92 828.8,-310.53 833.08,-309.22 837.64,-307.99 842.46,-306.83 847.54,-305.75 852.87,-304.74 858.45,-303.81 864.26,-302.96 870.29,-302.18 876.53,-301.49 882.97,-300.87 889.58,-300.33 896.35,-299.87 903.27,-299.49 910.31,-299.2 917.46,-298.98 924.7,-298.86 931.99,-298.81 939.33,-298.86 946.68,-298.99 954.02,-299.22 961.32,-299.53 968.57,-299.94 975.73,-300.45 982.79,-301.05 989.7,-301.74 996.45,-302.54 1003.02,-303.44 1009.37,-304.43 1015.48,-305.53 1021.34,-306.73 1026.9,-308.03 1032.16,-309.43 1037.1,-310.92 1041.68,-312.52 1045.9,-314.21 1049.74,-316 1053.17,-317.88 1056.2,-319.84 1058.8,-321.89 1060.97,-324.03 1062.7,-326.23 1063.98,-328.51 1064.8,-330.84 1065.17,-333.24 1065.09,-335.69 1064.55,-338.18 1063.56,-340.7 1062.13,-343.25 1060.27,-345.82 1057.97,-348.4 1055.26,-350.98 1052.15,-353.56 1048.65,-356.11 1044.77,-358.63 1040.54,-361.12 1035.97,-363.55 1031.09,-365.93 1025.9,-368.25 1020.44,-370.48"/>
<text text-anchor="middle" x="923.93" y="-336.81" font-family="sans-serif" font-size="16.00">InventoryContext</text>
</g>
<!-- IdentityContext&#45;&gt;InventoryContext -->
<g id="edge6" class="edge">
<title>IdentityContext&#45;&gt;InventoryContext</title>
<path fill="none" stroke="black" stroke-width="2" d="M923.93,-438.24C923.93,-422.81 923.93,-405.36 923.93,-389.58"/>
<text text-anchor="middle" x="999.43" y="-410.68" font-family="sans-serif" font-size="12.00"> &#160;&#160;&#160;&#160;&#160;&#160;&#160;&#160;&#160;&#160;&#160;&#160;&#160;&#160;&#160;&#160;&#160;&#160;&#160;&#160;&#160;&#160;&#160;&#160;&#160;&#160;&#160;&#160;&#160;&#160;&#160;&#160;&#160;&#160;&#160;&#160;&#160;&#160;&#160;</text>
<polygon fill="white" stroke="transparent" points="904.93,-379.58 904.93,-398.58 920.93,-398.58 920.93,-379.58 904.93,-379.58"/>
<polyline fill="none" stroke="black" points="920.93,-379.58 920.93,-398.58 "/>
<text text-anchor="start" x="907.93" y="-385.98" font-family="sans-serif" font-size="12.00">D</text>
<polygon fill="white" stroke="transparent" points="920.93,-379.58 920.93,-398.58 942.93,-398.58 942.93,-379.58 920.93,-379.58"/>
<polygon fill="none" stroke="black" points="920.93,-379.58 920.93,-398.58 942.93,-398.58 942.93,-379.58 920.93,-379.58"/>
<text text-anchor="start" x="923.93" y="-385.98" font-family="sans-serif" font-size="12.00">CF</text>
<polygon fill="white" stroke="transparent" points="916.93,-429.24 916.93,-446.24 930.93,-446.24 930.93,-429.24 916.93,-429.24"/>
<text text-anchor="start" x="918.93" y="-434.64" font-family="sans-serif" font-size="12.00">U</text>
</g>
<!-- ReportingContext -->
<g id="node8" class="node">
<title>ReportingContext</title>
<polygon fill="none" stroke="black" stroke-width="2" points="1473.86,-380.39 1466.04,-379.18 1458.43,-377.87 1451.05,-376.46 1443.94,-374.96 1437.13,-373.37 1430.64,-371.7 1424.5,-369.96 1418.74,-368.14 1413.38,-366.26 1408.43,-364.32 1403.92,-362.33 1399.87,-360.29 1396.28,-358.21 1393.16,-356.1 1390.53,-353.96 1388.4,-351.79 1386.75,-349.6 1385.61,-347.41 1384.95,-345.2 1384.79,-343 1385.12,-340.79 1385.91,-338.6 1387.18,-336.42 1388.89,-334.26 1391.05,-332.12 1393.63,-330.01 1396.61,-327.93 1399.97,-325.89 1403.7,-323.89 1407.78,-321.94 1412.17,-320.03 1416.86,-318.18 1421.83,-316.39 1427.05,-314.65 1432.49,-312.98 1438.13,-311.38 1443.95,-309.84 1449.93,-308.39 1456.04,-307.01 1462.26,-305.7 1468.56,-304.49 1474.93,-303.36 1481.35,-302.31 1487.8,-301.36 1494.26,-300.51 1500.71,-299.75 1507.14,-299.09 1513.54,-298.53 1519.88,-298.08 1526.17,-297.73 1532.39,-297.49 1538.52,-297.36 1544.57,-297.34 1550.52,-297.43 1556.37,-297.63 1562.11,-297.94 1567.73,-298.37 1573.24,-298.91 1578.63,-299.57 1583.89,-300.34 1589.02,-301.22 1594.03,-302.21 1598.9,-303.32 1603.63,-304.53 1608.22,-305.85 1612.66,-307.27 1616.96,-308.79 1621.11,-310.41 1625.1,-312.12 1628.92,-313.92 1632.58,-315.81 1636.07,-317.78 1639.37,-319.82 1642.49,-321.94 1645.4,-324.12 1648.11,-326.35 1650.6,-328.64 1652.87,-330.98 1654.89,-333.35 1656.67,-335.75 1658.19,-338.18 1659.43,-340.62 1660.39,-343.07 1661.05,-345.52 1661.41,-347.96 1661.44,-350.39 1661.15,-352.8 1660.52,-355.17 1659.53,-357.5 1658.19,-359.79 1656.48,-362.02 1654.4,-364.19 1651.95,-366.29 1649.11,-368.32 1645.89,-370.26 1642.29,-372.11 1638.31,-373.87 1633.94,-375.52 1629.21,-377.07 1624.11,-378.51 1618.65,-379.83 1612.85,-381.03 1606.72,-382.11 1600.27,-383.06 1593.53,-383.88 1586.5,-384.57 1579.23,-385.12 1571.71,-385.54 1563.99,-385.83 1556.09,-385.98 1548.04,-386 1539.86,-385.88 1531.59,-385.63 1523.26,-385.26 1514.9,-384.75 1506.55,-384.11 1498.23,-383.36 1489.99,-382.48 1481.86,-381.49 1473.86,-380.39"/>
<text text-anchor="middle" x="1530.93" y="-336.81" font-family="sans-serif" font-size="16.00">ReportingContext</text>
</g>
<!-- IdentityContext&#45;&gt;ReportingContext -->
<g id="edge7" class="edge">
<title>IdentityContext&#45;&gt;ReportingContext</title>
<path fill="none" stroke="black" stroke-width="2" d="M1055.4,-474.82C1145.74,-467.33 1267.56,-451.91 1370.93,-420.28 1403.64,-410.28 1437.92,-394.25 1466.32,-379.27"/>
<text text-anchor="middle" x="1478.43" y="-410.68" font-family="sans-serif" font-size="12.00"> &#160;&#160;&#160;&#160;&#160;&#160;&#160;&#160;&#160;&#160;&#160;&#160;&#160;&#160;&#160;&#160;&#160;&#160;&#160;&#160;&#160;&#160;&#160;&#160;&#160;&#160;&#160;&#160;&#160;&#160;&#160;&#160;&#160;&#160;&#160;&#160;&#160;&#160;&#160;</text>
<polygon fill="white" stroke="transparent" points="1447.32,-369.27 1447.32,-388.27 1463.32,-388.27 1463.32,-369.27 1447.32,-369.27"/>
<polyline fill="none" stroke="black" points="1463.32,-369.27 1463.32,-388.27 "/>
<text text-anchor="start" x="1450.32" y="-375.67" font-family="sans-serif" font-size="12.00">D</text>
<polygon fill="white" stroke="transparent" points="1463.32,-369.27 1463.32,-388.27 1485.32,-388.27 1485.32,-369.27 1463.32,-369.27"/>
<polygon fill="none" stroke="black" points="1463.32,-369.27 1463.32,-388.27 1485.32,-388.27 1485.32,-369.27 1463.32,-369.27"/>
<text text-anchor="start" x="1466.32" y="-375.67" font-family="sans-serif" font-size="12.00">CF</text>
<polygon fill="white" stroke="transparent" points="1048.4,-465.82 1048.4,-482.82 1062.4,-482.82 1062.4,-465.82 1048.4,-465.82"/>
<text text-anchor="start" x="1050.4" y="-471.22" font-family="sans-serif" font-size="12.00">U</text>
</g>
<!-- InventoryContext&#45;&gt;CatalogContext -->
<g id="edge9" class="edge">
<title>InventoryContext&#45;&gt;CatalogContext</title>
<path fill="none" stroke="black" stroke-width="2" d="M923.93,-298.59C923.93,-281.23 923.93,-260.9 923.93,-242.87"/>
<text text-anchor="middle" x="999.43" y="-264.35" font-family="sans-serif" font-size="12.00"> &#160;&#160;&#160;&#160;&#160;&#160;&#160;&#160;&#160;&#160;&#160;&#160;&#160;&#160;&#160;&#160;&#160;&#160;&#160;&#160;&#160;&#160;&#160;&#160;&#160;&#160;&#160;&#160;&#160;&#160;&#160;&#160;&#160;&#160;&#160;&#160;&#160;&#160;&#160;</text>
<polygon fill="white" stroke="transparent" points="900.93,-232.87 900.93,-251.87 916.93,-251.87 916.93,-232.87 900.93,-232.87"/>
<polyline fill="none" stroke="black" points="916.93,-232.87 916.93,-251.87 "/>
<text text-anchor="start" x="903.93" y="-239.27" font-family="sans-serif" font-size="12.00">D</text>
<polygon fill="white" stroke="transparent" points="916.93,-232.87 916.93,-251.87 946.93,-251.87 946.93,-232.87 916.93,-232.87"/>
<polygon fill="none" stroke="black" points="916.93,-232.87 916.93,-251.87 946.93,-251.87 946.93,-232.87 916.93,-232.87"/>
<text text-anchor="start" x="919.93" y="-239.27" font-family="sans-serif" font-size="12.00">ACL</text>
<polygon fill="white" stroke="transparent" points="888.93,-288.59 888.93,-307.59 904.93,-307.59 904.93,-288.59 888.93,-288.59"/>
<polyline fill="none" stroke="black" points="904.93,-288.59 904.93,-307.59 "/>
<text text-anchor="start" x="891.93" y="-294.99" font-family="sans-serif" font-size="12.00">U</text>
<polygon fill="white" stroke="transparent" points="904.93,-288.59 904.93,-307.59 959.93,-307.59 959.93,-288.59 904.93,-288.59"/>
<polygon fill="none" stroke="black" points="904.93,-288.59 904.93,-307.59 959.93,-307.59 959.93,-288.59 904.93,-288.59"/>
<text text-anchor="start" x="907.93" y="-294.99" font-family="sans-serif" font-size="12.00">OHS, PL</text>
</g>
</g>
</svg>
